<svg viewBox="0 0 17 18" fill="none" xmlns="http://www.w3.org/2000/svg">
  <path
    d="M9.00103 3.91425C8.72441 3.63763 8.27592 3.63763 7.9993 3.91425C7.72267 4.19087 7.72267 4.63937 7.9993 4.91599L11.7484 8.66512H3.54183C3.15063 8.66512 2.8335 8.98225 2.8335 9.37345C2.8335 9.76466 3.15063 10.0818 3.54183 10.0818H11.7484L7.9993 13.8309C7.72267 14.1075 7.72267 14.556 7.9993 14.8327C8.27592 15.1093 8.72441 15.1093 9.00103 14.8327L13.9594 9.87432C14.0977 9.73601 14.1668 9.55473 14.1668 9.37345C14.1668 9.27741 14.1477 9.18583 14.1131 9.10232C14.0785 9.01877 14.0273 8.9405 13.9594 8.87259L9.00103 3.91425Z"
    fill="currentColor"/>
</svg>
