<?xml version="1.0" encoding="utf-8"?>
<!-- Generator: Adobe Illustrator 24.3.0, SVG Export Plug-In . SVG Version: 6.00 Build 0)  -->
<svg version="1.1" id="Layer_1" xmlns="http://www.w3.org/2000/svg" xmlns:xlink="http://www.w3.org/1999/xlink" x="0px" y="0px"
	 viewBox="0 0 419.6 80.1" style="enable-background:new 0 0 419.6 80.1;" xml:space="preserve">
<style type="text/css">
	.st0{fill:#FFFFFF;}
	.st1{fill:#446CA9;}
	.st2{fill:#76C4D5;}
</style>
<path class="st0" d="M104,36.1c3.3,0,5.9-1.3,8-3.9l4.2,4.4c-3.4,3.8-7.3,5.7-11.9,5.7S96,40.9,93,38s-4.4-6.5-4.4-10.9
	s1.5-8.1,4.5-11s6.7-4.4,11.1-4.4c4.9,0,9,1.9,12.2,5.6l-4.1,4.7c-2.1-2.6-4.7-3.9-7.8-3.9c-2.5,0-4.6,0.8-6.4,2.4
	c-1.8,1.6-2.7,3.8-2.7,6.6c0,2.8,0.8,5,2.5,6.7C99.6,35.2,101.6,36.1,104,36.1L104,36.1z M121.5,41.9V12.2h6.6V36h12.7v5.9H121.5z
	 M169.8,37.8c-3,2.9-6.7,4.4-11.1,4.4c-4.4,0-8.1-1.5-11.1-4.4c-3-2.9-4.5-6.6-4.5-10.9s1.5-8,4.5-10.9s6.7-4.4,11.1-4.4
	c4.4,0,8.1,1.5,11.1,4.4s4.5,6.6,4.5,10.9S172.8,34.9,169.8,37.8z M167.5,26.9c0-2.6-0.9-4.9-2.5-6.8c-1.7-1.9-3.8-2.8-6.3-2.8
	s-4.6,0.9-6.3,2.8c-1.7,1.9-2.6,4.1-2.6,6.8c0,2.7,0.9,4.9,2.6,6.8c1.7,1.9,3.8,2.8,6.3,2.8s4.6-0.9,6.3-2.8
	C166.7,31.8,167.5,29.6,167.5,26.9z M187.8,34.3c1.1,1.4,2.6,2.1,4.5,2.1s3.4-0.7,4.4-2.1c1.1-1.4,1.6-3.3,1.6-5.6V12.2h6.6v16.6
	c0,4.3-1.2,7.6-3.6,9.9c-2.4,2.3-5.4,3.5-9.1,3.5c-3.7,0-6.8-1.2-9.2-3.5s-3.6-5.6-3.6-9.9V12.2h6.6v16.4
	C186.1,31,186.7,32.9,187.8,34.3z M234.5,16.1c2.8,2.6,4.3,6.2,4.3,10.8s-1.4,8.3-4.1,11c-2.8,2.7-7,4-12.6,4h-10.3V12.2h10.5
	C227.6,12.2,231.7,13.5,234.5,16.1z M229.7,33.8c1.6-1.5,2.4-3.8,2.4-6.7c0-2.9-0.8-5.2-2.4-6.7c-1.6-1.6-4.1-2.4-7.5-2.4h-3.7v18.1
	h4.2C225.7,36.1,228,35.3,229.7,33.8z M276.5,12.2h6.7v29.7h-6.7l-14.1-18.6v18.6h-6.7V12.2h6.3l14.5,19.2V12.2z M311.6,41.9
	l-2.8-6.4h-12.5l-2.8,6.4h-7.1l12.8-29.7h6.4l12.8,29.7H311.6z M302.7,21.1l-3.7,8.6h7.4L302.7,21.1L302.7,21.1z M332.6,18v23.9
	h-6.7V18h-8.4v-5.8H341V18H332.6z M345.8,12.2h6.6v29.7h-6.6V12.2z M370.7,31.1l7.6-18.9h7.2l-12,29.7h-5.6L356,12.2h7.2L370.7,31.1
	z M410.4,12.2v5.9h-14.8v6.2h13.3v5.6h-13.3v6.2h15.3v5.8H389V12.2H410.4z M96.4,67.2c1.8,0,3.3-0.7,4.5-2.2l2.4,2.5
	c-1.9,2.1-4.1,3.2-6.7,3.2s-4.7-0.8-6.3-2.4c-1.7-1.6-2.5-3.7-2.5-6.1c0-2.5,0.8-4.5,2.5-6.2s3.8-2.5,6.2-2.5c2.7,0,5,1,6.9,3.1
	l-2.3,2.6c-1.2-1.5-2.6-2.2-4.4-2.2c-1.4,0-2.6,0.5-3.6,1.4s-1.5,2.1-1.5,3.7s0.5,2.8,1.4,3.7C93.9,66.8,95.1,67.2,96.4,67.2z
	 M119.8,68.2c-1.7,1.6-3.8,2.5-6.2,2.5s-4.5-0.8-6.2-2.5c-1.7-1.6-2.5-3.7-2.5-6.1c0-2.4,0.8-4.5,2.5-6.1s3.8-2.5,6.2-2.5
	s4.5,0.8,6.2,2.5c1.7,1.6,2.5,3.7,2.5,6.1C122.3,64.5,121.5,66.6,119.8,68.2z M118.6,62.1c0-1.5-0.5-2.8-1.4-3.8
	c-1-1-2.1-1.6-3.5-1.6s-2.6,0.5-3.5,1.6c-1,1-1.4,2.3-1.4,3.8s0.5,2.7,1.4,3.8c1,1,2.1,1.6,3.5,1.6s2.6-0.5,3.5-1.6
	C118.1,64.9,118.6,63.6,118.6,62.1z M140.4,60l-4.5,9.2h-2.2l-4.5-9.2v10.5h-3.7V53.9h5l4.3,9.1l4.3-9.1h5v16.6h-3.7L140.4,60z
	 M159.7,55.4c1.2,1,1.8,2.5,1.8,4.6s-0.6,3.6-1.8,4.5c-1.2,1-3,1.4-5.5,1.4H152v4.6h-3.7V53.9h5.9C156.7,53.9,158.5,54.4,159.7,55.4
	z M157,61.9c0.4-0.5,0.7-1.2,0.7-2.2s-0.3-1.6-0.9-2c-0.6-0.4-1.5-0.6-2.7-0.6H152v5.6h2.5C155.7,62.7,156.5,62.4,157,61.9z
	 M168.8,66.2c0.6,0.8,1.5,1.2,2.5,1.2s1.9-0.4,2.5-1.2c0.6-0.8,0.9-1.8,0.9-3.2v-9.2h3.7v9.3c0,2.4-0.7,4.3-2,5.6
	c-1.3,1.3-3,1.9-5.1,1.9s-3.8-0.7-5.1-2s-2-3.2-2-5.6v-9.3h3.7v9.4C167.9,64.4,168.2,65.5,168.8,66.2L168.8,66.2z M189.3,57.1v13.4
	h-3.7V57.1h-4.7v-3.2H194v3.2H189.3z M196.8,53.9h3.7v16.7h-3.7L196.8,53.9z M216.2,53.9h3.7v16.6h-3.7l-7.9-10.4v10.4h-3.7V53.9
	h3.4l8.2,10.7L216.2,53.9z M234.9,62.1h3.7V68c-1.7,1.8-3.9,2.8-6.9,2.8c-2.4,0-4.5-0.8-6.2-2.4s-2.5-3.7-2.5-6.1
	c0-2.5,0.8-4.5,2.5-6.2s3.7-2.5,6.1-2.5c2.4,0,4.5,0.8,6.2,2.4l-1.9,2.8c-0.7-0.7-1.4-1.1-2.1-1.3c-0.6-0.2-1.3-0.4-2-0.4
	c-1.4,0-2.6,0.5-3.6,1.4c-1,1-1.5,2.2-1.5,3.8s0.5,2.8,1.4,3.8c0.9,0.9,2,1.4,3.3,1.4s2.4-0.2,3.2-0.7
	C234.6,66.8,234.9,62.1,234.9,62.1z M259.6,53.9v3.2h-7.7v3.6h7.4V64h-7.4v6.5h-3.7V53.9H259.6z M276.8,68.2
	c-1.7,1.6-3.8,2.5-6.2,2.5c-2.5,0-4.5-0.8-6.2-2.5c-1.7-1.6-2.5-3.7-2.5-6.1c0-2.4,0.8-4.5,2.5-6.1s3.8-2.5,6.2-2.5
	c2.5,0,4.5,0.8,6.2,2.5c1.7,1.6,2.5,3.7,2.5,6.1C279.3,64.5,278.5,66.6,276.8,68.2z M275.5,62.1c0-1.5-0.5-2.8-1.4-3.8
	c-1-1-2.1-1.6-3.5-1.6s-2.6,0.5-3.5,1.6c-1,1-1.4,2.3-1.4,3.8s0.5,2.7,1.4,3.8c1,1,2.1,1.6,3.5,1.6s2.6-0.5,3.5-1.6
	C275.1,64.9,275.5,63.6,275.5,62.1z M286.9,66.2c0.6,0.8,1.5,1.2,2.5,1.2s1.9-0.4,2.5-1.2c0.6-0.8,0.9-1.8,0.9-3.2v-9.2h3.7v9.3
	c0,2.4-0.7,4.3-2,5.6c-1.3,1.3-3,1.9-5.1,1.9s-3.8-0.7-5.1-2c-1.3-1.3-2-3.2-2-5.6v-9.3h3.7v9.4C285.9,64.4,286.3,65.5,286.9,66.2z
	 M312,53.9h3.7v16.6H312l-7.9-10.4v10.4h-3.7V53.9h3.4l8.2,10.7L312,53.9z M332.5,56.1c1.6,1.5,2.4,3.5,2.4,6.1s-0.8,4.6-2.3,6.1
	s-3.9,2.3-7.1,2.3h-5.7V53.9h5.9C328.7,53.9,331,54.6,332.5,56.1L332.5,56.1z M329.8,66c0.9-0.9,1.4-2.1,1.4-3.7s-0.5-2.9-1.4-3.8
	c-0.9-0.9-2.3-1.3-4.2-1.3h-2.1v10.1h2.4C327.6,67.2,328.9,66.8,329.8,66L329.8,66z M349.5,70.5l-1.5-3.6h-7l-1.5,3.6h-4l7.2-16.7
	h3.6l7.2,16.7H349.5L349.5,70.5z M344.5,58.8l-2.1,4.8h4.2L344.5,58.8z M361.3,57.1v13.4h-3.8V57.1h-4.7v-3.2H366v3.2H361.3z
	 M368.7,53.9h3.7v16.7h-3.7V53.9z M390.5,68.2c-1.7,1.6-3.8,2.5-6.2,2.5c-2.5,0-4.5-0.8-6.2-2.5c-1.7-1.6-2.5-3.7-2.5-6.1
	c0-2.4,0.8-4.5,2.5-6.1s3.8-2.5,6.2-2.5c2.5,0,4.5,0.8,6.2,2.5c1.7,1.6,2.5,3.7,2.5,6.1C393,64.5,392.2,66.6,390.5,68.2z
	 M389.3,62.1c0-1.5-0.5-2.8-1.4-3.8c-1-1-2.1-1.6-3.5-1.6s-2.6,0.5-3.5,1.6c-1,1-1.4,2.3-1.4,3.8s0.5,2.7,1.4,3.8
	c1,1,2.1,1.6,3.5,1.6s2.6-0.5,3.5-1.6C388.8,64.9,389.3,63.6,389.3,62.1z M407.8,53.9h3.8v16.6h-3.8l-7.9-10.4v10.4h-3.7V53.9h3.5
	l8.1,10.7L407.8,53.9z"/>
<path class="st1" d="M17.3,50.8H8.2v21.4h21.3V63H17.3V50.8z M63.1,50.9V63H50.9v-0.1v9.3h21.3V50.8H63L63.1,50.9z M8.2,29.5h9.2
	l-0.1-0.1V17.3h12.2V8.1H8.2V29.5z M50.9,8.1v9.2h12.2v12.2h9.1V8.1H50.9z"/>
<path class="st2" d="M49.7,29.5L37.5,17.3h13.4V8.1H29.5v9.2l12.2,12.2H49.7z M38.7,50.8h-8l10.1,10.1l2,2.1H29.5v9.2h21.4v-9.3
	l-6.1-6L38.7,50.8z M63.1,29.5v13.3L61,40.7L50.9,30.6v8.1l6,6l6.1,6.1h9.2V29.5L63.1,29.5z M29.5,41.6L17.4,29.5H8.2v21.3h9.1V37.5
	l12.2,12.2V41.6z"/>
</svg>
