<?xml version="1.0" encoding="utf-8"?>
<!-- Generator: Adobe Illustrator 23.0.3, SVG Export Plug-In . SVG Version: 6.00 Build 0)  -->
<svg version="1.1" xmlns="http://www.w3.org/2000/svg" xmlns:xlink="http://www.w3.org/1999/xlink" x="0px" y="0px"
	 viewBox="0 0 1600 1200" style="enable-background:new 0 0 1600 1200;" xml:space="preserve">
<style type="text/css">
	.st0{fill:#E8E8E8;}
	.st1{fill:none;stroke:#E8E8E8;stroke-miterlimit:10;}
	.st2{fill:#5222D0;}
	.st3{fill:#EC615B;}
	.st4{fill:#FFFFFF;stroke:#000000;stroke-width:3;stroke-miterlimit:10;}
	.st5{fill:#FFFFFF;}
	.st6{opacity:0.22;fill:#969696;}
	.st7{opacity:0.21;fill:#9E9E9E;}
	.st8{opacity:0.11;fill:#686868;}
	.st9{opacity:0.17;fill:#8E8E8E;}
	.st10{opacity:0.18;fill:#8E8E8E;}
	.st11{opacity:0.13;fill:#898989;}
	.st12{opacity:0.18;fill:#A5A4A4;}
	.st13{opacity:0.18;fill:#969696;}
	.st14{opacity:0.22;fill:#898989;}
	.st15{opacity:0.24;fill:#898989;}
	.st16{opacity:0.29;fill:#898989;}
</style>
<g id="background">
	<g>
		<g>
			<path class="st0" d="M857.7,827.5c-6.6-6-12.2-12.9-16.6-20.7c-2.3-4.1-4.2-8.3-5.7-12.7c-0.7-2-1.4-4.1-1.9-6.2
				c-0.5-1.9-0.6-3.8-0.2-5.7c1.4-3.2,3.4-3.9,6.1-2.1c1.1,1.2,3.3-0.4,2.4-1.8c-7.3-10.3-12.7-21.7-15.8-34
				c-0.7-2.8-1.3-5.6-1.8-8.5c-0.4-2.7-0.3-5.9-1-8.6c-1.5-5.4-5.5-10.9-7.9-16c-11.4-23.7-21-49.6-17-76.3
				c-0.9,0.1-1.8,0.2-2.7,0.4c19.7,25.8,35.1,54.5,45.6,85.2c0.6,1.8,3.4,1.1,2.9-0.8c-1.1-4.4-1.6-8.6-1.4-13.1
				c-0.6,0.5-1.3,1-1.9,1.4c3.1,0.5,4.9,2.3,5.4,5.4c0.3,1.7,2.9,1.2,2.9-0.4c0.1-5.3,0.3-10.7,0.4-16c-0.9,0.3-1.9,0.5-2.8,0.8
				c16.4,25.2,29.3,52.4,38.4,81c0.5,1.5,2.4,1.4,2.9,0c0.8-2.3,1.6-4.7,2.5-7c-0.7,0.3-1.5,0.6-2.2,0.9c9.6,6.9,14.8,18,14.2,29.7
				c-0.1,1.9,2.9,1.9,3,0c0.6-12.9-5.3-24.8-15.7-32.3c-0.8-0.6-1.9,0.1-2.2,0.9c-0.8,2.3-1.6,4.7-2.5,7c1,0,1.9,0,2.9,0
				c-9.1-28.9-22.1-56.4-38.7-81.7c-0.8-1.2-2.8-0.8-2.8,0.8c-0.1,5.3-0.3,10.7-0.4,16c1-0.1,2-0.3,2.9-0.4c-0.7-4-3.5-6.9-7.5-7.5
				c-1-0.2-1.9,0.4-1.9,1.4c-0.2,4.8,0.3,9.3,1.5,13.9c1-0.3,1.9-0.5,2.9-0.8c-10.6-30.9-26.1-59.9-45.9-85.9
				c-0.7-0.9-2.5-1.1-2.7,0.4c-3.9,26,4.5,51.1,15.3,74.4c2.8,6.1,6.5,12,8.9,18.1c2.2,5.5,2,12.5,3.5,18.3
				c3.2,12.5,8.7,24.2,16.1,34.7c0.8-0.6,1.6-1.2,2.4-1.8c-2.6-2.9-7-2.4-9.5,0.4c-4,4.4-1.2,11.7,0.4,16.5
				c4.7,13.3,12.7,25.2,23.1,34.7C857,830.9,859.1,828.8,857.7,827.5L857.7,827.5z"/>
		</g>
	</g>
	<g>
		<g>
			<path class="st0" d="M570.6,789.3c-4.9-3.7-9.3-8-12.9-13c-1.4-1.9-2.7-4-3.9-6c-0.6-1.2-1.3-2.3-1.8-3.5c-0.5-1-4.8-12.6,1.1-10
				c1.3,0.6,2.8-0.6,2.1-2.1c-1.3-2.4-12.4-19.6-6.6-21c1-0.2,1.3-1.4,0.9-2.2c-9.2-16.7-15.7-34.6-19.6-53.3
				c-0.3,0.6-0.7,1.2-1,1.8c7.9-1.4,11.8,11,14.4,16.5c3.2,6.8,6.4,13.6,9.7,20.3c6.6,13.9,13.1,27.7,19.7,41.6
				c0.8,1.6,3.1,0.4,2.7-1.2c-0.7-3.2-0.6-6,0.3-9.2c-0.8,0.2-1.7,0.4-2.5,0.7c5.1,4.1,9.2,8.8,12.6,14.5c0.7,1.2,2.3,0.8,2.7-0.4
				c3.2-0.8,5.3-0.1,6.4,2.2c0.5,0.9,1,1.9,1.5,2.8c1.2,2.2,2.3,4.4,3.5,6.5c2.3,4.4,4.6,8.7,6.9,13.1c0.9,1.7,3.5,0.2,2.6-1.5
				c-2.3-4.4-4.6-8.7-6.9-13.1c-2-3.8-3.8-8.5-6.7-11.8c-3-3.4-8.3-3.8-10.2,0.9c0.9-0.1,1.8-0.2,2.7-0.4
				c-3.5-5.8-7.8-10.8-13.1-15.1c-0.9-0.7-2.2-0.5-2.5,0.7c-1,3.7-1.1,7.1-0.3,10.8c0.9-0.4,1.8-0.8,2.7-1.2
				c-7.9-16.8-15.9-33.7-23.9-50.5c-3.6-7.5-6.6-16-11.3-22.9c-2.9-4.2-6.6-7.4-12-6.4c-0.8,0.1-1.2,1.1-1,1.8
				c3.9,18.9,10.6,37.1,19.9,54c0.3-0.7,0.6-1.5,0.9-2.2c-10.7,2.7,2.6,21.3,4.8,25.4c0.7-0.7,1.4-1.4,2.1-2.1
				c-2.6-1.1-5.3-0.5-6.9,2c-2.3,3.6-0.2,8.1,1.4,11.4c4.5,9.7,11.5,17.9,20,24.4C570.6,793.1,572.1,790.5,570.6,789.3L570.6,789.3z
				"/>
		</g>
	</g>
	<g>
		<g>
			<path class="st0" d="M164,362.9c11.9-13.6,30.6-4.7,43.9,1.2c12.2,5.4,26.2,9.7,38.4,1.9c11.6-7.5,18.1-20.5,32.4-23.7
				c17.2-3.9,33.6,4.8,47.6,13.7c1.6,1,3.1-1.6,1.5-2.6c-13.6-8.6-28.9-16.6-45.5-14.8c-6.8,0.8-13.1,3.2-18.5,7.4
				c-5.4,4.2-9.8,9.7-15,14.2c-15.8,13.6-32.9,3.7-49.2-3c-12.2-5.1-28-7.6-37.8,3.6C160.6,362.3,162.7,364.4,164,362.9L164,362.9z"
				/>
		</g>
	</g>
	<g>
		<g>
			<path class="st0" d="M121.9,548.3c6.3-6.7,15.7,0.7,20.5,5.4c4.2,4.1,9,9,15.2,9.6c5.5,0.6,9.9-2.4,13.7-6.1
				c5.4-5.2,10.3-9.8,17.8-11.9c7.5-2,15.8-1.5,22.9,2c5.6,2.8,10.7,8.2,17.4,7.6c5.9-0.5,9.4-5.7,13.1-9.6c6-6.4,14.8-9.7,23.6-8.6
				c14.7,1.8,27.6,14.5,43,9.9c1.8-0.5,1.1-3.4-0.8-2.9c-14.7,4.3-27.6-8.3-41.8-10c-6.6-0.8-13.4,0.6-19.1,3.9
				c-2.8,1.6-5.3,3.7-7.5,6.1c-2.6,2.8-5.1,6.6-8.8,7.9c-7.3,2.5-15.3-6.4-21.9-8.6c-6-2-12.5-2.3-18.7-1c-6,1.2-11.5,4-16.1,8
				c-6.3,5.7-12.1,13.9-21.5,8.5c-8.7-4.9-21.9-24.4-33.1-12.3C118.4,547.6,120.5,549.8,121.9,548.3L121.9,548.3z"/>
		</g>
	</g>
	<g>
		<g>
			<path class="st0" d="M233.9,521.9c5.5-4.4,11.9-9.2,19.1-9.8c6.6-0.5,11.9,3.1,17,6.8c7,5,16.8,11.1,25.2,5.3
				c2.6-1.8,4.5-5,7.6-5.9c4.4-1.3,8.7,1.8,12,4.2c3.7,2.8,7.3,5.9,12,6.7c5.9,1,12.3-1.4,18.1-2.7c7.1-1.6,14.2-3.2,21.3-4.8
				c1.9-0.4,1.1-3.3-0.8-2.9c-7.4,1.7-14.9,3.4-22.3,5.1c-7.7,1.7-14.9,4.3-22-0.5c-4.8-3.2-9.1-7.8-15.2-8.3
				c-4.7-0.4-7.3,2.1-10.5,5c-11.7,10.5-23.5-6.2-34.2-9.9c-10.9-3.9-21.2,2.9-29.4,9.5C230.3,521,232.4,523.1,233.9,521.9
				L233.9,521.9z"/>
		</g>
	</g>
	<g>
		<g>
			<path class="st0" d="M1340.2,443.9c2.7-8.7,13.3-6,19.1-2.8c5.5,3,10.7,7.2,17.2,7.9c5.4,0.6,9.8-1.8,14.4-4.4
				c7.1-4.1,15-5.8,23-3.3c5.2,1.6,9.6,5.9,15.2,6.3c5.4,0.5,9.4-3.1,13.7-5.8c11.3-7.1,23.5,2.8,35.6-0.2c1.9-0.5,1.1-3.4-0.8-2.9
				c-12.5,3.1-24.2-7.1-36.3,0.5c-2.7,1.7-5.3,4-8.4,5c-4.7,1.5-8.6-1.4-12.6-3.5c-5.5-2.8-11.4-4.2-17.6-3.5
				c-6.5,0.7-11.2,3.9-16.9,6.8c-9.5,4.8-16.8-1.1-24.9-5.5c-7.7-4.2-20.2-6-23.5,4.6C1336.8,444.9,1339.7,445.7,1340.2,443.9
				L1340.2,443.9z"/>
		</g>
	</g>
	<g>
		<g>
			<path class="st0" d="M1390.7,431.4c4.5-4.2,9.4-8.7,15.3-10.7c5.5-1.9,11-0.8,16.3,1.1c8.4,3.1,16.7,8.5,26.1,7.1
				c8.6-1.3,17.4-10.7,26.3-8.2c4.6,1.3,7.4,5,12.5,5.5c5.3,0.5,10.5-1.2,15.4-2.9c1.8-0.6,1-3.5-0.8-2.9
				c-6.3,2.2-13.4,4.7-19.7,1.1c-3.8-2.2-6.7-4.5-11.4-4c-10.3,1-17.8,10.2-28.8,8.5c-9.5-1.5-17.5-8.1-27.2-9.1
				c-10.6-1.1-18.8,5.8-26.1,12.5C1387.2,430.6,1389.3,432.7,1390.7,431.4L1390.7,431.4z"/>
		</g>
	</g>
	<g>
		<g>
			<path class="st0" d="M419.9,126.2c2.2-8,12.6-6.7,18.5-4.2c5.9,2.6,11.5,6.4,18.2,6.5c12.6,0.3,22.4-12.8,35-10.6
				c5.9,1,10.7,5.4,16.7,6.1c6.7,0.8,10.6-4.1,15.7-7.5c6-4,13.5-5.5,20.7-4.7c3.7,0.4,7.3,1.5,10.5,3.2c3,1.5,5.5,3.9,8.6,5.3
				c6.1,2.7,10.1-1,15-4.2c9.6-6.2,20,1.8,27.2,8.1c1.4,1.3,3.6-0.8,2.1-2.1c-5.4-4.8-11.6-9.7-18.9-11c-7.2-1.3-11,2.5-16.8,5.8
				c-5.2,3-8.9-0.3-13.2-3c-2.8-1.8-5.8-3.1-9-4c-6.1-1.7-12.7-1.7-18.8,0c-3.2,0.9-6.2,2.2-9,4c-3.4,2.2-6.4,5.9-10.5,6.9
				c-7.3,1.8-14.1-5.4-21.3-6.1c-14.5-1.3-25.1,14.7-39.9,9.6c-7.3-2.5-13.7-7.9-21.9-7.4c-5.4,0.3-10.4,2.9-11.8,8.4
				C416.5,127.3,419.3,128.1,419.9,126.2L419.9,126.2z"/>
		</g>
	</g>
	<g>
		<g>
			<path class="st0" d="M559.5,97.3c5.2-4.5,12.1-6.3,18.8-4.8c5.8,1.3,9.2,5.5,14.2,8.2c7.9,4.2,14.6-1,21-5.4
				c4.7-3.2,9.4-5.6,14.9-3c4.5,2.1,8.1,4.8,13.3,4.6c11.5-0.4,23.7-14.7,35-6.8c1.6,1.1,3.1-1.5,1.5-2.6
				c-10.7-7.5-21.9,2.7-32.1,5.6c-4.5,1.3-8.1,0.8-12.3-1.3c-2.5-1.3-4.7-2.8-7.5-3.4c-4-0.9-7.8,0.4-11.3,2.4
				c-4.2,2.4-7.9,6.1-12.5,7.8c-7.3,2.7-11.5-3.5-17.1-6.6c-9-5.1-20.3-3.4-27.9,3.2C555.9,96.4,558,98.5,559.5,97.3L559.5,97.3z"/>
		</g>
	</g>
	<circle class="st1" cx="724.6" cy="428.6" r="15.7"/>
	<circle class="st1" cx="227.5" cy="695.9" r="12.8"/>
	<circle class="st1" cx="970.6" cy="71.8" r="10.7"/>
	<circle class="st2" cx="457.7" cy="222.6" r="6.2"/>
	<circle class="st2" cx="725.4" cy="596" r="13.6"/>
	<circle class="st2" cx="1320.4" cy="160.9" r="10.5"/>
	<circle class="st2" cx="253.4" cy="686.7" r="8.4"/>
	<circle class="st2" cx="957.2" cy="552.9" r="4.5"/>
	<circle class="st3" cx="806.4" cy="332.8" r="10.6"/>
	<circle class="st3" cx="869.3" cy="135.3" r="8.2"/>
	<g>
		<g>
			<path class="st3" d="M849.4,246.7c2.8-3,6.8-3.8,10.4-1.8c1.9,1,3.4,2.6,5.5,3.3c3.2,1.1,6.3-0.1,9.2-1.6
				c5.6-2.9,9.3-5.7,15.5-2.2c3.3,1.9,6.7,3.8,10.6,2.4c5.2-1.9,8-6.1,14-6.6c3.4-0.3,6.8,0.4,9.8,2c1.9,1,3.6,2.5,5.7,3.1
				c3.5,1.1,5.8-0.4,8.5-2.5c5.7-4.4,12.6-5.2,18.9-1.5c1.7,1,3.2-1.6,1.5-2.6c-4.1-2.4-8.6-3.4-13.3-2.6c-2.4,0.4-4.8,1.3-6.9,2.7
				c-3.1,2-4.8,5-9.4,3c-4.7-2.1-8-4.6-13.4-4.6c-5.7,0-9.5,2.4-14.1,5.4c-6.7,4.3-10.3-2.5-16.6-3.1c-4.2-0.4-7.7,2-11.2,4
				c-3.4,1.9-6.3,2.9-9.9,0.9c-2.1-1.2-3.8-2.8-6.2-3.3c-4-0.8-7.9,0.7-10.7,3.6C845.9,245.9,848,248.1,849.4,246.7L849.4,246.7z"/>
		</g>
	</g>
	<g>
		<g>
			<path class="st3" d="M903.6,229.4c3.6-2.7,8-4,12.5-2.9c3,0.7,5.1,2.8,8,3.9c5,1.8,8.6-1.3,12.7-3.8c4.3-2.6,6.7-2.1,11,0.2
				c2.5,1.4,4.7,2.1,7.7,1.9c5.6-0.4,16.5-7.5,20,0.3c0.8,1.8,3.4,0.2,2.6-1.5c-2.2-4.8-7.9-5.6-12.6-4.6
				c-5.8,1.3-10.2,4.4-16.2,1.3c-2.9-1.5-5.2-3.3-8.6-2.6c-2.8,0.5-5.1,2.3-7.4,3.8c-1.6,1-3.3,2.4-5.2,2.5
				c-2.8,0.2-4.9-1.7-7.3-2.9c-6-3-13.2-2.1-18.5,1.8C900.6,228,902.1,230.6,903.6,229.4L903.6,229.4z"/>
		</g>
	</g>
	<g>
		<g>
			<path class="st3" d="M221.4,297.5c6.5-4.1,13.9-2.3,20.4,1c4.7,2.4,9,7,14.1,8.3c10.5,2.7,12.1-12.5,20.7-15.1
				c10-3,17.1,10.1,26.5,3.1c5.3-3.9,9.6-6.3,16.4-5.9c6.3,0.4,12.3,2.5,18.1,4.7c1.8,0.7,2.6-2.2,0.8-2.9
				c-9.5-3.6-21.1-7.4-30.9-2.7c-2.5,1.2-4.2,3-6.4,4.5c-4.1,2.8-6.9,1.2-10.8-1c-4.2-2.4-8.3-4-13.2-3c-4.4,0.9-7.9,3.5-10.4,7.1
				c-1.5,2.1-2.6,4.8-4.5,6.7c-4.2,3.9-8.4,0.3-12-2.2c-8.8-6-20.4-11.5-30.5-5.2C218.3,296,219.8,298.6,221.4,297.5L221.4,297.5z"
				/>
		</g>
	</g>
</g>
<g id="paper">
	<path class="st4" d="M238.3,986.1c7,8.8,18.6,22.4,34.5,37.1c37.5,34.9,87,65,280.2,124.4c17.2,5.3,40.8,12.4,69.1,20.6
		c17.8-13,45.7-32.7,81.2-54.5c56.3-34.6,80.4-43.3,112-63.9c31.1-20.3,73.4-54.8,114.1-115.4c-67.1-14.3-139.7-33.6-216.2-59.7
		c-37.2-12.7-72.6-26.1-106.1-39.8C484.2,885.3,361.3,935.7,238.3,986.1z"/>
	<g>
		<g>
			<path d="M552.4,1025.5c5.5-9.7,13.7-17,23.9-21.6c1.8-0.8,0.2-3.4-1.5-2.6c-10.6,4.7-19.2,12.5-25,22.6
				C548.8,1025.7,551.4,1027.2,552.4,1025.5L552.4,1025.5z"/>
		</g>
	</g>
	<g>
		<g>
			<path d="M550.8,1026.4c3.4,3.9,8.6,2.5,12-0.6c2.9-2.6,5.1-6,7.7-8.8c3.1-3.3,6.5-6.3,10.1-9.2c1.5-1.2-0.6-3.3-2.1-2.1
				c-4,3.2-7.8,6.6-11.2,10.4c-3,3.3-9.4,13.6-14.3,8.1C551.6,1022.8,549.5,1025,550.8,1026.4L550.8,1026.4z"/>
		</g>
	</g>
	<g>
		<g>
			<path d="M575.9,1003.7c1.2,1,2.5,2.1,3.7,3.1c0.6,0.5,1.5,0.6,2.1,0c0.5-0.5,0.6-1.6,0-2.1c-1.2-1-2.5-2.1-3.7-3.1
				c-0.6-0.5-1.5-0.6-2.1,0C575.4,1002.1,575.3,1003.2,575.9,1003.7L575.9,1003.7z"/>
		</g>
	</g>
	<g>
		<g>
			<path d="M554.5,1015.8c-1.7-1.7-1.7-3.2,0-4.4c0.8-0.8,1.7-1.5,2.6-2.1c1.2-0.9,2.4-1.8,3.5-2.7c1.8-1.3,7.6-6.7,9-2.6
				c0.6,1.8,3.5,1,2.9-0.8c-2.9-8.3-12.1-0.1-15.8,2.7c-2.6,2-6.5,4.2-6.8,7.9c-0.2,2.5,1.3,4.6,3.7,5.1
				C555.6,1019,556.4,1016.1,554.5,1015.8L554.5,1015.8z"/>
		</g>
	</g>
	<g>
		<g>
			<path d="M560.8,1027.9c6.6,6.1,9.4,14.7,14.7,21.7c4.3,5.7,10.1,10.2,16.7,13c14.7,6.3,31.5,3,43.4-7.6c1.4-1.3-0.7-3.4-2.1-2.1
				c-12.2,10.8-29.9,13.1-44.1,4.9c-6.5-3.7-11.2-9.1-15-15.6c-3.4-5.9-6.3-11.9-11.4-16.5C561.5,1024.5,559.4,1026.6,560.8,1027.9
				L560.8,1027.9z"/>
		</g>
	</g>
	<g>
		<g>
			<path d="M579.3,1010.2c7.3,0.2,14.6,0.4,21.9,0.6c7.7,0.2,15.2,0.9,21.8,5.3c11.6,7.8,20.7,24.3,10.5,36.9
				c-1.2,1.5,0.9,3.6,2.1,2.1c9.7-11.9,4.6-27.7-5.7-37.4c-13.7-12.7-33.2-10.1-50.5-10.5C577.3,1007.2,577.4,1010.2,579.3,1010.2
				L579.3,1010.2z"/>
		</g>
	</g>
	<g>
		<g>
			<path d="M569.4,1017.6c6.8,3.6,13.5,7.4,19.9,11.6c6.9,4.5,9.1,12.8,12.3,20c0.8,1.8,3.4,0.2,2.6-1.5
				c-2.8-6.2-4.9-14.7-10.5-19.1c-6.8-5.4-15.1-9.6-22.8-13.6C569.2,1014.1,567.7,1016.7,569.4,1017.6L569.4,1017.6z"/>
		</g>
	</g>
	<g>
		<g>
			<path d="M594.6,1030.9c6.9-0.7,13.8-1.4,20.7-2.1c1.9-0.2,1.9-3.2,0-3c-6.9,0.7-13.8,1.4-20.7,2.1
				C592.7,1028.1,592.7,1031.1,594.6,1030.9L594.6,1030.9z"/>
		</g>
	</g>
	<g>
		<g>
			<path d="M594.9,1032.4c5.7,1.7,11.2,4,16.4,6.8c1.7,0.9,3.2-1.7,1.5-2.6c-5.4-3-11.1-5.4-17.1-7.1
				C593.9,1029,593.1,1031.9,594.9,1032.4L594.9,1032.4z"/>
		</g>
	</g>
	<path class="st3" d="M409.6,997.7c7.6,4.8,19.1,11.1,34.1,15.1c14.9,4,48.5,12.9,73.1-6.4c19.3-15.1,23.2-40,22.2-40.5
		c-0.8-0.4-4.8,15.9-19.1,24.6c-13.7,8.4-27.6,4-47.6,2.4C457.4,991.7,436.1,991.7,409.6,997.7z"/>
	<g>
		<g>
			<path d="M765,981.2c8.6-6.4,17.1-12.8,25.7-19.3c1.5-1.1,0-3.8-1.5-2.6c-8.6,6.4-17.1,12.8-25.7,19.3
				C761.9,979.7,763.4,982.3,765,981.2L765,981.2z"/>
		</g>
	</g>
	<g>
		<g>
			<path d="M770.5,1004.1c24-19.7,48.1-39.5,72.1-59.2c1.5-1.2-0.6-3.3-2.1-2.1c-24,19.7-48.1,39.5-72.1,59.2
				C766.9,1003.2,769.1,1005.3,770.5,1004.1L770.5,1004.1z"/>
		</g>
	</g>
	<g>
		<g>
			<path d="M820.1,987.4c7.2-7.7,14.9-14.7,23.3-21.1c1.5-1.2,0-3.8-1.5-2.6c-8.6,6.5-16.5,13.7-23.9,21.6
				C816.6,986.7,818.7,988.8,820.1,987.4L820.1,987.4z"/>
		</g>
	</g>
	<g>
		<g>
			<path d="M624.4,951.8c29.6-17.4,58.2-36.4,85.5-57c1.5-1.1,0-3.8-1.5-2.6c-27.4,20.6-56,39.7-85.5,57
				C621.2,950.2,622.7,952.8,624.4,951.8L624.4,951.8z"/>
		</g>
	</g>
	<g>
		<g>
			<path d="M611,943c12-6.4,23-14.5,32.6-24.2c1.4-1.4-0.8-3.5-2.1-2.1c-9.5,9.5-20.2,17.4-32,23.7C607.8,941.3,609.3,943.9,611,943
				L611,943z"/>
		</g>
	</g>
	<g>
		<g>
			<path d="M577.6,930.2c20-15.9,40.5-31.2,61.4-45.9c1.6-1.1,0.1-3.7-1.5-2.6c-21.1,14.8-41.8,30.3-62,46.4
				C573.9,929.3,576.1,931.4,577.6,930.2L577.6,930.2z"/>
		</g>
	</g>
</g>
<g id="girl">
	<g id="leg_right_1_">
		<path class="st5" d="M401.7,691.4c-28.5,8.1-53,17.6-73,26.5c-25.1,11.2-61.6,27.7-100.9,59.7c-16,13-27.9,27.1-51.6,55.2
			c-8.9,10.5-18,21.9-18.8,38c-0.2,4.3-0.8,16.9,7.2,26.3c13.4,15.7,40.9,10.8,54.4,8.5c14.3-2.5,24.5-7.2,28.8-9.1
			c60.1-27.2,49.7-17.4,99.9-42.2c39.4-19.4,59.1-29.2,69.2-39.2c9.4-9.4,47.8-47.6,34.4-84.5C441.2,703.2,408.7,693.4,401.7,691.4z
			"/>
		<path class="st6" d="M427.4,701.1c-5.8,6.7-15.4,17.2-28.4,28.9c-64.1,57.6-113.8,56-161,100.9c-14.9,14.1-34.6,37.8-49.3,77
			c6.9,0.1,17.6-0.2,30.4-2.3c26.6-4.4,45.1-14,55.2-19.1c70.1-35.2,86.2-29.2,129.1-61.2c19.7-14.7,29.7-22.3,36.2-37.1
			C455.4,752.1,433.8,712.2,427.4,701.1z"/>
		<g>
			<g>
				<path d="M401.3,690c-39.4,13.3-79,26.7-115.7,46.5c-33.6,18.1-64,41.7-89.6,70c-12.6,13.9-25.6,29.1-33.9,46.1
					c-6.8,13.8-11.6,33.8,1.5,45.5c13.3,11.9,33.3,13,50.1,10.2c20.9-3.6,41.3-12.5,61-20.2c44.5-17.5,87.8-38,129.5-61.4
					c1.7-0.9,0.2-3.5-1.5-2.6c-34.9,19.5-70.9,37.1-107.9,52.6c-18.5,7.8-37.3,15.1-56.3,21.7c-18.7,6.5-39.3,11.9-58.8,5.4
					c-47.9-15.9-2.9-71.2,16.1-92.6c24.1-27.1,52.5-50.1,84-68c38.5-21.8,80.5-36.1,122.3-50.2C403.9,692.3,403.1,689.4,401.3,690
					L401.3,690z"/>
			</g>
		</g>
	</g>
	<g id="leg_left_1_">
		<path d="M454.6,842.7c2.8-2.7,7.2-6.6,13.3-10.2c8.9-5.3,13.5-5.4,31.1-11.4c15.1-5.2,21.4-8.5,26.8-12.1c4.5-3,13-8.7,11.9-11.9
			c-1.3-3.8-15.8-2-31.8,0c-13.3,1.6-13.8,2.6-25.3,3.8c-17,1.7-18.2-0.3-24.4,2.2c-10.8,4.3-23.4,16.6-20,27.2
			C439.2,839.7,453.3,842.4,454.6,842.7z"/>
		<path class="st5" d="M416.9,695.6c-8.1,4.2-15,9.3-15,9.3c-12.4,9.1-20.5,19-25.3,25.7c0.7,4.1,1.3,8.3,2,12.4
			c-24,11.6-43.2,22.2-56.3,29.7c-36.3,20.8-57.4,37.4-99.6,70.6c-13.7,10.7-28.7,23-33.9,43.3c-1.3,5.2-4.3,17.3,1.2,30.4
			c6.3,15.1,19.5,21.6,23.5,23.4c8.7,3.9,17,4.2,30.3,2.9c29.1-2.8,51.4-10.4,59.8-13.3c29.6-10.5,51.1-21.1,56.3-23.7
			c24.2-12.1,57.1-30.3,94.9-56.8c0.2-1.1,1.4-7.4-2.7-13c-3.5-4.8-9.6-7.3-15.7-6.4c6.4-3.2,15.3-8.3,24.5-16.3
			c17.2-15,25.4-31.3,30.6-41.9c3-6.1,11.4-24.3,14.7-49.8c2-15.8,1.4-29.1,0.3-38.7C502.8,683.3,446.5,680.3,416.9,695.6z"/>
		<path class="st7" d="M484.9,702.5c-10.8,27.5-23.9,45.8-32.3,56.1c-50.7,62.5-123.9,75.3-209,146.7c-9.9,8.3-20,17.4-17.9,21.5
			c4.9,9.7,75.6-16.5,113.1-32.2c49.7-20.8,88.1-43,113.2-58.9c-4.3-2.8-8.7-5.6-13-8.3c6.8-3.2,16.5-8.6,26.1-17.5
			c12.7-11.7,18.9-23.4,24.7-34.8c6.8-13.3,16.2-31.9,16.7-57.2c0.2-10.6-1.2-19.3-2.4-25C497.8,696,491.4,699.2,484.9,702.5z"/>
		<g>
			<g>
				<path d="M506.5,695c-0.4,45.7-15.7,92.2-51.7,122.2c-18.6,15.4-42,23.5-63.9,32.9c-23.7,10.2-47.4,20.3-71.1,30.5
					c-26.7,11.5-53.5,22.9-80.2,34.4c-1.8,0.8-0.2,3.3,1.5,2.6c49.2-21.1,98.4-42.2,147.6-63.3c22.4-9.6,46.4-17.7,65.7-32.9
					c16.3-12.9,29.3-29.8,38.3-48.5c11.6-24.2,16.6-51,16.8-77.8C509.5,693.1,506.5,693.1,506.5,695L506.5,695z"/>
			</g>
		</g>
		<g>
			<g>
				<path d="M375.1,730.7c0,4.5,0.6,8.6,2,12.8c0.2-0.6,0.5-1.1,0.7-1.7c-35.6,17.5-70.6,36.5-103.4,59
					c-15.8,10.8-31.1,22.5-45.6,35c-13.6,11.8-28.4,24.5-37.2,40.5c-7.4,13.4-9.1,28.8-2.5,42.9c6.8,14.6,20.4,23.9,36.2,25.8
					c18.8,2.3,39-2.5,57.1-7.1c18.5-4.7,36.5-11.2,54-18.9c41.2-17.9,79.3-42,117.1-65.9c1.6-1,0.1-3.6-1.5-2.6
					c-61.8,39.2-126.5,80-200.4,90.5c-18.8,2.7-39.1,2.7-52.8-12.4c-12.1-13.4-14-31.9-6.2-48c7.6-15.6,21.5-27.8,34.3-39.2
					c14.1-12.6,29.1-24.2,44.6-35c34-23.8,70.5-43.7,107.7-62c0.6-0.3,0.9-1.1,0.7-1.7c-1.3-4-1.9-7.9-1.9-12
					C378.1,728.8,375.1,728.8,375.1,730.7L375.1,730.7z"/>
			</g>
		</g>
		<g>
			<g>
				<path d="M439.3,831c9.7,0.2,16.3,8.9,13.9,18.2c-0.5,1.9,2.4,2.7,2.9,0.8c2.9-11.3-5.1-21.8-16.8-22
					C437.4,828,437.4,831,439.3,831L439.3,831z"/>
			</g>
		</g>
		<g>
			<g>
				<path d="M456.6,842.3c5.9-4.3,11-8.4,18-10.7c7-2.3,14-4.8,20.9-7.6c13.3-5.3,26.4-11.3,39.1-17.9c1.7-0.9,0.2-3.5-1.5-2.6
					c-13.6,7.1-27.5,13.5-41.8,19c-6.9,2.6-13.9,4.8-20.8,7.3c-5.8,2.1-10.5,6.3-15.4,9.9C453.6,840.8,455.1,843.4,456.6,842.3
					L456.6,842.3z"/>
			</g>
		</g>
		<g>
			<g>
				<path d="M474,801.5c10.8,1.9,21.2-0.4,31.7-2.9c6-1.4,12-2.9,18.1-3.4c2.8-0.2,6.2-0.7,8.9,0c7.3,1.9,1.7,7.8-2,10.3
					c-1.6,1.1-0.1,3.7,1.5,2.6c4-2.7,9.2-7.1,6.5-12.6c-2.3-4.6-9.9-3.7-14.1-3.4c-16.8,1.2-32.8,9.5-49.8,6.5
					C472.9,798.3,472.1,801.2,474,801.5L474,801.5z"/>
			</g>
		</g>
	</g>
	<g id="hand_left_1_">
		<path class="st5" d="M546.8,477.1c-2.4,2.4-5.8,6.2-8.8,11.5c-4.3,7.5-6.9,16.7-5.3,47.3c1.2,22.6,3.9,40.4,6,52.6
			c1.8,10.2,3.6,18.5,4.9,24.3c11.9,52,34.3,113.7,42.6,136.1c6.2,16.8,14.8,39.5,25.7,66.4c-4.8,4.2-11.3,10.7-16.9,20.2
			c-3,5-7.4,12.5-5.5,14.5c1.6,1.6,7.7-0.1,28.1-14.6c11.7,4.6,20.7,9.3,26.8,12.9c8.8,5.1,16.3,10.4,28.1,12c3.3,0.5,6.1,0.5,8,0.5
			c-1.8-3.6-5-9.1-10.6-14.4c-6.7-6.3-14.3-8.7-14.1-9.2c0.2-0.4,6.4,2.4,14.8,5c7.4,2.3,15.5,2.8,31.8,3.8c2.3,0.1,5.7,0.3,7.2-1.7
			c1.7-2.4-0.2-6.5-0.9-8.2c-5-10.8-23.2-17.5-29.8-19.8c2.6,1.2,9.2,3.6,17.6,2.3c7.7-1.2,13-4.9,15.2-6.8c-4.4-0.9-9-1.8-13.7-2.5
			c-23.4-3.7-45-4.1-64.2-2.7c-2.9-7.4-7-19.3-10.3-34.4c-3.6-16.2-2.8-20.4-6.8-44.3c-3.2-19.2-5.2-30.5-10.1-44.7
			c-4.6-13.1-9.8-23.3-13.8-30.2c-14.6-64.9-20.3-94.6-22.4-109c-1.5-10.4-3.4-17.7-7.1-32.4c-1.6-6.3-3.3-12.4-7-19.8
			C553.1,485.3,549.5,480.4,546.8,477.1z"/>
		<path class="st8" d="M546.8,477.1c3.4,0.2,4.2,18.3,6.3,41.2c0,0,2.9,31.7,16.9,108.5c14.7,80.9,46.1,165.8,57.2,194.8
			c16.9,13,33.9,26.1,50.8,39.1c-4.2,0.1-10.9-0.1-18.5-2.6c-7.1-2.3-10.9-5.3-21.7-11.6c-4.2-2.5-10.7-6.1-18.9-10.3
			c-17.3,11.6-27.1,16.2-29.4,13.8c-2.6-2.8,5-15.1,22.9-36.8c-3-6.4-7.1-15.5-11.8-26.5c-8.2-19-28.2-67.4-50.1-148.2
			c-18-66.4-18.5-85.8-17.7-101C534.4,508.3,542.2,476.7,546.8,477.1z"/>
		<g>
			<g>
				<path d="M545.7,478.1c5.8,4.7,8.7,11.6,11.3,18.4c2.6,6.9,4.6,14,6.4,21.2c3.7,15.2,6.5,30.6,9.7,45.9
					c6.4,31.2,12.8,62.3,19.2,93.5c0.4,1.9,3.3,1.1,2.9-0.8c-6.7-32.4-13.4-64.9-20-97.3c-3.2-15.5-6-31.2-10-46.5
					c-3.2-12.2-6.9-28.2-17.3-36.4C546.4,474.8,544.2,476.9,545.7,478.1L545.7,478.1z"/>
			</g>
		</g>
		<g>
			<g>
				<path d="M536.9,591.9c18.3,76,43,150.3,73.8,222.2c0.8,1.8,3.3,0.2,2.6-1.5C582.6,741,558,666.9,539.8,591.1
					C539.3,589.3,536.5,590.1,536.9,591.9L536.9,591.9z"/>
			</g>
		</g>
		<g>
			<g>
				<path d="M592.9,655.5c26.2,45.9,21.9,101.2,38.1,150.4c0.6,1.8,3.5,1,2.9-0.8c-16.3-49.5-12-104.9-38.4-151.1
					C594.5,652.3,591.9,653.8,592.9,655.5L592.9,655.5z"/>
			</g>
		</g>
		<g>
			<g>
				<path d="M610.9,814.2c-5.7,6.8-11.7,13.5-17.2,20.6c-2.8,3.6-7.2,9-6.2,14c1,4.7,4.7,3.4,7.7,1.6c7.7-4.5,15.4-9.2,23.1-13.8
					c1.7-1,0.2-3.6-1.5-2.6c-4.7,2.8-9.4,5.6-14,8.4c-2.5,1.5-5,2.9-7.4,4.4c-0.5,0.3-2.8,2.1-3.3,2c-0.5-0.9-1-1.9-1.4-2.8
					c0.4-1.1,0.9-2.2,1.4-3.3c2.4-4.6,6.1-8.5,9.4-12.5c3.9-4.6,7.7-9.2,11.6-13.8C614.3,814.8,612.1,812.7,610.9,814.2L610.9,814.2
					z"/>
			</g>
		</g>
		<g>
			<g>
				<path d="M633.3,807.4c13.3,0.4,26.6,0.9,39.8,1.6c6.5,0.4,12.9,0.8,19.4,1.2c6.4,0.5,12.8,0.7,18.9,3c1.8,0.7,2.6-2.2,0.8-2.9
					c-5.4-2.1-11-2.5-16.7-2.9c-6.8-0.5-13.6-0.9-20.4-1.3c-13.9-0.8-27.8-1.4-41.8-1.7C631.4,804.4,631.4,807.4,633.3,807.4
					L633.3,807.4z"/>
			</g>
		</g>
		<g>
			<g>
				<path d="M618.5,837.6c21.7,6,38.5,25.3,62.1,24.6c1,0,1.7-0.9,1.4-1.9c-3.3-12.9-16.9-17.5-25.2-26.5c-1.3-1.4-3.4,0.7-2.1,2.1
					c7.9,8.5,21.3,13,24.4,25.2c0.5-0.6,1-1.3,1.4-1.9c-23.1,0.7-40-18.6-61.3-24.5C617.4,834.2,616.6,837.1,618.5,837.6
					L618.5,837.6z"/>
			</g>
		</g>
		<g>
			<g>
				<path d="M655.4,836.6c10.6,4.4,21.7,7.7,33,9.6c4.9,0.8,10,1.5,15,1.1c2.9-0.2,6.6-0.5,8.3-3.3c3.8-6.3-5.3-12.4-9.3-15.5
					c-8.3-6.3-17.6-11-27.5-14.1c-1.8-0.6-2.6,2.3-0.8,2.9c7.5,2.4,14.6,5.6,21.2,9.9c3.2,2.1,6.3,4.4,9.3,6.9
					c1.3,1.2,3.1,2.5,4,4.1c2.5,4.4-1.6,5.9-5.1,6.1c-15.6,1.3-33-4.8-47.3-10.7C654.4,833,653.7,835.9,655.4,836.6L655.4,836.6z"/>
			</g>
		</g>
		<g>
			<g>
				<path d="M674.4,817.7c11.5,1.4,28,6.5,37.2-3.1c1.3-1.4-0.8-3.5-2.1-2.1c-4.6,4.8-10.9,4.9-17.1,4.3c-6-0.6-12-1.4-18-2.1
					C672.5,814.5,672.5,817.5,674.4,817.7L674.4,817.7z"/>
			</g>
		</g>
		<g>
			<g>
				<path d="M661.9,826.2c6.9,3.5,14.4,5.2,21.9,7.1c8.8,2.2,16.9,5.2,24.3,10.4c1.6,1.1,3.1-1.5,1.5-2.6
					c-6.7-4.7-13.9-7.8-21.8-9.9c-8.3-2.2-16.7-3.7-24.4-7.6C661.7,822.7,660.2,825.3,661.9,826.2L661.9,826.2z"/>
			</g>
		</g>
	</g>
	<g id="torso_1_">
		<path class="st3" d="M421.6,471.8c25.2-9.3,46.5-11.2,60.5-11.3c24-0.3,51.4-0.6,65.5,17c5.4,6.8,7,18.6,10.1,42.2
			c3.2,24.1,4.7,36.1,1.3,50.4c-4.1,17.1-9.4,14.5-20.8,40.3c-8.4,19-7.4,24.8-18.3,55.5c-4.8,13.5-9.1,24.2-12,30.9
			c-6,2-12.5,3.7-19.5,5c-36.7,6.9-68.6-1.2-88.9-8.8C406.9,619.3,414.3,545.6,421.6,471.8z"/>
	</g>
	<g id="hand_right_1_">
		<path class="st5" d="M428.3,470.4c-4.3,1.8-10.5,5-16.6,10.7c-5.1,4.7-9,9.9-12.7,16.8c-9,16.6-11.5,32.7-12.5,39
			c-6.8,44.5-8.8,62.6-8.8,62.6c-4.2,38.8-5.6,54-5.2,74.3c0.2,11.8,1,20.7,3.4,31.1c2.9,12.3,7.2,21.8,15.3,36.9
			c11.6,21.9,21.5,37.3,28.2,48c8,12.7,19.3,31.2,32.5,54.3c2.4,6.7,5,13.7,7.7,21.1c18.9,51.3,9.4,20.6,11.9,28.1
			c0.9,2.8,2.8,8.9,8.4,12.3c1.4,0.9,3.6,2.2,4.9,1.6c2.6-1.3,2.2-11-9.5-45.8c-0.3-1,4.9,13.1,17.3,24.2c4.3,3.8,8.5,6.4,11.7,8
			c1.7,7.9,3.3,16.1,4.8,24.6c1.9,10.9,3.5,21.5,4.8,31.7c-0.8,2.7-1.8,6.9-1.5,12.1c0.2,3.1,0.4,7.2,2.9,11.7
			c1.3,2.3,4.5,8.1,9.5,8.6c2.7,0.3,5-1.3,9.6-4.3c6.1-4,7.3-6.5,10.3-6.4c1.6,0,3.9,0.8,6.6,4.4c-0.1-6.9-2-9.3-3.7-10.4
			c-2.8-1.7-5.3,0.5-11.8-0.4c-2.5-0.3-6.6-0.9-9.3-3.6c-3.9-3.9-3-10.5-2.9-12.2c0.8-8.4-2.3-30.4-14.7-80.6c1,3.5,4.4,5.7,7.8,5.2
			c3.6-0.5,6.4-3.8,6.1-7.6c-6.3-5.9-12.6-11.8-19-17.7c-0.8-6-1.6-12.1-2.5-18.3c-3.2-21.5-7.2-42-11.6-61.5
			c-2.7,0.8-5.4,1.6-8.1,2.3c1.8,12.9,3.6,25.8,5.4,38.7c-6.7-0.8-13.4-1.7-20.1-2.5c-2.7-4.6-6.1-10.8-9.7-18.3
			c-2.8-5.8-8.5-17.7-13.6-33c-6.5-19.7-10.4-31.3-10.7-46.9c-0.2-6.9,0.3-16.8-4.7-28.7c-1.9-4.4-3.9-7.8-5.4-10
			c2.2-13.1,4.1-24.3,5.5-33.3c9.5-59.9,4.6-42.9,12.3-99.7c1.4-10.6,2.8-19.9,0.8-32.5C439.2,489.9,433,477.9,428.3,470.4z"/>
		<path class="st9" d="M421.6,471.8c-3.9,8-9.1,19.9-13.6,34.9c-8.2,27.5-9.2,49.9-9.6,65.7c-1.8,66.3-2.8,99.5,3.6,128.9
			c16.5,76.1,57.1,127.3,73.5,147.6c13.8,17,26.8,30,36.4,39c-1.3,2-3.9,5.3-7.6,5.7c-4.2,0.4-7.6-3.4-11.7-8
			c-4.9-5.6-11.1-13.1-18.1-22.2c2.7,7.1,6.2,17,8.9,29.4c2.9,13.2,1.8,14.2,1.4,14.4c-2.6,1.2-11.4-12.7-15.6-20.1
			c-5.6-9.7-12.4-23.9-17.2-43.1c-13.4-23.4-24.8-42-32.5-54.3c-22.3-35.8-30-45.1-37.4-66.7c-2.5-7.5-8-25.1-9.6-48.2
			c-0.6-9.3-0.3-14.7,3.6-55.4c3.9-40.5,5.2-52.1,7.7-68c4.9-31.2,8.4-40.6,12.9-49.1C404.5,487.7,414.5,477.8,421.6,471.8z"/>
		<g>
			<g>
				<path d="M427.9,468.9c-21.9,8.7-33.5,30.1-39.3,51.8c-7.1,26.4-10.1,54.2-12.7,81.4c-2.7,28-6.8,56.9-4.3,85
					c2.4,27.1,14.8,49.9,28.4,72.9c16.7,28.2,33.4,56.3,50,84.5c1,1.7,3.6,0.2,2.6-1.5c-14-23.7-28-47.3-42-71
					c-13.4-22.6-28.8-45.2-34.1-71.3c-5.2-26-1.6-53.1,0.6-79.3c2.3-27.5,5.1-55.1,10.3-82.3c5.1-26.1,14-56.5,41.2-67.3
					C430.5,471.1,429.7,468.2,427.9,468.9L427.9,468.9z"/>
			</g>
		</g>
		<g>
			<g>
				<path d="M428.3,473.1c19.4,25.1,11.6,60.8,8,89.7c-4.5,36.3-9,72.5-13.5,108.8c-0.2,1.9,2.8,1.9,3,0
					c4.7-38.2,9.5-76.5,14.2-114.7c3.5-28.4,9.3-61.5-9.6-85.9C429.2,469.5,427.1,471.6,428.3,473.1L428.3,473.1z"/>
			</g>
		</g>
		<g>
			<g>
				<path d="M415.3,666c10.3,7.2,12.7,20.4,14.6,31.9c2.2,12.9,4.4,25.7,7.3,38.4c5.7,25.1,13.8,49.7,27.5,71.7
					c1,1.6,3.6,0.1,2.6-1.5c-14.8-23.7-23-50.6-28.7-77.8c-2.7-12.9-4.4-25.9-7.1-38.8c-2.1-10.2-5.8-20.3-14.7-26.5
					C415.2,662.3,413.7,664.9,415.3,666L415.3,666z"/>
			</g>
		</g>
		<g>
			<g>
				<path d="M467.4,809.8c6.3,0,12.5,0.1,18.5,2.1c1.8,0.6,2.6-2.3,0.8-2.9c-6.3-2.1-12.8-2.2-19.3-2.2
					C465.5,806.8,465.5,809.8,467.4,809.8L467.4,809.8z"/>
			</g>
		</g>
		<g>
			<g>
				<path d="M487.9,825.5c-0.4,8.4,5.3,14.6,10.8,20.2c7.4,7.6,15.2,14.9,23.2,21.9c1.4,1.3,3.6-0.8,2.1-2.1
					c-6.6-5.8-13-11.7-19.2-17.9c-6-6-14.4-12.8-13.9-22.1C491,823.6,488,823.6,487.9,825.5L487.9,825.5z"/>
			</g>
		</g>
		<g>
			<g>
				<path d="M450.5,844.4c3.9,11.1,7.8,22.2,12.5,33c2.4,5.4,4.9,10.8,7.7,16c2.5,4.6,5.1,10.4,8.8,14.1c1.6,1.6,3.8,2.7,5.9,1.1
					c2.5-2,1.7-5.9,1.1-8.6c-2.4-12.6-6.1-25-10.5-37.1c-0.7-1.8-3.6-1-2.9,0.8c3.2,8.6,5.9,17.4,8.1,26.3c0.6,2.4,1.1,4.8,1.7,7.2
					c0.4,1.7,2.3,6.8,1.1,8.2c-2.1,2.3-8.2-9.2-8.9-10.5c-9.3-16.2-15.5-33.9-21.7-51.4C452.8,841.8,449.9,842.6,450.5,844.4
					L450.5,844.4z"/>
			</g>
		</g>
		<g>
			<g>
				<path d="M474.4,863.4c5.3,8,10.6,16.5,17.4,23.4c4,4.1,12.1,10.7,18.3,7.8c6.5-2.9,2-10.8-0.5-14.7
					c-6.4-9.9-12.9-19.8-19.3-29.8c-1-1.6-3.6-0.1-2.6,1.5c4.3,6.6,8.6,13.2,12.9,19.8c2,3,3.9,6.1,5.9,9.1
					c2.1,3.2,7.9,11.5-0.3,11.3c-6.4-0.1-12.1-6.8-15.8-11.3c-4.9-6-9.1-12.4-13.4-18.9C475.9,860.3,473.3,861.8,474.4,863.4
					L474.4,863.4z"/>
			</g>
		</g>
		<g>
			<g>
				<path d="M487.9,851c6.4,8.7,14.3,16.7,23.5,22.4c3,1.9,7,3.5,10.2,1.1c2.3-1.8,2.8-4.4,1.6-6.9c-0.9-1.7-3.5-0.2-2.6,1.5
					c-1.7,3.3-3.6,4.2-5.7,2.7c-0.7-0.3-1.3-0.6-1.9-1c-1.2-0.7-2.3-1.5-3.4-2.3c-2.5-1.8-5-3.8-7.3-6c-4.4-4-8.3-8.4-11.8-13.1
					C489.3,847.9,486.7,849.4,487.9,851L487.9,851z"/>
			</g>
		</g>
		<g>
			<g>
				<path d="M479.6,856c6.7,14.1,16.2,26.5,28.2,36.5c1.5,1.2,3.6-0.9,2.1-2.1c-11.8-9.9-21.2-22-27.8-35.9
					C481.4,852.8,478.8,854.3,479.6,856L479.6,856z"/>
			</g>
		</g>
		<g>
			<g>
				<path d="M480,774.2c2.9,18.1,5.8,36.1,8.7,54.2c0.3,1.9,3.2,1.1,2.9-0.8c-2.9-18.1-5.8-36.1-8.7-54.2
					C482.6,771.5,479.7,772.4,480,774.2L480,774.2z"/>
			</g>
		</g>
		<g>
			<g>
				<path d="M482.9,774.2c1.3-2,5.1-5.4,7.5-2.3c0.5,0.7,0.5,3,0.6,3.9c0.5,3.5,1.1,7.1,1.6,10.6c1,6.7,2.1,13.5,3.1,20.2
					c2.1,13.5,4.2,27,6.3,40.5c0.3,1.9,3.2,1.1,2.9-0.8c-2.9-19-5.9-37.9-8.8-56.9c-0.7-4.8-1.5-9.6-2.2-14.5
					c-0.3-2-0.2-5.1-1.9-6.5c-3.8-3.1-9.7,1-11.7,4.2C479.3,774.3,481.9,775.8,482.9,774.2L482.9,774.2z"/>
			</g>
		</g>
		<g>
			<g>
				<path d="M508.4,871.3c5.4,27.5,9.9,55.1,13.6,82.9c0.3,1.9,3.3,1.9,3,0c-3.7-28-8.3-55.9-13.8-83.7
					C510.9,868.6,508,869.4,508.4,871.3L508.4,871.3z"/>
			</g>
		</g>
		<g>
			<g>
				<path d="M503.2,894c3.6,18.7,6.7,37.5,9.3,56.4c0.3,1.9,3.2,1.1,2.9-0.8c-2.6-18.9-5.7-37.7-9.3-56.4
					C505.7,891.3,502.8,892.1,503.2,894L503.2,894z"/>
			</g>
		</g>
		<g>
			<g>
				<path d="M512.9,950.4c1.7,4.2,5.8,7,10.4,6.5c1.9-0.2,1.9-3.2,0-3c-3.1,0.4-6.3-1.2-7.5-4.3
					C515.1,947.8,512.2,948.6,512.9,950.4L512.9,950.4z"/>
			</g>
		</g>
		<g>
			<g>
				<path d="M513.1,949.6c-3.8,10-2.9,23.8,5.6,31.3c3.2,2.9,7.3,3.8,11.3,2.1c4.9-2,13.8-15.3,19.1-7.9c1.1,1.6,3.7,0.1,2.6-1.5
					c-5.4-7.7-13.4-1-18.3,3.4c-3.7,3.3-8.1,5.6-12.6,1.8c-2.5-2.1-4.2-5.4-5.3-8.4c-2.3-6.6-2-13.5,0.5-20
					C516.7,948.6,513.8,947.8,513.1,949.6L513.1,949.6z"/>
			</g>
		</g>
		<g>
			<g>
				<path d="M523,954.1c0.8,5.1,3.6,10.4,8.6,12.4c6.4,2.5,21.1-3.3,18.4,9.1c-0.4,1.9,2.5,2.7,2.9,0.8c1.2-5.3-0.8-10.9-6.5-12.2
					c-4.1-1-8.2,0.9-12.3,0c-5-1.2-7.4-6.1-8.2-10.8C525.5,951.4,522.7,952.3,523,954.1L523,954.1z"/>
			</g>
		</g>
	</g>
	<g id="head_1_">
		<path class="st5" d="M468.2,473.1c1.5,3.6,3.4,6.3,6,8.2c4,3.1,8.6,3.7,11.7,3.7c3.3-3.8,6.6-7.6,9.9-11.4
			c2.4,2.3,8.7,7.8,17.7,8.1c4,0.1,8.1-0.8,14-3.9c15.4-8.1,24.7-21.2,29.2-28.3c8.4-13.7,11.3-25.9,12.9-33.3
			c2.5-11.4,6.5-30.7-1.2-52.4c-2.8-7.8-4.1-11.7-7.5-15c-19.3-18.8-86.6-4.8-106,38C455.1,386.9,443.4,412.8,468.2,473.1z"/>
		<path class="st10" d="M550.4,359.3c1.5,6.1-23,9.3-42.3,36.8c-13.6,19.5-15.7,38.4-16.1,42.6c-1.4,15.2,1.5,27.6,3.9,35
			c-4.6-2.8-9.2-5.7-13.7-8.5c-4.5,3.1-8.9,6.1-13.4,9.2c-5.8-6.7-19.3-24.2-21.8-50.1c-0.8-8.6-2.9-29.8,9.2-47.2
			C481.4,340.9,548,349.6,550.4,359.3z"/>
		<path class="st2" d="M479.5,398.9c10.6-2.4,19.1-5.7,25-8.4c12.1-5.5,20.5-11.6,28.5-17.4c7.3-5.3,13.2-10.2,17.4-13.9
			c4.9,2.2,14.3,7.2,17.8,17.1c0.9,2.7,1.4,5.5,1.1,14.8c-0.4,10.4-0.6,17.7-2.6,27.1c-4.1,20.1-13.2,35.8-18.7,44.2
			c6.9-3.2,17.4-9.3,26-20.6c11.4-14.9,13.2-30.3,14.6-44.4c2.4-24.3,4.7-47.1-9.8-63.1c-14.8-16.4-39-16.6-58.9-16.7
			c-11.1-0.1-25.1-0.2-40.6,6.1c-26,10.7-26.5,27.4-62.9,66.1c-26.7,28.3-34.9,28.3-41.7,45.8c-6.7,17.1-11.7,50.2,9,68.1
			c20.7,17.8,54.7,10,73.6-6.3c4.4-3.8,19.7-18.1,20.7-41.5c0.9-20.9-10.1-35.4-13.1-39.1c-9-10.6-9.6-22.2-4.9-26.4
			c3.1-2.8,9.9-3.5,14.6,0C478.5,393.4,479.3,397.8,479.5,398.9z"/>
		<g>
			<g>
				<path d="M477,457.1c5.2,6,11.1,11.4,17.5,16.1c5.3,3.9,12.4,9.4,19.2,10.2c6.9,0.8,15.1-3.9,20.7-7.4c6.5-4,12.2-9.2,17-15.1
					c10.1-12.8,14.6-28.9,17.2-44.8c2.9-17.6,3.3-35.6-1.8-52.8c-0.5-1.8-3.4-1.1-2.9,0.8c4.7,15.8,4.7,32.3,2.3,48.4
					c-2.2,14.9-5.8,30.1-14.3,42.7c-7.4,11.1-20.9,22.8-34.5,24.9c-7.4,1.1-15.5-5.4-21.2-9.5c-6.2-4.5-11.8-9.8-16.9-15.6
					C477.8,453.5,475.7,455.6,477,457.1L477,457.1z"/>
			</g>
		</g>
		<g>
			<g>
				<path d="M541.1,406.5c-1.8,7.1-3.6,14.3-5.4,21.4c-0.9,3.4-1.7,6.8-2.6,10.2c-0.6,2.2-1.1,8.9-3.1,10.3c0.7,0.3,1.5,0.6,2.2,0.9
					c-1.6-4-3.4-7.8-5.8-11.5c-1-1.6-3.6-0.1-2.6,1.5c2.2,3.4,4,7,5.5,10.8c0.3,0.8,1.3,1.5,2.2,0.9c2.3-1.6,2.4-3.8,3.1-6.5
					c1-4,2-8.1,3-12.1c2.1-8.4,4.2-16.8,6.3-25.2C544.4,405.5,541.6,404.7,541.1,406.5L541.1,406.5z"/>
			</g>
		</g>
		<g>
			<g>
				<path d="M504.5,439.7c1.1,8.8,8.8,15.6,17.8,15.1c1.9-0.1,1.9-3.1,0-3c-7.2,0.4-13.9-4.9-14.8-12.1
					C507.2,437.8,504.2,437.8,504.5,439.7L504.5,439.7z"/>
			</g>
		</g>
		<ellipse transform="matrix(0.3475 -0.9377 0.9377 0.3475 -43.0831 759.0215)" cx="523.9" cy="410.5" rx="8.4" ry="3.4"/>
		<ellipse transform="matrix(0.3475 -0.9377 0.9377 0.3475 -28.377 789.0872)" cx="552.8" cy="414.9" rx="8.4" ry="3.4"/>
		<g>
			<g>
				<path d="M522,388.2c3.1-3.5,8.1-2.9,10.2,1.3c0.9,1.7,3.4,0.2,2.6-1.5c-2.9-5.8-10.6-6.8-14.9-1.9
					C518.6,387.5,520.7,389.6,522,388.2L522,388.2z"/>
			</g>
		</g>
		<g>
			<g>
				<path d="M551.8,391.9c2.8-2.9,8.9-4.8,10.7,0.4c0.6,1.8,3.5,1,2.9-0.8c-2.5-7.3-11.1-6.4-15.7-1.7
					C548.4,391.1,550.5,393.3,551.8,391.9L551.8,391.9z"/>
			</g>
		</g>
		<g>
			<g>
				<path d="M467.9,416.2c-7.2-2.7-10-13.8-7.7-20.5c1.2-3.5,4.7-6.8,8.6-6.8c5.5,0,8.5,5.8,9.3,10.5c0.3,1.9,3.2,1.1,2.9-0.8
					c-1.8-10.5-13.7-17.7-21.5-7.8c-6.5,8.4-2.4,24.6,7.6,28.3C468.9,419.7,469.7,416.8,467.9,416.2L467.9,416.2z"/>
			</g>
		</g>
		<g>
			<g>
				<path d="M512.4,418.8c-0.1,0-0.2,0-0.3,0c-0.8,0-1.5,0.7-1.5,1.5c0,0.8,0.7,1.5,1.5,1.5c0.1,0,0.2,0,0.3,0
					c0.8,0,1.5-0.7,1.5-1.5C513.9,419.5,513.2,418.8,512.4,418.8L512.4,418.8z"/>
			</g>
		</g>
		<g>
			<g>
				<path d="M519.4,424.6c1.9,0,1.9-3,0-3C517.5,421.6,517.5,424.6,519.4,424.6L519.4,424.6z"/>
			</g>
		</g>
		<g>
			<g>
				<path d="M513.1,429.5c1.9,0,1.9-3,0-3C511.2,426.5,511.2,429.5,513.1,429.5L513.1,429.5z"/>
			</g>
		</g>
		<g>
			<g>
				<path d="M547,430.5c1.9,0,1.9-3,0-3C545.1,427.5,545.1,430.5,547,430.5L547,430.5z"/>
			</g>
		</g>
		<g>
			<g>
				<path d="M555.8,429.8c1.9,0,1.9-3,0-3C553.8,426.8,553.8,429.8,555.8,429.8L555.8,429.8z"/>
			</g>
		</g>
		<g>
			<g>
				<path d="M548.4,438.2c1.9,0,1.9-3,0-3C546.5,435.2,546.5,438.2,548.4,438.2L548.4,438.2z"/>
			</g>
		</g>
		<g>
			<g>
				<path d="M494.8,472.6c-3.3,3.8-6.6,7.6-9.9,11.4c-1.3,1.5,0.9,3.6,2.1,2.1c3.3-3.8,6.6-7.6,9.9-11.4
					C498.2,473.3,496.1,471.2,494.8,472.6L494.8,472.6z"/>
			</g>
		</g>
		<g>
			<g>
				<path d="M466.9,473.9c3,7.1,9.5,12.3,17.1,13.7c1.9,0.4,2.7-2.5,0.8-2.9c-7-1.3-12.5-5.8-15.3-12.3
					C468.8,470.6,466.2,472.1,466.9,473.9L466.9,473.9z"/>
			</g>
		</g>
	</g>
</g>
<g id="guy">
	<g id="leg_right">
		<path d="M1136.5,870c5.1,3.1,10.9,6.1,17.2,9c14.4,6.5,27.8,10,38.9,11.9c2,3.6,4.9,8.8,8.3,15c9.2,16.8,16.3,30.1,18.2,33.5
			c15.3,28.7,36.7,73.1,39.9,79.8c-2.5,1.3-6.7,2.9-11.8,2.3c-6-0.7-10-4.3-13.2-7.4c-15.7-14.6-20.3-20.7-20.3-20.7
			c-10.6-14-20.9-26.5-41.6-51.3c-5.3-6.3-9.6-11.3-12.2-14.3c-11.2-1-22.4-2-33.5-3.1C1129.8,906.5,1133.2,888.2,1136.5,870z"/>
		<path class="st5" d="M1214.1,740.6c-21.6,0.8-38.7,0.8-45.8,0.7c-9.4-0.1-22.9-0.3-82.2-3.4c-28.3-1.5-33.2-1.8-46.6-2.2
			c-22.5-0.7-43.2-0.7-67.7,4.1c-16,3.1-23.9,6.3-31.1,12c-3.3,2.6-14,11.4-17.4,26.4c-0.5,2.4-1.7,8.3,0.2,20
			c3,18.9,10.6,33.4,15.8,42c7.4,12.2,17,23.7,32.9,37.4c9.1,7.8,29.8,24.7,72.6,45.5c20.7,10.1,48.8,22.2,83.6,32.8
			c-0.8-5-1.7-12.2-2-20.8c-0.7-19.7,2.2-34.7,4.8-48.4c2-10.1,5.1-23.4,10.3-38.7c-7.1-4-14.1-8.1-21.2-12.1
			c20.3,3.6,38,5.2,52,5.8c30.8,1.5,52.9-0.9,79.1-3.8c20.8-2.3,31.4-3.5,37-6.9c29.2-17.8,38.7-73.2,19.3-91.3
			C1297.1,729.6,1284.6,737.9,1214.1,740.6z"/>
		<path class="st11" d="M1130.7,889.8c-11.9-5.4-28.7-14.1-47.2-27.3c-40.2-28.8-75.9-70.7-69.8-78.6c3.3-4.2,17,3.6,38.3,11.5
			c53.7,19.8,100,19.2,132.4,18.7c30.5-0.4,76.7-4.6,130.8-23.7c-1.2,7.1-4.6,20.8-16,31.5c-7.3,6.9-15.1,9.8-20.4,11.5
			c-35,11.5-76.5,10.2-88.9,9.7c-19-0.8-43.5-2.3-71.9-5.4c8.4,2.8,16.8,5.6,25.2,8.4C1139.1,860.6,1134.9,875.2,1130.7,889.8z"/>
		<g>
			<g>
				<path d="M1202.4,738.8c-43.4,2.2-86.5-0.8-129.8-3.3c-21.7-1.2-43.4-2.1-65.1-1.2c-18.8,0.8-38.5,2.4-55.9,9.8
					c-14.4,6.1-26.6,16.8-29.6,32.7c-3.1,16.6,1.7,34.6,8.5,49.8c15.2,33.8,44.8,57.9,75.8,76.8c37.9,23,78.8,42.4,121.8,53.9
					c1.9,0.5,2.7-2.4,0.8-2.9c-36.9-9.8-71.8-25.7-105-44.3c-31.7-17.7-63.2-38.7-82.8-70c-9.2-14.6-15.7-31.4-16.8-48.8
					c-0.6-9.6,0.7-19.4,6.2-27.5c4.6-6.8,11.6-11.8,18.9-15.4c16.9-8.3,36.8-10.1,55.3-11c20-1,40.1-0.4,60,0.6
					c46,2.4,91.6,6,137.7,3.7C1204.3,741.7,1204.4,738.7,1202.4,738.8L1202.4,738.8z"/>
			</g>
		</g>
		<g>
			<g>
				<path d="M1013.1,785.2c40.9,25.4,84.4,46.3,129.7,62.3c1.8,0.6,2.6-2.3,0.8-2.9c-45.1-16-88.4-36.8-129-62
					C1012.9,781.6,1011.4,784.2,1013.1,785.2L1013.1,785.2z"/>
			</g>
		</g>
		<g>
			<g>
				<path d="M1142.1,845.1c-13,34.9-18.1,72.3-15.1,109.4c0.2,1.9,3.2,1.9,3,0c-3.1-36.9,2-73.9,15-108.6
					C1145.7,844.1,1142.8,843.3,1142.1,845.1L1142.1,845.1z"/>
			</g>
		</g>
		<g>
			<g>
				<path d="M1135.5,871c6.2,6.1,16.8,9.2,24.9,12c10.2,3.6,20.7,6.3,31.4,8.1c1.9,0.3,2.7-2.6,0.8-2.9c-9.5-1.6-18.9-3.8-28-6.9
					c-5-1.7-10-3.6-14.8-5.7c-4.2-1.8-8.9-3.5-12.1-6.8C1136.2,867.5,1134.1,869.6,1135.5,871L1135.5,871z"/>
			</g>
		</g>
		<g>
			<g>
				<path d="M1191.4,891.6c23,41.4,45.2,83.3,66.6,125.6c0.9,1.7,3.5,0.2,2.6-1.5c-21.4-42.3-43.7-84.1-66.6-125.6
					C1193.1,888.4,1190.5,889.9,1191.4,891.6L1191.4,891.6z"/>
			</g>
		</g>
		<g>
			<g>
				<path d="M1127.8,924.2c8,1.1,16.1,2.1,24.1,3.2c3.4,0.5,6.7,0.7,9.4,3.2c1.4,1.3,2.6,3,3.7,4.5c2.1,2.8,4.3,5.6,6.4,8.4
					c9.1,12.1,18.2,24.1,27.9,35.8c9.8,11.7,20.1,22.9,31.6,32.9c7.7,6.7,19.2,16.8,29.3,8.2c1.5-1.3-0.7-3.4-2.1-2.1
					c-7.5,6.4-16.5-1-22.4-5.9c-5.6-4.7-10.9-9.7-16-15c-10.1-10.3-19.3-21.3-28.2-32.6c-8.8-11.2-17-23.1-26.1-34.1
					c-3.7-4.5-7.8-5.5-13.4-6.2c-8-1.1-16.1-2.1-24.1-3.2C1125.9,921,1125.9,924,1127.8,924.2L1127.8,924.2z"/>
			</g>
		</g>
		<g>
			<g>
				<path d="M1122.5,838.6c54.5,7.8,110,6.1,163.9-5.2c1.9-0.4,1.1-3.3-0.8-2.9c-53.3,11.2-108.4,12.9-162.3,5.2
					C1121.4,835.4,1120.6,838.3,1122.5,838.6L1122.5,838.6z"/>
			</g>
		</g>
	</g>
	<g id="hand_right">
		<path class="st5" d="M1098,414.1c0.4-5.8,0.7-13.2,0.5-21.7c-0.2-10.1-0.8-8.8-1.7-24.6c-0.9-15.7-0.7-22-4.6-23.9
			c-1.8-0.9-4.2-0.6-5.8,0.4c-1.1,0.7-2.6,2.2-4,13.4c-0.8,6.5-0.4,7.3-1.5,8.6c-2.8,3.4-7.1,0.7-12.4,4.3c-3.1,2.1-2.1,3.3-6.5,7.7
			c-4.6,4.6-6,3.6-9,7.2c-0.5,0.6-5.4,6.6-4.3,13.9c0.2,1.4,0.8,5.7,3.5,6.8c2.6,1.1,4.8-1.7,6.6-0.7c2,1,1.2,5,0.9,12.6
			c-0.3,8.5-0.5,13,1.3,17.4c1.6,4,4.4,6.9,6.9,8.8c0.6,3.4,1.4,8.6,2.1,15c2.3,22.2,0.1,33.1,0,48.3c0,24.6,5.8,43.7,9.6,56.2
			c5.2,17.1,11.7,30.6,16.6,39.8c5.8,0.4,14.3,0.3,24-2.5c10.8-3.2,17.4-8.1,30.7-18.4c24.4-18.8,36.7-28.4,41.7-33.5
			c19.9-20.3,22.8-31.4,23.7-36.6c0.7-4,3.1-17.2-4-22.6c-5.9-4.5-15.2-1.3-19.1,0c-7.5,2.5-11.4,6.5-18.1,12.1
			c-12.6,10.5-13.2,8.5-25.2,18.1c-7.6,6.1-17.9,15.4-28.7,28.7c-0.7-3.7-1.9-9.5-3.5-16.6c-3.1-13.9-5.6-22.5-7-28.2
			c-4.5-17.4-6.2-31.6-9.6-59.9C1100.1,436.4,1099,426.2,1098,414.1z"/>
		<path class="st12" d="M1091.1,342.9c0.7,7.8,0.9,18.1-1.1,29.8c-2.6,15.5-7.8,27.6-12.1,35.7c-0.7,1.8-2.4,6.4-1,12.1
			c2.1,8.6,9.4,12.5,10.6,13.1c3.2,16.8,6.4,33.5,9.6,50.3c5.5,29.3,10.9,58.7,16.1,88c9.3-8.2,18.7-16.4,28.2-24.7
			c22.1-19.1,44.1-37.7,65.9-55.8c-4.7-0.8-9.4-1.7-14.1-2.5c-3.6,2.3-8.6,5.5-14.6,9.6c-11.4,7.8-23.8,16.2-37.2,28.7
			c-5.4,5-12.5,12-20.1,21.1c-0.9-5.8-2.5-14.3-5-24.7c-3.3-13.3-4.6-14.9-7-24.7c-3.8-15.4-1.1-14.3-5.5-40.8
			c-4.7-28.5-5-30.2-5-30.2c-0.7-4-1.2-6.7-1.5-10.6c-1-12.1,1-21.2,1.5-23.7C1100.1,385.4,1099.9,370.6,1091.1,342.9z"/>
		<g>
			<g>
				<path d="M1199.8,483.8c-29.3,17.2-56.2,38.1-79.8,62.6c-1.3,1.4,0.8,3.5,2.1,2.1c23.4-24.3,50.1-45,79.2-62.1
					C1203,485.5,1201.5,482.9,1199.8,483.8L1199.8,483.8z"/>
			</g>
		</g>
		<g>
			<g>
				<path d="M1120.9,556.7c2.7-9,1.4-18-1-26.9c-2.8-10.5-6-20.9-8.4-31.5c-5-21.5-8.2-43.3-9.7-65.3c-0.1-1.9-3.1-1.9-3,0
					c1.4,20.3,4.3,40.5,8.6,60.5c2.2,10.1,4.8,20.1,7.7,30c3.1,10.6,6.4,21.5,3,32.5C1117.5,557.7,1120.4,558.5,1120.9,556.7
					L1120.9,556.7z"/>
			</g>
		</g>
		<g>
			<g>
				<path d="M1101.8,431.5c-1.7-8.2-5.8-27.4-18.2-24.7c-4.1,0.9-8.1,4.7-7.8,9.2c0.4,6.2,6.6,4.2,9.9,7.5c1.4,1.4,3.5-0.8,2.1-2.1
					c-1.7-1.7-3.4-1.7-5.4-2.6c-7.7-3.3,0.7-11.8,6.7-8.2c6.4,3.8,8.4,15,9.8,21.7C1099.3,434.2,1102.2,433.4,1101.8,431.5
					L1101.8,431.5z"/>
			</g>
		</g>
		<g>
			<g>
				<path d="M1099.2,418.9c1.9-23.4,0.8-47.1-3.9-70.2c-0.5-2.6-1-6-3.8-7.2c-2.6-1.1-5.3,0.5-6.7,2.6c-2.2,3.4-2.2,8.7-2.6,12.6
					c-0.6,6.3-0.6,12.7-0.1,19c0.1,1.9,3.1,1.9,3,0c-0.3-4.4-0.5-8.9-0.3-13.3c0.2-4.1-0.2-10.5,1.6-14.1c0.1-0.4,0.2-0.9,0.3-1.3
					c3.4-2.1,5.1-1.9,5.3,0.6c0.8,1.3,0.8,4,1.1,5.6c0.9,4.8,1.6,9.7,2.2,14.6c2,17,2.3,34.1,0.9,51.1
					C1096,420.8,1099,420.8,1099.2,418.9L1099.2,418.9z"/>
			</g>
		</g>
		<g>
			<g>
				<path d="M1082.2,365.5c-2.3-5-8.5,1.6-10,3.9c-4,6-4.1,13.6-1.6,20.2c1.5,3.7,5,8.7,9.4,5.8c5.8-3.7,5.1-15.8,4.4-21.5
					c-0.2-1.9-3.2-1.9-3,0c0.5,4.1,0.5,8.1-0.3,12.2c-0.3,1.4-0.4,3.4-1.3,4.6c-2.4,3.4-5.3,0.7-6.4-2c-1.6-3.9-2.2-8.3-1.1-12.4
					c0.5-1.9,1.3-3.7,2.4-5.3c0.5-0.7,4.3-5.1,4.8-3.9C1080.4,368.8,1083,367.3,1082.2,365.5L1082.2,365.5z"/>
			</g>
		</g>
		<g>
			<g>
				<path d="M1073.9,367.8c-10.8,0.5-15.5,11.1-14.1,20.7c0.6,4,2,8.1,6.4,9.1c4.3,1,7.7-2.1,8.6-6.1c0.4-1.9-2.5-2.7-2.9-0.8
					c-2,8.7-8.4,2-9.1-2.2c-0.4-2.6-0.5-5.2,0.1-7.8c1.2-5.4,5.3-9.7,11-9.9C1075.9,370.7,1075.9,367.7,1073.9,367.8L1073.9,367.8z"
					/>
			</g>
		</g>
		<g>
			<g>
				<path d="M1061.6,376.9c-6.8,2.1-13.1,9.1-11.4,16.7c1.6,7.4,10.8,8.3,14.5,2.1c1-1.7-1.6-3.2-2.6-1.5c-1.9,3.1-6.3,3.9-8.4,0.4
					c-1.2-2-0.8-4.8-0.1-6.8c1.4-4,4.8-6.8,8.8-8C1064.2,379.2,1063.5,376.3,1061.6,376.9L1061.6,376.9z"/>
			</g>
		</g>
		<g>
			<g>
				<path d="M1050.5,389c-3.3,4.5-5.4,13.4-0.4,17.7c1.9,1.6,4.5,1.7,6.7,0.5c2.9-1.6,4.1-4.9,5-7.9c0.6-1.8-2.3-2.6-2.9-0.8
					c-0.6,1.9-1.1,3.8-2.6,5.2c-2.5,2.4-5.1,0.9-5.9-2.1c-1-3.9,0.3-7.9,2.6-11C1054.2,388.9,1051.6,387.4,1050.5,389L1050.5,389z"
					/>
			</g>
		</g>
		<g>
			<g>
				<path d="M1056.1,404.7c5.8,12.6-4.5,33.3,12.1,40.3c1.8,0.7,2.6-2.2,0.8-2.9c-8.7-3.7-8.3-14.3-7.9-22.2
					c0.2-5.9,0.1-11.4-2.4-16.8C1057.9,401.4,1055.3,402.9,1056.1,404.7L1056.1,404.7z"/>
			</g>
		</g>
		<g>
			<g>
				<path d="M1066.4,444.7c3.4,13.7,1.6,27.9,1.5,41.9c-0.1,13.5,0.7,27,2.5,40.3c3.5,25.8,10.7,51,21.1,74.8
					c0.8,1.8,3.4,0.2,2.6-1.5c-10.9-25-18.2-51.6-21.4-78.8c-1.5-12.8-2.1-25.7-1.8-38.5c0.3-13.1,1.6-26.1-1.6-39
					C1068.9,442,1066,442.8,1066.4,444.7L1066.4,444.7z"/>
			</g>
		</g>
		<g>
			<g>
				<path d="M1093.5,604.6c28.4,6.4,53.4-16.5,73.9-32.6c12.1-9.5,23.9-19.3,35.3-29.6c10.1-9.2,19.6-19.1,26.3-31.1
					c0.9-1.7-1.6-3.2-2.6-1.5c-6.3,11.3-15.1,20.7-24.6,29.3c-10.3,9.4-21.1,18.4-32,27.2c-11,8.8-22.1,17.8-34,25.3
					c-12.4,7.9-26.7,13.5-41.5,10.1C1092.4,601.3,1091.6,604.2,1093.5,604.6L1093.5,604.6z"/>
			</g>
		</g>
	</g>
	<g id="lighting_bolt">
		<path class="st5" d="M1099.7,276.9c0.7-1.5,1.4-3.8,1.1-6.4c-0.6-4.6-4.2-7.4-6.8-10.2c-4.1-4.3-5.5-8.6-8.9-16.7
			c-1.8-4.3-7.7-18.4-1.5-32.3c4.6-10.3,13.5-15,15.3-15.9c2.7-1.4,13.3-6.6,23.6-2c8.5,3.9,11.7,12.2,14.4,19.4
			c0.9,2.4,5.4,14.6,1.9,29.3c-0.9,3.8-2.1,9.1-5.9,14.6c-2.7,3.9-4.8,5.2-6.9,9.2c-2.6,4.8-3.1,9.6-3.2,12.7c1.9,0,3.8,0.1,5.7,0.1
			c-0.2,2.7-0.5,5.3-0.7,8c-4.3-1-5.9-0.5-6.5,0.3c-1,1.5,1.3,3.9,0.3,6c-0.3,0.6-1.2,1.9-6.6,2.7c-5,0.7-12.6,1.8-14.8-1.8
			c-1.2-2,0.3-3.8-1.2-5.8c-1.4-1.9-4.1-2.2-6.2-2.2c-1.9-5.3-1.6-7.1-0.8-7.6c0.7-0.5,1.7,0.1,3.8-0.1
			C1097.5,278.1,1098.8,277.5,1099.7,276.9z"/>
		<g>
			<g>
				<path d="M1112.7,276.2c-0.2-10.8-0.5-21.5-0.7-32.3c0-1.9-3-1.9-3,0c0.2,10.8,0.5,21.5,0.7,32.3
					C1109.7,278.1,1112.7,278.1,1112.7,276.2L1112.7,276.2z"/>
			</g>
		</g>
		<g>
			<g>
				<path d="M1097.4,231.7c3.7,4.4,7.7,8.7,11.8,12.8c0.6,0.6,1.6,0.6,2.1,0c2.9-3.1,5.8-6.2,8.7-9.3c1.6-1.7,4.3-3.7,5.2-6
					c0.4-1-0.6-1.8-1.4-1.9c-0.1,0-0.1,0-0.1,0c-0.6-0.1-1.3,0.5-1.4,1.1c0,0,0,0.1,0,0.1c-0.4,1.9,2.5,2.7,2.9,0.8c0,0,0-0.1,0-0.1
					c-0.5,0.4-1,0.7-1.4,1.1c0,0,0.1,0,0.1,0c-0.5-0.6-1-1.3-1.4-1.9c-0.8,2.1-4.8,5.1-6.4,6.8c-2.2,2.4-4.4,4.8-6.7,7.1
					c0.7,0,1.4,0,2.1,0c-4.1-4.1-8-8.4-11.8-12.8C1098.3,228.1,1096.1,230.2,1097.4,231.7L1097.4,231.7z"/>
			</g>
		</g>
		<g>
			<g>
				<path d="M1111.6,242.2c0.4-7.6,0.6-15.2,0.8-22.8c0-1.9-3-1.9-3,0c-0.2,7.6-0.4,15.2-0.8,22.8
					C1108.5,244.1,1111.5,244.1,1111.6,242.2L1111.6,242.2z"/>
			</g>
		</g>
		<g>
			<g>
				<path d="M1037,201c9.2,2.4,17.8,8.1,26.2,12.4c1.7,0.9,3.2-1.7,1.5-2.6c-8.7-4.5-17.4-10.3-26.9-12.7
					C1036,197.6,1035.2,200.5,1037,201L1037,201z"/>
			</g>
		</g>
		<g>
			<g>
				<path d="M1083.1,194.3c-4-4.7-7.9-9.3-11.9-14c-1.3-1.5-3.4,0.7-2.1,2.1c4,4.7,7.9,9.3,11.9,14
					C1082.3,197.9,1084.4,195.7,1083.1,194.3L1083.1,194.3z"/>
			</g>
		</g>
		<g>
			<g>
				<path d="M1117.5,179.6c0.6-9.7,1.9-19.3,3.8-28.8c0.4-1.9-2.5-2.7-2.9-0.8c-1.9,9.8-3.2,19.6-3.9,29.6
					C1114.3,181.5,1117.3,181.5,1117.5,179.6L1117.5,179.6z"/>
			</g>
		</g>
		<g>
			<g>
				<path d="M1152.2,197.5c6.6-5.9,13.4-11.6,20.2-17.1c1.5-1.2-0.6-3.3-2.1-2.1c-6.8,5.6-13.6,11.3-20.2,17.1
					C1148.7,196.7,1150.8,198.8,1152.2,197.5L1152.2,197.5z"/>
			</g>
		</g>
		<g>
			<g>
				<path d="M1165.1,226.9c8.2-2.9,16.3-5.9,24.4-9.1c1.8-0.7,1-3.6-0.8-2.9c-8.1,3.2-16.2,6.2-24.4,9.1
					C1162.5,224.6,1163.2,227.5,1165.1,226.9L1165.1,226.9z"/>
			</g>
		</g>
		<g>
			<g>
				<path d="M1047.6,247.3c5.1-1.7,10.3-3.4,15.4-5.1c1.8-0.6,1-3.5-0.8-2.9c-5.1,1.7-10.3,3.4-15.4,5.1
					C1044.9,245,1045.7,247.9,1047.6,247.3L1047.6,247.3z"/>
			</g>
		</g>
		<g>
			<g>
				<path d="M1090.7,279.2c1.8,2.5-0.7,5.9,1.5,8.5c1.4,1.7,3.6,2,5.6,2.1c9.8,0.5,20.1-1,30-1.4c1.9-0.1,1.9-3.1,0-3
					c-8,0.4-16,0.8-24,1.2c-3.7,0.2-8.9,1.7-9.7-3.3c-0.4-2.3,0.7-3.4-0.8-5.5C1092.2,276.1,1089.6,277.6,1090.7,279.2L1090.7,279.2
					z"/>
			</g>
		</g>
		<g>
			<g>
				<path d="M1094.4,279.7c11.4,0.2,22.7,0.4,34.1,0.6c-0.5-0.5-1-1-1.5-1.5c0.2,2.1,0.2,3.7-0.2,5.9c-0.4,1.9,2.5,2.7,2.9,0.8
					c0.5-2.3,0.6-4.4,0.3-6.7c-0.1-0.8-0.6-1.5-1.5-1.5c-11.4-0.2-22.7-0.4-34.1-0.6C1092.5,276.7,1092.5,279.7,1094.4,279.7
					L1094.4,279.7z"/>
			</g>
		</g>
		<g>
			<g>
				<path d="M1098.5,288c-1.6,2.2-1.2,5.1,0.6,7.1c2.8,3,7.7,2.5,11.4,2.4c3.5-0.1,8.3,0.2,11.2-2.3c2.1-1.8,2.6-4.8,1.1-7.1
					c-1.1-1.6-3.7-0.1-2.6,1.5c3.2,4.8-8.2,4.8-9.7,4.9c-2.3,0.1-13.2,0.4-9.4-5C1102.2,288,1099.6,286.5,1098.5,288L1098.5,288z"/>
			</g>
		</g>
		<g>
			<g>
				<path d="M1101.1,277.3c1.8-8.2-4.2-14.7-8.1-21.3c-4.8-8.1-9.1-16.9-10.2-26.4c-1-8.3,0.6-17.3,5.6-24.2
					c5.9-8.1,16.2-11.3,25.9-11.4c19.9-0.3,23.7,24.2,23.6,39.6c0,10.7-3.5,18.8-10,27.1c-4.4,5.6-8,11.6-6.5,18.9
					c0.4,1.9,3.3,1.1,2.9-0.8c-2-9.6,6.7-16,11.2-23.4c3.6-5.8,5.1-12.6,5.4-19.4c0.5-12.1-1.3-27.7-9.2-37.4
					c-8.2-10.2-23.3-9-34.2-4.1c-12.1,5.3-18,17.9-18,30.7c0,7.7,2.3,15.3,5.5,22.3c1.9,4.2,4.2,8.3,6.7,12.3
					c3.1,5,7.8,10.5,6.5,16.8C1097.8,278.4,1100.7,279.2,1101.1,277.3L1101.1,277.3z"/>
			</g>
		</g>
	</g>
	<g id="torso">
		<path class="st3" d="M1193.9,485.5c12.3-8.5,39.7-25,78.2-27.8c50.6-3.8,87.5,18.4,99.3,26.2c1.4,14,3,35.4,2.5,61.6
			c-1,48.6-8.4,70.9-11,113.8c-1.3,21.6-1.7,53,3.4,91.7c-17,5.7-46.3,13.1-82.8,10.3c-32.4-2.5-57.6-12-73.1-19.3
			c-0.8-14.6-2.3-36.7-5.5-63.5c-3.8-31.6-7.7-52.4-9.7-64.1C1190.6,586,1187.1,543.6,1193.9,485.5z"/>
	</g>
	<g id="leg_left">
		<path d="M1147.1,896.7c-7.6,3-13.9,5.1-18.3,6.5c-19,6-26.8,6.2-35.6,13.4c-2,1.6-4.7,4.2-9.9,11.8c-7.8,11.6-13.1,22.8-20.9,43.3
			c-7.2,19-12.9,34.2-18.2,56c-2.5,10.2-4.2,18.9-5.3,25.4c4.4-2,11.4-5.5,19-11.3c21.1-16,26.6-33.7,48.4-65.7
			c4.5-6.6,11.4-16.4,20.8-27.9c4.9-3.5,13.2-8.5,24.4-11.2c7.5-1.7,14-1.9,18.9-1.7c-0.8-3.4-1.7-6.8-2.5-10.2
			C1161,915.6,1154.1,906.2,1147.1,896.7z"/>
		<path class="st5" d="M1131.3,878.1c1.3,0.7,3.3,1.7,5.5,3.2c9.5,6.6,13.8,15.2,16.9,21.1c14.1,27,16.9,24.8,25.8,46
			c3.7,8.8,6.2,16.3,7.8,21.5c6.2-2.4,15.3-6.1,26.2-11.2c25.4-11.9,43.7-23.5,100.1-63.8c47.2-33.8,8.3-7,81-61.9
			c2.6-1.9,20.7-15.6,37.6-38.7c11.2-15.2,14.6-24.6,15.6-33.5c0.7-5.7,2.5-20.3-6.9-32.4c-6.2-8-14.3-11.2-17.7-12.4
			c-8.3-3.1-19.6-4.3-39.1,1.8c-19.9,6.3-33.8,15.7-59,34.5c-19.5,14.6-31.4,24.1-41.5,31.9c-33,25.7-60.8,47.4-96.5,67.4
			C1174.1,858.7,1155.3,868.5,1131.3,878.1z"/>
		<path class="st13" d="M1441.3,728.8c-4.4,10.2-11.6,25.3-22.6,42.4c-40.9,63.8-96.3,95.6-131.2,115.1
			c-25.7,14.4-64.8,32.9-116.1,45.5c2.7,5,5.4,10.5,8,16.6c3.3,7.6,5.8,14.9,7.8,21.5c11.5-4.7,28-11.9,47-22
			c27.5-14.7,36-22.5,97.8-67c0,0,37.1-26.6,81-64.7c2.5-2.2,16.5-14.5,27.2-34.6c6.9-13,7.9-20.7,8.1-25.4
			C1448.9,743.6,1444.1,733.7,1441.3,728.8z"/>
		<g>
			<g>
				<path d="M1134,878.9c44.2-20,85.9-45,124.6-74.2c19.2-14.4,37.8-29.6,57.1-43.8c18.6-13.7,37.9-27.4,58.8-37.5
					c19.8-9.5,48.4-14.7,64.4,4.7c16,19.4,5.8,46.1-7,64c-13.6,19.1-31.4,34.6-49.7,48.9c-19.5,15.3-39.5,30.1-59.4,45
					c-42.4,31.9-85.9,63.5-135.9,82.4c-1.8,0.7-1,3.6,0.8,2.9c46.3-17.5,87.2-45.8,126.7-75.2c21-15.7,42-31.5,62.8-47.5
					c18.7-14.3,37.2-29.4,51.9-47.9c13.1-16.4,24.8-37.2,19.6-59c-4.9-20.3-24-30.7-44-29.9c-23.5,0.9-45.2,15.4-64.2,27.9
					c-20.6,13.6-40.1,28.8-59.6,44c-23.1,18-46.4,35.6-71.3,51.2c-24.8,15.6-50.6,29.4-77.3,41.4
					C1130.7,877.1,1132.2,879.7,1134,878.9L1134,878.9z"/>
			</g>
		</g>
		<g>
			<g>
				<path d="M1130.6,879.4c8.3,3.5,13.7,12.4,18.8,19.5c5,6.9,9.6,14,13.9,21.2c9,15.2,16.5,31.2,22.5,47.8c0.7,1.8,3.6,1,2.9-0.8
					c-6.3-17.4-14.2-34.2-23.7-50.1c-4.8-8-10-15.8-15.6-23.3c-4.8-6.4-9.6-13.8-17.2-17C1130.3,876.1,1128.8,878.6,1130.6,879.4
					L1130.6,879.4z"/>
			</g>
		</g>
		<g>
			<g>
				<path d="M1146.7,895.2c-9.1,3.2-18.1,6.4-27.2,9.7c-8.2,2.9-17.1,5.3-24.9,9.2c-6.5,3.2-10.1,8.9-13.5,15.1
					c-4.4,7.9-8.4,15.9-12.3,24c-14.8,31.6-25.3,65.1-31.4,99.4c-0.2,1,0.7,2.3,1.8,1.8c13.5-4.7,23.8-14.5,32.5-25.5
					c10.6-13.4,20-27.8,29.3-42.1c8.5-13,15.9-28.2,27.9-38.5c6-5.1,12.9-7.9,20.6-9.5c7.1-1.5,14.1-2.7,20.1-7.1
					c1.6-1.1,0.1-3.7-1.5-2.6c-6.4,4.6-14.1,5.5-21.6,7.3c-6.4,1.5-12.2,4-17.4,8c-11.1,8.5-18.1,21.2-25.4,32.8
					c-9.4,14.8-19.2,29.5-29.6,43.7c-9.4,12.8-20.2,25.3-35.6,30.6c0.6,0.6,1.2,1.2,1.8,1.8c5.9-32.9,15.7-65,29.6-95.4
					c3.4-7.4,7-14.6,10.8-21.8c3.9-7.4,7.6-15.7,15.4-19.6c8.2-4,17.5-6.5,26-9.5c8.4-3,16.9-6,25.3-9
					C1149.3,897.5,1148.6,894.6,1146.7,895.2L1146.7,895.2z"/>
			</g>
		</g>
	</g>
	<g id="folder">
		<path class="st4" d="M1074.9,603.3c12.8,64.5,25.7,129,38.5,193.5c50.7,2.7,101.3,5.4,152,8.1c-10.1-67.4-20.1-134.8-30.2-202.1
			C1181.8,603,1128.4,603.1,1074.9,603.3z"/>
		<path class="st14" d="M1189.5,602.9c3.1,18.2,5.5,37.9,6.8,59.1c3.3,53.4-1.5,100.5-8.6,138.8c25.9,1.4,51.8,2.8,77.8,4.1
			c-10.1-67.4-20.1-134.8-30.2-202.1C1220,602.9,1204.7,602.9,1189.5,602.9z"/>
	</g>
	<g id="hand_left">
		<path class="st5" d="M1340.9,488.6c-3.9,3.8-4.7,8.9-5.2,17.3c-1.1,21.4,1.9,37.8,1.9,37.8c3.6,19.3,4.6,39,7.1,58.4
			c2.9,22.2,4.2,33.5-1.5,43.4c-4.7,8.2-12.4,14-14.7,15.7c-8.3,6.1-16,8.5-22.6,10.3c-12,3.4-28.7,7.8-49.8,11.9
			c-5.6-7.4-11.5-11.8-15.4-14.2c-5.5-3.4-14.4-9.1-19.8-5.7c-2.5,1.6-4.2,5.3-3.4,7.8c1.1,3.3,5.8,2.8,8.6,6.8
			c1.8,2.6,1.8,5.8,1.6,7.8c-3.9,0.8-9.8,1.8-17.1,2.3c-13.8,0.9-17.6-0.9-29.2,0c-11.6,0.9-26.5,4.2-26.6,7.8c0,2.6,7.8,4.6,10,5.2
			c6.1,1.6,9.3,0.8,17.7,1.3c6.7,0.4,14.5,1.5,14.5,2.3c0,1.8-38.9-0.9-40.9,8.4c-0.6,2.7,2,5.4,3.8,7.3c2,2.2,6.4,5.9,25.9,7.8
			c4,0.4,9.5,0.8,16,0.8c-5.8,2.9-11.5,5.8-17.3,8.7c0,0.7,0,1.7,0.6,2.7c3.3,5.8,19.9,2,27.6,0.3c10-2.3,24.5-6.7,41.4-16.3
			c15.1-0.6,27.5-1.8,36.1-2.8c36-4.3,54.4-11.2,65.7-16.3c12.4-5.6,18.6-10.3,23.2-16.7c1.4-2,4.9-7.3,8.7-23.5
			c3.8-16.3,4.5-29.2,4.7-33.2c0.4-7.8,0.7-21.1-1.6-52.1c-3.5-46.4-5.2-29.6-7.9-60.3c-0.3-3.6-1.2-14.5-8.3-24.8
			c-2.1-3.1-4.8-6.9-9.8-9.3C1357.2,482,1346.7,482.8,1340.9,488.6z"/>
		<path class="st15" d="M1360,484c2,7.1,4.7,17.5,7.1,30.2c1.5,8,5.8,33,4.3,97.7c-1,40.8-3.1,46.4-6.4,51.8
			c-8.9,14.4-23.4,20.6-52.3,33.1c-24,10.3-39.9,17.2-63,20.8c-10.6,1.7-26.9,3.3-47.8,11.7c-3.1,1.2-19.3,7.8-18.6,10.9
			c0.6,2.4,11.2,1.9,20.5,1.4c10.8-0.6,16.4-0.9,23.6-3c5.8-1.7,15.9-5.6,26.3-14.9c16.2,0.1,29.7-1,39.7-2.2
			c16-1.9,34.1-4.1,55.3-12.9c13.5-5.6,23-9.7,30.4-19.8c2-2.7,5.8-8.7,9.6-27.8c2.9-14.5,4.1-28.8,4.1-46.6c0-9-1.3-24.3-3.8-54.9
			c-2.1-24.9-0.1,2.8-7-44.9c-0.7-4.9-1.8-12.6-7.5-19.8C1369.9,488.8,1364,485.6,1360,484z"/>
		<g>
			<g>
				<path d="M1339.1,494.8c3.8-11.8,18.5-12.8,27.3-6.3c9.9,7.2,13,19.7,14.9,31.1c4.1,24.8,7.5,49.9,9.2,74.9
					c1.7,25.4,1.1,51.3-5.6,76c-3.3,12.2-8.3,21.9-19.4,28.5c-10,5.9-21.1,10.1-32.2,13.4c-25.8,7.6-52.8,9.5-79.6,9.8
					c-1.9,0-1.9,3,0,3c26.7-0.4,53.8-2.3,79.6-9.7c12.3-3.5,25-8.2,35.8-15.2c10.1-6.5,15-15.9,18.2-27.2
					c7.7-27.3,8.1-56.1,5.8-84.2c-1.1-14-2.9-27.9-4.8-41.8c-1.9-13.8-2.8-28.4-7.1-41.7c-3.5-10.6-11-21.3-22.6-23.6
					c-9.4-1.9-19.4,3.1-22.4,12.3C1335.6,495.8,1338.5,496.6,1339.1,494.8L1339.1,494.8z"/>
			</g>
		</g>
		<g>
			<g>
				<path d="M1337.1,490.8c-4.9,15.3-3.1,32-1.5,47.7c1.7,16.5,4.3,32.8,6.2,49.3c1,8.2,1.8,16.4,2.2,24.7
					c0.5,8.5,1.1,17.6-0.3,26.1c-2.8,16-17.9,23.4-31.5,29c-17.6,7.2-36.2,11.9-55.1,14.2c-1.9,0.2-1.9,3.2,0,3
					c16.7-2,33.2-5.8,49-11.6c12.5-4.6,27-10,35.2-21.2c9-12.3,6.4-31,5.3-45.2c-1.3-18.1-4.2-36-6.4-54
					c-2.5-19.6-6.5-41.9-0.3-61.2C1340.5,489.8,1337.6,489,1337.1,490.8L1337.1,490.8z"/>
			</g>
		</g>
		<g>
			<g>
				<path d="M1257.2,682.5c-9.2-9.9-20.6-21.6-35.4-20.4c-4,0.3-8.6,2.4-7.2,7.2c0.7,2.4,2.7,3.9,4.7,5.2c4.2,2.7,7.2,5.5,8.5,10.5
					c0.5,1.9,3.4,1.1,2.9-0.8c-1-3.7-2.8-7.1-5.8-9.6c-1.3-1.1-5.7-2.9-6.2-4.2c0.4-1.7,0.9-3.4,1.3-5.1c0.9-0.1,1.7-0.2,2.6-0.3
					c1.5-0.1,3.1,0.1,4.6,0.3c11.7,1.9,20.2,11,27.9,19.3C1256.4,686,1258.5,683.9,1257.2,682.5L1257.2,682.5z"/>
			</g>
		</g>
		<g>
			<g>
				<path d="M1227.4,684.5c-12.4,4.4-26.2,1.3-39.1,1.8c-5.9,0.2-11.8,0.8-17.7,1.7c-4.6,0.7-11.3,0.8-15.1,4
					c-5.9,4.9,1.5,9.9,6.4,10.5c13.1,1.8,26.7,1.5,39.9,2.2c1.9,0.1,1.9-2.9,0-3c-9.7-0.5-19.5-1-29.2-1.5c-2.6-0.1-5.2-0.2-7.8-0.4
					c-1.3-0.1-12-1-6.9-5.8c1.4-1.3,5-1.5,6.8-1.9c2.2-0.4,4.4-0.8,6.6-1.2c10-1.5,20.2-2,30.3-1.6c8.9,0.4,17.8,1.1,26.4-1.9
					C1230,686.8,1229.2,683.9,1227.4,684.5L1227.4,684.5z"/>
			</g>
		</g>
		<g>
			<g>
				<path d="M1201.2,703.1c-10,0.6-20.7,0.2-30.5,2.5c-4.5,1.1-8.9,2.9-13,5.1c-1.9,1-4.7,2.2-4.2,4.8c1,6,15.2,5.9,19.5,6
					c10.8,0.1,21.4-1.9,32.2-1.1c1.9,0.1,1.9-2.9,0-3c-7.5-0.5-14.9,0.2-22.4,0.7c-6.9,0.5-16.9,1.8-23.3-1.5
					c-4.3-2.2-2-2.5,0.4-3.7c1.9-1,3.8-1.9,5.8-2.6c3.7-1.4,7.5-2.3,11.4-2.7c7.9-0.8,16-1,23.9-1.5
					C1203.1,706,1203.1,703,1201.2,703.1L1201.2,703.1z"/>
			</g>
		</g>
		<g>
			<g>
				<path d="M1159.2,721.8c13,6.7,27.4,9.5,41.9,7.9c1.9-0.2,1.9-3.2,0-3c-14,1.5-27.9-1-40.4-7.5
					C1159,718.4,1157.5,720.9,1159.2,721.8L1159.2,721.8z"/>
			</g>
		</g>
		<g>
			<g>
				<path d="M1201.5,727.8c-7.5,1.7-15.8,4.2-19.5,11.6c-0.3,0.7-0.2,1.7,0.5,2.1c5.3,2.4,10.7,2.1,16.4,1.9
					c7.4-0.4,14.9-0.8,22.3-2c12.6-2,24.7-6.6,34-15.6c1.4-1.3-0.7-3.5-2.1-2.1c-8.4,8.2-19.4,12.4-30.8,14.5
					c-6.5,1.2-13,1.7-19.5,2c-6.1,0.3-12.9,1.3-18.7-1.3c0.2,0.7,0.4,1.4,0.5,2.1c3.3-6.7,10.9-8.7,17.7-10.2
					C1204.1,730.2,1203.3,727.3,1201.5,727.8L1201.5,727.8z"/>
			</g>
		</g>
	</g>
	<g id="head">
		<path class="st5" d="M1197,356.2c-3,7.1-3.4,14.1-4,22.6c-0.3,4.3-0.9,17.8,3.6,34.8c2.8,10.6,5.8,22.1,15.1,33.6
			c8.1,10,17.4,15.6,23.3,18.5c4.1-1.2,8.5-2.6,13.2-4.5c4.6-1.8,8.8-3.8,12.6-5.7c0.2,3.7,0.9,10.3,4.7,17.4
			c3.2,6.1,7.3,10.1,9.9,12.3c3-1.3,6.4-3,10-5.6c8.5-6.1,13.2-13.6,15.7-18.3c-1.4-5.8-2.7-12.4-3.5-19.7c-1.4-13-1-24.5,0-33.9
			c2.2,0,5.7-0.3,9.3-2.1c8.1-4.1,10.8-12.6,12-16.6c2.9-9.4,1.3-17.4,0.2-22.5c-1-4.5-4.4-20.2-17.9-31.9
			c-16.9-14.5-38-12.7-47.1-12C1234.7,324.3,1206.4,333.9,1197,356.2z"/>
		<path class="st16" d="M1282.3,340.2c1.3,6.1,2.5,14.3,2.7,23.9c0,2.8,0.2,19.1-4.9,37.6c-8.5,30.6-27.4,51.9-36.3,61.1
			c6.1-2.3,14.2-6,22.7-12.3c10.5-7.8,17.2-16.5,21.3-22.5c1.4,15.2,2.8,30.3,4.2,45.5c3-3.4,6-6.8,9-10.2c-1.8-9-3.4-19.7-3.7-31.9
			c-0.3-9.2,0.2-17.6,1-25c1.5,0.4,4.2,0.8,7.3-0.2c0.8-0.2,3.8-1.2,7.3-5.2c5.6-6.3,6.8-13.7,7.3-16.8c0.5-3.3,0.9-8.2-0.5-15.7
			c-2.2-12.1-5.1-27.9-16.3-32.1C1295.1,333.5,1286.5,337.7,1282.3,340.2z"/>
		<path class="st2" d="M1193.2,370.5c-2.9-6.6-5.8-15.9-3.6-26c3.3-14.9,15.5-22.7,27.9-33.1c11.6-9.6,27-24.4,42.7-46.7
			c-1.5,8.5-3.1,16.9-4.6,25.4c6.4-5.7,13.5-11.6,21.2-17.5c5-3.8,10-7.3,14.8-10.6c-1.4,1.9-4.9,7.2-5.1,14.8
			c-0.2,8.4,3.6,14.2,4.9,16.1c1.4-1.9,3.7-4.7,6.6-8.2c4.1-4.8,5.3-5.8,7.4-8.8c4.3-6.1,4.9-10.1,5.7-10c1.3,0.2,1.8,9.2-0.6,45.1
			c4.7-5.3,9.4-10.7,14-16c0.8,11.7,1.7,23.4,2.5,35.1c1,5.6,1.8,13.8,0.6,23.4c-1.4,10.7-4.7,19-7.4,24.5c-2.1-1.9-5.2-4.1-9.2-4.3
			c-4.8-0.2-6.4,2.5-9.5,2.3c-6.7-0.5-7.7-13.8-16-24.3c-8.1-10.3-19.8-13.6-27.2-15.7c-6.9-1.9-28-7.8-46.2,4.9
			C1198.3,350.5,1194.3,365.6,1193.2,370.5z"/>
		<g>
			<g>
				<path d="M1195.7,355.4c-5,9.7-4.4,20.9-4,31.5c0.5,11.9,2.1,23.9,5.7,35.3c6,18.9,18.1,36.2,36.4,44.7c1.7,0.8,3.3-1.8,1.5-2.6
					c-17.6-8.2-29.3-24.7-35-42.9c-3.3-10.3-4.8-21.1-5.4-31.8c-0.6-10.8-1.7-22.9,3.4-32.8C1199.2,355.2,1196.6,353.7,1195.7,355.4
					L1195.7,355.4z"/>
			</g>
		</g>
		<g>
			<g>
				<path d="M1235.4,467.1c29.5-7.7,53.7-30.2,63.6-58.9c0.6-1.8-2.3-2.6-2.9-0.8c-9.6,27.8-33.1,49.5-61.5,56.8
					C1232.7,464.7,1233.5,467.6,1235.4,467.1L1235.4,467.1z"/>
			</g>
		</g>
		<g>
			<g>
				<path d="M1296.9,408.4c7-0.1,13.5-1,17.5-7.3c3.7-5.8,8.6-14.6,7.8-21.7c-0.6-5.4-6.1-8.2-11-8.4c-5.8-0.2-11.1,2.9-14,7.8
					c-1,1.7,1.6,3.2,2.6,1.5c2.4-4,6.7-6.5,11.4-6.3c1.8,0.1,4,0.6,5.5,1.7c4.1,3.1,2.3,8,1.1,11.7c-1.4,4.1-3.5,8.5-6,12.2
					c-3.6,5.3-9.1,5.7-14.9,5.8C1294.9,405.4,1294.9,408.4,1296.9,408.4L1296.9,408.4z"/>
			</g>
		</g>
		<g>
			<g>
				<path d="M1296.6,406.4c-1.2,18.5-2.1,37.2,3,55.3c0.5,1.9,3.4,1.1,2.9-0.8c-5-17.8-4-36.2-2.9-54.5
					C1299.7,404.5,1296.7,404.5,1296.6,406.4L1296.6,406.4z"/>
			</g>
		</g>
		<g>
			<g>
				<path d="M1259.3,455.9c0.9,6.9,2.8,13.6,5.8,19.9c1.6,3.5,4.3,11.2,9,11.2c5.1,0,10.8-4.9,14.4-8.1c5.3-4.9,9.9-10.6,14.7-16.1
					c1.3-1.4-0.8-3.6-2.1-2.1c-3.5,4-7,8.1-10.7,12.1c-3.7,3.9-8.5,9.1-13.9,10.5c-3.4,0.9-4.4-1-6-3.7c-1.3-2.2-2.5-4.5-3.5-6.8
					c-2.5-5.6-4-11.6-4.8-17.7C1261.9,453.2,1259,454,1259.3,455.9L1259.3,455.9z"/>
			</g>
		</g>
		<g>
			<g>
				<path d="M1224.4,351c-1.5,20-2,40.1-1.3,60.1c0,1.4,2.1,2.2,2.8,0.8c2.8-5.9,5.6-11.8,8.4-17.7c0.8-1.7-1.8-3.3-2.6-1.5
					c-2.8,5.9-5.6,11.8-8.4,17.7c0.9,0.3,1.9,0.5,2.8,0.8c-0.7-20.1-0.3-40.1,1.3-60.1C1227.6,349.1,1224.6,349.1,1224.4,351
					L1224.4,351z"/>
			</g>
		</g>
		<g>
			<g>
				<path d="M1233.6,428.2c-2.4-1.5-3.8-4.7-2.4-7.4c1-1.8,3-2.9,4.7-4c1.8-1.2,3.5-2.3,4.9-3.9c1.7-1.9,2.6-4.3,3.8-6.5
					c2.3-4.4,7-10.1,12.1-5.3c6.1,5.8,0.7,18.9-4.3,23.9c-5.1,5-12.9,6.1-19.2,3c-1.7-0.8-3.3,1.7-1.5,2.6c8,3.9,18,2.4,23.9-4.6
					c5.8-6.9,11.1-21.8,1.9-28.2c-3.5-2.4-7.5-2-10.8,0.6c-4.4,3.6-5.1,9.8-9.1,13.6c-3.5,3.3-9,4.6-9.8,10
					c-0.6,3.7,1.3,6.9,4.3,8.9C1233.7,431.8,1235.2,429.2,1233.6,428.2L1233.6,428.2z"/>
			</g>
		</g>
		<ellipse cx="1211.6" cy="370.1" rx="2.2" ry="7.1"/>
		<ellipse cx="1247.3" cy="365.5" rx="2.2" ry="7.1"/>
	</g>
</g>
</svg>
