<svg viewBox="0 0 380 291" fill="none" xmlns="http://www.w3.org/2000/svg">
  <g clip-path="url(#clip0_476_496)">
    <path d="M351.128 195.624C348.69 205.376 344.462 215.109 340.758 223.788C326.684 256.563 302.935 278.976 265.751 274.395C247.829 272.181 230.289 266.073 212.244 266.663C194.98 267.204 178.545 273.805 162.147 279.305C131.676 289.54 97.938 296.093 67.7998 284.824C37.6615 273.554 14.227 238.885 24.9492 208.15C33.2908 184.161 59.3725 168.068 62.0864 142.784C65.6572 109.922 27.3393 81.5742 35.4238 49.5051C38.8613 36.0028 49.9263 25.951 61.6483 18.7021C88.5776 1.99102 121.687 -3.5278 152.625 2.15533C182.049 7.51951 206.531 32.6683 236.184 33.8282C255.305 34.5627 273.702 23.5347 292.746 25.3518C316.305 27.6618 333.578 48.8382 344.596 70.1113C348.142 76.7523 351.109 83.6959 353.461 90.8625C358.038 105.467 358.968 120.997 356.165 136.057C353.309 151.521 353.651 166.019 353.213 181.88C353.021 186.525 352.322 191.135 351.128 195.624Z" fill="#F0F4FE"/>
    <path d="M147.054 258.244C145.892 258.612 144.588 259.211 144.292 260.38C147.949 262.739 152.472 263.28 156.795 263.164C161.118 263.048 165.432 262.275 169.765 262.246C175.478 262.246 181.915 263.28 186.505 259.762C184.467 258.452 182.126 257.705 179.716 257.597C180.563 252.184 150.444 257.171 147.054 258.244Z" fill="url(#paint0_linear_476_496)"/>
    <path d="M73.6461 193.768C72.1035 193.768 69.9705 194.56 70.3514 196.078L140.75 201.877C149.035 202.563 157.329 203.24 165.651 203.24C178.221 203.24 190.733 201.674 203.274 200.939C215.082 200.253 226.908 200.301 238.726 200.359C249.667 200.417 263.122 202.418 273.749 199.509C275.349 199.074 276.958 197.769 276.853 196.097C276.806 195.324 276.406 194.522 276.701 193.806C276.872 193.456 277.144 193.166 277.482 192.975C279.662 191.612 282.443 192.676 284.957 193.236C288.958 194.119 293.137 193.58 296.793 191.709C297.478 191.42 298.062 190.928 298.469 190.298C298.663 189.98 298.733 189.6 298.666 189.232C298.599 188.864 298.4 188.534 298.107 188.307C297.811 188.158 297.485 188.082 297.155 188.085L275.606 186.384C274.81 186.259 273.996 186.331 273.235 186.596C272.387 186.973 272.435 187.978 271.749 188.394C270.635 189.061 268.102 188.703 266.826 188.781C263.56 188.964 260.294 189.148 257.018 189.312C250.499 189.628 243.966 189.895 237.421 190.114C224.09 190.569 210.692 190.839 197.332 191.081C170.907 191.516 144.473 191.748 118.058 192.782C103.251 193.343 88.4534 193.439 73.6461 193.768Z" fill="url(#paint1_linear_476_496)"/>
    <path d="M127.781 44.8562C126.542 44.4193 125.188 44.4536 123.972 44.9528C123.188 45.2369 122.47 45.6847 121.867 46.2673C121.263 46.85 120.787 47.5546 120.468 48.3356C120.462 48.4372 120.434 48.5362 120.387 48.626C120.34 48.7159 120.275 48.7946 120.195 48.8568C120.116 48.919 120.025 48.9633 119.927 48.9868C119.83 49.0102 119.728 49.0123 119.63 48.9929C118.244 48.9896 116.907 49.5098 115.878 50.4523C114.678 51.5638 114.678 52.9266 114.516 54.5213C114.32 54.4211 114.103 54.3688 113.883 54.3688C113.663 54.3688 113.446 54.4211 113.25 54.5213C112.858 54.7176 112.5 54.979 112.193 55.2946C111.668 55.7227 111.247 56.2686 110.965 56.8893C110.584 57.9428 111.012 59.1027 111.031 60.2238C111.038 60.274 111.034 60.3252 111.019 60.3736C111.004 60.422 110.979 60.4665 110.945 60.5041C110.906 60.5211 110.864 60.5299 110.822 60.5299C110.779 60.5299 110.737 60.5211 110.698 60.5041C110.403 60.4461 110.136 60.2915 109.841 60.2625C109.496 60.2658 109.162 60.3911 108.898 60.6169C108.634 60.8426 108.455 61.1548 108.394 61.4996C108.281 62.1919 108.317 62.9006 108.498 63.5776C108.675 64.2551 108.655 64.97 108.441 65.6363C108.213 66.074 107.913 66.4694 107.556 66.8058C106.523 67.7827 105.851 69.0891 105.651 70.5076C105.595 71.1931 105.777 71.8769 106.165 72.4406C106.365 72.7189 106.632 72.94 106.941 73.0823C107.249 73.2246 107.589 73.2833 107.927 73.2525C109.508 73.0399 110.06 70.7879 111.564 70.2563C113.069 69.7247 114.754 67.927 115.726 66.5062C116.507 65.3657 117.268 64.0416 118.582 63.6066C119.015 63.5133 119.432 63.3571 119.82 63.1427C120.079 62.938 120.293 62.6813 120.449 62.3888C120.993 61.5745 121.413 60.6818 121.696 59.7406C122.172 57.8848 121.696 55.7972 122.582 54.0864C122.835 53.5957 123.187 53.1647 123.615 52.8215C124.043 52.4784 124.538 52.231 125.067 52.0954C125.515 51.9794 126.019 51.9504 126.429 51.8248C126.947 51.6731 127.436 51.4346 127.876 51.1192C128.455 50.7811 128.954 50.3173 129.336 49.7609C129.718 49.2045 129.974 48.5693 130.085 47.9007C130.171 46.5379 128.962 45.3201 127.781 44.8562Z" fill="#FF8B8B"/>
    <path d="M131.675 47.1468C132.151 47.3332 132.546 47.6857 132.788 48.1411C133.031 48.5964 133.106 49.1246 132.999 49.6308C132.836 50.0401 132.593 50.4116 132.285 50.7229L130.561 52.656L129.847 49.9691C129.773 49.4649 129.527 49.0031 129.152 48.6643C128.907 48.5218 128.63 48.4469 128.347 48.4469C128.065 48.4469 127.788 48.5218 127.543 48.6643C127.038 48.9252 126.59 49.3312 126.143 49.6308C126.019 49.7081 125.848 49.7951 125.714 49.7178C125.581 49.6404 125.562 49.3601 125.629 49.1668C126.448 46.8665 129.58 46.2286 131.675 47.1468Z" fill="#FF8B8B"/>
    <path d="M132.847 119.858C132.899 120.763 133.196 121.636 133.704 122.381C134.475 123.347 135.761 123.83 136.827 124.536C136.937 124.593 137.033 124.673 137.109 124.772C137.185 124.87 137.238 124.984 137.265 125.106C137.259 125.224 137.219 125.337 137.149 125.432C137.08 125.526 136.984 125.598 136.875 125.638C136.649 125.703 136.412 125.719 136.18 125.686C135.092 125.513 133.995 125.406 132.895 125.367C132.342 125.367 131.704 125.425 131.352 124.99C131.125 124.622 131.047 124.179 131.133 123.753C131.23 122.155 131.102 120.55 130.752 118.988C130.635 118.607 130.593 118.207 130.628 117.809C130.664 117.625 130.746 117.454 130.867 117.313C130.988 117.171 131.144 117.064 131.318 117.003C131.492 116.941 131.679 116.927 131.861 116.962C132.042 116.996 132.211 117.078 132.352 117.2C132.98 117.751 132.771 119.114 132.847 119.858Z" fill="#FCBDBA"/>
    <path d="M115.231 125.841C115.101 126.737 115.213 127.652 115.554 128.489C116.116 129.639 117.287 130.325 118.192 131.234C118.29 131.31 118.369 131.408 118.424 131.52C118.478 131.633 118.507 131.756 118.506 131.882C118.478 131.995 118.417 132.098 118.33 132.176C118.243 132.253 118.135 132.302 118.021 132.316C117.789 132.341 117.554 132.311 117.335 132.23C116.3 131.846 115.245 131.524 114.174 131.263C113.631 131.166 112.993 131.07 112.736 130.586C112.58 130.183 112.58 129.734 112.736 129.33C113.149 127.781 113.342 126.179 113.307 124.575C113.268 124.178 113.307 123.777 113.421 123.396C113.493 123.223 113.608 123.072 113.754 122.959C113.901 122.845 114.075 122.772 114.258 122.748C114.441 122.724 114.627 122.748 114.797 122.819C114.968 122.891 115.117 123.006 115.231 123.154C115.773 123.801 115.297 125.097 115.231 125.841Z" fill="#FCBDBA"/>
    <path d="M111.764 82.3474C111.764 82.3474 120.848 96.0334 126.8 100.122C126.686 101.49 126.714 102.867 126.886 104.229C127.19 106.443 128.247 108.385 128.59 110.56L129.733 117.877C129.78 118.205 129.876 118.602 130.19 118.718C130.379 118.779 130.582 118.779 130.771 118.718L133.285 118.022C133.134 113.625 133.226 109.224 133.561 104.838C133.767 103.065 133.812 101.275 133.694 99.4935C133.275 95.6274 130.152 92.1769 127.981 89.0744C126.676 87.1994 125.276 84.3965 123.448 82.9757C121.925 81.7965 119.772 82.3571 117.858 82.5504C116.423 82.6895 114.975 82.5849 113.573 82.2411C113.287 82.1049 112.971 82.0433 112.656 82.0619C112.34 82.0804 112.033 82.1786 111.764 82.3474Z" fill="#473F47"/>
    <path d="M108.308 82.2605C108.308 82.2605 111.84 98.3723 115.925 104.384C115.332 105.622 114.863 106.917 114.526 108.25C114.3 109.341 114.17 110.451 114.135 111.565L113.316 125.019C114.582 125.087 115.85 124.923 117.059 124.536L121.706 112.677C122.593 110.788 123.116 108.744 123.248 106.655C123.248 102.615 119.439 87.8663 118.992 87.1221C117.992 85.45 115.792 85.189 113.945 84.6478C112.558 84.2498 111.247 83.6158 110.069 82.7727C109.488 82.4054 108.965 82.0478 108.308 82.2605Z" fill="#473F47"/>
    <path d="M140.922 69.715C142.858 70.6218 145.006 70.9567 147.121 70.6816C147.741 70.5081 148.391 70.4751 149.025 70.5849C148.749 70.9812 148.482 71.5514 148.873 71.8897C148.992 71.9691 149.13 72.0157 149.273 72.025C149.786 72.0922 150.308 72.0359 150.796 71.8607C151.027 71.7447 151.282 71.6883 151.539 71.6964C151.766 71.7536 151.961 71.8995 152.082 72.1023C152.204 72.305 152.241 72.5483 152.187 72.7789C152.052 73.2391 151.753 73.6318 151.349 73.8807C150.695 74.3204 149.937 74.5754 149.154 74.6195C148.371 74.6637 147.59 74.4954 146.892 74.132C146.492 73.9097 146.121 73.6295 145.711 73.4072C144.924 73.0428 144.091 72.7892 143.236 72.6533C140.732 72.1273 138.272 71.41 135.875 70.5076C135.512 70.4199 135.17 70.2581 134.87 70.0322C134.571 69.8062 134.32 69.5207 134.132 69.1931C133.647 67.9753 134.542 65.936 135.97 66.7285C137.627 67.7047 139.122 68.9612 140.922 69.715Z" fill="#FCBDBA"/>
    <path d="M129.095 62.7754C131.923 64.6518 135.077 65.9639 138.389 66.6415C138.531 66.6415 138.703 66.7381 138.741 66.8831C138.756 66.9818 138.732 67.0826 138.674 67.1634C137.998 68.5452 137.143 69.8291 136.132 70.9812C136.023 71.1274 135.883 71.2464 135.722 71.3291C135.564 71.3761 135.398 71.3901 135.235 71.3702C135.071 71.3503 134.913 71.2968 134.77 71.2131C132.631 70.3433 130.536 69.3767 128.485 68.3136C126.661 67.5012 125.035 66.29 123.724 64.7665C123.071 63.9758 122.683 62.9936 122.62 61.9635C122.62 60.8231 123.648 58.774 125.067 59.3346C125.705 59.5859 126.267 60.3881 126.752 60.8424C127.493 61.5348 128.276 62.1804 129.095 62.7754Z" fill="#7497F7"/>
    <path d="M129.095 62.7754C131.923 64.6518 135.077 65.9639 138.389 66.6415C138.531 66.6415 138.703 66.7381 138.741 66.8831C138.756 66.9818 138.732 67.0826 138.674 67.1634C137.998 68.5452 137.143 69.8291 136.132 70.9812C136.023 71.1274 135.883 71.2464 135.722 71.3291C135.564 71.3761 135.398 71.3901 135.235 71.3702C135.071 71.3503 134.913 71.2968 134.77 71.2131C132.631 70.3433 130.536 69.3767 128.485 68.3136C126.661 67.5012 125.035 66.29 123.724 64.7665C123.071 63.9758 122.683 62.9936 122.62 61.9635C122.62 60.8231 123.648 58.774 125.067 59.3346C125.705 59.5859 126.267 60.3881 126.752 60.8424C127.493 61.5348 128.276 62.1804 129.095 62.7754Z" fill="url(#paint2_linear_476_496)"/>
    <path d="M168.955 57.015C169.464 57.6662 169.768 58.4578 169.827 59.2867C169.886 60.1155 169.698 60.9433 169.287 61.662C168.875 62.3807 168.261 62.957 167.522 63.316C166.784 63.6749 165.956 63.7998 165.146 63.6743C165.146 63.6743 160.642 63.7806 161.661 68.0913L170.231 79.1676L159.319 87.8663C155.072 88.9005 154.967 84.3288 154.967 84.3288C155.084 83.5082 154.955 82.6709 154.598 81.9252C154.241 81.1795 153.672 80.5595 152.964 80.1454C152.257 79.7312 151.443 79.5419 150.628 79.6019C149.813 79.6619 149.035 79.9684 148.394 80.4819C147.752 80.9954 147.277 81.6923 147.03 82.4825C146.783 83.2727 146.775 84.12 147.007 84.915C147.239 85.71 147.7 86.4161 148.332 86.9422C148.963 87.4683 149.735 87.7902 150.549 87.8663C154.424 89.1614 152.92 92.9888 152.92 92.9888L142.007 101.688L119.83 73.1075L130.637 64.4089C134.884 63.3747 134.989 67.9463 134.989 67.9463C134.888 68.6241 134.955 69.3167 135.182 69.962C135.41 70.6073 135.793 71.1849 136.295 71.643C136.798 72.1011 137.404 72.4253 138.061 72.5864C138.717 72.7475 139.403 72.7405 140.056 72.5661C140.709 72.3916 141.309 72.0552 141.803 71.5869C142.296 71.1187 142.667 70.5334 142.882 69.8837C143.097 69.2339 143.15 68.54 143.035 67.8644C142.921 67.1889 142.643 66.5527 142.226 66.0133C141.879 65.5701 141.447 65.2028 140.956 64.9337C140.465 64.6646 139.925 64.4992 139.369 64.4475C135.532 63.162 137.036 59.296 137.036 59.296L148.054 50.4716L156.624 61.5576C156.624 61.5576 160.433 63.0847 161.671 59.151C161.753 58.3272 162.075 57.5472 162.598 56.9113C163.12 56.2754 163.818 55.8128 164.602 55.583C165.385 55.3532 166.219 55.3668 166.995 55.622C167.771 55.8772 168.453 56.3624 168.955 57.015Z" fill="#7497F7"/>
    <path d="M168.955 57.015C169.464 57.6662 169.768 58.4578 169.827 59.2867C169.886 60.1155 169.698 60.9433 169.287 61.662C168.875 62.3807 168.261 62.957 167.522 63.316C166.784 63.6749 165.956 63.7998 165.146 63.6743C165.146 63.6743 160.642 63.7806 161.661 68.0913L170.231 79.1676L159.319 87.8663C155.072 88.9005 154.967 84.3288 154.967 84.3288C155.084 83.5082 154.955 82.6709 154.598 81.9252C154.241 81.1795 153.672 80.5595 152.964 80.1454C152.257 79.7312 151.443 79.5419 150.628 79.6019C149.813 79.6619 149.035 79.9684 148.394 80.4819C147.752 80.9954 147.277 81.6923 147.03 82.4825C146.783 83.2727 146.775 84.12 147.007 84.915C147.239 85.71 147.7 86.4161 148.332 86.9422C148.963 87.4683 149.735 87.7902 150.549 87.8663C154.424 89.1614 152.92 92.9888 152.92 92.9888L142.007 101.688L119.83 73.1075L130.637 64.4089C134.884 63.3747 134.989 67.9463 134.989 67.9463C134.888 68.6241 134.955 69.3167 135.182 69.962C135.41 70.6073 135.793 71.1849 136.295 71.643C136.798 72.1011 137.404 72.4253 138.061 72.5864C138.717 72.7475 139.403 72.7405 140.056 72.5661C140.709 72.3916 141.309 72.0552 141.803 71.5869C142.296 71.1187 142.667 70.5334 142.882 69.8837C143.097 69.2339 143.15 68.54 143.035 67.8644C142.921 67.1889 142.643 66.5527 142.226 66.0133C141.879 65.5701 141.447 65.2028 140.956 64.9337C140.465 64.6646 139.925 64.4992 139.369 64.4475C135.532 63.162 137.036 59.296 137.036 59.296L148.054 50.4716L156.624 61.5576C156.624 61.5576 160.433 63.0847 161.671 59.151C161.753 58.3272 162.075 57.5472 162.598 56.9113C163.12 56.2754 163.818 55.8128 164.602 55.583C165.385 55.3532 166.219 55.3668 166.995 55.622C167.771 55.8772 168.453 56.3624 168.955 57.015Z" fill="url(#paint3_linear_476_496)"/>
    <path d="M132.895 82.2218C135.228 84.1548 137.656 86.2328 140.512 86.7354C141.062 86.8604 141.631 86.8726 142.185 86.7713C142.739 86.6701 143.268 86.4574 143.741 86.1458C143.903 86.0475 144.036 85.9049 144.124 85.7341C144.211 85.5634 144.25 85.3712 144.236 85.1793C144.131 84.7057 143.56 84.5414 143.093 84.4544C140.911 84.1515 138.815 83.3877 136.942 82.2121C136.247 81.713 135.588 81.1639 134.97 80.569L130.333 76.3743C130.276 76.3044 130.205 76.2482 130.124 76.2097C130.044 76.1713 129.956 76.1516 129.866 76.152C129.676 76.152 129.562 76.3743 129.476 76.5483C129.188 77.142 128.971 77.7682 128.828 78.4137C128.686 79.1193 128.828 79.2159 129.428 79.6218C130.628 80.4466 131.784 81.3133 132.895 82.2218Z" fill="url(#paint4_linear_476_496)"/>
    <path d="M135.047 78.6843C136.66 80.1173 138.642 81.0558 140.76 81.3906C141.39 81.3993 142.011 81.5477 142.579 81.8255C142.188 82.1251 141.769 82.6374 142.065 83.0337C142.159 83.144 142.281 83.2272 142.417 83.2753C142.892 83.4809 143.406 83.5735 143.922 83.5459C144.176 83.5065 144.437 83.5263 144.683 83.6039C144.783 83.6629 144.87 83.7411 144.94 83.8343C145.009 83.9274 145.06 84.0336 145.089 84.1467C145.118 84.2598 145.125 84.3776 145.11 84.4935C145.094 84.6093 145.056 84.7209 144.998 84.8217C144.749 85.2312 144.353 85.526 143.893 85.6433C143.145 85.8826 142.348 85.9139 141.584 85.7336C140.82 85.5534 140.118 85.1684 139.551 84.6188C139.217 84.2902 138.941 83.9132 138.599 83.5943C137.943 83.0205 137.213 82.5423 136.427 82.1735C134.169 80.9555 132.004 79.5662 129.952 78.0174C129.628 77.8309 129.345 77.5797 129.119 77.2791C128.893 76.9784 128.73 76.6345 128.638 76.268C128.505 74.9536 129.924 73.2428 131.085 74.422C132.438 75.8138 133.533 77.4085 135.047 78.6843Z" fill="#FCBDBA"/>
    <path d="M108.308 84.3288C108.478 84.5363 108.693 84.7015 108.936 84.8121C109.894 85.3668 110.89 85.8513 111.917 86.2618C114.584 87.2308 117.503 87.2068 120.154 86.1942C121.214 85.8066 122.21 85.2557 123.106 84.5608C123.445 84.3258 123.731 84.0192 123.944 83.6619C124.196 83.0792 124.276 82.4341 124.172 81.8062C123.934 78.549 123.582 75.1855 124.172 72.025C124.362 70.9393 124.682 69.8811 125.124 68.8742C125.895 67.5 126.533 66.0531 127.029 64.5538C127.199 63.6325 127.168 62.6846 126.94 61.7764C126.711 60.8682 126.29 60.0217 125.705 59.296C124.467 57.6915 122.201 56.2708 120.201 56.9956C117.891 57.8791 115.888 59.4318 114.44 61.461C112.861 63.7333 111.611 66.2231 110.726 68.8548C110.346 69.889 109.974 70.9232 109.679 71.9863C109.049 74.5581 108.641 77.1809 108.46 79.8248C108.355 80.9267 108.26 82.0285 108.146 83.1303C108.056 83.5366 108.114 83.9621 108.308 84.3288Z" fill="#7497F7"/>
    <path d="M120.153 86.1942C121.214 85.8066 122.21 85.2557 123.105 84.5608C123.445 84.3258 123.731 84.0192 123.943 83.6619C124.196 83.0791 124.275 82.4341 124.172 81.8062C123.934 78.549 123.581 75.1855 124.172 72.025C123.791 71.6384 123.362 71.2905 122.943 70.9425C121.991 70.15 120.62 68.5842 119.239 68.6905C119.573 70.1693 119.839 71.6771 120.039 73.1848C120.239 74.6926 120.163 76.2584 120.401 77.7468C120.717 80.3805 120.656 83.0466 120.22 85.6626C120.18 85.8369 120.157 86.0151 120.153 86.1942Z" fill="url(#paint5_linear_476_496)"/>
    <path d="M131.742 73.6101C131.817 73.6486 131.883 73.7017 131.937 73.7665C131.991 73.8312 132.032 73.9062 132.057 73.987C132.06 74.1477 132.002 74.3033 131.895 74.422C131.029 75.6614 129.945 76.7266 128.695 77.5632C128.575 77.6604 128.429 77.7208 128.276 77.7371C128.101 77.718 127.936 77.6398 127.81 77.5148C125.905 76.0361 124.001 74.6153 122.144 73.0688C120.943 72.204 119.883 71.1539 119.002 69.9567C118.354 68.876 117.86 67.7078 117.535 66.4869C116.402 62.8624 119.83 61.287 122.125 63.9449C125.153 67.463 127.914 70.8942 131.742 73.6101Z" fill="#7497F7"/>
    <path d="M131.276 125.126C131.226 125.006 131.209 124.874 131.225 124.745C131.242 124.616 131.292 124.494 131.371 124.391C131.58 124.188 131.923 124.285 132.19 124.391C132.779 124.681 133.394 124.911 134.028 125.077C134.666 125.248 135.343 125.175 135.932 124.874C136.256 124.681 136.57 124.391 136.942 124.42C137.129 124.448 137.307 124.518 137.465 124.623C138.037 124.924 138.65 125.136 139.284 125.251C139.551 125.274 139.808 125.36 140.036 125.503C140.105 125.552 140.156 125.623 140.179 125.706C140.179 125.899 139.998 126.044 139.817 126.111C137.837 126.894 135.618 126.604 133.504 126.372C133.267 126.339 133.027 126.339 132.79 126.372C132.437 126.44 132.009 126.624 131.714 126.372C131.461 126.004 131.31 125.573 131.276 125.126Z" fill="#473F47"/>
    <path d="M112.469 130.635C112.438 130.51 112.438 130.379 112.47 130.254C112.501 130.129 112.563 130.014 112.65 129.92C112.888 129.746 113.212 129.92 113.469 130.026C114.022 130.383 114.605 130.69 115.211 130.944C115.826 131.176 116.501 131.176 117.116 130.944C117.459 130.799 117.801 130.548 118.173 130.625C118.353 130.679 118.521 130.767 118.668 130.886C119.192 131.276 119.774 131.579 120.391 131.785C120.657 131.841 120.905 131.96 121.115 132.133C121.146 132.159 121.171 132.192 121.189 132.228C121.207 132.265 121.218 132.305 121.22 132.345C121.22 132.539 121.01 132.655 120.82 132.703C118.754 133.235 116.592 132.703 114.526 132.172C114.293 132.103 114.053 132.067 113.811 132.065C113.459 132.065 113.012 132.22 112.745 131.891C112.552 131.502 112.457 131.07 112.469 130.635Z" fill="#473F47"/>
    <path d="M130.104 53.7771C129.942 54.3087 129.78 54.8403 129.647 55.3815C129.496 56.1888 129.286 56.9836 129.019 57.7592C128.883 58.146 128.666 58.4984 128.384 58.792C128.101 59.0857 127.759 59.3137 127.381 59.4603C126.995 59.5853 126.577 59.5545 126.214 59.3745C125.85 59.1944 125.569 58.879 125.429 58.4937C124.972 58.6001 124.81 59.1703 124.819 59.6536C124.896 60.1264 124.808 60.6115 124.572 61.026C124.143 61.5383 123.305 61.3256 122.743 60.9584C121.893 60.3766 121.232 59.5517 120.843 58.5882C120.455 57.6246 120.358 56.5658 120.563 55.5459C121.029 53.3905 121.01 50.8099 122.22 48.9445C122.654 48.3151 123.208 47.7795 123.848 47.3691C124.409 46.9521 125.064 46.6831 125.752 46.5862C126.235 46.5575 126.719 46.5965 127.19 46.7022C129.209 47.0502 130.923 47.3498 130.933 49.6984C130.871 51.0939 130.591 52.4706 130.104 53.7771Z" fill="#FCBDBA"/>
    <path d="M127.619 49.9787C127.305 49.9787 126.943 49.9014 126.667 50.0947C126.391 50.288 126.372 50.7229 126.2 51.0612C125.867 51.6894 125.02 51.7764 124.382 52.105C123.995 52.315 123.673 52.6291 123.452 53.0128C123.23 53.3965 123.117 53.8349 123.125 54.2797C123.137 53.9951 123.068 53.7131 122.925 53.4678C122.887 53.4097 122.837 53.3601 122.78 53.3221C122.722 53.284 122.657 53.2583 122.59 53.2466C122.522 53.2348 122.452 53.2372 122.386 53.2537C122.319 53.2701 122.256 53.3002 122.201 53.3422C122.115 53.4455 122.065 53.5745 122.058 53.7095C122.032 53.9855 122.076 54.2636 122.186 54.5174C122.296 54.7712 122.469 54.9922 122.687 55.1592C122.489 55.5737 122.179 55.9222 121.792 56.1636C121.406 56.405 120.96 56.5294 120.506 56.522C120.219 56.529 119.94 56.4332 119.716 56.2514C119.575 56.1044 119.47 55.9255 119.411 55.7295C118.868 54.1831 119.697 52.5303 119.897 50.8969C119.916 50.3201 120.009 49.7483 120.173 49.1958C120.349 48.8056 120.591 48.4491 120.887 48.1423C121.776 47.0588 122.952 46.2571 124.277 45.8323C125.553 45.4747 128.086 45.6584 129.086 46.6829C129.313 46.976 129.456 47.3267 129.5 47.6968C129.544 48.0669 129.488 48.4422 129.337 48.782C129.186 49.1217 128.946 49.4129 128.643 49.6239C128.34 49.8349 127.986 49.9576 127.619 49.9787Z" fill="#FF8B8B"/>
    <path d="M127.057 196.706V178.622C129.4 173.461 134.018 176.979 134.018 176.979C134.739 177.746 135.67 178.276 136.69 178.501C137.711 178.727 138.775 178.636 139.744 178.242C140.714 177.848 141.544 177.168 142.13 176.29C142.715 175.412 143.028 174.376 143.028 173.316C143.028 172.256 142.715 171.22 142.13 170.342C141.544 169.465 140.714 168.785 139.744 168.391C138.775 167.996 137.711 167.906 136.69 168.131C135.67 168.356 134.739 168.886 134.018 169.653C129.657 172.553 127.057 168.01 127.057 168.01V149.917H144.873C144.873 149.917 149.387 147.278 146.492 142.852C145.737 142.12 145.214 141.175 144.993 140.139C144.771 139.103 144.86 138.024 145.248 137.04C145.637 136.056 146.306 135.212 147.171 134.618C148.036 134.024 149.057 133.706 150.101 133.706C151.146 133.706 152.166 134.024 153.031 134.618C153.896 135.212 154.566 136.056 154.954 137.04C155.343 138.024 155.432 139.103 155.21 140.139C154.988 141.175 154.466 142.12 153.71 142.852C153.71 142.852 150.244 147.539 155.329 149.917H173.145V196.706H127.057Z" fill="url(#paint6_linear_476_496)"/>
    <path d="M92.9197 195.739H89.7012L122.649 107.438C122.759 107.153 122.952 106.909 123.202 106.736C123.451 106.564 123.746 106.472 124.048 106.472C124.292 106.471 124.532 106.531 124.748 106.646C124.964 106.761 125.15 106.927 125.288 107.13C125.427 107.334 125.515 107.568 125.544 107.814C125.574 108.06 125.544 108.309 125.458 108.54L92.9197 195.739Z" fill="#7497F7"/>
    <path d="M112.221 195.74H109.003L142.312 106.452H145.531L112.221 195.74Z" fill="#7497F7"/>
    <path d="M137.113 120.399H120.087L120.944 118.099H137.97L137.113 120.399Z" fill="#7497F7"/>
    <path d="M131.876 134.423H114.85L115.716 132.123H132.742L131.876 134.423Z" fill="#7497F7"/>
    <path d="M126.648 148.448H109.622L110.479 146.138H127.505L126.648 148.448Z" fill="#7497F7"/>
    <path d="M121.42 162.462H104.394L105.251 160.162H122.277L121.42 162.462Z" fill="#7497F7"/>
    <path d="M116.183 176.486H99.1567L100.023 174.186H117.04L116.183 176.486Z" fill="#7497F7"/>
    <path d="M121.03 120.399L116.649 132.123H132.771L131.914 134.423H115.821L111.45 146.138H127.534L126.676 148.438H110.565L106.194 160.162H122.296L121.439 162.462H105.337L100.957 174.186H117.049L116.183 176.486H100.1L92.9197 195.739H89.7012L122.649 107.438C122.792 107.135 123.029 106.889 123.324 106.737C123.62 106.585 123.956 106.536 124.281 106.597C124.607 106.659 124.903 106.828 125.124 107.078C125.346 107.328 125.479 107.645 125.505 107.98C125.505 108.164 125.473 108.347 125.41 108.521L121.839 118.099H137.922L137.065 120.399H121.03Z" fill="url(#paint7_linear_476_496)"/>
    <path d="M112.221 195.74H109.003L142.312 106.452H145.531L112.221 195.74Z" fill="url(#paint8_linear_476_496)"/>
    <path d="M271.902 119.394C271.426 119.803 270.856 120.082 270.245 120.206C269.684 120.23 269.125 120.128 268.607 119.906L260.685 117.229C260.086 117.702 259.686 118.388 259.566 119.149C259.446 119.909 259.614 120.688 260.037 121.327C260.814 122.191 261.824 122.803 262.941 123.086L268.379 125.068C269.633 125.663 271.003 125.967 272.388 125.959C273.773 125.95 275.139 125.629 276.387 125.019C278.006 124.468 279.786 123.782 280.567 122.236C281.348 120.689 280.777 118.64 281.005 116.833C281.306 115.685 281.519 114.515 281.643 113.334C281.643 112.319 280.824 110.792 279.634 111.005C278.606 111.188 277.92 113.005 277.377 113.769C275.847 115.918 274 117.815 271.902 119.394Z" fill="white"/>
    <path d="M259.694 116.775C259.611 116.557 259.485 116.36 259.323 116.195C259.243 116.112 259.14 116.055 259.029 116.031C258.917 116.007 258.8 116.017 258.694 116.06C258.59 116.125 258.506 116.218 258.453 116.329C258.399 116.44 258.377 116.565 258.39 116.688C258.397 116.732 258.396 116.776 258.386 116.819C258.376 116.863 258.358 116.903 258.332 116.939C258.275 116.997 258.171 116.939 258.085 116.939C257.19 116.765 256.276 116.63 255.361 116.533C255.263 116.513 255.162 116.521 255.068 116.555C254.973 116.589 254.89 116.648 254.826 116.727C254.763 116.805 254.722 116.9 254.707 117C254.692 117.1 254.704 117.203 254.742 117.297C254.842 117.605 254.993 117.892 255.19 118.147C255.657 118.921 255.828 119.935 256.571 120.438C257.025 120.707 257.553 120.819 258.075 120.757C258.599 120.757 259.113 120.631 259.637 120.66C259.983 120.735 260.344 120.695 260.665 120.544C260.785 120.453 260.881 120.333 260.942 120.194C261.004 120.056 261.03 119.903 261.018 119.752C260.962 119.274 260.796 118.817 260.532 118.418C260.237 117.896 259.961 117.335 259.694 116.775Z" fill="#FDB9A9"/>
    <path d="M281.786 177.308C278.758 176.612 279.348 180.971 278.548 182.595C278.042 183.429 277.398 184.168 276.644 184.779C275.902 185.407 275.416 186.292 275.282 187.263C275.264 187.444 275.301 187.626 275.387 187.785C275.541 187.976 275.757 188.106 275.996 188.152C277.728 188.665 279.588 188.478 281.186 187.63C281.935 187.272 282.557 186.688 282.967 185.958C283.299 185.172 283.455 184.32 283.424 183.465C283.519 181.648 284.319 177.878 281.786 177.308Z" fill="#FDB9A9"/>
    <path d="M279.1 186.297C279.1 186.297 270.473 186.674 274.13 189.418C277.786 192.163 283.243 188.752 283.776 188.123C284.309 187.495 283.871 186.422 283.871 186.422L279.1 186.297Z" fill="#7497F7"/>
    <path d="M283.395 187.505C282.633 188.471 278.577 189.737 276.777 189.602C274.977 189.467 273.368 188.636 273.549 187.447C273.73 186.258 276.891 183.523 277.491 183.532C278.091 183.542 278.558 184.944 279.758 185.233C280.294 185.324 280.844 185.273 281.355 185.087C281.867 184.901 282.323 184.586 282.681 184.17C282.788 184.025 282.94 183.92 283.113 183.873C283.285 183.826 283.469 183.839 283.633 183.909C283.884 184.483 283.994 185.11 283.952 185.737C283.911 186.363 283.72 186.97 283.395 187.505Z" fill="white"/>
    <path d="M292.194 179.028C289.166 178.313 289.756 182.682 288.956 184.296C288.45 185.133 287.806 185.875 287.052 186.49C286.31 187.114 285.824 187.996 285.69 188.964C285.674 189.148 285.711 189.332 285.795 189.496C285.952 189.684 286.166 189.813 286.404 189.863C288.136 190.372 289.994 190.185 291.594 189.341C292.341 188.976 292.962 188.39 293.375 187.659C293.705 186.876 293.861 186.027 293.832 185.175C293.927 183.339 294.727 179.579 292.194 179.028Z" fill="#FDB9A9"/>
    <path d="M289.509 187.978C289.509 187.978 280.881 188.346 284.538 191.11C288.195 193.874 293.651 190.433 294.184 189.805C294.717 189.177 294.279 188.104 294.279 188.104L289.509 187.978Z" fill="#7497F7"/>
    <path d="M293.803 189.167C293.042 190.134 288.985 191.409 287.185 191.274C285.386 191.139 283.776 190.308 283.957 189.119C284.138 187.93 287.3 185.195 287.9 185.253C288.499 185.311 288.966 186.664 290.166 186.944C290.701 187.036 291.251 186.988 291.763 186.804C292.274 186.619 292.731 186.305 293.089 185.891C293.195 185.744 293.347 185.638 293.52 185.591C293.693 185.543 293.877 185.557 294.041 185.63C294.283 186.196 294.387 186.812 294.346 187.428C294.304 188.043 294.118 188.64 293.803 189.167Z" fill="white"/>
    <path d="M284.376 139.275L288.433 182.614L294.279 181.88C296.593 171.306 296.022 139.672 296.022 139.672L284.376 139.275Z" fill="#473F47"/>
    <path d="M288.432 138.106L284.376 181.435L278.51 180.7C275.168 153.29 277.929 136.241 277.929 136.241L288.432 138.106Z" fill="#473F47"/>
    <path d="M278.463 122.439C278.387 121.646 278.177 120.854 278.101 120.042C277.91 118.409 277.939 116.757 278.187 115.132C278.462 113.398 278.978 111.712 279.72 110.125C280.386 108.753 281.624 108.192 282.976 107.477C284.127 106.849 285.372 106.421 286.662 106.211C287.569 106.127 288.483 106.179 289.375 106.365C292.137 106.897 295.765 108.298 297.65 110.55C299.069 112.203 299.231 114.581 299.279 116.775C299.336 119.8 299.279 122.825 299.088 125.85C299.088 126.285 299.041 126.72 299.003 127.165C298.849 130.53 298.348 133.87 297.508 137.13C297.35 138.148 296.807 139.064 295.994 139.681C293.832 140.957 290.537 140.252 288.204 139.923C285.109 139.478 281.938 139.014 279.196 137.487C278.627 137.24 278.166 136.789 277.901 136.221C277.764 135.506 277.854 134.765 278.158 134.105C279.11 131.012 278.368 127.755 278.368 124.594C278.368 124.024 278.434 123.444 278.434 122.864C278.463 122.729 278.463 122.584 278.463 122.439Z" fill="white"/>
    <path d="M288.175 128.035C288.909 128.498 289.719 128.826 290.566 129.001C293.089 129.746 295.679 130.142 298.183 130.934C298.354 130.968 298.512 131.048 298.641 131.166C298.743 131.327 298.79 131.517 298.774 131.708C298.786 132.452 298.676 133.193 298.45 133.902C298.377 134.255 298.176 134.569 297.888 134.781C297.522 134.916 297.121 134.916 296.755 134.781L287.318 132.751C286.643 132.576 285.949 132.492 285.252 132.5C284.427 132.598 283.617 132.802 282.843 133.109C281.396 133.579 279.906 133.903 278.396 134.076C278.476 132.247 278.696 130.428 279.053 128.634C279.192 128.104 279.39 127.591 279.643 127.107C279.948 126.629 280.306 126.187 280.71 125.792C282.233 124.178 283.29 122.158 284.833 120.544C285.643 119.694 286.652 119.153 287.366 118.244C287.652 117.877 290.128 114.716 289.889 114.378C290.366 114.977 291.546 114.378 291.975 114.996C292.242 115.383 291.975 115.905 291.727 116.301C289.903 119.402 288.63 122.805 287.966 126.353C287.776 127.175 287.49 127.465 288.175 128.035Z" fill="url(#paint9_linear_476_496)"/>
    <path d="M280.481 88.3592C281.357 88.9301 282.045 89.7532 282.456 90.7232C282.868 91.6931 282.986 92.7657 282.793 93.8038C282.601 94.8418 282.108 95.7979 281.377 96.5498C280.646 97.3017 279.711 97.8151 278.691 98.0244C278.691 98.0244 273.282 100.093 276.32 104.867L291.346 114.581L281.824 129.833C277.12 132.916 275.082 127.426 275.082 127.426C274.878 126.389 274.372 125.439 273.631 124.696C272.889 123.954 271.946 123.454 270.922 123.26C269.898 123.066 268.841 123.188 267.886 123.61C266.93 124.031 266.121 124.733 265.562 125.625C265.004 126.517 264.721 127.558 264.75 128.615C264.779 129.671 265.118 130.695 265.726 131.554C266.333 132.413 267.179 133.068 268.156 133.435C269.132 133.801 270.195 133.863 271.207 133.612C276.444 133.505 276.215 138.792 276.215 138.792L266.693 154.044L227.804 128.914L237.278 113.798C241.982 110.724 244.02 116.205 244.02 116.205C244.222 117.245 244.726 118.2 245.468 118.947C246.209 119.694 247.154 120.198 248.181 120.394C249.207 120.591 250.268 120.47 251.227 120.049C252.186 119.628 252.998 118.925 253.559 118.03C254.12 117.136 254.405 116.092 254.375 115.032C254.346 113.972 254.005 112.945 253.396 112.084C252.786 111.223 251.936 110.567 250.956 110.201C249.976 109.834 248.91 109.774 247.896 110.029C242.659 110.135 242.897 104.848 242.897 104.848L252.552 89.4417L267.588 99.1649C267.588 99.1649 272.797 99.3968 272.692 94.081C272.526 93.3828 272.499 92.6578 272.614 91.949C272.728 91.2401 272.981 90.5617 273.359 89.954C274.109 88.8005 275.272 87.9889 276.602 87.6912C277.931 87.3935 279.323 87.6331 280.481 88.3592Z" fill="#7497F7"/>
    <path d="M303.669 119.607C304.059 120.297 304.378 121.025 304.621 121.781C304.928 123.107 304.961 124.483 304.716 125.821C304.601 127.134 304.137 128.39 303.373 129.456C301.764 131.389 298.888 131.572 296.393 131.331C293.561 131.065 290.765 130.495 288.052 129.63C287.8 129.572 287.563 129.46 287.357 129.301C287.137 129.048 286.986 128.742 286.919 128.412C286.711 127.611 286.574 126.792 286.509 125.966C289.366 125.135 292.527 125.812 295.508 125.367C295.711 125.366 295.911 125.316 296.091 125.221C296.271 125.126 296.427 124.989 296.544 124.82C296.661 124.652 296.737 124.458 296.766 124.254C296.794 124.05 296.774 123.842 296.708 123.647C296.565 121.946 295.527 120.457 295.041 118.814C294.566 117.233 294.606 115.538 295.156 113.982C295.319 113.433 295.598 112.927 295.973 112.498C296.348 112.07 296.81 111.728 297.327 111.498C298.517 111.101 298.974 112.049 299.631 112.938C301.144 115.052 302.493 117.282 303.669 119.607Z" fill="white"/>
    <path d="M285.319 124.884C285.206 124.791 285.071 124.731 284.928 124.71C284.819 124.722 284.714 124.763 284.625 124.829C284.537 124.895 284.467 124.984 284.424 125.087C284.34 125.295 284.244 125.499 284.138 125.696C283.995 125.857 283.818 125.983 283.62 126.065C283.422 126.147 283.209 126.183 282.995 126.169C282.568 126.126 282.137 126.126 281.71 126.169C281.551 126.202 281.404 126.275 281.281 126.382C281.164 126.498 281.082 126.646 281.043 126.807C280.971 127.136 280.98 127.477 281.069 127.801C281.159 128.125 281.327 128.421 281.557 128.663C282.022 129.141 282.594 129.499 283.224 129.707C283.867 129.995 284.579 130.082 285.271 129.958C285.651 129.846 286.013 129.68 286.347 129.465L287.737 128.682C287.853 128.627 287.957 128.548 288.042 128.45C288.347 128.064 287.928 126.904 287.652 126.517C286.957 125.86 286.171 125.31 285.319 124.884Z" fill="#FDB9A9"/>
    <path d="M284.386 101.823C284.386 100.992 284.452 100.151 284.538 99.3389C284.624 98.527 284.729 97.8891 284.862 97.1739C284.871 96.9622 284.925 96.7549 285.02 96.5664C285.116 96.3779 285.25 96.2125 285.414 96.0817C286.515 95.4146 287.78 95.0794 289.061 95.1152C289.546 95.0805 290.032 95.1486 290.49 95.315C290.947 95.4813 291.365 95.7424 291.718 96.0817C292.148 96.6368 292.403 97.3103 292.451 98.0147C292.496 99.844 292.317 101.672 291.918 103.456C291.717 104.857 291.643 106.275 291.699 107.69C291.024 108.145 290.249 108.424 289.442 108.501C289.067 108.498 288.694 108.436 288.338 108.318C288.139 108.272 287.963 108.156 287.842 107.989C287.8 107.834 287.8 107.671 287.842 107.516C287.852 107.368 287.852 107.219 287.842 107.071C287.898 106.243 287.882 105.412 287.795 104.587C287.796 104.551 287.79 104.515 287.777 104.482C287.764 104.449 287.744 104.419 287.719 104.394C287.666 104.375 287.609 104.375 287.557 104.394H287.328C286.923 104.437 286.514 104.437 286.109 104.394C285.622 104.345 285.168 104.119 284.833 103.756C284.446 103.193 284.286 102.502 284.386 101.823Z" fill="#FDB9A9"/>
    <path d="M286.081 96.5263C285.795 96.5263 285.538 96.6809 285.29 96.5263C285.031 96.3084 284.804 96.0546 284.614 95.7724C284.159 95.1599 283.936 94.4018 283.986 93.6364C284.004 93.29 284.116 92.9554 284.31 92.6699C284.521 92.4101 284.793 92.2075 285.1 92.0803C285.69 91.7851 286.348 91.655 287.004 91.7033C287.956 91.8289 288.843 92.2588 289.537 92.9308C289.684 93.0857 289.863 93.2047 290.061 93.2788C290.243 93.3176 290.431 93.3176 290.613 93.2788C291.818 93.1758 293.016 93.5498 293.956 94.3226C294.489 94.7962 294.908 95.4051 295.46 95.8207C296.013 96.2363 296.555 96.391 296.841 96.9225C296.96 97.1696 297.009 97.4458 296.98 97.7195C296.951 97.9931 296.847 98.2529 296.679 98.469C296.325 98.8928 295.837 99.1795 295.298 99.2809C295.358 99.4381 295.385 99.6057 295.38 99.774C295.374 99.9422 295.336 100.108 295.267 100.261C295.198 100.414 295.099 100.551 294.977 100.665C294.855 100.779 294.712 100.867 294.556 100.924C294.336 100.958 294.123 101.03 293.927 101.137C293.794 101.243 293.737 101.407 293.603 101.514C293.289 101.774 292.88 101.861 292.746 102.306C292.707 102.493 292.691 102.685 292.699 102.876C292.676 103.16 292.562 103.428 292.375 103.64C292.251 103.775 292.032 104.113 291.851 104.152C291.67 104.191 291.508 103.968 291.451 103.775C291.228 102.956 291.285 102.083 291.613 101.301C291.849 100.923 291.987 100.491 292.013 100.044C292.013 99.5998 291.385 99.2519 291.061 99.5128C290.737 99.7738 290.718 100.402 290.375 100.276C290.588 99.6517 290.572 98.9701 290.331 98.3562C290.09 97.7423 289.639 97.2369 289.061 96.9322C288.42 96.733 287.751 96.6384 287.081 96.6519C286.767 96.5849 286.448 96.5493 286.128 96.5456L286.081 96.5263Z" fill="#473F47"/>
    <path d="M287.328 104.413C288.274 104.23 289.199 103.952 290.09 103.582C290.17 104.344 289.989 105.11 289.578 105.753C289.167 106.395 288.551 106.874 287.833 107.11C287.904 106.283 287.904 105.452 287.833 104.626C287.832 104.554 287.805 104.485 287.757 104.432C287.704 104.413 287.647 104.413 287.595 104.432H287.376L287.328 104.413Z" fill="#DE9F93"/>
    <path d="M257.514 111.362C257.658 111.572 257.751 111.814 257.786 112.068C257.821 112.321 257.796 112.58 257.714 112.822C257.548 113.306 257.307 113.759 256.999 114.165L255.504 116.408C255.114 116.987 254.552 117.645 253.895 117.587C252.257 117.471 251.534 113.16 252.143 111.884C252.848 110.29 256.438 110 257.514 111.362Z" fill="#FDB9A9"/>
    <path d="M265.226 149.917V196.706H219.138V178.613C219.138 178.613 221.738 174.031 226.099 176.97C226.82 177.737 227.751 178.267 228.771 178.492C229.792 178.717 230.856 178.626 231.825 178.232C232.795 177.838 233.626 177.158 234.211 176.28C234.796 175.402 235.109 174.367 235.109 173.307C235.109 172.247 234.796 171.211 234.211 170.333C233.626 169.455 232.795 168.775 231.825 168.381C230.856 167.987 229.792 167.896 228.771 168.121C227.751 168.346 226.82 168.877 226.099 169.643C226.099 169.643 221.481 173.162 219.138 168V149.917H236.955C242.039 147.539 238.573 142.852 238.573 142.852C237.818 142.12 237.295 141.175 237.074 140.139C236.852 139.103 236.941 138.024 237.329 137.04C237.718 136.056 238.388 135.212 239.252 134.618C240.117 134.024 241.138 133.706 242.182 133.706C243.227 133.706 244.247 134.024 245.112 134.618C245.977 135.212 246.647 136.056 247.035 137.04C247.424 138.024 247.513 139.103 247.291 140.139C247.069 141.175 246.547 142.12 245.791 142.852C242.935 147.278 247.41 149.917 247.41 149.917H265.226Z" fill="#7497F7"/>
    <path d="M265.226 149.917V196.706H219.138V178.613C219.138 178.613 221.738 174.031 226.099 176.97C226.82 177.737 227.751 178.267 228.771 178.492C229.792 178.717 230.856 178.626 231.825 178.232C232.795 177.838 233.626 177.158 234.211 176.28C234.796 175.402 235.109 174.367 235.109 173.307C235.109 172.247 234.796 171.211 234.211 170.333C233.626 169.455 232.795 168.775 231.825 168.381C230.856 167.987 229.792 167.896 228.771 168.121C227.751 168.346 226.82 168.877 226.099 169.643C226.099 169.643 221.481 173.162 219.138 168V149.917H236.955C242.039 147.539 238.573 142.852 238.573 142.852C237.818 142.12 237.295 141.175 237.074 140.139C236.852 139.103 236.941 138.024 237.329 137.04C237.718 136.056 238.388 135.212 239.252 134.618C240.117 134.024 241.138 133.706 242.182 133.706C243.227 133.706 244.247 134.024 245.112 134.618C245.977 135.212 246.647 136.056 247.035 137.04C247.424 138.024 247.513 139.103 247.291 140.139C247.069 141.175 246.547 142.12 245.791 142.852C242.935 147.278 247.41 149.917 247.41 149.917H265.226Z" fill="url(#paint10_linear_476_496)"/>
    <path d="M189.029 126.517C189.026 127.577 188.711 128.611 188.124 129.488C187.538 130.364 186.707 131.043 185.737 131.437C184.768 131.83 183.705 131.921 182.685 131.697C181.665 131.474 180.734 130.945 180.011 130.18C175.65 127.281 173.05 131.824 173.05 131.824V149.917H219.139V103.128H173.05V121.211C175.393 126.372 180.011 122.854 180.011 122.854C180.734 122.089 181.665 121.561 182.685 121.337C183.705 121.114 184.768 121.204 185.737 121.598C186.707 121.992 187.538 122.67 188.124 123.547C188.711 124.423 189.026 125.458 189.029 126.517Z" fill="#7497F7"/>
    <path d="M192.485 156.982C191.73 157.714 191.207 158.659 190.986 159.695C190.764 160.73 190.853 161.81 191.241 162.794C191.63 163.778 192.299 164.621 193.164 165.216C194.029 165.81 195.05 166.127 196.094 166.127C197.139 166.127 198.159 165.81 199.024 165.216C199.889 164.621 200.559 163.778 200.947 162.794C201.336 161.81 201.425 160.73 201.203 159.695C200.981 158.659 200.459 157.714 199.703 156.982C199.703 156.982 196.237 152.294 201.322 149.917H190.857C190.857 149.917 195.38 152.555 192.485 156.982Z" fill="#7497F7"/>
    <path d="M173.05 103.128V121.211C175.393 126.372 180.011 122.854 180.011 122.854C180.732 122.087 181.663 121.557 182.683 121.332C183.704 121.107 184.768 121.197 185.737 121.592C186.707 121.986 187.538 122.666 188.123 123.544C188.708 124.422 189.021 125.457 189.021 126.517C189.021 127.577 188.708 128.613 188.123 129.491C187.538 130.369 186.707 131.049 185.737 131.443C184.768 131.837 183.704 131.928 182.683 131.703C181.663 131.478 180.732 130.947 180.011 130.18C175.65 127.281 173.05 131.824 173.05 131.824V149.917H190.857C190.857 149.917 195.371 152.555 192.476 156.982C191.72 157.714 191.198 158.659 190.976 159.695C190.755 160.73 190.844 161.81 191.232 162.794C191.62 163.778 192.29 164.622 193.155 165.216C194.02 165.81 195.04 166.127 196.085 166.127C197.129 166.127 198.15 165.81 199.015 165.216C199.88 164.622 200.549 163.778 200.938 162.794C201.326 161.81 201.415 160.73 201.193 159.695C200.972 158.659 200.449 157.714 199.694 156.982C199.694 156.982 196.228 152.294 201.313 149.917H219.139V103.128H173.05Z" fill="url(#paint11_linear_476_496)"/>
    <path d="M173.05 149.917V196.706H219.138V178.613C219.138 178.613 221.738 174.031 226.099 176.97C226.82 177.737 227.751 178.267 228.772 178.492C229.792 178.717 230.856 178.626 231.825 178.232C232.795 177.838 233.626 177.158 234.211 176.28C234.796 175.402 235.109 174.367 235.109 173.307C235.109 172.247 234.796 171.211 234.211 170.333C233.626 169.455 232.795 168.775 231.825 168.381C230.856 167.987 229.792 167.896 228.772 168.121C227.751 168.346 226.82 168.877 226.099 169.643C226.099 169.643 221.481 173.162 219.138 168V149.917H201.332C196.247 152.294 199.713 156.982 199.713 156.982C200.468 157.714 200.991 158.659 201.213 159.695C201.434 160.73 201.345 161.81 200.957 162.794C200.569 163.778 199.899 164.621 199.034 165.216C198.169 165.81 197.148 166.127 196.104 166.127C195.06 166.127 194.039 165.81 193.174 165.216C192.309 164.621 191.639 163.778 191.251 162.794C190.863 161.81 190.774 160.73 190.995 159.695C191.217 158.659 191.739 157.714 192.495 156.982C195.352 152.555 190.876 149.917 190.876 149.917H173.05Z" fill="#7497F7"/>
    <path d="M127.057 196.706V178.622C129.4 173.461 134.018 176.979 134.018 176.979C134.739 177.746 135.67 178.276 136.69 178.501C137.711 178.727 138.775 178.636 139.744 178.242C140.714 177.848 141.544 177.168 142.13 176.29C142.715 175.412 143.028 174.376 143.028 173.316C143.028 172.256 142.715 171.22 142.13 170.342C141.544 169.465 140.714 168.785 139.744 168.391C138.775 167.996 137.711 167.906 136.69 168.131C135.67 168.356 134.739 168.886 134.018 169.653C129.657 172.553 127.057 168.01 127.057 168.01V149.917H144.873C144.873 149.917 149.387 147.278 146.492 142.852C145.737 142.12 145.214 141.175 144.993 140.139C144.771 139.103 144.86 138.024 145.248 137.04C145.637 136.056 146.306 135.212 147.171 134.618C148.036 134.024 149.057 133.706 150.101 133.706C151.146 133.706 152.166 134.024 153.031 134.618C153.896 135.212 154.566 136.056 154.954 137.04C155.343 138.024 155.432 139.103 155.21 140.139C154.988 141.175 154.466 142.12 153.71 142.852C153.71 142.852 150.244 147.539 155.329 149.917H173.145V196.706H127.057Z" fill="#7497F7"/>
    <path d="M127.057 196.706V178.622C129.4 173.461 134.018 176.979 134.018 176.979C134.739 177.746 135.67 178.276 136.69 178.501C137.711 178.727 138.775 178.636 139.744 178.242C140.714 177.848 141.544 177.168 142.13 176.29C142.715 175.412 143.028 174.376 143.028 173.316C143.028 172.256 142.715 171.22 142.13 170.342C141.544 169.465 140.714 168.785 139.744 168.391C138.775 167.996 137.711 167.906 136.69 168.131C135.67 168.356 134.739 168.886 134.018 169.653C129.657 172.553 127.057 168.01 127.057 168.01V149.917H144.873C144.873 149.917 149.387 147.278 146.492 142.852C145.737 142.12 145.214 141.175 144.993 140.139C144.771 139.103 144.86 138.024 145.248 137.04C145.637 136.056 146.306 135.212 147.171 134.618C148.036 134.024 149.057 133.706 150.101 133.706C151.146 133.706 152.166 134.024 153.031 134.618C153.896 135.212 154.566 136.056 154.954 137.04C155.343 138.024 155.432 139.103 155.21 140.139C154.988 141.175 154.466 142.12 153.71 142.852C153.71 142.852 150.244 147.539 155.329 149.917H173.145V196.706H127.057Z" fill="url(#paint12_linear_476_496)"/>
    <path d="M189.086 126.527C189.083 127.587 188.768 128.621 188.181 129.498C187.595 130.374 186.764 131.053 185.794 131.446C184.825 131.84 183.762 131.931 182.742 131.707C181.722 131.483 180.791 130.955 180.068 130.19C180.068 130.19 175.45 126.672 173.107 131.833V149.917H155.291C150.206 147.539 153.672 142.852 153.672 142.852C154.428 142.12 154.95 141.175 155.172 140.139C155.393 139.103 155.304 138.024 154.916 137.04C154.528 136.056 153.858 135.212 152.993 134.618C152.128 134.024 151.108 133.706 150.063 133.706C149.019 133.706 147.998 134.024 147.133 134.618C146.268 135.212 145.599 136.056 145.21 137.04C144.822 138.024 144.733 139.103 144.955 140.139C145.176 141.175 145.699 142.12 146.454 142.852C149.311 147.278 144.835 149.917 144.835 149.917H127.057V103.128H144.702C149.787 105.505 146.321 110.193 146.321 110.193C145.565 110.925 145.043 111.869 144.821 112.905C144.599 113.941 144.689 115.021 145.077 116.005C145.465 116.989 146.135 117.832 147 118.426C147.865 119.02 148.885 119.338 149.93 119.338C150.974 119.338 151.995 119.02 152.86 118.426C153.725 117.832 154.394 116.989 154.783 116.005C155.171 115.021 155.26 113.941 155.038 112.905C154.817 111.869 154.294 110.925 153.539 110.193C150.682 105.766 155.158 103.128 155.158 103.128H173.145V121.221C173.145 121.221 175.745 125.802 180.106 122.864C180.829 122.099 181.76 121.571 182.78 121.347C183.8 121.123 184.863 121.214 185.833 121.608C186.802 122.001 187.633 122.68 188.219 123.557C188.806 124.433 189.121 125.468 189.124 126.527H189.086Z" fill="#7497F7"/>
    <path d="M200.379 216.433C200.396 217.494 200.099 218.535 199.526 219.423C198.953 220.311 198.132 221.004 197.167 221.413C196.202 221.822 195.139 221.928 194.114 221.717C193.089 221.507 192.151 220.989 191.419 220.231C191.419 220.231 186.753 216.781 184.486 221.971L184.744 240.054L166.927 240.315C161.804 238.015 165.204 233.279 165.204 233.279C165.945 232.537 166.451 231.586 166.656 230.55C166.861 229.513 166.756 228.438 166.354 227.462C165.951 226.487 165.271 225.656 164.399 225.077C163.528 224.498 162.506 224.196 161.464 224.212C160.423 224.227 159.41 224.558 158.555 225.163C157.701 225.768 157.044 226.618 156.67 227.605C156.296 228.592 156.221 229.67 156.456 230.7C156.69 231.73 157.223 232.665 157.986 233.385C160.947 237.764 156.472 240.47 156.472 240.47L138.655 240.731L137.989 193.942L155.634 193.691C160.757 195.991 157.357 200.727 157.357 200.727C156.615 201.469 156.11 202.42 155.905 203.456C155.7 204.493 155.805 205.568 156.207 206.543C156.61 207.519 157.29 208.35 158.161 208.929C159.033 209.508 160.055 209.81 161.097 209.794C162.138 209.779 163.151 209.448 164.006 208.843C164.86 208.238 165.517 207.388 165.891 206.401C166.265 205.414 166.34 204.336 166.105 203.306C165.871 202.276 165.338 201.341 164.575 200.62C161.614 196.242 166.089 193.536 166.089 193.536L184.077 193.275L184.334 211.368C184.334 211.368 187 215.911 191.314 212.905C191.803 212.375 192.393 211.952 193.047 211.659C193.702 211.367 194.408 211.212 195.123 211.204C196.502 211.194 197.829 211.738 198.814 212.718C199.799 213.697 200.362 215.033 200.379 216.433Z" fill="#7497F7"/>
    <path d="M144.445 194.116C143.807 194.831 143.312 196.406 144.321 197.073C144.682 197.271 145.083 197.383 145.493 197.402L150.882 198.069C150.72 198.069 153.539 230.302 154.644 237.155C154.777 237.967 155.11 238.982 155.92 239.088C156.162 239.073 156.398 239.001 156.608 238.876C156.818 238.752 156.997 238.58 157.129 238.373C157.907 237.135 158.35 235.712 158.414 234.246C159.753 223.724 160.389 213.123 160.319 202.515C160.319 200.417 160.243 198.223 159.214 196.397C158.583 195.403 157.755 194.553 156.783 193.901C155.811 193.249 154.716 192.808 153.567 192.608C150.492 191.902 146.683 191.583 144.445 194.116Z" fill="url(#paint13_linear_476_496)"/>
    <path d="M157.415 261.018V261.144C157.643 261.733 158.367 261.927 158.976 262.004C159.552 262.068 160.131 262.094 160.709 262.081C160.987 262.092 161.264 262.052 161.528 261.965C161.77 261.857 161.998 261.718 162.204 261.55L163.871 260.293C164.339 259.966 164.767 259.583 165.147 259.153C165.522 258.711 165.719 258.141 165.699 257.558C165.679 257.27 165.572 256.995 165.394 256.77C165.215 256.546 164.972 256.382 164.699 256.302C164.351 256.258 164 256.258 163.652 256.302C163.265 256.352 162.872 256.287 162.52 256.116C162.169 255.944 161.874 255.673 161.671 255.335C161.602 255.02 161.435 254.735 161.195 254.523C160.953 254.404 160.678 254.37 160.414 254.427C159.836 254.456 159.265 254.57 158.719 254.765C158.444 254.865 158.194 255.026 157.988 255.237C157.782 255.448 157.625 255.702 157.529 255.983C157.471 256.242 157.445 256.509 157.453 256.775C157.486 257.326 157.486 257.878 157.453 258.428C157.377 259.115 157.338 259.805 157.338 260.496C157.344 260.673 157.369 260.848 157.415 261.018Z" fill="#262836"/>
    <path d="M173.574 261.241C172.452 261.762 171.297 262.207 170.117 262.574C169.648 262.78 169.122 262.811 168.632 262.661C168.44 262.567 168.27 262.432 168.133 262.265C167.997 262.098 167.897 261.904 167.841 261.695C167.739 261.268 167.697 260.829 167.718 260.39C167.79 259.711 167.928 259.041 168.127 258.389C168.232 257.78 168.317 257.171 168.394 256.563C168.517 255.683 168.632 254.813 168.736 253.943L171.736 254.591C172.05 254.659 172.345 255.886 172.536 256.147C172.675 256.339 172.856 256.497 173.063 256.609C173.271 256.721 173.501 256.785 173.736 256.795C174.247 256.719 174.762 256.677 175.278 256.669C175.611 256.748 175.909 256.937 176.124 257.207C176.34 257.476 176.461 257.81 176.469 258.157C176.466 258.502 176.393 258.843 176.253 259.157C176.114 259.472 175.912 259.753 175.659 259.984C175.154 260.448 174.574 260.821 173.945 261.086L173.574 261.241Z" fill="#262836"/>
    <path d="M173.621 257.838C172.834 258.293 172.016 258.69 171.174 259.027H171.098C169.708 259.578 168.156 257.365 168.156 257.365C168.156 257.365 166.194 245.071 166.251 239.967C166.318 236.469 165.499 231.481 164.27 222.435C163.966 231.675 162.423 235.734 162.813 239.049C163.413 244.085 162.699 256.592 162.699 256.592C162.699 256.592 161.385 259.027 159.947 258.699H159.862C158.996 258.499 158.146 258.234 157.319 257.906C157.319 257.906 155.643 240.683 155.643 236.14C155.643 231.597 155.834 227.528 155.834 227.528L154.958 213.147L158.69 207.637L158.995 207.512L159.281 207.222L163.423 204.139C163.423 204.139 163.423 204.854 163.347 206.072L166.565 207.821L166.87 208.053L167.184 208.13L172.574 209.097C172.574 209.097 173.983 231.162 174.478 235.676C174.974 240.19 173.621 257.838 173.621 257.838Z" fill="#7497F7"/>
    <path d="M173.621 257.838C172.834 258.293 172.016 258.69 171.174 259.027H171.098C169.708 259.578 168.156 257.365 168.156 257.365C168.156 257.365 166.194 245.071 166.251 239.967C166.318 236.469 165.499 231.481 164.27 222.435C163.966 231.675 162.423 235.734 162.813 239.049C163.413 244.085 162.699 256.592 162.699 256.592C162.699 256.592 161.385 259.027 159.947 258.699H159.862C158.996 258.499 158.146 258.234 157.319 257.906C157.319 257.906 155.643 240.683 155.643 236.14C155.643 231.597 155.834 227.528 155.834 227.528L154.958 213.147L158.69 207.637L158.995 207.512L159.281 207.222L163.423 204.139C163.423 204.139 163.423 204.854 163.347 206.072L166.565 207.821L166.87 208.053L167.184 208.13L172.574 209.097C172.574 209.097 173.983 231.162 174.478 235.676C174.974 240.19 173.621 257.838 173.621 257.838Z" fill="url(#paint14_linear_476_496)"/>
    <path d="M198.989 180.923C199.056 180.874 199.136 180.847 199.218 180.845C199.437 180.845 199.446 181.203 199.37 181.416C199.171 182.009 198.882 182.566 198.513 183.068C198.394 183.194 198.323 183.358 198.313 183.532C198.313 183.706 198.465 183.832 198.58 183.958C198.93 184.37 199.179 184.861 199.307 185.391C199.434 185.92 199.436 186.472 199.313 187.002C199.049 188.061 198.506 189.026 197.742 189.795C197.558 190.033 197.329 190.231 197.069 190.379C196.81 190.527 196.523 190.621 196.228 190.656C195.199 190.656 193.914 189.37 193.504 188.481C193.355 188.037 193.322 187.561 193.409 187.1C193.496 186.639 193.699 186.209 193.999 185.852C195.214 183.798 196.934 182.1 198.989 180.923Z" fill="#A67C52"/>
    <path d="M169.156 170.774C169.489 171.122 170.003 171.48 169.86 171.934C169.784 172.176 169.527 172.321 169.337 172.495C168.867 173.001 168.613 173.675 168.632 174.37C168.652 175.061 168.555 175.751 168.346 176.409C168.227 176.735 168.001 177.009 167.706 177.185C167.411 177.361 167.066 177.428 166.727 177.376C166.337 177.269 165.947 176.921 165.566 177.086C165.185 177.25 165.185 177.569 165.032 177.84C164.824 178.173 164.529 178.44 164.178 178.611C163.828 178.782 163.438 178.849 163.052 178.806C162.288 178.69 161.552 178.431 160.881 178.043C160.596 177.927 160.348 177.733 160.166 177.482C160.056 177.237 160.029 176.961 160.09 176.699C160.326 175.912 160.711 175.18 161.223 174.544C162.045 173.259 162.539 171.788 162.661 170.262C162.738 169.199 162.661 168.029 163.337 167.208C164.29 166.087 166.451 166.096 167.584 166.918C168.718 167.739 168.108 169.682 169.156 170.774Z" fill="#A67C52"/>
    <path d="M167.803 165.961C167.67 166.226 167.47 166.45 167.222 166.609C166.718 166.908 166.27 167.256 165.813 167.575C165.352 167.883 165.028 168.362 164.908 168.909C164.708 169.875 165.242 170.977 164.908 171.953C164.785 172.156 164.47 172.031 164.347 171.837C164.223 171.644 164.147 171.403 163.956 171.287C163.623 171.093 163.223 171.422 163.08 171.78C162.933 172.195 162.949 172.653 163.127 173.057C163.304 173.46 163.629 173.778 164.032 173.944C163.985 174.254 163.594 174.379 163.28 174.341C162.97 174.254 162.649 174.212 162.328 174.215C161.614 174.35 161.376 175.385 160.633 175.491C160.387 175.474 160.148 175.4 159.935 175.275C159.722 175.149 159.54 174.975 159.404 174.766L158.538 173.8C158.398 173.611 158.246 173.434 158.081 173.268C157.881 173.113 157.557 173.104 157.395 172.92C157.233 172.736 157.395 172.301 157.224 172.069C157.143 171.983 157.041 171.92 156.929 171.886C156.679 171.758 156.481 171.547 156.367 171.288C156.252 171.03 156.229 170.739 156.3 170.465C156.323 170.396 156.323 170.321 156.3 170.252C156.3 170.156 156.167 170.117 156.072 170.069C155.809 169.896 155.615 169.633 155.526 169.329C155.437 169.024 155.458 168.697 155.586 168.406C155.731 168.073 155.938 167.771 156.195 167.517C156.286 167.375 156.415 167.262 156.567 167.192C156.719 167.122 156.887 167.097 157.052 167.121L157.195 165.855C157.192 165.64 157.235 165.428 157.323 165.232C157.41 165.037 157.539 164.864 157.7 164.725C157.861 164.586 158.051 164.486 158.255 164.43C158.459 164.375 158.673 164.366 158.881 164.405L158.595 163.361C158.543 163.228 158.543 163.079 158.595 162.946C158.674 162.853 158.781 162.792 158.9 162.772C159.232 162.675 159.574 162.617 159.919 162.598C159.795 162.305 159.699 162 159.633 161.689C159.611 161.644 159.603 161.594 159.61 161.544C159.616 161.495 159.637 161.448 159.67 161.411C159.703 161.374 159.746 161.347 159.793 161.335C159.841 161.322 159.891 161.324 159.938 161.341C160.064 161.36 160.192 161.36 160.319 161.341C160.319 161.341 160.128 160.452 160.119 160.375C160.061 160.095 160.112 159.804 160.261 159.563C160.366 159.442 160.498 159.35 160.646 159.295C160.794 159.239 160.953 159.221 161.109 159.244C161.418 159.299 161.715 159.411 161.985 159.572C161.985 159.234 162.395 159.06 162.728 159.031C163.369 158.995 164.01 159.123 164.589 159.406C165.169 159.688 165.668 160.114 166.042 160.645C166.103 160.739 166.173 160.826 166.251 160.906C166.403 161.005 166.571 161.076 166.746 161.119C167.016 161.24 167.257 161.421 167.449 161.649C167.642 161.876 167.782 162.144 167.86 162.433C168.003 163.008 168.061 163.601 168.032 164.192C168.053 164.647 168.012 165.103 167.908 165.545C167.889 165.688 167.854 165.827 167.803 165.961Z" fill="#2F3554"/>
    <path d="M163.071 176.921C163.864 177.259 164.633 177.649 165.375 178.091C165.604 178.216 165.802 178.391 165.956 178.603C166.038 178.72 166.088 178.856 166.102 178.999C166.115 179.141 166.091 179.285 166.032 179.415C165.832 179.773 165.356 179.647 164.994 179.512C163.316 178.934 161.545 178.684 159.776 178.777C159.658 178.797 159.536 178.783 159.425 178.737C159.314 178.691 159.218 178.614 159.147 178.516C159.106 178.398 159.091 178.271 159.102 178.146C159.114 178.021 159.152 177.9 159.214 177.791C160.119 175.945 161.595 176.245 163.071 176.921Z" fill="white"/>
    <path d="M195.666 191.168C195.322 192.036 194.814 192.827 194.171 193.497C193.552 194.203 192.914 194.879 192.266 195.537C190.702 197.072 189.052 198.514 187.324 199.857C186.151 200.909 184.752 201.67 183.239 202.08C182.626 202.226 181.983 202.185 181.392 201.964C180.911 201.72 180.476 201.393 180.106 200.997C179.668 200.553 174.583 194.609 174.498 194.609C174.209 194.766 173.986 195.023 173.869 195.334C173.135 196.878 172.68 198.545 172.527 200.253C172.465 201.015 172.465 201.782 172.527 202.544C172.727 205.144 173.622 207.821 172.736 210.276C172.559 210.795 172.266 211.265 171.879 211.648C171.506 211.979 171.077 212.238 170.613 212.412C169.792 212.753 168.936 213 168.061 213.147C167.561 213.24 167.055 213.295 166.547 213.311C164.642 213.388 162.833 213.021 160.966 213.108C159.386 213.195 157.815 213.61 156.205 213.552C155.978 213.597 155.744 213.592 155.52 213.536C155.295 213.48 155.085 213.376 154.904 213.23C154.723 213.084 154.575 212.899 154.471 212.69C154.367 212.48 154.309 212.25 154.301 212.016C153.684 208.574 153.366 205.085 153.349 201.587C153.349 200.369 153.282 199.142 153.206 197.924C153.139 196.89 153.415 194.261 152.254 194.058C149.302 193.478 146.235 194.212 143.255 193.787C143.338 191.808 144.166 189.936 145.569 188.558C146.257 187.969 147.004 187.454 147.797 187.022C148.71 186.358 149.531 185.571 150.235 184.683C152.26 182.145 154.825 180.106 157.738 178.719C158.202 178.488 158.691 178.313 159.195 178.197H159.319C159.392 178.189 159.465 178.189 159.538 178.197C160.175 178.143 160.817 178.182 161.443 178.313C165.691 179.029 169.895 179.997 174.031 181.213C174.577 181.337 175.094 181.567 175.555 181.889C175.876 182.184 176.152 182.526 176.374 182.904C177.535 184.683 178.669 186.48 179.84 188.259C180.849 189.786 181.839 191.699 183.325 192.821C186.559 191.486 189.611 189.739 192.409 187.621C192.8 187.321 193.304 186.993 193.752 187.195C193.901 187.263 194.034 187.362 194.142 187.485C195.237 188.452 196.199 189.515 195.666 191.168Z" fill="white"/>
  </g>
  <defs>
    <linearGradient id="paint0_linear_476_496" x1="164.032" y1="233.009" x2="166.063" y2="271.463" gradientUnits="userSpaceOnUse">
      <stop offset="0.01"/>
      <stop offset="0.08" stop-opacity="0.69"/>
      <stop offset="0.21" stop-opacity="0.32"/>
      <stop offset="1" stop-opacity="0"/>
    </linearGradient>
    <linearGradient id="paint1_linear_476_496" x1="178.278" y1="89.0939" x2="186.792" y2="226.614" gradientUnits="userSpaceOnUse">
      <stop offset="0.01"/>
      <stop offset="0.08" stop-opacity="0.69"/>
      <stop offset="0.21" stop-opacity="0.32"/>
      <stop offset="1" stop-opacity="0"/>
    </linearGradient>
    <linearGradient id="paint2_linear_476_496" x1="102.965" y1="67.6569" x2="124.802" y2="72.6449" gradientUnits="userSpaceOnUse">
      <stop offset="0.01"/>
      <stop offset="0.08" stop-opacity="0.69"/>
      <stop offset="0.21" stop-opacity="0.32"/>
      <stop offset="1" stop-opacity="0"/>
    </linearGradient>
    <linearGradient id="paint3_linear_476_496" x1="179.471" y1="136.541" x2="94.9089" y2="-32.6098" gradientUnits="userSpaceOnUse">
      <stop offset="0.01"/>
      <stop offset="0.08" stop-opacity="0.69"/>
      <stop offset="0.21" stop-opacity="0.32"/>
      <stop offset="1" stop-opacity="0"/>
    </linearGradient>
    <linearGradient id="paint4_linear_476_496" x1="132.818" y1="63.4617" x2="141.637" y2="106.072" gradientUnits="userSpaceOnUse">
      <stop offset="0.01"/>
      <stop offset="0.08" stop-opacity="0.69"/>
      <stop offset="0.21" stop-opacity="0.32"/>
      <stop offset="1" stop-opacity="0"/>
    </linearGradient>
    <linearGradient id="paint5_linear_476_496" x1="133.189" y1="67.3024" x2="106.942" y2="87.7643" gradientUnits="userSpaceOnUse">
      <stop offset="0.01"/>
      <stop offset="0.08" stop-opacity="0.69"/>
      <stop offset="0.21" stop-opacity="0.32"/>
      <stop offset="1" stop-opacity="0"/>
    </linearGradient>
    <linearGradient id="paint6_linear_476_496" x1="150.673" y1="100.682" x2="149.191" y2="273.399" gradientUnits="userSpaceOnUse">
      <stop offset="0.01"/>
      <stop offset="0.08" stop-opacity="0.69"/>
      <stop offset="0.21" stop-opacity="0.32"/>
      <stop offset="1" stop-opacity="0"/>
    </linearGradient>
    <linearGradient id="paint7_linear_476_496" x1="144.655" y1="129.929" x2="74.8152" y2="169.393" gradientUnits="userSpaceOnUse">
      <stop offset="0.01"/>
      <stop offset="0.08" stop-opacity="0.69"/>
      <stop offset="0.21" stop-opacity="0.32"/>
      <stop offset="1" stop-opacity="0"/>
    </linearGradient>
    <linearGradient id="paint8_linear_476_496" x1="146.978" y1="139.623" x2="24.5457" y2="208.799" gradientUnits="userSpaceOnUse">
      <stop offset="0.01"/>
      <stop offset="0.08" stop-opacity="0.69"/>
      <stop offset="0.21" stop-opacity="0.32"/>
      <stop offset="1" stop-opacity="0"/>
    </linearGradient>
    <linearGradient id="paint9_linear_476_496" x1="262.627" y1="70.7782" x2="326.343" y2="218.155" gradientUnits="userSpaceOnUse">
      <stop offset="0.01"/>
      <stop offset="0.08" stop-opacity="0.69"/>
      <stop offset="0.21" stop-opacity="0.32"/>
      <stop offset="1" stop-opacity="0"/>
    </linearGradient>
    <linearGradient id="paint10_linear_476_496" x1="150.272" y1="107.409" x2="378.492" y2="265.044" gradientUnits="userSpaceOnUse">
      <stop offset="0.01"/>
      <stop offset="0.08" stop-opacity="0.69"/>
      <stop offset="0.21" stop-opacity="0.32"/>
      <stop offset="1" stop-opacity="0"/>
    </linearGradient>
    <linearGradient id="paint11_linear_476_496" x1="178.64" y1="221.778" x2="222.516" y2="-10.6578" gradientUnits="userSpaceOnUse">
      <stop offset="0.01"/>
      <stop offset="0.08" stop-opacity="0.69"/>
      <stop offset="0.21" stop-opacity="0.32"/>
      <stop offset="1" stop-opacity="0"/>
    </linearGradient>
    <linearGradient id="paint12_linear_476_496" x1="152.548" y1="62.6691" x2="145.917" y2="350.04" gradientUnits="userSpaceOnUse">
      <stop offset="0.01"/>
      <stop offset="0.08" stop-opacity="0.69"/>
      <stop offset="0.21" stop-opacity="0.32"/>
      <stop offset="1" stop-opacity="0"/>
    </linearGradient>
    <linearGradient id="paint13_linear_476_496" x1="126.829" y1="183.871" x2="211.562" y2="274.597" gradientUnits="userSpaceOnUse">
      <stop offset="0.01"/>
      <stop offset="0.08" stop-opacity="0.69"/>
      <stop offset="0.21" stop-opacity="0.32"/>
      <stop offset="1" stop-opacity="0"/>
    </linearGradient>
    <linearGradient id="paint14_linear_476_496" x1="144.702" y1="204.747" x2="193.393" y2="271.902" gradientUnits="userSpaceOnUse">
      <stop offset="0.01"/>
      <stop offset="0.08" stop-opacity="0.69"/>
      <stop offset="0.21" stop-opacity="0.32"/>
      <stop offset="1" stop-opacity="0"/>
    </linearGradient>
    <clipPath id="clip0_476_496">
      <rect width="380" height="290.7" fill="white"/>
    </clipPath>
  </defs>
</svg>
