<svg viewBox="0 0 540 540" fill="none" xmlns="http://www.w3.org/2000/svg">
  <g clip-path="url(#clip0_532_964)">
    <path d="M514.293 365.25C462.702 486.725 325.277 554.768 206.101 536.42C186.709 533.432 133.545 524.539 86.4749 482.558C-4.13735 401.749 -23.5157 241.74 49.5783 128.977C102.78 46.9043 198.145 0.389558 288.761 2.70935C308.281 3.20993 383.085 6.29909 448.825 60.5075C458.48 68.468 479.777 87.3867 498.972 117.404C544.041 187.886 547.915 286.083 514.293 365.25Z" fill="#F0F4FE"/>
    <path d="M37.6989 175.085L73.9002 214.711C51.2476 231.798 37.0386 265.327 74.9578 305.2L23.9788 329.91C-11.7491 267.343 -6.69855 217.903 37.6989 175.085Z" fill="#7497F7"/>
    <path d="M16.3765 315.539L51.4987 316.104L57.8055 281.511C77.0885 321.133 122.684 337.691 174.847 320.79L201.195 369.753C125.904 404.075 49.695 386.461 16.3765 315.539Z" fill="#99B3F9"/>
    <path d="M310.924 263.193C339.395 206.916 414.546 186.158 468.575 216.974L523.346 198.846C459.374 113.506 343.131 129.7 270.915 214.977L310.924 263.193Z" fill="#7497F7"/>
    <path d="M437.278 322.761L460.517 377.048C545.309 341.731 570.969 222.136 494.408 169.446L494.965 204.619L458.932 212.116C512.005 237.289 488.357 308.628 437.278 322.761Z" fill="#BDCEFB"/>
    <path d="M285.923 338.121C366.257 395.896 436.55 403.428 492.597 357.519L453.151 343.495L464.13 308.361C414.941 342.498 369.227 331.392 325.344 296.435L285.923 338.121Z" fill="#99B3F9"/>
    <path d="M37.6987 175.085V213.143L73.9 214.701C97.3765 199.475 131.359 200.704 174.158 214.395L199.021 159.273C133.997 131.434 80.6958 138.081 37.6987 175.085Z" fill="#99B3F9"/>
    <path d="M174.158 214.405L153.821 172.043L199.021 159.277C228.384 174.592 252.034 193.349 270.917 214.983C291.704 260.756 320.235 299.838 355.916 316.513L309.088 317.008L316.295 357.854C297.947 346.867 280.241 334.534 264.663 321.088L229.5 258.565C217.241 239.942 200.137 224.773 174.158 214.405Z" fill="#7497F7"/>
    <path d="M270.925 214.977C257.17 229.683 248.165 251.366 235.24 266.775C214.625 291.348 188.916 323.096 142.526 327.226L180.4 346.822L157.843 383.795C233.5 368.758 286.437 319.407 310.924 263.193V209.089L270.925 214.977Z" fill="#BDCEFB"/>
    <path d="M283.763 57.6112L467.911 56.8048C468.329 56.8012 468.744 56.8808 469.132 57.0389C469.519 57.1971 469.871 57.4306 470.167 57.726C470.464 58.0214 470.698 58.3728 470.858 58.7597C471.017 59.1466 471.098 59.5613 471.096 59.9797L470.706 124.437C470.705 124.859 470.619 125.276 470.454 125.663C470.288 126.051 470.047 126.402 469.744 126.695C469.441 126.987 469.082 127.217 468.689 127.369C468.296 127.52 467.876 127.592 467.455 127.579C451.219 127.096 284.785 124.959 281.603 125.092C278.459 125.224 280.167 74.3211 280.629 60.6614C280.655 59.8463 280.996 59.073 281.581 58.5042C282.165 57.9354 282.947 57.6153 283.763 57.6112Z" fill="#7497F7"/>
    <path d="M467.553 125.08H467.531C457.153 124.77 357.698 123.522 309.904 122.937C295.929 122.764 286.009 122.641 283.364 122.602H283.116L283.073 122.359C281.944 115.986 281.963 94.6831 283.13 60.749C283.135 60.5789 283.207 60.4174 283.329 60.2987C283.451 60.1799 283.614 60.113 283.784 60.1121L467.934 59.3077C468.023 59.3071 468.11 59.324 468.192 59.3574C468.273 59.3909 468.347 59.4402 468.41 59.5025C468.472 59.5632 468.522 59.6362 468.556 59.717C468.589 59.7977 468.606 59.8845 468.604 59.9719L468.215 124.431C468.211 124.605 468.14 124.77 468.016 124.891C467.892 125.012 467.726 125.08 467.553 125.08ZM283.621 122.005C286.595 122.045 296.342 122.166 309.916 122.336C357.712 122.932 457.167 124.174 467.553 124.478H467.57C467.588 124.478 467.615 124.449 467.615 124.414L468.005 59.9544L467.936 59.5921V59.892L283.78 60.7023C283.764 60.7023 283.749 60.7086 283.737 60.7199C283.725 60.7311 283.719 60.7465 283.718 60.7627C282.577 94.2312 282.54 115.384 283.621 122.005Z" fill="white"/>
    <path opacity="0.7" d="M291.642 74.2568C291.642 76.0001 292.226 77.4122 292.941 77.4122H363.479C364.196 77.4122 364.778 76.0001 364.778 74.2568C364.778 72.5136 364.194 71.0995 363.479 71.0995H292.935C292.222 71.0937 291.642 72.5136 291.642 74.2568Z" fill="url(#paint0_linear_532_964)"/>
    <path opacity="0.7" d="M291.642 85.0163C291.642 86.7596 292.226 88.1717 292.941 88.1717H363.479C364.196 88.1717 364.778 86.7596 364.778 85.0163C364.778 83.2633 364.194 81.859 363.479 81.859H292.935C292.222 81.859 291.642 83.2731 291.642 85.0163Z" fill="url(#paint1_linear_532_964)"/>
    <path opacity="0.7" d="M291.642 95.7758C291.642 97.5191 292.226 98.9312 292.941 98.9312H363.479C364.196 98.9312 364.778 97.5191 364.778 95.7758C364.778 94.0228 364.194 92.6185 363.479 92.6185H292.935C292.222 92.6185 291.642 94.0325 291.642 95.7758Z" fill="url(#paint2_linear_532_964)"/>
    <path opacity="0.7" d="M291.642 106.543C291.642 108.284 292.226 109.698 292.941 109.698H363.479C364.196 109.698 364.778 108.284 364.778 106.543C364.778 104.79 364.194 103.386 363.479 103.386H292.935C292.222 103.378 291.642 104.79 291.642 106.543Z" fill="url(#paint3_linear_532_964)"/>
    <path d="M382.649 88.7502C389.426 88.7502 394.92 83.2563 394.92 76.4792C394.92 69.7022 389.426 64.2083 382.649 64.2083C375.872 64.2083 370.378 69.7022 370.378 76.4792C370.378 83.2563 375.872 88.7502 382.649 88.7502Z" fill="white"/>
    <path d="M413.144 88.7502C419.921 88.7502 425.414 83.2563 425.414 76.4792C425.414 69.7022 419.921 64.2083 413.144 64.2083C406.366 64.2083 400.873 69.7022 400.873 76.4792C400.873 83.2563 406.366 88.7502 413.144 88.7502Z" fill="white"/>
    <path d="M443.64 89.1534C450.417 89.1534 455.911 83.6595 455.911 76.8824C455.911 70.1054 450.417 64.6115 443.64 64.6115C436.863 64.6115 431.369 70.1054 431.369 76.8824C431.369 83.6595 436.863 89.1534 443.64 89.1534Z" fill="white"/>
    <path d="M389.934 73.8867C390.576 75.4497 390.698 77.1776 390.283 78.8155C389.869 80.4534 388.938 81.9146 387.63 82.9836C386.321 84.0525 384.704 84.6726 383.016 84.7524C381.328 84.8321 379.66 84.3673 378.256 83.4265C376.853 82.4858 375.789 81.1188 375.221 79.5273C374.654 77.9358 374.613 76.2041 375.104 74.5875C375.596 72.971 376.594 71.5553 377.952 70.5492C379.309 69.5431 380.954 68.9999 382.643 68.9998C382.776 68.9998 382.908 68.9998 383.033 69.0095V67.0131C382.901 67.0131 382.768 67.0033 382.643 67.0033C380.526 67.005 378.466 67.6874 376.766 68.95C375.066 70.2125 373.818 71.9882 373.205 74.0147C372.591 76.0413 372.646 78.2113 373.361 80.2042C374.076 82.1972 375.412 83.9075 377.174 85.0826C378.935 86.2576 381.027 86.8352 383.142 86.7298C385.257 86.6245 387.281 85.8419 388.917 84.4976C390.553 83.1534 391.713 81.3187 392.226 79.2645C392.739 77.2104 392.578 75.0457 391.767 73.0901L389.934 73.8867Z" fill="#7D97F4"/>
    <path d="M417.202 83.5594C416.169 84.2101 414.998 84.6117 413.782 84.7324C412.567 84.853 411.34 84.6895 410.198 84.2546C409.057 83.8198 408.032 83.1255 407.205 82.2267C406.378 81.3279 405.771 80.2491 405.432 79.0755C405.094 77.902 405.032 76.6657 405.253 75.4644C405.474 74.263 405.972 73.1295 406.706 72.1533C407.44 71.1771 408.391 70.3849 409.484 69.8393C410.577 69.2938 411.782 69.0097 413.003 69.0095C413.135 69.0095 413.268 69.0095 413.393 69.0193V67.0131C413.26 67.0131 413.128 67.0033 413.003 67.0033C411.475 67.0028 409.968 67.3567 408.6 68.0372C407.232 68.7176 406.04 69.7061 405.119 70.925C404.198 72.1438 403.572 73.5597 403.29 75.0614C403.008 76.5631 403.079 78.1097 403.496 79.5796C403.913 81.0494 404.665 82.4025 405.694 83.5324C406.722 84.6623 407.999 85.5383 409.423 86.0914C410.847 86.6445 412.381 86.8598 413.902 86.7202C415.424 86.5807 416.892 86.0901 418.192 85.2871L417.202 83.5594Z" fill="#7D97F4"/>
    <path d="M450.217 81.3136C449.453 82.4375 448.412 83.3448 447.194 83.9475C445.976 84.5501 444.623 84.8277 443.266 84.7532C441.909 84.6787 440.594 84.2547 439.45 83.5223C438.305 82.7899 437.369 81.774 436.733 80.5732C436.096 79.3725 435.781 78.0276 435.818 76.6692C435.855 75.3107 436.242 73.9849 436.943 72.8203C437.643 71.6557 438.632 70.6919 439.815 70.0225C440.998 69.3531 442.333 69.0008 443.692 68.9998C443.827 68.9998 443.959 68.9998 444.082 69.0095V67.0131C443.951 67.0131 443.819 67.0033 443.692 67.0033C441.991 67.0031 440.319 67.442 438.837 68.2777C437.356 69.1133 436.115 70.3174 435.235 71.7733C434.356 73.2291 433.867 74.8875 433.816 76.5877C433.765 78.288 434.154 79.9725 434.946 81.4783C435.737 82.984 436.904 84.2599 438.333 85.1824C439.762 86.105 441.405 86.6428 443.103 86.744C444.801 86.8452 446.496 86.5062 448.025 85.7599C449.553 85.0137 450.863 83.8853 451.828 82.4842L450.217 81.3136Z" fill="#7D97F4"/>
    <g opacity="0.64">
      <path d="M392.647 93.9488H372.651C372.347 93.9399 372.044 93.9921 371.761 94.1022C371.478 94.2124 371.219 94.3784 371.001 94.5902C370.783 94.8021 370.609 95.0556 370.491 95.3357C370.373 95.6158 370.312 95.9168 370.312 96.2209C370.312 96.525 370.373 96.826 370.491 97.1061C370.609 97.3862 370.783 97.6396 371.001 97.8515C371.219 98.0634 371.478 98.2293 371.761 98.3395C372.044 98.4497 372.347 98.5018 372.651 98.4929H392.647C392.951 98.5018 393.254 98.4497 393.537 98.3395C393.82 98.2293 394.079 98.0634 394.297 97.8515C394.515 97.6396 394.689 97.3862 394.807 97.1061C394.925 96.826 394.986 96.525 394.986 96.2209C394.986 95.9168 394.925 95.6158 394.807 95.3357C394.689 95.0556 394.515 94.8021 394.297 94.5902C394.079 94.3784 393.82 94.2124 393.537 94.1022C393.254 93.9921 392.951 93.9399 392.647 93.9488Z" fill="url(#paint4_linear_532_964)"/>
      <path d="M423.141 93.9488H403.146C402.554 93.9661 401.993 94.2131 401.581 94.6373C401.169 95.0615 400.939 95.6295 400.939 96.2209C400.939 96.8122 401.169 97.3802 401.581 97.8045C401.993 98.2287 402.554 98.4756 403.146 98.4929H423.141C423.445 98.5018 423.748 98.4497 424.031 98.3395C424.315 98.2293 424.573 98.0634 424.791 97.8515C425.01 97.6396 425.183 97.3862 425.301 97.1061C425.42 96.826 425.481 96.525 425.481 96.2209C425.481 95.9168 425.42 95.6158 425.301 95.3357C425.183 95.0556 425.01 94.8021 424.791 94.5902C424.573 94.3784 424.315 94.2124 424.031 94.1022C423.748 93.9921 423.445 93.9399 423.141 93.9488Z" fill="url(#paint5_linear_532_964)"/>
      <path d="M433.642 98.4929H453.638C454.229 98.4756 454.79 98.2287 455.202 97.8045C455.614 97.3802 455.844 96.8122 455.844 96.2209C455.844 95.6295 455.614 95.0615 455.202 94.6373C454.79 94.2131 454.229 93.9661 453.638 93.9488H433.642C433.338 93.9399 433.035 93.9921 432.752 94.1022C432.468 94.2124 432.21 94.3784 431.992 94.5902C431.774 94.8021 431.6 95.0556 431.482 95.3357C431.363 95.6158 431.302 95.9168 431.302 96.2209C431.302 96.525 431.363 96.826 431.482 97.1061C431.6 97.3862 431.774 97.6396 431.992 97.8515C432.21 98.0634 432.468 98.2293 432.752 98.3395C433.035 98.4497 433.338 98.5018 433.642 98.4929Z" fill="url(#paint6_linear_532_964)"/>
      <path d="M392.645 101.017H372.651C371.396 101.017 370.378 102.035 370.378 103.29V116.671C370.378 117.927 371.396 118.945 372.651 118.945H392.645C393.9 118.945 394.918 117.927 394.918 116.671V103.29C394.918 102.035 393.9 101.017 392.645 101.017Z" fill="url(#paint7_linear_532_964)"/>
      <path d="M423.141 101.017H403.148C401.892 101.017 400.875 102.035 400.875 103.29V116.671C400.875 117.927 401.892 118.945 403.148 118.945H423.141C424.397 118.945 425.414 117.927 425.414 116.671V103.29C425.414 102.035 424.397 101.017 423.141 101.017Z" fill="url(#paint8_linear_532_964)"/>
      <path d="M453.636 101.017H433.642C432.386 101.017 431.369 102.035 431.369 103.29V116.671C431.369 117.927 432.386 118.945 433.642 118.945H453.636C454.891 118.945 455.909 117.927 455.909 116.671V103.29C455.909 102.035 454.891 101.017 453.636 101.017Z" fill="url(#paint9_linear_532_964)"/>
    </g>
    <path d="M204.202 511.931C204.202 511.931 203.199 517.312 202.681 522.643C202.634 523.138 202.688 523.637 202.84 524.11C202.991 524.582 203.237 525.02 203.562 525.395C203.887 525.77 204.285 526.076 204.731 526.293C205.178 526.511 205.664 526.635 206.16 526.66C213.263 527.024 228.458 527.745 233.913 527.554C234.104 527.547 234.29 527.494 234.456 527.4C234.622 527.307 234.763 527.175 234.867 527.015C234.972 526.856 235.037 526.674 235.056 526.484C235.076 526.295 235.05 526.103 234.981 525.925C234.732 525.282 234.243 524.76 233.617 524.469L208.622 512.69L204.202 511.931Z" fill="#3C5088"/>
    <path d="M203.452 508.758L204.155 515.213C204.155 515.213 208.534 517.303 211.557 515.018L209.804 507.811L203.452 508.758Z" fill="url(#paint10_linear_532_964)"/>
    <path d="M205.184 387.544C204.837 389.225 202.609 471.551 211.058 508.534C211.127 508.825 211.089 509.132 210.952 509.398C210.814 509.664 210.586 509.872 210.308 509.985C208.01 510.848 205.582 511.317 203.127 511.372C202.649 511.383 202.181 511.235 201.796 510.951C201.412 510.667 201.132 510.264 201.002 509.804C198.567 501.218 186.921 458.209 185.739 417.218C184.419 371.415 185.755 415.66 185.755 415.66L187.056 387.367L205.184 387.544Z" fill="#2C3A63"/>
    <path d="M175.289 514.467C175.289 514.467 173.749 517.174 172.212 524.4C172.145 524.708 172.144 525.025 172.208 525.333C172.271 525.641 172.399 525.932 172.583 526.187C172.767 526.442 173.002 526.656 173.274 526.814C173.545 526.972 173.847 527.072 174.16 527.106C176.497 527.359 180.112 527.69 183.006 527.69C183.321 527.692 183.633 527.628 183.921 527.501C184.21 527.374 184.468 527.188 184.679 526.954C184.89 526.721 185.05 526.445 185.147 526.146C185.245 525.846 185.278 525.53 185.244 525.216C184.948 522.575 183.992 518.234 180.94 514.829L175.289 514.467Z" fill="#3C5088"/>
    <path d="M174.041 506.161L175.736 515.93C175.736 515.93 177.489 517.262 180.995 516.34L180.241 505.842L174.041 506.161Z" fill="url(#paint11_linear_532_964)"/>
    <path d="M170.323 389.737C162.709 433.112 170.86 497.128 173.694 509.667C173.777 510.043 173.969 510.386 174.246 510.652C174.524 510.919 174.874 511.097 175.252 511.165C176.569 511.395 178.739 511.596 180.885 510.994C181.246 510.892 181.566 510.68 181.799 510.386C182.033 510.093 182.168 509.734 182.186 509.36C182.679 499.247 182.558 437.136 189.5 412.657C189.852 411.417 190.622 410.337 191.68 409.601L204.786 400.471L205.928 385.52L170.323 389.737Z" fill="#2C3A63"/>
    <path d="M216.972 307.859C195.402 307.296 171.542 313.091 171.542 313.091C164.754 350.55 169.647 393.878 169.647 393.878C186.306 398.417 205.213 391.541 205.213 391.541C208.135 375.885 221.51 331.871 221.51 331.871C232.063 330.663 240.775 327.707 247.965 323.753C242.569 317.38 240.076 309.31 239.005 304.544C231.36 306.84 223.629 308.032 216.972 307.859Z" fill="#FF8B8B"/>
    <path d="M281.001 276.691C278.907 274.112 276.213 275.296 276.213 275.296C272.902 288.675 256.151 299.39 239.011 304.542C240.082 309.308 242.575 317.378 247.97 323.751C276.503 308.065 281.001 276.691 281.001 276.691Z" fill="url(#paint12_linear_532_964)"/>
    <path d="M280.481 277.337C280.697 278.044 278.118 279.09 276.634 276.196C276.595 274.813 275.81 268.886 276.647 267.768C281.102 261.815 289.698 254.381 289.698 254.381C291.123 255.816 289.923 257.201 289.923 257.201L285.747 261.471C286.597 263.043 287.639 264.371 288.116 266.268C288.464 267.715 288.242 269.24 287.497 270.528C286.758 271.829 285.744 273.52 284.803 274.84C283.001 277.343 280.481 277.337 280.481 277.337Z" fill="url(#paint13_linear_532_964)"/>
    <path d="M283.913 264.248L280.113 267.408L278.899 270.578L282.224 274.338C282.224 274.338 283.414 268.037 284.267 266.679C285.121 265.321 284.692 264.655 283.913 264.248Z" fill="url(#paint14_linear_532_964)"/>
    <path d="M179.623 334.058L171.548 313.091C171.548 313.091 151.268 326.589 147.785 343.916C151.591 344.233 158.51 345.279 165.259 348.785C166.829 340.595 179.623 334.058 179.623 334.058Z" fill="#FF8B8B"/>
    <path d="M197.044 353.881C197.044 353.881 174.298 366.452 166.77 355.46C165.212 353.178 164.85 350.922 165.261 348.778C158.512 345.289 151.593 344.233 147.787 343.908C146.739 349.132 147.215 354.703 150.236 360.357C163.373 384.944 199.986 359.481 199.986 359.481L197.044 353.881Z" fill="url(#paint15_linear_532_964)"/>
    <path d="M195.293 290.136L188.24 309.922C188.183 310.08 188.183 310.254 188.241 310.412C188.299 310.57 188.411 310.703 188.558 310.786C190.418 311.838 197.128 314.892 205.309 309.812C205.73 309.554 206.09 309.205 206.362 308.792C206.634 308.378 206.811 307.91 206.882 307.421L209.268 290.263L195.293 290.136Z" fill="url(#paint16_linear_532_964)"/>
    <path d="M210.404 271.897C210.404 271.897 217.806 286.157 216.785 291.879C215.764 297.602 206.427 297.101 198.314 292.368L192.759 276.994L210.404 271.897Z" fill="url(#paint17_linear_532_964)"/>
    <path d="M198.747 284.848C198.825 284.815 198.895 284.765 198.952 284.701C199.009 284.638 199.051 284.564 199.076 284.482C199.101 284.401 199.108 284.315 199.097 284.231C199.085 284.147 199.056 284.066 199.01 283.995C198.414 283.066 197.299 281.172 196.955 279.515C196.955 279.515 195.609 278.634 200.424 277.53C205.239 276.426 212.418 274.71 213.963 270.635C215.468 266.662 211.707 256.599 205.478 264.529C205.424 264.6 205.353 264.657 205.273 264.697C205.193 264.737 205.104 264.757 205.015 264.757C204.925 264.757 204.837 264.737 204.756 264.697C204.676 264.657 204.606 264.6 204.551 264.529C203.554 263.206 200.928 260.456 197.229 262.073C193.77 263.586 193.357 266.106 193.392 267.38C193.394 267.467 193.376 267.553 193.34 267.632C193.304 267.711 193.251 267.781 193.185 267.837C193.118 267.893 193.04 267.934 192.956 267.956C192.872 267.978 192.784 267.981 192.699 267.965C190.96 267.616 186.782 267.291 184.789 271.562C183.147 275.068 184.173 277.088 185.116 278.075C185.188 278.148 185.239 278.238 185.265 278.336C185.292 278.435 185.292 278.538 185.265 278.637C185.239 278.735 185.188 278.825 185.116 278.897C185.045 278.97 184.955 279.022 184.857 279.049C183.708 279.388 182.22 280.345 182.343 283.029C182.512 286.739 186.661 286.453 187.843 286.295C187.939 286.282 188.036 286.293 188.127 286.327C188.217 286.361 188.298 286.417 188.361 286.49C189.362 287.62 193.877 292.419 198.809 293.04C198.909 293.053 199.01 293.04 199.103 293.003C199.196 292.966 199.278 292.905 199.341 292.827C199.404 292.748 199.445 292.655 199.462 292.556C199.478 292.457 199.469 292.355 199.434 292.261L197.358 286.028C197.311 285.889 197.318 285.737 197.378 285.603C197.438 285.468 197.546 285.362 197.681 285.304L198.747 284.848Z" fill="#2C3A63"/>
    <path d="M199.596 285.738C199.596 285.738 194.265 282.004 193.842 285.101C193.419 288.198 198.634 289.639 201.232 288.508L199.596 285.738Z" fill="url(#paint18_linear_532_964)"/>
    <path d="M192.395 373.746L204.786 330.476C204.855 330.236 204.992 330.022 205.182 329.86C205.372 329.698 205.606 329.596 205.854 329.567C208.098 329.306 214.603 328.57 222.114 327.935C231.159 327.169 241.665 326.55 247.943 327.078C248.149 327.093 248.349 327.16 248.523 327.27C248.698 327.381 248.843 327.533 248.945 327.713C249.047 327.893 249.104 328.095 249.11 328.301C249.116 328.508 249.071 328.713 248.979 328.899C245.409 336.121 230.725 365.501 223.37 375.127C223.251 375.284 223.096 375.411 222.919 375.498C222.742 375.585 222.547 375.629 222.349 375.628L193.598 375.361C193.403 375.359 193.212 375.312 193.038 375.223C192.864 375.135 192.713 375.008 192.597 374.852C192.48 374.695 192.401 374.514 192.366 374.322C192.331 374.131 192.341 373.933 192.395 373.746Z" fill="#2C3A63"/>
    <path d="M195.389 363.292C195.389 363.292 193.663 356.195 194.36 353.676C195.058 351.158 196.405 347.923 200.901 348.641C205.396 349.36 210.702 351.255 210.702 351.255C210.702 351.255 210.433 354.535 207.017 353.476L209.136 355.116C209.136 355.116 208.832 357.741 205.946 356.339L207.917 358.513C207.917 358.513 206.678 360.671 204.553 359.292C202.428 357.913 201.411 364.147 195.389 363.292Z" fill="url(#paint19_linear_532_964)"/>
    <path d="M221.288 340.86C221.288 341.579 221.501 342.282 221.901 342.88C222.301 343.478 222.868 343.944 223.533 344.22C224.197 344.495 224.929 344.567 225.634 344.427C226.339 344.286 226.987 343.94 227.496 343.431C228.005 342.923 228.351 342.275 228.491 341.569C228.631 340.864 228.559 340.133 228.284 339.468C228.009 338.804 227.543 338.236 226.945 337.836C226.347 337.437 225.644 337.223 224.925 337.223C224.447 337.223 223.974 337.317 223.533 337.5C223.092 337.683 222.691 337.951 222.353 338.289C222.015 338.626 221.748 339.027 221.565 339.468C221.382 339.91 221.288 340.382 221.288 340.86Z" fill="#91B3FA"/>
    <path d="M206.187 343.25L205.26 342.975L207.792 334.419C207.988 333.741 208.366 333.129 208.883 332.648C209.4 332.168 210.038 331.838 210.729 331.692C218.715 330.021 239.784 329.682 240.676 329.668L240.692 330.642C240.474 330.642 218.832 330.994 210.926 332.644C210.406 332.756 209.926 333.007 209.538 333.37C209.149 333.732 208.866 334.194 208.719 334.705L206.187 343.25Z" fill="url(#paint20_linear_532_964)"/>
    <path d="M59.5509 464.349C58.2303 466.296 52.981 510.554 52.1493 526.896C52.1364 527.157 52.1768 527.419 52.2682 527.665C52.3597 527.91 52.5001 528.135 52.681 528.325C52.862 528.514 53.0796 528.665 53.3207 528.768C53.5618 528.871 53.8213 528.924 54.0835 528.923C54.5449 528.921 54.9907 528.755 55.3414 528.455C55.692 528.155 55.9248 527.741 55.9981 527.285L65.5987 465.757L59.5509 464.349Z" fill="#7D97F4"/>
    <path d="M101.755 464.349C103.076 466.296 108.325 510.554 109.147 526.896C109.16 527.157 109.119 527.419 109.027 527.665C108.936 527.911 108.795 528.135 108.614 528.325C108.433 528.514 108.215 528.665 107.974 528.768C107.733 528.871 107.473 528.924 107.211 528.923C106.749 528.923 106.303 528.758 105.952 528.458C105.601 528.157 105.369 527.741 105.298 527.285L95.6978 465.751L101.755 464.349Z" fill="#7D97F4"/>
    <path d="M51.6062 460.889V461.372C51.5731 464.843 54.5649 467.691 58.3085 467.755L102.688 468.509C106.389 468.571 109.457 465.905 109.636 462.487L109.66 462.046C109.854 458.482 106.818 455.478 102.969 455.41L58.5715 454.61C54.7714 454.545 51.6413 457.366 51.6062 460.889Z" fill="#7D97F4"/>
    <path d="M145.099 525.283C137.211 525.283 133.72 524.607 132.158 523.989C132.311 524.649 132.684 525.237 133.214 525.658C133.745 526.079 134.403 526.308 135.08 526.307H162.982C163.19 526.306 163.395 526.257 163.581 526.164C163.768 526.071 163.93 525.937 164.057 525.771C164.183 525.606 164.27 525.414 164.31 525.209C164.351 525.005 164.344 524.794 164.291 524.593C161.11 524.848 154.351 525.283 145.099 525.283Z" fill="#7D97F4"/>
    <path d="M164.29 524.593C164.246 524.421 164.169 524.26 164.062 524.118C161.935 521.405 157.664 517.141 151.856 517.223C143.346 517.344 140.378 518.267 133.765 517.275L132.207 522.447C132.055 522.948 132.038 523.48 132.158 523.989C133.716 524.607 137.21 525.283 145.099 525.283C154.351 525.283 161.11 524.848 164.29 524.593Z" fill="#7497F7"/>
    <path d="M135.68 511.703L133.765 518.216C133.765 518.216 138.007 520.146 141.739 518.606L142.472 512.957L135.68 511.703Z" fill="url(#paint21_linear_532_964)"/>
    <path d="M193.525 521.181C187.376 526.122 184.232 527.784 182.631 528.282C183.163 528.698 183.82 528.922 184.495 528.917C185.17 528.912 185.824 528.679 186.349 528.255L208.106 510.774C208.267 510.644 208.396 510.479 208.484 510.291C208.571 510.103 208.614 509.898 208.609 509.69C208.604 509.483 208.552 509.28 208.456 509.097C208.361 508.913 208.224 508.754 208.057 508.631C205.735 510.817 200.739 515.38 193.525 521.181Z" fill="#7D97F4"/>
    <path d="M208.057 508.625C207.915 508.519 207.754 508.442 207.582 508.399C204.233 507.62 198.246 506.993 193.768 510.694C187.21 516.118 185.472 518.693 179.699 522.067L181.705 527.055C181.899 527.539 182.219 527.963 182.631 528.282C184.232 527.784 187.375 526.122 193.524 521.181C200.739 515.38 205.735 510.817 208.057 508.625Z" fill="#7497F7"/>
    <path d="M94.7123 437.493C94.7123 437.493 141.944 441.349 151.634 445.911C161.324 450.473 143.736 514.406 143.736 514.406C143.736 514.406 141.098 515.676 135.228 513.851C135.228 513.851 141.248 466.674 136.769 456.445L85.6279 448.079L94.7123 437.493Z" fill="#3C5088"/>
    <path d="M175.005 513.086C175.443 513.487 179.699 522.067 179.699 522.067C179.699 522.067 184.434 521.042 185.4 518.045L181.133 510.3L175.005 513.086Z" fill="url(#paint22_linear_532_964)"/>
    <path d="M66.263 437.097C65.245 439.858 64.7445 442.782 64.7866 445.724C64.8743 452.53 70.3456 458.053 77.1452 458.385L132.982 460.93C133.555 460.957 134.105 461.167 134.55 461.53C134.995 461.892 135.312 462.388 135.454 462.944C136.766 468.018 143.179 483.604 174.53 514.702C174.936 515.101 175.464 515.351 176.029 515.413C176.594 515.475 177.164 515.345 177.646 515.043L182.109 512.225C182.335 512.083 182.496 511.858 182.56 511.599C182.623 511.34 182.583 511.066 182.448 510.836L149.937 455.325C148.229 452.507 145.485 450.472 142.292 449.657L94.7024 437.491L66.263 437.097Z" fill="#2C3A63"/>
    <path d="M121.29 350.375C121.29 350.375 115.308 360.951 109.213 366.074L121.819 373.107C121.819 373.107 124.659 361.911 131.149 358.633L121.29 350.375Z" fill="url(#paint23_linear_532_964)"/>
    <path d="M65.25 437.493C65.25 437.493 80.3238 441.166 94.712 437.493C94.712 437.493 114.844 410.428 122.633 403.062C122.633 403.062 135.058 422.666 162.711 425.446L164.253 422C164.253 422 142.243 411.85 135.461 396.256C128.679 380.663 125.96 374.013 119.795 369.944C115.954 367.412 113.656 365.68 112.468 364.734C112.151 364.481 111.765 364.332 111.361 364.307C110.956 364.281 110.554 364.381 110.208 364.592C103.666 368.579 72.8755 389.667 65.25 437.493Z" fill="#FF8B8B"/>
    <path d="M121.815 402.68C121.667 402.68 121.521 402.646 121.388 402.58C121.255 402.515 121.139 402.42 121.048 402.302C116.249 396.042 113.574 389.143 113.463 388.863C113.399 388.741 113.361 388.607 113.352 388.469C113.343 388.332 113.364 388.194 113.412 388.065C113.461 387.936 113.536 387.818 113.633 387.721C113.73 387.623 113.847 387.547 113.976 387.497C114.104 387.448 114.242 387.427 114.38 387.435C114.517 387.443 114.652 387.48 114.774 387.543C114.896 387.607 115.004 387.696 115.089 387.804C115.174 387.912 115.236 388.038 115.269 388.171C115.294 388.239 117.959 395.105 122.583 401.136C122.691 401.28 122.757 401.451 122.773 401.63C122.79 401.809 122.757 401.989 122.677 402.15C122.598 402.312 122.475 402.448 122.323 402.544C122.171 402.64 121.995 402.692 121.815 402.694V402.68Z" fill="#D97171"/>
    <path d="M161.049 420.198L164.166 419.369L173.616 417.181C174.179 417.051 174.763 417.033 175.333 417.129C175.903 417.225 176.448 417.433 176.937 417.74L185.059 422.861L162.629 422.816L161.049 420.198Z" fill="url(#paint24_linear_532_964)"/>
    <path d="M130.787 334.518C130.787 334.518 136.601 344.181 137.604 349.516C138.607 354.851 140.23 358.195 134.158 360.104C128.087 362.013 122.431 359.597 118.886 354.613C118.886 354.613 113.348 346.941 113.902 343.427C114.455 339.913 130.787 334.518 130.787 334.518Z" fill="url(#paint25_linear_532_964)"/>
    <path d="M120.504 350.48L121.284 350.375C121.284 350.375 117.168 344.156 119.862 342.613C122.555 341.07 133.531 337.284 135.444 332.962C137.283 328.793 134.532 324.086 131.219 323.104C131.117 323.076 131.007 323.089 130.914 323.138C130.82 323.188 130.748 323.271 130.713 323.371L130.518 323.897C130.488 323.976 130.435 324.045 130.366 324.095C130.297 324.144 130.215 324.172 130.13 324.174C130.045 324.177 129.961 324.153 129.889 324.108C129.818 324.062 129.761 323.996 129.727 323.918C129.696 323.841 129.644 323.774 129.575 323.727C129.507 323.679 129.426 323.653 129.343 323.652C129.26 323.65 129.178 323.673 129.107 323.718C129.037 323.762 128.982 323.827 128.948 323.903C128.364 325.198 126.599 327.409 121.321 329.121C113.831 331.548 109.166 335.324 109.741 340.646C109.749 340.721 109.737 340.798 109.705 340.867C109.674 340.937 109.625 340.996 109.563 341.04C109.501 341.084 109.428 341.111 109.352 341.118C109.276 341.124 109.2 341.111 109.131 341.078C108.52 340.807 107.591 340.764 106.514 341.943C104.64 343.994 106.108 348.478 111.227 351.651C111.284 351.685 111.333 351.731 111.368 351.787C111.404 351.843 111.426 351.907 111.433 351.973C111.439 352.039 111.43 352.106 111.407 352.168C111.383 352.23 111.345 352.286 111.295 352.33C110.53 352.985 109.453 354.448 112.916 355.751C116.459 357.083 118.391 356.633 119.106 356.347C119.199 356.31 119.276 356.242 119.324 356.154C119.372 356.067 119.388 355.965 119.369 355.868L118.459 351.205C118.448 351.147 118.448 351.089 118.461 351.032C118.473 350.975 118.497 350.921 118.531 350.874C118.565 350.826 118.608 350.786 118.658 350.757C118.708 350.727 118.764 350.707 118.822 350.7L120.504 350.48Z" fill="#2C3A63"/>
    <path d="M120.826 351.436C120.826 351.436 118.261 345.114 115.567 347.346C112.873 349.578 118.058 354.483 120.45 354.416L120.826 351.436Z" fill="url(#paint26_linear_532_964)"/>
    <path d="M152.378 427.255H152.489L200.429 427.207C200.997 427.207 201.542 426.981 201.944 426.579C202.346 426.177 202.572 425.632 202.572 425.064C202.572 424.496 202.346 423.951 201.944 423.549C201.542 423.147 200.997 422.922 200.429 422.922L152.487 422.968C151.919 422.954 151.368 423.167 150.956 423.559C150.545 423.951 150.306 424.49 150.292 425.058C150.278 425.626 150.49 426.177 150.882 426.589C151.274 427 151.813 427.239 152.382 427.253L152.378 427.255Z" fill="#2C3A63"/>
    <path d="M218.996 380.306C218.978 380.339 218.963 380.372 218.947 380.405L198.776 423.897C198.646 424.154 198.568 424.434 198.549 424.721C198.529 425.009 198.568 425.297 198.662 425.569C198.756 425.841 198.905 426.091 199.098 426.304C199.291 426.518 199.525 426.69 199.786 426.811C200.047 426.932 200.33 426.999 200.618 427.008C200.905 427.017 201.192 426.969 201.46 426.865C201.729 426.761 201.973 426.604 202.18 426.403C202.386 426.202 202.55 425.962 202.662 425.697L222.833 382.207C223.061 381.702 223.083 381.127 222.896 380.605C222.71 380.083 222.327 379.654 221.83 379.407C221.333 379.161 220.76 379.117 220.232 379.285C219.703 379.452 219.26 379.819 218.996 380.306Z" fill="#2C3A63"/>
    <path d="M344.533 470.963H339.473V525.684H344.533V470.963Z" fill="#7D97F4"/>
    <path d="M364.163 526.738H319.845C319.845 526.305 319.93 525.877 320.096 525.477C320.261 525.078 320.504 524.715 320.81 524.409C321.116 524.103 321.479 523.86 321.878 523.695C322.278 523.529 322.706 523.444 323.139 523.444H360.869C361.302 523.444 361.73 523.529 362.13 523.695C362.529 523.86 362.892 524.103 363.198 524.409C363.504 524.715 363.747 525.078 363.912 525.477C364.078 525.877 364.163 526.305 364.163 526.738Z" fill="#7D97F4"/>
    <path d="M365.296 458.702H320.461C317.455 458.702 315.019 461.139 315.019 464.144V469.062C315.019 472.068 317.455 474.504 320.461 474.504H365.296C368.302 474.504 370.738 472.068 370.738 469.062V464.144C370.738 461.139 368.302 458.702 365.296 458.702Z" fill="#7D97F4"/>
    <path d="M304.649 434.478C304.649 434.478 297.13 435.646 288.677 441.295C288.023 441.727 287.503 442.333 287.174 443.044C286.845 443.756 286.722 444.545 286.817 445.323C287.83 453.34 291.992 479.292 305.71 504.64C306.429 505.98 306.646 507.533 306.322 509.019L303.938 520.121L299.516 524.266H310.905L318.489 503.744L315.246 502.72C314.02 502.332 312.947 501.569 312.178 500.538C311.409 499.508 310.984 498.261 310.961 496.976L310.582 474.966C310.905 465.159 304.567 458.392 304.567 458.392L322.755 457.506L304.649 434.478Z" fill="url(#paint27_linear_532_964)"/>
    <path d="M295.077 526.262C294.041 527.626 306.242 529.412 312.412 526.442C312.412 526.442 320.957 511.574 320.957 503.92C320.957 503.92 320.279 502.361 315.262 502.714C315.262 502.714 312.393 520.316 309.362 522.289C306.331 524.262 300.887 522.484 300.887 522.484C300.887 522.484 296.604 524.26 295.077 526.262Z" fill="#7497F7"/>
    <path d="M320.461 458.7C320.363 458.533 300.878 456.363 300.878 456.363C300.878 456.363 301.515 462.288 299.514 470.445C297.514 478.602 268.911 513.939 268.911 513.939L271.911 523.448C262.635 526.679 253.51 527.195 244.533 525.096L263.124 513.939C263.124 513.939 280.524 454.643 291.172 444.067L310.704 437.308L320.461 458.7Z" fill="url(#paint28_linear_532_964)"/>
    <path d="M364.163 424.201C364.163 424.201 375.39 440.899 376.311 448.517C377.232 456.135 373.235 459.23 361.455 459.74C349.675 460.251 318.226 460.243 318.226 460.243L291.386 437.304C291.386 437.304 310.946 430.325 316.031 428.344C321.117 426.363 364.163 424.201 364.163 424.201Z" fill="#2C3A63"/>
    <path d="M270.785 520.25C270.785 520.25 274.014 523.378 271.832 526.858C271.832 526.858 246.247 531.393 239.305 529.336C239.305 529.336 240.746 526.044 248.568 522.297L247.984 522.739C247.825 522.86 247.709 523.029 247.653 523.221C247.597 523.413 247.604 523.618 247.673 523.805C247.743 523.993 247.87 524.154 248.037 524.263C248.204 524.373 248.402 524.427 248.601 524.416C253.759 524.114 264.427 523.171 270.785 520.25Z" fill="#7497F7"/>
    <path d="M315.529 318.299C338.478 314.403 349.284 333.116 348.493 337.048C348.471 337.168 348.479 337.292 348.518 337.408C348.557 337.524 348.625 337.629 348.715 337.711C348.805 337.794 348.915 337.852 349.034 337.88C349.153 337.908 349.277 337.905 349.395 337.872C352.028 337.163 357.85 336.269 361.458 340.794C364.644 344.787 362.264 348.554 360.322 350.62C360.217 350.728 360.149 350.865 360.125 351.013C360.102 351.161 360.125 351.313 360.191 351.447C360.258 351.582 360.364 351.692 360.496 351.763C360.628 351.835 360.779 351.863 360.928 351.845C365.772 351.234 376.298 351.088 378.019 360.947C379.624 370.143 373.226 372.735 369.43 373.468C369.288 373.495 369.158 373.565 369.056 373.668C368.954 373.77 368.886 373.901 368.86 374.044C368.834 374.186 368.851 374.332 368.91 374.465C368.968 374.597 369.065 374.708 369.188 374.784C371.083 375.986 373.279 378.469 372.39 383.368C371.002 391.046 355.945 390.417 354.187 390.318C354.076 390.311 353.969 390.279 353.873 390.224L329.76 376.471C329.667 376.418 329.587 376.345 329.526 376.258C329.465 376.171 329.424 376.072 329.405 375.967L324.536 347.85C324.516 347.738 324.524 347.623 324.558 347.514C324.592 347.406 324.651 347.307 324.73 347.225L309.01 325.04C303.305 324.197 315.26 318.344 315.529 318.299Z" fill="#2C3A63"/>
    <path d="M333.799 421.99C333.799 421.99 320.726 409.542 314.29 401.295C312.578 399.096 311.416 396.52 310.901 393.782C310.386 391.043 310.532 388.22 311.328 385.55C314.265 375.651 319.487 365.4 319.964 363.803C320.693 361.358 335.352 361.465 335.352 361.465C335.352 361.465 364.198 380.187 375.532 411.901L362.805 415.849C362.805 415.849 355.273 403.214 347.831 395.179C347.831 395.179 360.708 412.191 361.161 419.154L333.799 421.99Z" fill="#FF8B8B"/>
    <path d="M318.191 350.133C318.343 350.642 322.171 363.327 322.477 363.59C322.782 363.853 330.868 364.288 334.677 361.686L325.221 343.197L318.191 350.133Z" fill="url(#paint29_linear_532_964)"/>
    <path d="M302.853 333.834C302.853 333.834 301.002 341.101 306.119 350.875C311.236 360.649 317.027 360.638 320.192 357.509C323.357 354.381 327.262 349.074 326.335 339.623C325.408 330.172 305.523 324.592 302.853 333.834Z" fill="url(#paint30_linear_532_964)"/>
    <path d="M319.257 340.137C319.257 340.137 310.77 327.161 302.81 337.373L302.666 341.088C302.666 341.088 293.344 339.981 294.976 331.433C296.608 322.884 304.664 317.543 315.038 321.246C325.412 324.949 331.358 328.745 332.026 336.181C332.695 343.618 326.781 341.986 326.781 341.986C326.781 341.986 324.853 336.75 322.106 336.207C319.36 335.663 320.077 339.744 320.077 339.744L319.257 340.137Z" fill="#2C3A63"/>
    <path d="M321.431 339.964C321.431 339.964 317.029 333.318 321.54 332.327C326.051 331.335 325.352 338.803 324.865 341.563L321.431 339.964Z" fill="url(#paint31_linear_532_964)"/>
    <path d="M307.165 422.916L316.769 413.656L330.059 419.269C330.059 419.269 343.286 421.318 350.855 419.269L358.426 417.22L375.534 411.895L378.22 419.491C378.553 420.43 378.57 421.452 378.268 422.401C377.967 423.351 377.364 424.176 376.55 424.75C375.07 425.802 373.335 426.957 372.23 427.442C369.977 428.428 316.694 426.761 316.694 426.761L307.165 422.916Z" fill="url(#paint32_linear_532_964)"/>
    <path d="M343.516 427.281H343.382L287.66 427.22C287.011 427.202 286.394 426.931 285.941 426.466C285.488 426 285.235 425.376 285.235 424.726C285.235 424.076 285.488 423.452 285.941 422.987C286.394 422.521 287.011 422.25 287.66 422.232L343.382 422.292C344.03 422.296 344.652 422.553 345.114 423.007C345.577 423.461 345.845 424.078 345.861 424.726C345.877 425.374 345.64 426.003 345.2 426.48C344.76 426.956 344.152 427.243 343.505 427.279L343.516 427.281Z" fill="#2C3A63"/>
    <path d="M237.575 376.699H283.975C285.651 376.698 287.293 377.174 288.709 378.071C290.125 378.967 291.258 380.248 291.974 381.763L313.427 427.253H255.763C254.685 427.254 253.632 426.93 252.741 426.323C251.85 425.717 251.161 424.857 250.765 423.854L234.129 381.763C233.907 381.201 233.825 380.594 233.892 379.993C233.958 379.393 234.17 378.817 234.51 378.318C234.85 377.818 235.307 377.41 235.841 377.127C236.376 376.845 236.971 376.698 237.575 376.699Z" fill="#2C3A63"/>
    <path d="M270.269 400.012C271.274 403.128 270.532 406.171 268.609 406.79C266.687 407.409 264.324 405.378 263.307 402.252C262.291 399.126 263.046 396.095 264.967 395.475C266.887 394.856 269.264 396.888 270.269 400.012Z" fill="#91B3FA"/>
    <path d="M407.043 519.841C407.44 522.192 407.712 524.564 407.859 526.944C407.906 527.734 407.645 528.512 407.131 529.114C406.617 529.716 405.889 530.095 405.101 530.172C399.398 530.725 386.416 531.747 378.127 530.551C377.866 530.516 377.621 530.408 377.419 530.238C377.217 530.069 377.068 529.846 376.988 529.596C376.908 529.345 376.901 529.077 376.967 528.822C377.034 528.568 377.171 528.337 377.363 528.158C380.781 524.973 389.036 518.777 402.622 517.423L407.043 519.841Z" fill="#3C5088"/>
    <path d="M409.879 512.521L406.994 519.589C406.804 520.062 406.465 520.459 406.029 520.723C405.593 520.986 405.084 521.101 404.577 521.05C403.779 520.973 402.99 520.821 402.22 520.594C401.439 520.355 400.783 519.815 400.398 519.094C400.013 518.373 399.928 517.529 400.163 516.746L402.339 509.467L409.879 512.521Z" fill="url(#paint33_linear_532_964)"/>
    <path d="M459.179 525.47C459.179 525.47 453.404 530.302 451.154 536.5C450.535 538.204 451.844 540.006 453.657 540.006H465.539C465.947 540.007 466.351 539.918 466.722 539.746C467.093 539.574 467.422 539.324 467.686 539.011C467.95 538.699 468.142 538.333 468.25 537.938C468.357 537.544 468.377 537.131 468.308 536.728C467.552 532.443 465.369 525.489 459.179 525.47Z" fill="#3C5088"/>
    <path d="M466.331 519.182C466.331 519.182 465.162 524.346 464.268 527.752C464.229 527.899 464.16 528.035 464.066 528.153C463.971 528.271 463.853 528.368 463.719 528.438C463.585 528.508 463.438 528.549 463.287 528.56C463.136 528.57 462.985 528.548 462.843 528.497C461.043 527.854 459.58 527.569 458.517 527.717C458.399 527.729 458.281 527.717 458.169 527.68C458.057 527.643 457.954 527.583 457.866 527.504C457.779 527.425 457.709 527.328 457.661 527.22C457.614 527.113 457.589 526.996 457.59 526.878L457.477 518.308L466.331 519.182Z" fill="url(#paint34_linear_532_964)"/>
    <path d="M435.621 403.015L400.499 510.166C400.499 510.166 407.236 514.578 410.446 514.395L452.163 428.282C452.163 428.282 459.463 481.341 455.926 519.437L467.874 520.349C467.874 520.349 487.305 423.003 472.588 389.654L435.621 403.015Z" fill="#2C3A63"/>
    <path d="M451.937 427.357H451.98C452.069 427.345 452.15 427.298 452.206 427.227C452.261 427.156 452.285 427.066 452.274 426.977L450.911 416.159C450.905 416.115 450.891 416.072 450.869 416.033C450.847 415.994 450.818 415.96 450.783 415.933C450.747 415.905 450.707 415.885 450.664 415.873C450.621 415.862 450.576 415.858 450.532 415.864C450.488 415.869 450.445 415.883 450.406 415.905C450.367 415.927 450.333 415.957 450.306 415.992C450.279 416.027 450.258 416.067 450.247 416.11C450.235 416.153 450.231 416.198 450.237 416.243L451.6 427.062C451.612 427.144 451.652 427.218 451.714 427.273C451.776 427.327 451.855 427.356 451.937 427.357Z" fill="#91B3FA"/>
    <path d="M429.037 308.722C429.037 308.722 457.492 311.254 453.468 331.524C453.468 331.524 469.196 361.13 476.551 395.995C476.607 396.265 476.608 396.543 476.554 396.813C476.5 397.083 476.393 397.34 476.237 397.567C476.082 397.795 475.883 397.989 475.651 398.137C475.419 398.286 475.159 398.386 474.888 398.432L427.499 406.547C426.868 406.654 426.22 406.521 425.683 406.174C425.146 405.827 424.759 405.29 424.598 404.671L413.276 360.922L408.864 381.268L394.84 377.616L406.642 317.831C406.642 317.831 408.292 309.111 429.037 308.722Z" fill="#FF8B8B"/>
    <path d="M413.034 358.962C413.06 358.965 413.085 358.965 413.11 358.962C413.201 358.942 413.281 358.887 413.331 358.809C413.382 358.73 413.399 358.635 413.379 358.544L409.429 340.406C409.419 340.361 409.4 340.318 409.374 340.28C409.348 340.242 409.314 340.209 409.275 340.184C409.236 340.159 409.193 340.142 409.147 340.134C409.101 340.126 409.055 340.126 409.009 340.136C408.964 340.146 408.921 340.165 408.883 340.191C408.845 340.218 408.813 340.251 408.787 340.29C408.762 340.329 408.745 340.373 408.737 340.418C408.729 340.464 408.73 340.511 408.74 340.556L412.69 358.694C412.709 358.771 412.753 358.839 412.816 358.888C412.878 358.936 412.955 358.963 413.034 358.962Z" fill="#D97171"/>
    <path d="M415.895 412.927C417.388 412.107 419.135 411.88 420.788 412.291L424.086 413.112C424.251 413.153 424.423 413.159 424.59 413.128C424.757 413.097 424.916 413.031 425.056 412.934C425.195 412.836 425.313 412.711 425.4 412.564C425.487 412.418 425.541 412.255 425.56 412.086L428.973 381.716C433.238 383.742 439.393 383.501 441.423 383.353L433.564 419.16H406.1L415.895 412.927Z" fill="url(#paint35_linear_532_964)"/>
    <path d="M342.879 347.062L343.709 344.302C343.945 343.517 344.354 342.796 344.907 342.191C345.46 341.587 346.141 341.114 346.902 340.809L361.925 334.771C361.925 334.771 362.151 332.845 358.75 331.536C355.349 330.227 356.144 326.417 356.144 326.417C356.144 326.417 360.791 328.536 367.593 331.898C371.488 333.821 373.666 337.216 374.823 339.769L408.864 381.268L404.867 384.015C403.627 384.866 402.222 385.447 400.742 385.717C399.262 385.987 397.742 385.942 396.281 385.583C394.82 385.225 393.452 384.561 392.265 383.637C391.078 382.712 390.101 381.547 389.396 380.219L370.955 344.855C361.691 347.632 352.328 348.166 342.879 347.062Z" fill="url(#paint36_linear_532_964)"/>
    <path d="M419.818 289.371L428.57 313.866C428.57 313.866 420.82 319.923 415.165 317.876L410.753 303.835C410.753 303.835 414.123 286.673 419.818 289.371Z" fill="url(#paint37_linear_532_964)"/>
    <path d="M393.697 280.573C393.697 280.95 402.127 304.439 402.127 304.439L415.438 299.341L410.753 275.89C410.753 275.89 393.697 274.246 393.697 280.573Z" fill="url(#paint38_linear_532_964)"/>
    <path d="M408.42 281.603L411.852 293.755C411.896 293.91 411.918 294.07 411.918 294.23C411.918 295.22 411.675 298.63 408.2 298.167C405.049 297.746 402.162 297.409 400.333 298.272C399.934 298.457 399.62 298.784 399.451 299.19C399.283 299.596 399.273 300.05 399.423 300.463C400.189 302.606 402.006 307.374 404.217 311.283C404.434 311.666 404.788 311.953 405.207 312.087C405.626 312.222 406.081 312.193 406.48 312.008C408.979 310.87 414.184 308.324 417.892 305.296C418.139 305.095 418.327 304.832 418.437 304.534C418.546 304.236 418.574 303.913 418.515 303.601C417.931 300.485 416.196 291.04 416.118 288.329C416.046 285.796 418.899 283.849 420.155 283.114C420.359 282.997 420.536 282.84 420.677 282.651C420.817 282.463 420.917 282.248 420.972 282.02C421.361 280.382 421.702 276.677 416.977 275.861C416.743 275.821 416.519 275.734 416.319 275.606C416.119 275.478 415.947 275.311 415.813 275.115C415.679 274.919 415.587 274.697 415.54 274.464C415.494 274.232 415.495 273.992 415.543 273.759C415.942 271.811 415.816 268.921 412.098 267.861C408.319 266.782 405.941 269.057 404.733 270.801C404.495 271.139 404.145 271.383 403.745 271.49C403.346 271.597 402.921 271.559 402.546 271.385C402.1 271.19 401.56 271.176 400.987 271.665C400.8 271.816 400.582 271.926 400.35 271.989C400.117 272.051 399.874 272.064 399.636 272.028C399.398 271.991 399.17 271.905 398.966 271.776C398.763 271.646 398.589 271.476 398.455 271.276C397.353 269.653 395.351 268.035 391.963 269.133C385.951 271.081 386.237 278.013 388.442 281.782C390.647 285.551 397.045 283.07 400.074 280.572C402.378 278.673 405.884 279.809 407.435 280.463C407.673 280.568 407.886 280.725 408.056 280.922C408.227 281.119 408.351 281.352 408.42 281.603Z" fill="#2C3A63"/>
    <path d="M417.323 292.766C417.323 292.766 413.765 286.034 416.118 283.921C418.471 281.807 422.458 282.152 422.351 287.417C422.218 293.965 417.323 292.766 417.323 292.766Z" fill="url(#paint39_linear_532_964)"/>
    <path d="M438.663 383.816C439.824 383.82 440.984 383.766 442.14 383.652L442.393 383.623L452.755 335.319C452.765 335.273 452.766 335.226 452.757 335.181C452.749 335.135 452.732 335.092 452.706 335.053C452.681 335.014 452.649 334.981 452.611 334.954C452.573 334.928 452.53 334.909 452.484 334.9C452.439 334.89 452.392 334.889 452.347 334.898C452.301 334.906 452.258 334.923 452.219 334.948C452.18 334.974 452.146 335.006 452.12 335.044C452.094 335.082 452.075 335.125 452.066 335.17L441.811 382.979C440.268 383.113 432.035 383.66 427.687 380.581L436.663 338.608L434.789 335.079C434.768 335.037 434.739 334.999 434.703 334.969C434.668 334.938 434.626 334.915 434.581 334.9C434.537 334.886 434.489 334.88 434.442 334.884C434.396 334.889 434.35 334.902 434.308 334.924C434.267 334.946 434.23 334.976 434.2 335.012C434.17 335.049 434.148 335.091 434.135 335.136C434.122 335.181 434.117 335.228 434.123 335.275C434.128 335.322 434.143 335.367 434.166 335.408L435.919 338.719L426.9 380.883L427.082 381.019C430.223 383.37 435.284 383.816 438.663 383.816Z" fill="#D97171"/>
    <path d="M128.031 531.107C127.784 531.107 127.541 531.052 127.318 530.947C126.402 530.516 125.978 529.357 126.373 528.358L164.236 432.286C164.625 431.287 165.691 430.826 166.608 431.254C167.526 431.683 167.946 432.843 167.553 433.843L129.69 529.915C129.566 530.257 129.341 530.555 129.045 530.767C128.749 530.98 128.395 531.098 128.031 531.107Z" fill="#91B3FA"/>
    <path d="M170.685 531.107C170.32 531.098 169.967 530.98 169.67 530.767C169.374 530.555 169.149 530.257 169.025 529.915L131.163 433.843C130.773 432.843 131.192 431.685 132.107 431.254C133.023 430.824 134.084 431.285 134.48 432.286L172.342 528.358C172.732 529.357 172.313 530.516 171.398 530.947C171.175 531.052 170.931 531.106 170.685 531.107Z" fill="#91B3FA"/>
    <path d="M384.998 531.107C384.752 531.106 384.508 531.052 384.285 530.947C383.37 530.516 382.947 529.357 383.341 528.358L421.203 432.286C421.593 431.287 422.658 430.826 423.576 431.254C424.493 431.683 424.914 432.843 424.52 433.843L386.658 529.915C386.533 530.257 386.309 530.555 386.012 530.767C385.716 530.98 385.363 531.098 384.998 531.107Z" fill="#91B3FA"/>
    <path d="M427.653 531.107C427.288 531.098 426.934 530.98 426.638 530.767C426.342 530.555 426.117 530.257 425.993 529.915L388.13 433.843C387.741 432.843 388.16 431.685 389.075 431.254C389.99 430.824 391.052 431.285 391.447 432.286L429.31 528.358C429.7 529.357 429.281 530.516 428.365 530.947C428.143 531.052 427.899 531.107 427.653 531.107Z" fill="#91B3FA"/>
    <path d="M379.503 425.5H434.343V419.842H379.503C380.678 419.842 380.678 425.5 379.503 425.5Z" fill="#BDD0FB"/>
    <path d="M433.692 425.5C433.865 425.5 434.03 425.431 434.152 425.309C434.274 425.187 434.342 425.022 434.343 424.85V420.493C434.342 420.32 434.274 420.155 434.152 420.033C434.03 419.911 433.865 419.843 433.692 419.842H378.483C378.396 419.847 378.309 419.834 378.227 419.804C378.145 419.774 378.07 419.728 378.007 419.668C377.944 419.608 377.893 419.536 377.859 419.456C377.824 419.376 377.807 419.289 377.807 419.202C377.807 419.115 377.824 419.029 377.859 418.949C377.893 418.869 377.944 418.797 378.007 418.737C378.07 418.677 378.145 418.631 378.227 418.601C378.309 418.571 378.396 418.558 378.483 418.562H437.485C437.796 418.562 438.104 418.624 438.391 418.743C438.678 418.862 438.939 419.036 439.159 419.256C439.379 419.476 439.553 419.737 439.672 420.025C439.79 420.312 439.851 420.62 439.851 420.931V424.548C439.851 425.14 439.616 425.708 439.197 426.126C438.779 426.545 438.211 426.78 437.619 426.78H378.483C378.396 426.785 378.309 426.772 378.227 426.742C378.145 426.712 378.07 426.666 378.007 426.606C377.944 426.546 377.893 426.474 377.859 426.394C377.824 426.314 377.807 426.227 377.807 426.14C377.807 426.053 377.824 425.967 377.859 425.887C377.893 425.807 377.944 425.735 378.007 425.675C378.07 425.615 378.145 425.569 378.227 425.539C378.309 425.509 378.396 425.496 378.483 425.5H433.692Z" fill="#7497F7"/>
    <path d="M442.294 429.316C442.477 428.683 442.226 428.03 441.608 427.534C440.991 427.037 440.073 426.755 439.101 426.755H110.512C109.237 426.755 108.05 427.185 107.363 427.898C106.675 428.611 106.584 429.507 107.117 430.276L110.678 435.387C111.494 436.556 113.261 437.308 115.205 437.308H436.848C438.655 437.308 440.21 436.457 440.549 435.28L442.294 429.316Z" fill="#91B3FA"/>
    <g opacity="0.3">
      <path d="M262.957 94.0598C262.457 93.9558 262.02 93.6578 261.74 93.2312C261.46 92.8046 261.361 92.2844 261.465 91.7848C261.885 89.763 262.224 87.6945 262.474 85.6338C262.533 85.1336 262.787 84.6768 263.18 84.3617C263.573 84.0467 264.074 83.8984 264.575 83.949H264.612C264.863 83.9791 265.106 84.0585 265.327 84.1825C265.547 84.3065 265.741 84.4728 265.897 84.6718C266.053 84.8708 266.168 85.0986 266.236 85.3422C266.304 85.5858 266.324 85.8404 266.293 86.0915C266.03 88.2594 265.674 90.437 265.232 92.5639C265.135 93.0291 264.87 93.4421 264.487 93.7233C264.104 94.0045 263.63 94.1341 263.157 94.0871C263.091 94.0774 263.023 94.0774 262.957 94.0598ZM262.994 75.5248C262.959 73.4524 262.834 71.3605 262.626 69.3056C262.574 68.7983 262.726 68.2913 263.048 67.8961C263.37 67.5008 263.836 67.2498 264.343 67.1981C264.851 67.1465 265.358 67.2984 265.753 67.6206C266.148 67.9428 266.399 68.4088 266.451 68.9161C266.673 71.0761 266.804 73.2791 266.841 75.4606C266.847 75.9693 266.651 76.4598 266.297 76.8248C265.942 77.1898 265.458 77.3996 264.949 77.4083C264.873 77.4123 264.797 77.4123 264.721 77.4083C264.253 77.3602 263.818 77.142 263.5 76.7948C263.181 76.4477 263.001 75.9958 262.994 75.5248ZM260.898 59.3369C260.405 57.3288 259.817 55.3187 259.145 53.3592C259.06 53.119 259.023 52.8642 259.037 52.6097C259.051 52.3552 259.116 52.106 259.227 51.8766C259.338 51.6473 259.494 51.4423 259.685 51.2736C259.876 51.1049 260.099 50.9758 260.34 50.8939C260.582 50.812 260.837 50.7788 261.091 50.7964C261.345 50.8139 261.594 50.8818 261.822 50.9961C262.049 51.1104 262.252 51.2688 262.418 51.4622C262.584 51.6555 262.711 51.8799 262.789 52.1224C263.488 54.1851 264.108 56.3042 264.628 58.4176C264.696 58.6656 264.714 58.9247 264.681 59.1798C264.647 59.4349 264.563 59.6807 264.433 59.9026C264.303 60.1246 264.13 60.3182 263.924 60.472C263.717 60.6259 263.482 60.7368 263.233 60.7983C262.983 60.8597 262.723 60.8705 262.469 60.8299C262.215 60.7893 261.972 60.6982 261.754 60.562C261.535 60.4258 261.347 60.2471 261.199 60.0367C261.051 59.8263 260.946 59.5883 260.892 59.3369H260.898ZM255.236 44.0196C254.305 42.1693 253.288 40.3403 252.195 38.5795C251.93 38.1452 251.848 37.6235 251.967 37.1287C252.085 36.6338 252.395 36.2061 252.828 35.9391C253.261 35.672 253.782 35.5874 254.278 35.7037C254.773 35.82 255.202 36.1278 255.471 36.5597C256.613 38.414 257.69 40.3423 258.672 42.2881C258.886 42.7419 258.914 43.2614 258.751 43.736C258.588 44.2105 258.246 44.6025 257.798 44.8284C257.349 45.0542 256.831 45.0961 256.352 44.945C255.874 44.7939 255.473 44.4619 255.236 44.0196ZM246.303 30.3502C244.987 28.7569 243.576 27.1987 242.133 25.7184C241.947 25.5399 241.799 25.3259 241.697 25.0891C241.596 24.8523 241.543 24.5975 241.541 24.3397C241.54 24.082 241.59 23.8267 241.69 23.5888C241.789 23.351 241.935 23.1355 242.119 22.9552C242.303 22.7748 242.522 22.6333 242.761 22.539C243.001 22.4447 243.258 22.3996 243.515 22.4062C243.773 22.4129 244.027 22.4712 244.261 22.5778C244.496 22.6844 244.707 22.837 244.881 23.0266C246.406 24.5848 247.883 26.2248 249.268 27.896C249.593 28.2891 249.748 28.7952 249.7 29.3029C249.652 29.8107 249.404 30.2785 249.011 30.6034C248.618 30.9283 248.111 31.0838 247.604 31.0356C247.096 30.9874 246.628 30.7394 246.303 30.3463V30.3502ZM234.568 18.9986C232.93 17.7345 231.218 16.5249 229.478 15.4049C229.258 15.2717 229.067 15.0958 228.917 14.8875C228.766 14.6792 228.658 14.4429 228.6 14.1924C228.543 13.9418 228.535 13.6823 228.58 13.4289C228.624 13.1756 228.718 12.9337 228.857 12.7175C228.996 12.5013 229.177 12.3151 229.39 12.1701C229.602 12.025 229.841 11.924 230.093 11.8729C230.345 11.8218 230.605 11.8218 230.857 11.8728C231.109 11.9237 231.348 12.0247 231.561 12.1697C233.391 13.35 235.195 14.6219 236.919 15.9523C237.311 16.268 237.564 16.7249 237.623 17.225C237.683 17.7251 237.543 18.2285 237.236 18.6271C236.928 19.0258 236.476 19.288 235.978 19.3574C235.479 19.4268 234.973 19.298 234.568 18.9986ZM164.253 6.43546C164.09 5.95193 164.126 5.42339 164.352 4.96608C164.579 4.50877 164.978 4.16013 165.461 3.99685C167.522 3.31123 169.641 2.69184 171.762 2.17373C172.252 2.06851 172.764 2.15859 173.188 2.42481C173.613 2.69104 173.917 3.1124 174.036 3.59929C174.154 4.08618 174.079 4.60018 173.824 5.03199C173.57 5.46379 173.157 5.77934 172.674 5.91151C170.662 6.40234 168.648 6.98668 166.69 7.64892C166.207 7.8121 165.678 7.77656 165.221 7.55009C164.763 7.32363 164.415 6.92479 164.251 6.4413L164.253 6.43546ZM220.62 10.5258C218.742 9.65902 216.804 8.86238 214.86 8.15923C214.623 8.07329 214.405 7.94141 214.218 7.77112C214.032 7.60083 213.88 7.39547 213.773 7.16677C213.666 6.93806 213.605 6.69049 213.594 6.43818C213.582 6.18587 213.62 5.93377 213.706 5.69628C213.792 5.45878 213.924 5.24054 214.094 5.05401C214.265 4.86748 214.47 4.71632 214.699 4.60916C214.927 4.50199 215.175 4.44092 215.427 4.42944C215.68 4.41796 215.932 4.45628 216.169 4.54222C218.216 5.28238 220.26 6.12186 222.233 7.03537C222.659 7.21835 223.005 7.5494 223.207 7.96749C223.409 8.38558 223.453 8.86252 223.331 9.31039C223.209 9.75827 222.929 10.1469 222.542 10.4046C222.156 10.6623 221.69 10.7718 221.23 10.7128C221.017 10.6899 220.811 10.6313 220.618 10.5394L220.62 10.5258ZM180.548 2.48148C180.498 1.974 180.651 1.4672 180.974 1.0724C181.296 0.677607 181.763 0.42711 182.27 0.375941C184.43 0.159738 186.633 0.0331331 188.813 2.09741e-05C189.07 -0.0110745 189.326 0.0294698 189.568 0.119257C189.809 0.209044 190.029 0.346252 190.216 0.522768C190.403 0.699284 190.553 0.911526 190.657 1.14695C190.761 1.38237 190.816 1.63619 190.82 1.8934C190.824 2.15061 190.776 2.406 190.68 2.64446C190.583 2.88292 190.44 3.09962 190.258 3.28173C190.077 3.46385 189.86 3.6077 189.622 3.70477C189.384 3.80183 189.128 3.85015 188.871 3.84687C186.799 3.87803 184.705 3.9988 182.638 4.20526C182.509 4.21806 182.378 4.21806 182.249 4.20526C181.811 4.15643 181.403 3.95853 181.093 3.64471C180.784 3.33088 180.591 2.92021 180.548 2.48148ZM205.133 5.40314C203.111 4.97658 201.043 4.63377 198.988 4.38056C198.737 4.35255 198.494 4.27539 198.273 4.15349C198.052 4.03159 197.857 3.86733 197.699 3.6701C197.542 3.47286 197.424 3.24651 197.354 3.00397C197.284 2.76142 197.262 2.50744 197.291 2.25651C197.319 2.00559 197.396 1.76264 197.518 1.54153C197.639 1.32043 197.804 1.12549 198.001 0.967869C198.198 0.810243 198.425 0.693009 198.667 0.62286C198.91 0.552712 199.164 0.531023 199.415 0.559031H199.455C201.619 0.823928 203.797 1.18621 205.924 1.63225C206.405 1.73396 206.829 2.01607 207.109 2.42065C207.389 2.82522 207.503 3.32154 207.428 3.80768C207.353 4.29381 207.095 4.73286 206.707 5.03464C206.318 5.33643 205.829 5.47805 205.34 5.43041C205.264 5.43235 205.196 5.42262 205.127 5.40898L205.133 5.40314Z" fill="#BDD0FB"/>
      <path d="M153.529 13.202C153.919 13.2406 154.311 13.1598 154.653 12.9702C155.522 12.4872 156.406 12.0178 157.304 11.5678C157.76 11.3385 158.105 10.9375 158.265 10.4532C158.425 9.9688 158.386 9.44072 158.157 8.9851C157.928 8.52947 157.527 8.18362 157.042 8.02363C156.558 7.86364 156.03 7.90261 155.574 8.13197C154.637 8.60333 153.699 9.10586 152.787 9.60643C152.429 9.80574 152.145 10.1139 151.974 10.4862C151.804 10.8585 151.756 11.2755 151.839 11.6765C151.922 12.0775 152.13 12.4416 152.434 12.716C152.738 12.9904 153.122 13.1606 153.529 13.202Z" fill="#BDD0FB"/>
    </g>
    <g opacity="0.3">
      <path d="M117.441 59.4265C117.896 59.4723 118.352 59.3546 118.728 59.0944C119.104 58.8341 119.374 58.4485 119.492 58.0066C119.747 57.0483 120.025 56.0802 120.321 55.1278C120.396 54.8866 120.423 54.633 120.4 54.3814C120.377 54.1299 120.305 53.8854 120.187 53.6618C120.069 53.4383 119.909 53.2401 119.715 53.0785C119.521 52.917 119.297 52.7953 119.055 52.7203C118.814 52.6454 118.561 52.6187 118.309 52.6417C118.058 52.6648 117.813 52.7372 117.589 52.8547C117.366 52.9723 117.168 53.1328 117.006 53.3269C116.845 53.5211 116.723 53.7452 116.648 53.9864C116.336 54.9895 116.042 56.0101 115.773 57.019C115.643 57.5118 115.713 58.0364 115.968 58.4776C116.224 58.9187 116.644 59.2404 117.137 59.372C117.236 59.3985 117.338 59.4168 117.441 59.4265Z" fill="#BDD0FB"/>
      <path d="M178.453 152.777C178.201 152.741 177.959 152.655 177.741 152.525C177.522 152.395 177.332 152.223 177.18 152.018C177.029 151.814 176.919 151.582 176.858 151.335C176.797 151.088 176.786 150.832 176.824 150.58C176.863 150.329 176.951 150.088 177.083 149.871C177.216 149.654 177.39 149.465 177.596 149.315C177.801 149.166 178.035 149.059 178.282 149C178.529 148.941 178.786 148.932 179.037 148.973C181.037 149.275 183.081 149.497 185.135 149.636C185.646 149.671 186.121 149.908 186.457 150.294C186.793 150.68 186.961 151.184 186.925 151.694C186.89 152.205 186.653 152.68 186.267 153.016C185.881 153.351 185.377 153.52 184.867 153.484C183.977 153.423 183.092 153.349 182.21 153.26C180.954 153.124 179.689 152.964 178.453 152.777ZM193.299 151.679C193.264 151.17 193.433 150.669 193.769 150.284C194.104 149.9 194.578 149.665 195.087 149.63C197.12 149.489 199.177 149.264 201.181 148.954C201.431 148.915 201.686 148.927 201.931 148.987C202.176 149.047 202.407 149.155 202.611 149.304C202.815 149.453 202.987 149.642 203.118 149.857C203.249 150.073 203.336 150.313 203.374 150.563C203.413 150.812 203.402 151.067 203.341 151.312C203.281 151.558 203.174 151.789 203.024 151.993C202.875 152.196 202.687 152.368 202.471 152.499C202.255 152.63 202.015 152.718 201.766 152.756C199.65 153.081 197.48 153.321 195.35 153.467C195.241 153.476 195.131 153.476 195.022 153.467C194.57 153.42 194.149 153.215 193.834 152.888C193.518 152.561 193.329 152.132 193.299 151.679ZM168.221 150.51C166.168 149.9 164.113 149.199 162.113 148.42C161.877 148.328 161.663 148.191 161.48 148.017C161.298 147.842 161.152 147.633 161.05 147.402C160.949 147.17 160.894 146.921 160.888 146.669C160.883 146.416 160.927 146.165 161.019 145.93C161.111 145.695 161.248 145.48 161.423 145.297C161.598 145.115 161.807 144.969 162.038 144.867C162.269 144.766 162.518 144.711 162.77 144.705C163.023 144.7 163.274 144.745 163.509 144.836C165.408 145.576 167.36 146.243 169.31 146.817C169.768 146.954 170.158 147.257 170.406 147.666C170.653 148.075 170.739 148.562 170.647 149.031C170.555 149.5 170.292 149.918 169.909 150.204C169.525 150.489 169.049 150.622 168.574 150.576C168.454 150.564 168.336 150.541 168.221 150.506V150.51ZM209.603 149.168C209.531 148.926 209.507 148.672 209.533 148.421C209.558 148.169 209.634 147.925 209.754 147.703C209.874 147.481 210.037 147.284 210.233 147.125C210.429 146.966 210.654 146.846 210.897 146.774C212.844 146.19 214.792 145.52 216.691 144.776C217.162 144.607 217.68 144.628 218.136 144.835C218.591 145.041 218.949 145.417 219.132 145.883C219.315 146.348 219.31 146.867 219.117 147.329C218.924 147.79 218.559 148.159 218.1 148.356C216.105 149.135 214.05 149.848 211.995 150.461C211.753 150.534 211.499 150.559 211.248 150.533C210.996 150.508 210.753 150.433 210.53 150.312C210.308 150.192 210.112 150.029 209.952 149.833C209.793 149.636 209.675 149.411 209.603 149.168ZM152.639 143.954C150.771 142.912 148.921 141.776 147.14 140.576C146.747 140.28 146.482 139.845 146.401 139.359C146.319 138.874 146.426 138.375 146.701 137.967C146.975 137.558 147.396 137.27 147.876 137.162C148.356 137.054 148.86 137.134 149.283 137.386C150.974 138.525 152.73 139.606 154.505 140.594C154.733 140.713 154.936 140.876 155.1 141.074C155.265 141.273 155.387 141.502 155.461 141.749C155.535 141.995 155.559 142.254 155.531 142.511C155.503 142.767 155.424 143.014 155.299 143.239C155.174 143.464 155.004 143.662 154.801 143.82C154.598 143.978 154.365 144.094 154.116 144.161C153.867 144.228 153.608 144.244 153.353 144.208C153.098 144.172 152.852 144.086 152.631 143.954H152.639ZM138.866 134.145C137.267 132.715 135.711 131.204 134.238 129.649C133.887 129.279 133.698 128.785 133.712 128.275C133.726 127.765 133.942 127.281 134.312 126.93C134.683 126.58 135.177 126.39 135.687 126.404C136.197 126.418 136.681 126.634 137.031 127.004C138.43 128.481 139.91 129.926 141.429 131.276C141.794 131.62 142.01 132.093 142.031 132.593C142.052 133.094 141.877 133.583 141.543 133.957C141.209 134.331 140.743 134.56 140.243 134.595C139.743 134.63 139.249 134.468 138.866 134.145ZM127.569 121.566C126.319 119.813 125.129 118.008 124.03 116.171C123.768 115.732 123.691 115.207 123.817 114.711C123.942 114.215 124.259 113.79 124.698 113.528C125.137 113.266 125.662 113.189 126.158 113.314C126.654 113.44 127.079 113.757 127.341 114.196C128.383 115.949 129.515 117.667 130.703 119.324C130.958 119.739 131.047 120.234 130.952 120.712C130.856 121.189 130.584 121.612 130.189 121.896C129.794 122.181 129.306 122.304 128.823 122.243C128.34 122.182 127.898 121.94 127.587 121.566H127.569ZM119.279 106.822C118.44 104.849 117.676 102.815 117.008 100.784C116.923 100.542 116.887 100.285 116.902 100.03C116.917 99.7736 116.983 99.5232 117.096 99.2932C117.209 99.0631 117.367 98.858 117.56 98.6898C117.754 98.5216 117.979 98.3938 118.223 98.3139C118.466 98.2339 118.723 98.2035 118.979 98.2243C119.234 98.2451 119.483 98.3167 119.711 98.435C119.938 98.5533 120.14 98.7159 120.303 98.9131C120.467 99.1104 120.59 99.3384 120.664 99.5837C121.297 101.516 122.028 103.446 122.82 105.322C122.928 105.556 122.988 105.809 122.996 106.066C123.004 106.324 122.96 106.58 122.867 106.82C122.774 107.061 122.634 107.28 122.455 107.465C122.276 107.65 122.062 107.797 121.824 107.898C121.587 107.998 121.333 108.05 121.075 108.051C120.818 108.051 120.563 108 120.325 107.9C120.088 107.8 119.873 107.653 119.693 107.469C119.514 107.284 119.373 107.065 119.279 106.826V106.822ZM114.429 90.6084C114.04 88.5028 113.75 86.3525 113.547 84.2177C113.499 83.7099 113.654 83.2036 113.978 82.8102C114.303 82.4168 114.771 82.1685 115.279 82.12C115.786 82.0714 116.293 82.2266 116.686 82.5513C117.08 82.876 117.328 83.3438 117.376 83.8516C117.571 85.8811 117.852 87.9224 118.214 89.9228C118.259 90.1713 118.255 90.4262 118.201 90.673C118.148 90.9198 118.046 91.1536 117.902 91.3612C117.758 91.5687 117.575 91.7459 117.363 91.8826C117.15 92.0193 116.913 92.1128 116.664 92.1578C116.416 92.2028 116.161 92.1985 115.914 92.145C115.667 92.0915 115.434 91.9899 115.226 91.846C115.019 91.7021 114.841 91.5188 114.705 91.3064C114.568 91.0941 114.474 90.8569 114.429 90.6084ZM113.261 73.7446C113.325 72.1688 113.436 70.5736 113.596 69.0076C113.652 68.4408 113.717 67.8759 113.791 67.313C113.819 67.0615 113.897 66.8181 114.021 66.5971C114.144 66.3762 114.311 66.1822 114.51 66.0263C114.71 65.8705 114.938 65.7561 115.183 65.6897C115.427 65.6234 115.682 65.6064 115.933 65.6399C116.439 65.7027 116.899 65.9635 117.213 66.3651C117.527 66.7667 117.669 67.2764 117.608 67.7824C117.542 68.3187 117.482 68.8557 117.427 69.3933C117.275 70.8833 117.168 72.3967 117.11 73.8946C117.1 74.1478 117.04 74.3965 116.933 74.6265C116.827 74.8566 116.676 75.0634 116.49 75.2351C116.304 75.4068 116.085 75.54 115.847 75.6272C115.609 75.7143 115.357 75.7537 115.103 75.743L114.985 75.7333C114.498 75.684 114.048 75.4509 113.727 75.0813C113.406 74.7118 113.238 74.2337 113.257 73.7446H113.261Z" fill="#BDD0FB"/>
      <path d="M226.481 144.071C226.874 144.11 227.27 144.027 227.615 143.833C228.522 143.325 229.436 142.785 230.332 142.232C230.555 142.103 230.75 141.931 230.905 141.726C231.061 141.521 231.173 141.286 231.236 141.036C231.299 140.787 231.312 140.527 231.273 140.272C231.233 140.018 231.144 139.774 231.008 139.555C230.873 139.335 230.695 139.146 230.485 138.996C230.275 138.847 230.038 138.742 229.786 138.686C229.535 138.63 229.275 138.626 229.022 138.672C228.768 138.719 228.527 138.816 228.312 138.958C227.461 139.484 226.592 139.996 225.731 140.479C225.375 140.68 225.092 140.988 224.923 141.361C224.754 141.733 224.708 142.149 224.791 142.549C224.875 142.95 225.084 143.313 225.387 143.586C225.691 143.86 226.074 144.03 226.481 144.071Z" fill="#BDD0FB"/>
    </g>
    <path d="M235.425 112.33C235.557 112.198 235.644 112.027 235.675 111.843C235.706 111.659 235.678 111.469 235.596 111.301L230.801 101.465C233.534 97.0631 235.532 92.2448 236.714 87.1998L247.051 83.6334C247.228 83.5728 247.382 83.4583 247.49 83.306C247.599 83.1537 247.657 82.9713 247.657 82.7842V69.6601C247.657 69.4728 247.599 69.2902 247.49 69.1376C247.382 68.985 247.228 68.8701 247.051 68.8089L236.714 65.2503C235.532 60.2041 233.534 55.3845 230.801 50.981L235.592 41.1447C235.674 40.9763 235.702 40.7865 235.671 40.6018C235.639 40.4171 235.551 40.2467 235.419 40.1144L226.138 30.8352C226.006 30.7031 225.836 30.6154 225.651 30.5843C225.467 30.5533 225.278 30.5803 225.109 30.6618L215.271 35.4494C210.867 32.7176 206.047 30.7222 201 29.5419L197.439 19.205C197.379 19.0282 197.264 18.8748 197.112 18.7662C196.96 18.6576 196.777 18.5992 196.59 18.5993H183.47C183.283 18.5996 183.1 18.6582 182.947 18.7671C182.795 18.8761 182.68 19.0298 182.619 19.207L179.056 29.5438C174.011 30.7272 169.193 32.7252 164.791 35.4592L154.955 30.6677C154.786 30.586 154.596 30.5589 154.412 30.5899C154.227 30.621 154.057 30.7087 153.924 30.841L144.641 40.1241C144.509 40.2563 144.421 40.4263 144.39 40.6106C144.359 40.7949 144.386 40.9843 144.468 41.1525L149.261 50.9907C146.528 55.3911 144.53 60.2074 143.346 65.2503L133.009 68.8167C132.832 68.8776 132.679 68.9921 132.57 69.1443C132.462 69.2966 132.403 69.4789 132.403 69.6659V82.792C132.403 82.979 132.462 83.1613 132.57 83.3136C132.679 83.4658 132.832 83.5804 133.009 83.6412L143.346 87.2076C144.53 92.2548 146.529 97.0752 149.265 101.479L144.474 111.317C144.392 111.485 144.365 111.675 144.396 111.859C144.427 112.043 144.515 112.213 144.647 112.345L153.928 121.625C154.06 121.757 154.231 121.845 154.416 121.876C154.6 121.907 154.79 121.88 154.959 121.798L164.795 117.005C169.198 119.733 174.016 121.726 179.06 122.904L182.625 133.241C182.686 133.418 182.801 133.572 182.953 133.68C183.106 133.789 183.289 133.847 183.476 133.847H196.6C196.787 133.847 196.969 133.789 197.121 133.68C197.274 133.571 197.388 133.418 197.449 133.241L201.014 122.902C206.058 121.719 210.876 119.721 215.277 116.987L225.115 121.779C225.283 121.861 225.473 121.888 225.657 121.857C225.842 121.826 226.012 121.738 226.144 121.605L235.425 112.33Z" fill="#BDCEFB"/>
    <path d="M186.805 89.0131C183.498 88.1747 180.645 86.0868 178.847 83.1884C177.048 80.29 176.443 76.807 177.159 73.4718C177.875 70.1366 179.857 67.2091 182.687 65.3048C185.517 63.4005 188.976 62.6678 192.335 63.2609C195.694 63.8539 198.693 65.7264 200.7 68.4846C202.707 71.2428 203.566 74.6719 203.097 78.0507C202.628 81.4296 200.867 84.4949 198.185 86.6022C195.502 88.7095 192.107 89.6945 188.713 89.3501C188.07 89.2847 187.432 89.1721 186.805 89.0131ZM184.857 67.537C182.846 68.7351 181.312 70.5936 180.518 72.7957C179.723 74.9979 179.717 77.4074 180.5 79.6135C181.284 81.8197 182.808 83.6859 184.813 84.894C186.818 86.1022 189.18 86.5776 191.497 86.2391C193.813 85.9006 195.941 84.7692 197.516 83.0377C199.092 81.3063 200.018 79.0819 200.138 76.7439C200.257 74.4059 199.562 72.0989 198.17 70.2161C196.779 68.3334 194.778 66.9914 192.508 66.419C192.022 66.2959 191.528 66.2087 191.029 66.158C188.873 65.9403 186.705 66.4254 184.847 67.5409L184.857 67.537Z" fill="url(#paint40_linear_532_964)"/>
    <path d="M186.526 108.284C187.632 108.396 188.743 108.452 189.855 108.452C190.208 108.452 190.561 108.446 190.913 108.434C192.646 108.378 194.372 108.182 196.074 107.85L196.145 107.836L196.339 107.797L196.729 107.718C196.887 107.682 197.03 107.598 197.139 107.477C197.247 107.356 197.315 107.205 197.333 107.044C197.341 106.963 197.336 106.881 197.319 106.802C197.272 106.605 197.151 106.433 196.98 106.324C196.809 106.215 196.602 106.177 196.404 106.218C190.225 107.549 183.786 106.956 177.955 104.518C172.123 102.081 167.178 97.9158 163.784 92.5834C160.627 87.639 158.952 81.8938 158.958 76.0274C158.958 74.96 159.012 73.8985 159.117 72.8506C159.902 65.2449 163.478 58.2 169.154 53.0769C174.83 47.9539 182.203 45.1163 189.849 45.1123C206.896 45.1123 220.751 58.9727 220.753 76.0098C220.751 81.5975 219.238 87.0807 216.374 91.8783C216.317 91.9755 216.281 92.0837 216.269 92.1958C216.26 92.3662 216.307 92.5347 216.404 92.6756C216.5 92.8164 216.64 92.9218 216.801 92.9756C216.963 93.0293 217.138 93.0284 217.3 92.9731C217.461 92.9177 217.6 92.8109 217.695 92.6691C220.702 87.6332 222.29 81.8773 222.291 76.0118C222.291 58.1235 207.732 43.5736 189.849 43.5736C181.823 43.5753 174.082 46.5516 168.123 51.9276C162.163 57.3035 158.407 64.6975 157.581 72.6811C157.469 73.7891 157.413 74.902 157.413 76.0157C157.414 84.0429 160.391 91.7847 165.769 97.7447C171.146 103.705 178.542 107.46 186.526 108.284Z" fill="url(#paint41_linear_532_964)"/>
    <g opacity="0.3">
      <path d="M323.359 151.133C323.614 151.159 323.871 151.102 324.091 150.969C324.311 150.837 324.482 150.637 324.578 150.399C324.968 149.464 325.316 148.506 325.64 147.55C325.741 147.251 325.719 146.924 325.579 146.642C325.44 146.359 325.193 146.144 324.895 146.043C324.596 145.942 324.27 145.964 323.987 146.103C323.705 146.243 323.489 146.489 323.388 146.788C323.08 147.699 322.74 148.613 322.377 149.503C322.317 149.648 322.286 149.804 322.286 149.961C322.286 150.118 322.318 150.273 322.378 150.418C322.439 150.563 322.528 150.695 322.64 150.805C322.751 150.915 322.884 151.003 323.03 151.061C323.136 151.1 323.246 151.124 323.359 151.133Z" fill="#BDD0FB"/>
      <path d="M325.891 142.368C325.582 142.305 325.312 142.122 325.138 141.859C324.965 141.596 324.903 141.275 324.966 140.966C325.3 139.337 325.551 137.692 325.72 136.038C325.755 135.691 325.786 135.343 325.813 134.992C325.838 134.678 325.988 134.387 326.227 134.183C326.467 133.979 326.779 133.878 327.093 133.903C327.403 133.937 327.689 134.087 327.892 134.323C328.096 134.559 328.202 134.864 328.189 135.175C328.158 135.541 328.127 135.906 328.09 136.27C327.913 138.005 327.649 139.729 327.299 141.437C327.24 141.725 327.076 141.981 326.84 142.155C326.603 142.329 326.31 142.409 326.018 142.38C325.971 142.382 325.932 142.382 325.891 142.368ZM325.928 128.96C325.843 126.949 325.636 124.945 325.307 122.959C325.28 122.66 325.367 122.363 325.55 122.126C325.733 121.889 325.999 121.729 326.295 121.68C326.59 121.631 326.894 121.695 327.144 121.86C327.394 122.025 327.573 122.278 327.644 122.569C327.99 124.65 328.208 126.751 328.297 128.859C328.31 129.174 328.197 129.481 327.984 129.713C327.771 129.946 327.474 130.084 327.159 130.097C327.102 130.101 327.045 130.101 326.988 130.097C326.704 130.067 326.441 129.935 326.246 129.726C326.051 129.517 325.939 129.245 325.928 128.96ZM323.945 117.079C323.369 115.149 322.675 113.257 321.867 111.413C321.748 111.125 321.746 110.803 321.862 110.514C321.978 110.226 322.202 109.994 322.487 109.869C322.772 109.744 323.094 109.736 323.385 109.846C323.676 109.956 323.912 110.176 324.043 110.458C324.892 112.391 325.62 114.375 326.222 116.399C326.271 116.549 326.289 116.708 326.275 116.866C326.261 117.024 326.216 117.177 326.142 117.317C326.069 117.457 325.968 117.581 325.845 117.681C325.723 117.782 325.582 117.857 325.43 117.902C325.279 117.947 325.119 117.961 324.962 117.944C324.805 117.927 324.652 117.878 324.514 117.802C324.376 117.725 324.254 117.621 324.157 117.497C324.059 117.372 323.987 117.229 323.945 117.077V117.079ZM319.105 106.05C318.074 104.323 316.938 102.659 315.704 101.07C315.512 100.821 315.427 100.506 315.467 100.195C315.506 99.8829 315.668 99.5996 315.916 99.4067C316.164 99.2139 316.478 99.127 316.79 99.1653C317.102 99.2036 317.386 99.3638 317.58 99.611C318.874 101.278 320.065 103.023 321.146 104.835C321.23 104.969 321.286 105.119 321.312 105.275C321.337 105.431 321.331 105.591 321.294 105.744C321.257 105.898 321.189 106.043 321.095 106.17C321.001 106.298 320.883 106.405 320.747 106.486C320.611 106.567 320.46 106.62 320.303 106.642C320.147 106.664 319.987 106.654 319.834 106.613C319.681 106.573 319.538 106.502 319.413 106.405C319.288 106.309 319.183 106.188 319.105 106.05ZM311.717 96.5393C310.297 95.1131 308.792 93.7744 307.21 92.5308C307.081 92.4367 306.973 92.3176 306.891 92.1807C306.81 92.0438 306.756 91.8918 306.735 91.7339C306.713 91.576 306.723 91.4153 306.765 91.2614C306.806 91.1075 306.879 90.9636 306.977 90.8382C307.076 90.7128 307.198 90.6085 307.338 90.5316C307.477 90.4546 307.631 90.4065 307.79 90.3901C307.948 90.3738 308.109 90.3895 308.261 90.4363C308.413 90.4832 308.555 90.5603 308.677 90.6629C310.335 91.9635 311.913 93.364 313.402 94.8565C313.512 94.9671 313.599 95.0983 313.659 95.2427C313.718 95.387 313.748 95.5416 313.748 95.6977C313.748 95.8538 313.717 96.0083 313.657 96.1524C313.597 96.2964 313.509 96.4273 313.398 96.5374C313.287 96.6475 313.156 96.7347 313.012 96.7941C312.867 96.8535 312.713 96.8839 312.557 96.8836C312.401 96.8832 312.246 96.8521 312.102 96.792C311.958 96.732 311.827 96.6441 311.717 96.5335V96.5393ZM302.245 89.1105C300.523 88.0728 298.738 87.1432 296.9 86.3272C296.612 86.198 296.388 85.9598 296.275 85.6648C296.163 85.3698 296.172 85.0423 296.301 84.7543C296.431 84.4663 296.669 84.2414 296.964 84.1291C297.259 84.0168 297.586 84.0263 297.874 84.1554C299.801 85.0125 301.674 85.9882 303.48 87.0771C303.75 87.2398 303.944 87.5031 304.02 87.809C304.096 88.1149 304.047 88.4384 303.884 88.7083C303.721 88.9782 303.458 89.1724 303.152 89.2482C302.846 89.324 302.523 89.2752 302.253 89.1125L302.245 89.1105ZM291.25 84.2236C289.323 83.6414 287.363 83.1782 285.379 82.8368C285.085 82.7672 284.828 82.588 284.661 82.3356C284.494 82.0831 284.43 81.7766 284.482 81.4785C284.533 81.1803 284.696 80.913 284.938 80.7311C285.18 80.5492 285.482 80.4663 285.783 80.4994C287.862 80.8578 289.918 81.3438 291.937 81.9544C292.221 82.0395 292.462 82.2271 292.614 82.4806C292.766 82.7341 292.819 83.0352 292.761 83.3252C292.703 83.6151 292.539 83.873 292.301 84.0485C292.063 84.224 291.768 84.3045 291.474 84.2742C291.398 84.2649 291.323 84.2479 291.25 84.2236ZM272.074 81.1675C272.062 81.012 272.082 80.8556 272.13 80.7075C272.179 80.5593 272.257 80.4223 272.359 80.3041C272.46 80.186 272.585 80.0891 272.724 80.019C272.863 79.9489 273.015 79.907 273.171 79.8956C274.998 79.7591 276.832 79.7201 278.663 79.7788C278.942 79.7788 279.219 79.7963 279.497 79.8099C279.654 79.8151 279.808 79.8517 279.95 79.9175C280.092 79.9834 280.22 80.0771 280.325 80.1932C280.43 80.3094 280.511 80.4454 280.562 80.5934C280.614 80.7414 280.635 80.8982 280.625 81.0545C280.609 81.3693 280.469 81.6649 280.236 81.8767C280.003 82.0885 279.695 82.1991 279.38 82.1843C279.119 82.1706 278.858 82.1609 278.601 82.1531C276.852 82.0963 275.101 82.1334 273.356 82.2641C273.286 82.2709 273.215 82.2709 273.145 82.2641C272.866 82.2373 272.605 82.1124 272.409 81.9117C272.213 81.711 272.094 81.4474 272.074 81.1675Z" fill="#BDD0FB"/>
    </g>
    <g opacity="0.3">
      <path d="M271.159 182.037C269.097 181.801 267.051 181.442 265.033 180.96C264.726 180.886 264.461 180.694 264.297 180.425C264.132 180.156 264.081 179.833 264.154 179.526C264.228 179.219 264.42 178.955 264.689 178.79C264.958 178.625 265.281 178.574 265.588 178.648C267.513 179.109 269.464 179.452 271.431 179.676C271.745 179.71 272.032 179.867 272.229 180.112C272.427 180.358 272.519 180.672 272.485 180.985C272.451 181.298 272.294 181.585 272.049 181.783C271.803 181.98 271.489 182.073 271.176 182.039L271.159 182.037ZM276.178 181.191C276.177 181.035 276.207 180.881 276.265 180.736C276.324 180.592 276.411 180.46 276.52 180.349C276.63 180.238 276.76 180.15 276.904 180.089C277.048 180.028 277.202 179.996 277.358 179.995C279.339 179.985 281.317 179.854 283.281 179.606C283.439 179.579 283.601 179.584 283.756 179.622C283.912 179.659 284.059 179.727 284.187 179.822C284.316 179.917 284.424 180.038 284.505 180.176C284.586 180.314 284.638 180.466 284.659 180.625C284.679 180.784 284.668 180.945 284.624 181.099C284.581 181.253 284.507 181.397 284.407 181.522C284.306 181.646 284.182 181.75 284.041 181.825C283.9 181.9 283.745 181.947 283.585 181.961C281.526 182.221 279.453 182.359 277.378 182.372H277.249C276.957 182.341 276.687 182.204 276.49 181.986C276.293 181.768 276.184 181.485 276.184 181.191H276.178ZM259.08 179.142C257.137 178.414 255.239 177.568 253.397 176.61C253.117 176.465 252.906 176.215 252.811 175.914C252.716 175.614 252.744 175.288 252.889 175.008C253.035 174.728 253.285 174.518 253.585 174.423C253.886 174.328 254.212 174.356 254.491 174.501C256.249 175.413 258.06 176.218 259.914 176.912C260.064 176.964 260.202 177.045 260.32 177.151C260.438 177.257 260.534 177.386 260.602 177.529C260.669 177.673 260.708 177.828 260.714 177.987C260.72 178.146 260.695 178.304 260.639 178.452C260.584 178.601 260.499 178.737 260.39 178.852C260.281 178.967 260.15 179.06 260.004 179.123C259.859 179.187 259.702 179.221 259.544 179.223C259.385 179.226 259.227 179.196 259.08 179.136V179.142ZM288.252 179.941C288.214 179.79 288.205 179.632 288.228 179.478C288.25 179.323 288.302 179.174 288.382 179.04C288.462 178.906 288.567 178.789 288.692 178.695C288.818 178.602 288.96 178.534 289.111 178.496C291.029 178.008 292.916 177.404 294.76 176.686C295.053 176.572 295.38 176.579 295.669 176.705C295.958 176.832 296.184 177.068 296.298 177.362C296.413 177.656 296.406 177.983 296.279 178.271C296.152 178.56 295.916 178.786 295.623 178.901C293.686 179.653 291.706 180.287 289.694 180.8C289.388 180.876 289.065 180.829 288.795 180.668C288.525 180.507 288.329 180.246 288.25 179.941H288.252ZM248.064 173.418C246.352 172.244 244.713 170.968 243.155 169.596C242.919 169.388 242.775 169.094 242.755 168.779C242.735 168.465 242.841 168.155 243.049 167.918C243.258 167.682 243.552 167.538 243.866 167.518C244.181 167.498 244.491 167.604 244.727 167.812C246.21 169.121 247.771 170.338 249.402 171.456C249.62 171.606 249.782 171.823 249.862 172.075C249.942 172.326 249.937 172.598 249.846 172.846C249.755 173.093 249.584 173.304 249.36 173.444C249.136 173.584 248.872 173.645 248.609 173.618C248.414 173.597 248.227 173.528 248.064 173.418ZM238.742 165.214C237.362 163.665 236.076 162.034 234.891 160.331C234.802 160.203 234.738 160.059 234.704 159.906C234.671 159.754 234.667 159.596 234.694 159.442C234.721 159.289 234.779 159.142 234.862 159.01C234.946 158.879 235.055 158.765 235.183 158.675C235.311 158.586 235.455 158.522 235.608 158.488C235.76 158.455 235.918 158.451 236.072 158.478C236.225 158.505 236.372 158.563 236.504 158.647C236.635 158.73 236.749 158.839 236.839 158.967C237.971 160.592 239.199 162.147 240.516 163.624C240.726 163.86 240.834 164.169 240.816 164.483C240.797 164.798 240.655 165.093 240.42 165.302C240.185 165.512 239.876 165.62 239.561 165.602C239.246 165.584 238.952 165.441 238.742 165.206V165.214ZM231.652 155.015C230.681 153.18 229.822 151.287 229.081 149.347C229.025 149.201 228.999 149.046 229.003 148.89C229.007 148.734 229.042 148.58 229.106 148.438C229.169 148.295 229.261 148.167 229.374 148.059C229.487 147.952 229.621 147.868 229.766 147.812C229.912 147.757 230.068 147.73 230.224 147.734C230.38 147.739 230.533 147.774 230.676 147.837C230.818 147.901 230.947 147.992 231.054 148.106C231.162 148.219 231.246 148.352 231.301 148.498C232.006 150.348 232.825 152.153 233.752 153.903C233.825 154.041 233.87 154.192 233.885 154.347C233.899 154.502 233.883 154.659 233.837 154.808C233.791 154.957 233.716 155.096 233.617 155.216C233.517 155.336 233.395 155.435 233.257 155.508C233.051 155.619 232.816 155.665 232.583 155.641C232.388 155.621 232.201 155.554 232.039 155.445C231.876 155.336 231.744 155.188 231.652 155.015Z" fill="#BDD0FB"/>
      <path d="M300.644 176.404C300.88 176.429 301.118 176.381 301.326 176.267C302.222 175.786 303.106 175.276 303.957 174.75C304.091 174.669 304.208 174.562 304.3 174.435C304.392 174.308 304.459 174.165 304.495 174.012C304.532 173.86 304.538 173.702 304.513 173.547C304.489 173.392 304.433 173.244 304.351 173.111C304.269 172.977 304.161 172.861 304.034 172.77C303.906 172.678 303.762 172.613 303.609 172.578C303.457 172.542 303.299 172.537 303.144 172.563C302.989 172.589 302.842 172.645 302.709 172.728C301.898 173.229 301.053 173.716 300.2 174.176C299.976 174.296 299.797 174.485 299.688 174.716C299.58 174.946 299.548 175.204 299.598 175.454C299.648 175.703 299.776 175.93 299.965 176.101C300.153 176.272 300.391 176.378 300.644 176.404Z" fill="#BDD0FB"/>
    </g>
    <path d="M307.416 154.824C307.505 154.736 307.564 154.622 307.584 154.498C307.605 154.375 307.588 154.248 307.533 154.135L304.325 147.553C306.153 144.608 307.49 141.384 308.281 138.009L315.2 135.623C315.318 135.582 315.421 135.506 315.493 135.404C315.566 135.302 315.605 135.18 315.605 135.055V126.27C315.606 126.145 315.567 126.023 315.494 125.921C315.421 125.819 315.318 125.743 315.2 125.703L308.283 123.317C307.492 119.942 306.154 116.718 304.323 113.773L307.529 107.19C307.584 107.077 307.603 106.951 307.582 106.828C307.561 106.704 307.503 106.591 307.415 106.502L301.205 100.291C301.116 100.202 301.002 100.144 300.879 100.123C300.755 100.102 300.628 100.121 300.516 100.176L293.934 103.384C290.989 101.554 287.765 100.217 284.39 99.4259L282 92.5191C281.959 92.4007 281.883 92.298 281.781 92.2253C281.679 92.1526 281.556 92.1137 281.431 92.114H272.649C272.524 92.114 272.402 92.153 272.3 92.2257C272.198 92.2983 272.121 92.4009 272.08 92.5191L269.696 99.4376C266.321 100.23 263.097 101.567 260.152 103.396L253.57 100.189C253.458 100.135 253.331 100.117 253.207 100.137C253.083 100.158 252.969 100.217 252.881 100.306L246.671 106.516C246.583 106.604 246.524 106.719 246.504 106.842C246.483 106.966 246.501 107.093 246.556 107.205L249.762 113.787C247.934 116.732 246.598 119.956 245.807 123.331L238.89 125.717C238.771 125.758 238.668 125.834 238.595 125.936C238.522 126.038 238.483 126.16 238.483 126.286V135.068C238.483 135.193 238.522 135.316 238.594 135.418C238.667 135.52 238.77 135.596 238.888 135.637L245.799 138.013C246.59 141.389 247.927 144.612 249.757 147.557L246.551 154.139C246.496 154.251 246.477 154.378 246.498 154.502C246.518 154.626 246.577 154.74 246.665 154.828L252.877 161.038C252.965 161.126 253.079 161.185 253.202 161.205C253.326 161.226 253.452 161.208 253.565 161.153L260.148 157.945C263.093 159.775 266.316 161.112 269.692 161.903L272.094 168.821C272.134 168.94 272.211 169.042 272.313 169.115C272.415 169.188 272.537 169.227 272.662 169.226H281.443C281.568 169.226 281.69 169.187 281.792 169.115C281.894 169.042 281.971 168.939 282.012 168.821L284.398 161.903C287.773 161.111 290.997 159.774 293.942 157.945L300.525 161.151C300.638 161.206 300.764 161.224 300.887 161.203C301.011 161.183 301.124 161.124 301.213 161.036L307.416 154.824Z" fill="#BDD0FB"/>
    <path d="M274.846 139.379C272.606 138.808 270.675 137.391 269.458 135.426C268.241 133.461 267.833 131.1 268.32 128.841C268.807 126.581 270.151 124.599 272.07 123.309C273.988 122.02 276.331 121.524 278.607 121.927C280.884 122.329 282.915 123.598 284.275 125.467C285.635 127.336 286.217 129.66 285.9 131.949C285.583 134.239 284.39 136.316 282.573 137.745C280.756 139.173 278.456 139.842 276.157 139.61C275.715 139.565 275.277 139.487 274.846 139.379ZM270.633 129.055C270.42 129.897 270.375 130.773 270.501 131.632C270.627 132.491 270.921 133.317 271.366 134.062C271.811 134.807 272.399 135.458 273.096 135.976C273.792 136.494 274.584 136.87 275.426 137.082C276.694 137.402 278.028 137.338 279.26 136.9C280.492 136.461 281.566 135.668 282.346 134.619C283.127 133.57 283.579 132.313 283.645 131.007C283.711 129.701 283.389 128.405 282.718 127.283C282.048 126.16 281.06 125.262 279.879 124.701C278.698 124.14 277.377 123.942 276.083 124.131C274.79 124.321 273.581 124.89 272.611 125.767C271.641 126.643 270.952 127.788 270.633 129.055Z" fill="url(#paint42_linear_532_964)"/>
    <path d="M274.651 152.789C275.399 152.863 276.157 152.901 276.924 152.902C278.448 152.903 279.968 152.749 281.46 152.442L281.655 152.399C281.812 152.371 281.961 152.311 282.094 152.224C282.227 152.136 282.341 152.023 282.43 151.891C282.518 151.758 282.579 151.609 282.609 151.453C282.639 151.297 282.637 151.136 282.603 150.98C282.569 150.825 282.505 150.677 282.413 150.547C282.322 150.417 282.205 150.306 282.07 150.222C281.935 150.138 281.784 150.082 281.627 150.057C281.47 150.032 281.309 150.039 281.155 150.078C279.763 150.377 278.344 150.527 276.92 150.526H276.684C273.372 150.499 270.119 149.641 267.224 148.031C265.648 147.153 264.199 146.067 262.914 144.801L262.881 144.77C262.849 144.739 262.816 144.708 262.785 144.675C260.921 142.822 259.443 140.617 258.437 138.189C257.431 135.761 256.917 133.158 256.924 130.53C256.924 129.844 256.959 129.158 257.028 128.475C257.557 123.377 260.023 118.677 263.917 115.344C267.811 112.011 272.835 110.3 277.954 110.563C283.072 110.827 287.895 113.045 291.426 116.759C294.957 120.474 296.928 125.403 296.932 130.528C296.933 131.206 296.899 131.883 296.83 132.557C296.538 135.471 295.607 138.285 294.103 140.799C293.942 141.069 293.895 141.393 293.972 141.698C294.048 142.003 294.243 142.266 294.512 142.429C294.783 142.59 295.106 142.637 295.412 142.561C295.717 142.484 295.98 142.289 296.143 142.02C297.825 139.207 298.869 136.06 299.199 132.799C299.275 132.044 299.313 131.286 299.314 130.528C299.317 124.789 297.115 119.269 293.164 115.107C289.213 110.945 283.815 108.46 278.083 108.165C272.352 107.87 266.727 109.788 262.37 113.523C258.013 117.257 255.256 122.523 254.671 128.231C254.066 134.14 255.832 140.046 259.581 144.652C263.33 149.259 268.755 152.187 274.663 152.795L274.651 152.789Z" fill="url(#paint43_linear_532_964)"/>
  </g>
  <defs>
    <linearGradient id="paint0_linear_532_964" x1="291.642" y1="74.2568" x2="364.778" y2="74.2568" gradientUnits="userSpaceOnUse">
      <stop stop-color="#DAE3FE"/>
      <stop offset="1" stop-color="#E9EFFD"/>
    </linearGradient>
    <linearGradient id="paint1_linear_532_964" x1="291.642" y1="85.0163" x2="364.778" y2="85.0163" gradientUnits="userSpaceOnUse">
      <stop stop-color="#DAE3FE"/>
      <stop offset="1" stop-color="#E9EFFD"/>
    </linearGradient>
    <linearGradient id="paint2_linear_532_964" x1="291.642" y1="95.7758" x2="364.778" y2="95.7758" gradientUnits="userSpaceOnUse">
      <stop stop-color="#DAE3FE"/>
      <stop offset="1" stop-color="#E9EFFD"/>
    </linearGradient>
    <linearGradient id="paint3_linear_532_964" x1="291.642" y1="106.535" x2="364.778" y2="106.535" gradientUnits="userSpaceOnUse">
      <stop stop-color="#DAE3FE"/>
      <stop offset="1" stop-color="#E9EFFD"/>
    </linearGradient>
    <linearGradient id="paint4_linear_532_964" x1="370.378" y1="96.2199" x2="394.92" y2="96.2199" gradientUnits="userSpaceOnUse">
      <stop stop-color="#DAE3FE"/>
      <stop offset="1" stop-color="#E9EFFD"/>
    </linearGradient>
    <linearGradient id="paint5_linear_532_964" x1="400.874" y1="96.2199" x2="425.414" y2="96.2199" gradientUnits="userSpaceOnUse">
      <stop stop-color="#DAE3FE"/>
      <stop offset="1" stop-color="#E9EFFD"/>
    </linearGradient>
    <linearGradient id="paint6_linear_532_964" x1="431.369" y1="96.2199" x2="455.909" y2="96.2199" gradientUnits="userSpaceOnUse">
      <stop stop-color="#DAE3FE"/>
      <stop offset="1" stop-color="#E9EFFD"/>
    </linearGradient>
    <linearGradient id="paint7_linear_532_964" x1="370.378" y1="109.981" x2="394.92" y2="109.981" gradientUnits="userSpaceOnUse">
      <stop stop-color="#DAE3FE"/>
      <stop offset="1" stop-color="#E9EFFD"/>
    </linearGradient>
    <linearGradient id="paint8_linear_532_964" x1="400.875" y1="109.981" x2="425.414" y2="109.981" gradientUnits="userSpaceOnUse">
      <stop stop-color="#DAE3FE"/>
      <stop offset="1" stop-color="#E9EFFD"/>
    </linearGradient>
    <linearGradient id="paint9_linear_532_964" x1="431.369" y1="109.981" x2="455.909" y2="109.981" gradientUnits="userSpaceOnUse">
      <stop stop-color="#DAE3FE"/>
      <stop offset="1" stop-color="#E9EFFD"/>
    </linearGradient>
    <linearGradient id="paint10_linear_532_964" x1="203.409" y1="511.791" x2="211.573" y2="511.868" gradientUnits="userSpaceOnUse">
      <stop stop-color="#FEBBBA"/>
      <stop offset="1" stop-color="#FF928E"/>
    </linearGradient>
    <linearGradient id="paint11_linear_532_964" x1="173.981" y1="511.093" x2="181.032" y2="511.159" gradientUnits="userSpaceOnUse">
      <stop stop-color="#FEBBBA"/>
      <stop offset="1" stop-color="#FF928E"/>
    </linearGradient>
    <linearGradient id="paint12_linear_532_964" x1="239.03" y1="299.058" x2="280.751" y2="299.452" gradientUnits="userSpaceOnUse">
      <stop stop-color="#FEBBBA"/>
      <stop offset="1" stop-color="#FF928E"/>
    </linearGradient>
    <linearGradient id="paint13_linear_532_964" x1="279.065" y1="290.964" x2="283.841" y2="259.27" gradientUnits="userSpaceOnUse">
      <stop stop-color="#FEBBBA"/>
      <stop offset="1" stop-color="#FF928E"/>
    </linearGradient>
    <linearGradient id="paint14_linear_532_964" x1="280.817" y1="271.243" x2="292.668" y2="253.394" gradientUnits="userSpaceOnUse">
      <stop stop-color="#FEBBBA"/>
      <stop offset="1" stop-color="#FF928E"/>
    </linearGradient>
    <linearGradient id="paint15_linear_532_964" x1="147.178" y1="357.289" x2="199.975" y2="357.786" gradientUnits="userSpaceOnUse">
      <stop stop-color="#FEBBBA"/>
      <stop offset="1" stop-color="#FF928E"/>
    </linearGradient>
    <linearGradient id="paint16_linear_532_964" x1="188.252" y1="301.229" x2="209.128" y2="301.426" gradientUnits="userSpaceOnUse">
      <stop stop-color="#FEBBBA"/>
      <stop offset="1" stop-color="#FF928E"/>
    </linearGradient>
    <linearGradient id="paint17_linear_532_964" x1="215.394" y1="287.443" x2="192.562" y2="273.294" gradientUnits="userSpaceOnUse">
      <stop stop-color="#FEBBBA"/>
      <stop offset="1" stop-color="#FF928E"/>
    </linearGradient>
    <linearGradient id="paint18_linear_532_964" x1="209.334" y1="292.615" x2="188.792" y2="279.885" gradientUnits="userSpaceOnUse">
      <stop stop-color="#FEBBBA"/>
      <stop offset="1" stop-color="#FF928E"/>
    </linearGradient>
    <linearGradient id="paint19_linear_532_964" x1="194.195" y1="355.955" x2="210.702" y2="355.955" gradientUnits="userSpaceOnUse">
      <stop stop-color="#FEBBBA"/>
      <stop offset="1" stop-color="#FF928E"/>
    </linearGradient>
    <linearGradient id="paint20_linear_532_964" x1="205.26" y1="336.456" x2="240.682" y2="336.456" gradientUnits="userSpaceOnUse">
      <stop stop-color="#DAE3FE"/>
      <stop offset="1" stop-color="#E9EFFD"/>
    </linearGradient>
    <linearGradient id="paint21_linear_532_964" x1="133.765" y1="515.45" x2="142.472" y2="515.45" gradientUnits="userSpaceOnUse">
      <stop stop-color="#FEBBBA"/>
      <stop offset="1" stop-color="#FF928E"/>
    </linearGradient>
    <linearGradient id="paint22_linear_532_964" x1="175.005" y1="516.183" x2="185.4" y2="516.183" gradientUnits="userSpaceOnUse">
      <stop stop-color="#FEBBBA"/>
      <stop offset="1" stop-color="#FF928E"/>
    </linearGradient>
    <linearGradient id="paint23_linear_532_964" x1="117.264" y1="369.701" x2="122.39" y2="356.777" gradientUnits="userSpaceOnUse">
      <stop stop-color="#FEBBBA"/>
      <stop offset="1" stop-color="#FF928E"/>
    </linearGradient>
    <linearGradient id="paint24_linear_532_964" x1="161.049" y1="419.961" x2="185.059" y2="419.961" gradientUnits="userSpaceOnUse">
      <stop stop-color="#FEBBBA"/>
      <stop offset="1" stop-color="#FF928E"/>
    </linearGradient>
    <linearGradient id="paint25_linear_532_964" x1="132.903" y1="343.472" x2="109.961" y2="366.352" gradientUnits="userSpaceOnUse">
      <stop stop-color="#FEBBBA"/>
      <stop offset="1" stop-color="#FF928E"/>
    </linearGradient>
    <linearGradient id="paint26_linear_532_964" x1="129.193" y1="339.754" x2="106.251" y2="362.633" gradientUnits="userSpaceOnUse">
      <stop stop-color="#FEBBBA"/>
      <stop offset="1" stop-color="#FF928E"/>
    </linearGradient>
    <linearGradient id="paint27_linear_532_964" x1="286.784" y1="479.37" x2="322.761" y2="479.37" gradientUnits="userSpaceOnUse">
      <stop stop-color="#FEBBBA"/>
      <stop offset="1" stop-color="#FF928E"/>
    </linearGradient>
    <linearGradient id="paint28_linear_532_964" x1="244.541" y1="481.826" x2="320.461" y2="481.826" gradientUnits="userSpaceOnUse">
      <stop stop-color="#FEBBBA"/>
      <stop offset="1" stop-color="#FF928E"/>
    </linearGradient>
    <linearGradient id="paint29_linear_532_964" x1="330.571" y1="382.482" x2="325.447" y2="349.598" gradientUnits="userSpaceOnUse">
      <stop stop-color="#FEBBBA"/>
      <stop offset="1" stop-color="#FF928E"/>
    </linearGradient>
    <linearGradient id="paint30_linear_532_964" x1="302.762" y1="347.612" x2="341.185" y2="334.649" gradientUnits="userSpaceOnUse">
      <stop stop-color="#FEBBBA"/>
      <stop offset="1" stop-color="#FF928E"/>
    </linearGradient>
    <linearGradient id="paint31_linear_532_964" x1="301.618" y1="344.222" x2="340.041" y2="331.258" gradientUnits="userSpaceOnUse">
      <stop stop-color="#FEBBBA"/>
      <stop offset="1" stop-color="#FF928E"/>
    </linearGradient>
    <linearGradient id="paint32_linear_532_964" x1="351.615" y1="419.819" x2="422.933" y2="419.819" gradientUnits="userSpaceOnUse">
      <stop stop-color="#FEBBBA"/>
      <stop offset="1" stop-color="#FF928E"/>
    </linearGradient>
    <linearGradient id="paint33_linear_532_964" x1="403.934" y1="522.963" x2="406.521" y2="502.737" gradientUnits="userSpaceOnUse">
      <stop stop-color="#FEBBBA"/>
      <stop offset="1" stop-color="#FF928E"/>
    </linearGradient>
    <linearGradient id="paint34_linear_532_964" x1="460.478" y1="529.895" x2="463" y2="510.186" gradientUnits="userSpaceOnUse">
      <stop stop-color="#FEBBBA"/>
      <stop offset="1" stop-color="#FF928E"/>
    </linearGradient>
    <linearGradient id="paint35_linear_532_964" x1="464.81" y1="364.631" x2="407.177" y2="426.172" gradientUnits="userSpaceOnUse">
      <stop stop-color="#FEBBBA"/>
      <stop offset="1" stop-color="#FF928E"/>
    </linearGradient>
    <linearGradient id="paint36_linear_532_964" x1="408.864" y1="356.152" x2="342.879" y2="356.152" gradientUnits="userSpaceOnUse">
      <stop stop-color="#FEBBBA"/>
      <stop offset="1" stop-color="#FF928E"/>
    </linearGradient>
    <linearGradient id="paint37_linear_532_964" x1="432.619" y1="319.142" x2="409.655" y2="295.582" gradientUnits="userSpaceOnUse">
      <stop stop-color="#FEBBBA"/>
      <stop offset="1" stop-color="#FF928E"/>
    </linearGradient>
    <linearGradient id="paint38_linear_532_964" x1="399.316" y1="280.738" x2="427.946" y2="318.614" gradientUnits="userSpaceOnUse">
      <stop stop-color="#FEBBBA"/>
      <stop offset="1" stop-color="#FF928E"/>
    </linearGradient>
    <linearGradient id="paint39_linear_532_964" x1="441.248" y1="310.732" x2="418.284" y2="287.172" gradientUnits="userSpaceOnUse">
      <stop stop-color="#FEBBBA"/>
      <stop offset="1" stop-color="#FF928E"/>
    </linearGradient>
    <linearGradient id="paint40_linear_532_964" x1="176.838" y1="76.2241" x2="203.226" y2="76.2241" gradientUnits="userSpaceOnUse">
      <stop stop-color="#DAE3FE"/>
      <stop offset="1" stop-color="#E9EFFD"/>
    </linearGradient>
    <linearGradient id="paint41_linear_532_964" x1="157.413" y1="76.0137" x2="222.291" y2="76.0137" gradientUnits="userSpaceOnUse">
      <stop stop-color="#DAE3FE"/>
      <stop offset="1" stop-color="#E9EFFD"/>
    </linearGradient>
    <linearGradient id="paint42_linear_532_964" x1="268.052" y1="130.668" x2="286.03" y2="130.668" gradientUnits="userSpaceOnUse">
      <stop stop-color="#DAE3FE"/>
      <stop offset="1" stop-color="#E9EFFD"/>
    </linearGradient>
    <linearGradient id="paint43_linear_532_964" x1="254.542" y1="130.522" x2="299.302" y2="130.522" gradientUnits="userSpaceOnUse">
      <stop stop-color="#DAE3FE"/>
      <stop offset="1" stop-color="#E9EFFD"/>
    </linearGradient>
    <clipPath id="clip0_532_964">
      <rect width="539.62" height="540" fill="white" transform="translate(0.379883)"/>
    </clipPath>
  </defs>
</svg>
