<svg viewBox="0 0 380 291" fill="none" xmlns="http://www.w3.org/2000/svg">
  <g clip-path="url(#clip0_476_569)">
    <path
      d="M348.679 201.247C343.059 210.986 339.089 221.612 336.932 232.684C334.111 249.027 325.333 263.694 312.343 273.766C305.741 278.733 298.372 282.552 290.537 285.068C285.493 286.725 280.331 287.984 275.097 288.835H274.819C251.436 292.603 222.318 291.209 199.678 284.333C186.316 280.265 175.664 274.35 161.263 273.032C139.476 270.941 118.32 273.333 96.6443 268.323C-19.8621 241.198 -0.209303 130.064 59.2687 93.8799C81.6496 80.2613 108.893 75.5522 129.084 59.7675C136.507 53.9659 140.998 44.0203 147.103 36.8814C158.999 22.9991 174.94 11.0569 192.032 4.85975C239.596 -12.1871 288.31 18.5914 323.941 48.0701C391.789 104.278 365.882 171.259 348.679 201.247Z"
      fill="#F0F4FE"/>
    <path d="M206.08 167.379V50.0668H194.222L219.405 20.3243L248.095 50.387H235.253V195.464L206.08 167.379Z"
          fill="#7497F7"/>
    <path d="M174.754 212.643V117.689H166.014L184.572 95.8012L205.672 117.915H196.226V180.093L174.754 212.643Z"
          fill="#7497F7"/>
    <path
      d="M312.324 273.766C305.722 278.733 298.354 282.552 290.519 285.068C285.475 286.725 280.313 287.984 275.079 288.835C271.367 285.539 267.155 281.301 264.482 279.21C264.185 278.984 263.925 278.777 263.666 278.607C255.853 273.239 246.425 269.754 237.907 265.667C233.639 263.613 229.501 261.334 225.306 259.13C220.185 256.286 214.863 253.831 209.384 251.784L208.456 251.464L207.751 251.219C204.061 250.246 200.594 248.55 197.544 246.228C194.5 243.534 192.756 239.691 190.863 236.094C187.949 230.556 186.947 223.304 181.176 221.025C178.559 220.008 177.687 216.749 177.464 213.961C176.942 205.821 177.359 197.647 178.708 189.606C179.734 181.72 180.78 173.827 181.844 165.929C181.912 164.955 182.177 164.006 182.623 163.141C183.288 162.238 184.256 161.614 185.344 161.388C186.432 161.163 187.564 161.351 188.525 161.917C190.405 163.137 191.737 165.058 192.236 167.266C194.241 174.443 191.067 182.618 194.092 189.361V189.493C194.999 191.219 196.095 192.837 197.358 194.315C201.07 198.986 204.781 203.733 208.846 207.915C210.948 210.452 213.657 212.398 216.714 213.566C218.241 214.131 219.909 214.171 221.461 213.681C223.014 213.191 224.364 212.198 225.306 210.853L225.566 210.382C226.013 209.037 226.172 207.611 226.035 206.198C225.897 204.786 225.465 203.419 224.768 202.188C222.546 198.123 219.922 194.299 216.937 190.774C215.253 188.615 213.804 186.278 212.613 183.804C210.808 179.756 210.036 175.313 210.367 170.883C210.333 168.839 210.988 166.846 212.223 165.232C213.634 163.744 216.51 163.197 217.605 164.93C224.156 175.027 225.622 183.616 236.386 192.375C239.299 194.729 247.687 204.373 250.824 206.408C260.418 212.643 265.67 223.624 272.295 233.061C278.92 242.498 286.715 250.296 294.565 258.226C297.961 260.92 307.871 268.341 312.324 273.766Z"
      fill="#FFBBAB"/>
    <path
      d="M224.935 201.887C222.72 197.806 220.096 193.968 217.104 190.435C217.457 188.89 218.477 188.551 221.038 191.15C225.232 195.238 230.855 205.805 237.425 206.521C233.806 206.125 229.705 205.861 227.014 208.404C226.5 208.889 226.068 209.455 225.733 210.081C226.186 208.737 226.349 207.31 226.211 205.896C226.073 204.482 225.638 203.115 224.935 201.887Z"
      fill="url(#paint0_linear_476_569)"/>
    <path
      d="M258.265 234.643C242.398 238.674 234.623 255.194 226.457 240.803C225.678 244.061 214.636 223.002 213.856 226.261C215.081 221.326 202.016 230.537 198.138 227.316C194.259 224.095 199.771 208.593 195.243 210.815C191.367 203.81 190.203 195.59 191.977 187.76L194.203 189.455C195.11 191.188 196.206 192.811 197.47 194.296C201.181 198.949 204.893 203.601 208.957 207.877C211.071 210.402 213.777 212.345 216.826 213.528C218.355 214.065 220.015 214.091 221.56 213.603C223.106 213.115 224.458 212.138 225.418 210.815C225.431 210.779 225.431 210.739 225.418 210.702C224.619 212.601 224.469 214.716 224.991 216.711C225.857 219.537 227.43 222.088 229.556 224.114C233.295 227.888 237.803 230.786 242.762 232.605C247.722 234.424 253.013 235.12 258.265 234.643Z"
      fill="url(#paint1_linear_476_569)"/>
    <path
      d="M233.973 209.911C232.026 214.129 228.588 217.45 224.341 219.216C226.362 222.639 228.62 225.912 231.096 229.011C226.846 226.486 222.844 223.553 219.145 220.252C215.434 216.843 210.961 212.718 206.006 213.829C202.629 214.564 199.585 217.71 196.003 214.79C194.943 213.889 194.158 212.7 193.739 211.362C192.552 207.594 191.29 203.94 190.306 200.06C189.739 198.389 189.408 196.645 189.323 194.88C189.323 193.957 190.009 191.395 188.209 192.281C184.524 194.105 181.242 196.668 178.559 199.815C179.237 197.735 179.764 195.607 180.136 193.448C180.339 191.303 180.774 189.186 181.436 187.138L183.811 180.169C184.567 178.215 185.072 176.17 185.314 174.085C185.518 171.109 182.122 163.649 186.242 162.048C188.951 160.975 191.587 164.949 192.199 167.096C194.203 174.254 191.03 182.429 194.055 189.173C195.27 191.419 196.727 193.523 198.397 195.445C201.532 199.562 204.884 203.505 208.437 207.255C211.314 210.288 214.561 213.396 218.96 213.697C220.712 213.861 222.46 213.35 223.859 212.266C227.199 209.591 226.438 205.221 224.842 201.831C221.706 195.144 215.749 190.152 212.687 183.428C210.9 179.374 210.128 174.935 210.442 170.506C210.4 168.461 211.056 166.465 212.297 164.855C218.254 158.526 219.72 172.088 220.092 175.177C220.916 180.127 222.408 184.938 224.527 189.474C225.399 191.584 226.661 194.014 228.907 194.315L225.436 195.765C225.849 198.585 226.817 201.291 228.284 203.721C229.751 206.152 231.686 208.257 233.973 209.911Z"
      fill="url(#paint2_linear_476_569)"/>
    <path
      d="M224.861 133.135C224.462 138.299 222.303 143.161 218.755 146.885C215.578 150.073 213.313 154.077 212.204 158.469C211.907 159.807 211.74 161.201 211.499 162.67H191.995C191.846 161.672 191.754 160.654 191.568 159.675C190.734 155.438 188.748 151.523 185.834 148.373C183.243 145.666 181.206 142.465 179.839 138.955C178.681 135.685 178.244 132.196 178.558 128.736C178.871 125.275 179.929 121.926 181.656 118.925C183.383 115.924 185.737 113.344 188.552 111.367C191.368 109.389 194.576 108.062 197.952 107.48C198.564 107.48 199.195 107.31 199.808 107.254C203.207 106.972 206.625 107.451 209.822 108.659C213.018 109.866 215.913 111.772 218.303 114.241C220.694 116.71 222.52 119.683 223.653 122.947C224.786 126.212 225.199 129.69 224.861 133.135Z"
      fill="white"/>
    <path
      d="M221.038 133.135C220.638 138.295 218.487 143.155 214.951 146.885C211.76 150.062 209.494 154.071 208.4 158.469C208.085 159.807 207.936 161.201 207.695 162.67H191.995C191.846 161.672 191.754 160.654 191.568 159.675C190.734 155.438 188.748 151.523 185.834 148.373C183.243 145.666 181.206 142.465 179.839 138.955C178.681 135.685 178.244 132.196 178.558 128.736C178.871 125.275 179.929 121.926 181.656 118.925C183.383 115.924 185.737 113.344 188.552 111.367C191.368 109.389 194.576 108.062 197.952 107.48C198.564 107.48 199.195 107.31 199.808 107.254C202.884 107.516 205.879 108.396 208.617 109.843C211.356 111.291 213.784 113.276 215.759 115.685C217.735 118.093 219.219 120.876 220.125 123.872C221.031 126.867 221.342 130.016 221.038 133.135Z"
      fill="url(#paint3_linear_476_569)"/>
    <path
      d="M211.945 162.595H192.607C191.203 162.595 190.065 163.75 190.065 165.175C190.065 166.6 191.203 167.756 192.607 167.756H211.945C213.349 167.756 214.487 166.6 214.487 165.175C214.487 163.75 213.349 162.595 211.945 162.595Z"
      fill="#7497F7"/>
    <path
      d="M210.497 166.927H193.183C191.932 166.927 190.918 167.956 190.918 169.225V169.244C190.918 170.513 191.932 171.542 193.183 171.542H210.497C211.747 171.542 212.761 170.513 212.761 169.244V169.225C212.761 167.956 211.747 166.927 210.497 166.927Z"
      fill="#7497F7"/>
    <path
      d="M209.347 170.694H194.333C193.247 170.694 192.366 171.588 192.366 172.691V172.71C192.366 173.812 193.247 174.706 194.333 174.706H209.347C210.433 174.706 211.314 173.812 211.314 172.71V172.691C211.314 171.588 210.433 170.694 209.347 170.694Z"
      fill="#7497F7"/>
    <path
      d="M211.945 162.595H192.607C191.203 162.595 190.065 163.75 190.065 165.175C190.065 166.6 191.203 167.756 192.607 167.756H211.945C213.349 167.756 214.487 166.6 214.487 165.175C214.487 163.75 213.349 162.595 211.945 162.595Z"
      fill="url(#paint4_linear_476_569)"/>
    <path
      d="M210.497 166.927H193.183C191.932 166.927 190.918 167.956 190.918 169.225V169.244C190.918 170.513 191.932 171.542 193.183 171.542H210.497C211.747 171.542 212.761 170.513 212.761 169.244V169.225C212.761 167.956 211.747 166.927 210.497 166.927Z"
      fill="url(#paint5_linear_476_569)"/>
    <path
      d="M209.347 170.694H194.333C193.247 170.694 192.366 171.588 192.366 172.691V172.71C192.366 173.812 193.247 174.706 194.333 174.706H209.347C210.433 174.706 211.314 173.812 211.314 172.71V172.691C211.314 171.588 210.433 170.694 209.347 170.694Z"
      fill="url(#paint6_linear_476_569)"/>
    <path
      d="M196.894 162.519C196.75 158.901 196.296 155.303 195.54 151.764C194.946 148.827 194.512 145.859 194.24 142.873C193.944 138.371 194.816 135.207 196.931 133.229C197.105 133.009 197.326 132.831 197.576 132.709C197.827 132.587 198.101 132.524 198.379 132.524C198.657 132.524 198.931 132.587 199.182 132.709C199.432 132.831 199.653 133.009 199.826 133.229L200.012 133.003C200.372 132.542 200.855 132.195 201.404 132.005C201.968 131.853 202.569 131.934 203.074 132.231C203.428 132.451 203.737 132.739 203.983 133.078C204.275 132.888 204.601 132.761 204.942 132.702C205.283 132.644 205.633 132.657 205.969 132.739C207.25 133.059 208.122 134.265 208.493 136.243C209.086 140.969 208.733 145.767 207.454 150.351C206.435 154.231 205.998 158.244 206.155 162.256L204.763 162.387C204.587 158.231 205.031 154.071 206.08 150.05C207.064 145.378 207.936 140.952 207.138 136.525C206.971 135.715 206.581 134.34 205.635 134.114C205.466 134.074 205.291 134.071 205.121 134.107C204.951 134.143 204.791 134.216 204.651 134.321C204.754 134.565 204.835 134.817 204.893 135.075C205.229 136.487 205.391 137.936 205.375 139.388C205.389 139.614 205.354 139.84 205.274 140.052C205.194 140.263 205.07 140.454 204.911 140.613C204.769 140.74 204.597 140.828 204.412 140.867C204.226 140.907 204.034 140.897 203.853 140.839C203.54 140.698 203.264 140.483 203.051 140.21C202.838 139.938 202.693 139.617 202.629 139.275C202.192 137.959 202.109 136.548 202.387 135.188C202.505 134.774 202.693 134.385 202.944 134.039C202.797 133.803 202.601 133.604 202.369 133.455C202.275 133.415 202.174 133.394 202.072 133.394C201.97 133.394 201.869 133.415 201.775 133.455C201.498 133.582 201.256 133.776 201.07 134.02C200.967 134.137 200.874 134.263 200.791 134.397C201.946 135.983 202.458 137.958 202.22 139.916C202.09 140.876 201.515 141.799 200.513 141.799C200.168 141.755 199.843 141.613 199.574 141.39C199.305 141.166 199.103 140.871 198.991 140.537C198.556 139.597 198.33 138.572 198.33 137.533C198.33 136.494 198.556 135.469 198.991 134.529C198.657 134.208 198.453 134.133 198.36 134.152C198.168 134.211 197.995 134.321 197.859 134.472C196.096 136.13 195.335 138.993 195.614 142.986C195.882 145.915 196.309 148.826 196.894 151.707C197.662 155.334 198.121 159.02 198.268 162.726L196.894 162.519ZM200.068 135.678C199.619 137.021 199.686 138.487 200.253 139.784C200.402 140.123 200.532 140.217 200.569 140.217C200.731 140.036 200.823 139.802 200.829 139.558C200.999 138.215 200.732 136.852 200.068 135.678ZM203.649 135.828C203.558 136.852 203.672 137.883 203.983 138.861C203.962 137.842 203.85 136.827 203.649 135.828Z"
      fill="#7497F7"/>
    <path
      d="M184.275 187.063C184.275 187.063 174.272 209.045 175.274 212.661C176.398 215.712 177.901 218.605 179.747 221.27L189.026 232.025C189.026 232.025 193.795 244.928 197.451 246.058C201.107 247.188 206.025 248.318 206.025 248.318C206.025 248.318 188.543 223.059 186.836 220.177C185.128 217.295 189.36 201.077 190.547 198.76C191.385 197.389 192.011 195.897 192.403 194.334C192.589 193.373 201.2 185.518 201.96 181.676C202.721 177.833 202.851 174.141 201.2 173.049C199.548 171.956 197.748 170.355 197.748 170.355L185.964 183.333L184.275 187.063Z"
      fill="#FFBBAB"/>
    <path
      d="M182.586 208.63C182.275 210.331 182.175 212.065 182.289 213.792C182.429 215.388 182.798 216.956 183.384 218.444C184.919 221.782 187.023 224.818 189.601 227.41C191.902 229.984 194.228 232.496 196.579 234.945C198.639 227.599 196.096 219.876 194.166 212.473C192.236 205.07 191.735 198.704 194.37 191.753C191.772 191.452 188.246 196.312 186.947 198.27C184.754 201.353 183.264 204.891 182.586 208.63Z"
      fill="url(#paint7_linear_476_569)"/>
    <path
      d="M204.986 188.721C204.986 188.721 191.364 196.952 190.659 198.76C189.954 200.569 185.314 212.85 185.89 218.727C186.465 224.604 207.027 249.091 207.027 249.091C207.027 249.091 251.028 274.331 259.472 273.126C267.915 271.92 278.178 257.397 269.437 248.318C260.696 239.239 240.951 235.416 236.757 235.02C232.563 234.624 221.558 230.01 214.339 225.771C207.12 221.533 199.715 216.711 199.715 216.711C199.715 216.711 197.859 207.293 197.859 206.483C197.859 205.673 206.21 200.7 207.361 196.651C208.512 192.601 207.639 189.643 204.986 188.721Z"
      fill="#FFBBAB"/>
    <path opacity="0.21"
          d="M193.776 180.828C194.351 180.807 194.915 180.659 195.428 180.395C196.36 179.969 197.249 179.452 198.082 178.85C198.383 178.693 198.65 178.477 198.868 178.214C199.085 177.951 199.249 177.647 199.349 177.319C199.45 176.991 199.484 176.646 199.452 176.304C199.419 175.962 199.319 175.63 199.158 175.328C198.691 173.731 198.07 172.185 197.302 170.713C197.451 170.996 195.317 173.407 195.057 173.727C194.24 174.763 193.368 175.761 192.477 176.741C191.587 177.72 190.993 177.984 191.364 179.095C191.553 179.593 191.883 180.023 192.313 180.331C192.742 180.639 193.251 180.812 193.776 180.828Z"
          fill="white"/>
    <path opacity="0.21"
          d="M199.065 197.178C200.058 197.433 201.099 197.41 202.08 197.111C203.06 196.813 203.943 196.25 204.633 195.483C204.939 195.226 205.186 194.905 205.357 194.541C205.479 194.228 205.554 193.897 205.579 193.561C205.697 192.263 205.452 190.958 204.874 189.794C204.096 189.961 203.359 190.281 202.703 190.736L200.068 192.281C199.115 192.681 198.222 193.213 197.414 193.863C196.412 195.106 197.97 196.858 199.065 197.178Z"
          fill="white"/>
    <path
      d="M203.816 247.603C205.216 249.034 206.773 250.298 208.456 251.37L207.751 251.125C206.348 250.061 205.032 248.883 203.816 247.603Z"
      fill="url(#paint8_linear_476_569)"/>
    <path
      d="M290.537 284.974C285.493 286.63 280.331 287.89 275.097 288.741H274.819C271.218 285.614 267.247 281.207 264.5 279.078C264.203 278.852 263.944 278.645 263.684 278.475C255.871 273.107 246.444 269.622 237.926 265.535C233.657 263.482 229.519 261.202 225.325 258.999C235.012 262.935 244.718 266.778 254.628 270.037C257.931 271.129 261.772 272.09 264.686 270.15C266.312 268.87 267.589 267.191 268.398 265.271C270.439 261.297 272.258 257.077 274.577 253.291C275.524 254.666 274.095 256.776 273.724 258.283C273.16 260.533 272.99 262.867 273.223 265.177C273.514 267.857 274.33 270.451 275.624 272.806C276.918 275.161 278.663 277.23 280.757 278.89C283.726 281.225 287.438 282.695 290.537 284.974Z"
      fill="url(#paint9_linear_476_569)"/>
    <path
      d="M143.151 186.272C141.341 185.859 139.61 185.146 138.029 184.162L141.907 177.758C142.799 178.303 143.77 178.704 144.784 178.944L143.151 186.272ZM152.689 185.669L150.166 178.605C151.146 178.245 152.061 177.723 152.875 177.061L157.496 182.919C156.055 184.1 154.431 185.029 152.689 185.669ZM131.608 176.967C130.793 175.273 130.266 173.451 130.049 171.58L137.472 170.657C137.609 171.709 137.909 172.733 138.363 173.689L131.608 176.967ZM162.989 174.97L155.993 172.578C156.318 171.568 156.488 170.513 156.494 169.451H163.917C163.908 171.33 163.595 173.194 162.989 174.97ZM138.251 165.251L131.589 161.992C132.392 160.304 133.457 158.758 134.744 157.415L140.033 162.651C139.312 163.42 138.711 164.297 138.251 165.251ZM154.954 164.158C154.38 163.272 153.672 162.484 152.856 161.822L157.459 155.945C158.907 157.108 160.161 158.501 161.17 160.071L154.954 164.158ZM144.747 159.976L143.076 152.649C144.902 152.231 146.781 152.11 148.644 152.291L147.939 159.826C146.874 159.698 145.795 159.749 144.747 159.976Z"
      fill="white"/>
    <path
      d="M260.195 154.42C258.673 154.077 257.218 153.478 255.89 152.649L256.985 150.765C258.131 151.478 259.385 151.994 260.696 152.291L260.195 154.42ZM268.268 153.855L267.544 151.971C268.789 151.54 269.955 150.903 270.996 150.087L272.314 151.764C271.089 152.684 269.722 153.391 268.268 153.855ZM250.471 146.508C249.801 145.074 249.356 143.543 249.153 141.969L251.25 141.705C251.427 143.014 251.809 144.286 252.382 145.472L250.471 146.508ZM276.972 144.832L274.986 144.154C275.401 142.865 275.614 141.517 275.617 140.161H277.732C277.734 141.77 277.47 143.368 276.953 144.889L276.972 144.832ZM252.364 134.811L250.508 133.888C251.186 132.456 252.089 131.146 253.18 130.008L254.702 131.496C253.734 132.476 252.937 133.616 252.345 134.868L252.364 134.811ZM273.65 133.417C272.926 132.283 272.023 131.278 270.977 130.441L272.295 128.765C273.518 129.748 274.577 130.924 275.431 132.249L273.65 133.417ZM260.659 128.068L260.177 125.977C261.705 125.633 263.276 125.531 264.835 125.676L264.556 127.879C263.241 127.746 261.912 127.829 260.622 128.124L260.659 128.068Z"
      fill="#7497F7"/>
    <path
      d="M253.663 99.0411C254.254 98.5746 254.96 98.2815 255.704 98.1934C256.114 98.2138 256.52 98.2898 256.91 98.4195L278.642 104.993C272.703 113.093 262.663 116.935 255.649 124.093C255.322 124.468 254.932 124.78 254.498 125.016C253.977 125.145 253.436 125.166 252.907 125.079C252.378 124.991 251.871 124.797 251.417 124.508C247.743 122.815 243.817 121.752 239.8 121.362C238.186 121.192 235.272 121.871 235.235 120.156C235.235 118.819 237.313 116.389 238.019 115.184C242.073 108.759 247.401 103.262 253.663 99.0411Z"
      fill="white"/>
    <path
      d="M254.869 162.086C257.64 168.072 261.253 173.618 265.595 178.549C264.101 179.844 262.337 180.777 260.436 181.28C254.959 183.327 249.952 186.487 245.72 190.566C243.864 187.063 235.624 175.497 237.35 171.937C238.167 170.28 255.277 162.971 254.869 162.086Z"
      fill="white"/>
    <path
      d="M138.92 196.085C144.487 196.425 150.054 196.971 155.622 197.762C156.128 197.786 156.617 197.956 157.032 198.252C157.373 198.609 157.616 199.051 157.737 199.533C160.219 206.931 164.032 213.797 168.983 219.781C163.416 223.247 147.326 230.443 141.963 223.549C139.922 220.836 137.286 195.991 138.92 196.085Z"
      fill="white"/>
  </g>
  <defs>
    <linearGradient id="paint0_linear_476_569" x1="218.997" y1="209.214" x2="235.049" y2="188.631"
                    gradientUnits="userSpaceOnUse">
      <stop offset="0.01"/>
      <stop offset="0.08" stop-opacity="0.69"/>
      <stop offset="0.21" stop-opacity="0.32"/>
      <stop offset="1" stop-opacity="0"/>
    </linearGradient>
    <linearGradient id="paint1_linear_476_569" x1="238.631" y1="120.722" x2="199.617" y2="373.181"
                    gradientUnits="userSpaceOnUse">
      <stop offset="0.01"/>
      <stop offset="0.08" stop-opacity="0.69"/>
      <stop offset="0.21" stop-opacity="0.32"/>
      <stop offset="1" stop-opacity="0"/>
    </linearGradient>
    <linearGradient id="paint2_linear_476_569" x1="209.347" y1="151.161" x2="206.116" y2="206.044"
                    gradientUnits="userSpaceOnUse">
      <stop offset="0.01"/>
      <stop offset="0.08" stop-opacity="0.69"/>
      <stop offset="0.21" stop-opacity="0.32"/>
      <stop offset="1" stop-opacity="0"/>
    </linearGradient>
    <linearGradient id="paint3_linear_476_569" x1="267.47" y1="180.828" x2="161.854" y2="112.651"
                    gradientUnits="userSpaceOnUse">
      <stop offset="0.01"/>
      <stop offset="0.13" stop-opacity="0.69"/>
      <stop offset="0.25" stop-opacity="0.32"/>
      <stop offset="1" stop-opacity="0"/>
    </linearGradient>
    <linearGradient id="paint4_linear_476_569" x1="202.313" y1="155.267" x2="202.256" y2="174.744"
                    gradientUnits="userSpaceOnUse">
      <stop offset="0.01"/>
      <stop offset="0.13" stop-opacity="0.69"/>
      <stop offset="0.25" stop-opacity="0.32"/>
      <stop offset="1" stop-opacity="0"/>
    </linearGradient>
    <linearGradient id="paint5_linear_476_569" x1="202.406" y1="160.014" x2="201.163" y2="179.827"
                    gradientUnits="userSpaceOnUse">
      <stop offset="0.01"/>
      <stop offset="0.13" stop-opacity="0.69"/>
      <stop offset="0.25" stop-opacity="0.32"/>
      <stop offset="1" stop-opacity="0"/>
    </linearGradient>
    <linearGradient id="paint6_linear_476_569" x1="202.146" y1="165.382" x2="201.458" y2="181.26"
                    gradientUnits="userSpaceOnUse">
      <stop offset="0.01"/>
      <stop offset="0.13" stop-opacity="0.69"/>
      <stop offset="0.25" stop-opacity="0.32"/>
      <stop offset="1" stop-opacity="0"/>
    </linearGradient>
    <linearGradient id="paint7_linear_476_569" x1="207.639" y1="215.638" x2="157.692" y2="206.89"
                    gradientUnits="userSpaceOnUse">
      <stop offset="0.01"/>
      <stop offset="0.08" stop-opacity="0.69"/>
      <stop offset="0.21" stop-opacity="0.32"/>
      <stop offset="1" stop-opacity="0"/>
    </linearGradient>
    <linearGradient id="paint8_linear_476_569" x1="205.598" y1="250.39" x2="206.888" y2="248.203"
                    gradientUnits="userSpaceOnUse">
      <stop offset="0.01"/>
      <stop offset="0.08" stop-opacity="0.69"/>
      <stop offset="0.21" stop-opacity="0.32"/>
      <stop offset="1" stop-opacity="0"/>
    </linearGradient>
    <linearGradient id="paint9_linear_476_569" x1="247.13" y1="290.888" x2="286.656" y2="223.494"
                    gradientUnits="userSpaceOnUse">
      <stop offset="0.01"/>
      <stop offset="0.08" stop-opacity="0.69"/>
      <stop offset="0.21" stop-opacity="0.32"/>
      <stop offset="1" stop-opacity="0"/>
    </linearGradient>
    <clipPath id="clip0_476_569">
      <rect width="380" height="290.7" fill="white"/>
    </clipPath>
  </defs>
</svg>
