<svg  viewBox="0 0 380 291" fill="none" xmlns="http://www.w3.org/2000/svg">
  <g clip-path="url(#clip0_476_455)">
    <path d="M284.018 15.7728C275.971 12.805 268.634 8.11985 260.626 5.08084C249.757 0.965523 238.015 -0.0158239 226.381 4.27019e-06C188.869 4.27019e-06 150.601 10.6128 121.284 34.3629C109.604 43.8044 99.1088 55.4302 85.1286 60.6931C74.0645 64.8717 61.0589 64.9746 52.1078 72.7858C42.0963 81.4913 40.8565 96.6784 41.7532 110.053C42.6499 123.428 44.7941 137.555 39.1645 149.679C35.8586 156.802 30.1901 162.429 25.543 168.728C19.245 177.279 14.8261 187.101 12.584 197.532C10.3419 207.963 10.3287 218.761 12.5454 229.198C14.762 239.634 19.157 249.467 25.4341 258.034C31.7113 266.601 39.7247 273.703 48.9343 278.861C67.3434 289.149 89.1675 291.017 110.196 290.66C129.393 290.336 149.47 288.049 165.4 277.167C175.661 270.147 183.723 259.859 194.865 254.398C208.3 247.829 223.972 249.27 238.888 249.175C256.556 249.048 274.661 246.389 290.076 237.62C305.491 228.852 317.834 213.158 319.237 195.288C320.305 181.573 315.12 167.272 319.65 154.317C321.374 149.386 324.407 145.041 327.658 140.989C339.619 126.024 355.455 113.63 363.01 95.9028C367.104 86.311 368.468 75.7457 368.952 65.307C369.544 52.1617 367.798 37.0142 357.17 29.4641C347.533 22.6185 335.666 25.7841 324.804 24.2013C311.456 22.2307 296.735 20.4421 284.018 15.7728Z" fill="#F0F4FE"/>
    <path d="M142.149 151.618C142.149 151.618 107.655 143.031 84.544 162.516C61.4333 182 87.8032 173.754 96.2397 176.397C104.676 179.04 117.393 183.994 117.393 183.994C117.393 183.994 152.566 167.13 142.149 151.618Z" fill="#3E3E54"/>
    <path d="M142.149 151.618C142.149 151.618 107.655 143.031 84.544 162.516C61.4333 182 87.8032 173.754 96.2397 176.397C104.676 179.04 117.393 183.994 117.393 183.994C117.393 183.994 152.566 167.13 142.149 151.618Z" fill="url(#paint0_linear_476_455)"/>
    <path d="M130.063 207.206C130.063 207.206 151.763 192.676 165.213 197.076L176.495 200.598C176.495 200.598 169.556 245.091 130.929 249.056C130.929 249.056 122.687 249.935 131.802 234.518C140.917 219.101 130.063 207.206 130.063 207.206Z" fill="#3E3E54"/>
    <path d="M130.063 207.206C130.063 207.206 151.763 192.676 165.213 197.076L176.495 200.598C176.495 200.598 169.556 245.091 130.929 249.056C130.929 249.056 122.687 249.935 131.802 234.518C140.917 219.101 130.063 207.206 130.063 207.206Z" fill="url(#paint1_linear_476_455)"/>
    <path d="M190.499 62.2363C192.052 63.0748 193.721 63.6673 195.45 63.9933C198 64.3336 200.534 63.5105 203.006 62.8062C205.884 61.9895 208.801 61.3212 211.746 60.8039C213.368 60.5269 215.263 60.3765 216.424 61.5953C217.586 62.8141 217.352 64.9192 216.339 66.2725C215.325 67.6258 213.758 68.4014 212.245 69.1374L203.372 73.4348C201.854 74.2295 200.267 74.8811 198.631 75.3816C191.871 77.2335 184.854 73.7988 178.967 69.9763C176.698 68.4885 174.242 66.5258 174.148 63.7875C174.178 62.7009 174.399 61.6286 174.803 60.6219C175.119 59.3729 175.76 58.2331 176.659 57.3217C179.341 54.9712 187.793 60.9463 190.499 62.2363Z" fill="#7497F7"/>
    <path d="M190.312 62.3313C191.865 63.1697 193.534 63.7622 195.263 64.0882C197.813 64.4285 200.347 63.6055 202.819 62.9011C205.706 62.0822 208.634 61.4165 211.59 60.9068C213.204 60.6219 215.107 60.4715 216.269 61.6982C217.43 62.9249 217.197 65.0142 216.183 66.3675C215.169 67.7208 213.602 68.4964 212.089 69.2324L203.216 73.5297C201.698 74.3244 200.111 74.9761 198.476 75.4766C191.716 77.3285 184.698 73.8938 178.811 70.0713C176.542 68.5913 174.086 66.6207 173.993 63.8825C174.016 62.7952 174.238 61.7218 174.648 60.7168C174.951 59.4834 175.569 58.3532 176.441 57.4404C179.154 55.0662 187.575 61.0492 190.312 62.3313Z" fill="url(#paint2_linear_476_455)"/>
    <path d="M208.136 95.6575C205.617 99.6145 202.382 103.105 199.169 106.531C195.957 109.958 192.744 113.33 188.472 114.936C186.366 115.728 183.871 115.997 181.953 114.794C179.871 113.496 179.014 110.718 179.403 108.265C179.925 105.82 181.124 103.577 182.858 101.799C184.187 100.133 185.665 98.5937 187.271 97.2007C189.033 95.8395 190.904 95.9107 193.204 95.7445C198.174 95.3792 203.162 95.3502 208.136 95.6575Z" fill="#3E3E54"/>
    <path d="M208.136 95.6575C205.617 99.6145 202.382 103.105 199.169 106.531C195.957 109.958 192.744 113.33 188.472 114.936C186.366 115.728 183.871 115.997 181.953 114.794C179.871 113.496 179.014 110.718 179.403 108.265C179.925 105.82 181.124 103.577 182.858 101.799C184.187 100.133 185.665 98.5937 187.271 97.2007C189.033 95.8395 190.904 95.9107 193.204 95.7445C198.174 95.3792 203.162 95.3502 208.136 95.6575Z" fill="url(#paint3_linear_476_455)"/>
    <path d="M340.773 60.2103C340.463 62.1229 340.051 64.0171 339.541 65.8847C336.84 75.6736 333.014 85.106 328.141 93.9876C317.288 114.192 297.405 140.681 261.351 165.214C204.744 203.883 155.061 210.325 136.73 211.298C131.88 211.575 129.221 211.472 129.221 211.472L112.621 185.356C112.621 185.356 131.334 157.079 165.111 127.425C180.689 113.664 197.593 101.531 215.567 91.2098C226.323 85.0583 237.46 79.6179 248.907 74.9226C264.617 68.3839 281.008 63.6765 297.764 60.8909C324.906 56.6015 340.773 60.2103 340.773 60.2103Z" fill="#7497F7"/>
    <path d="M207.731 102.646C206.951 104.11 209.376 108.779 210.702 109.768C212.027 110.758 213.649 111.351 214.6 112.728C214.791 112.968 214.927 113.248 214.999 113.548C215.07 113.847 215.075 114.159 215.013 114.461C214.764 115.348 213.766 115.743 212.9 116.044L189.634 123.309C188.989 123.448 188.392 123.756 187.903 124.204C186.967 125.217 187.435 126.989 188.503 127.836C189.66 128.591 191.031 128.936 192.402 128.817C199.926 128.817 208.191 125.652 214.491 129.799C216.282 131.098 217.837 132.705 219.083 134.547C223.526 140.53 226.928 147.241 229.142 154.388C229.82 156.588 230.381 158.986 229.602 161.154C225.92 159.627 222.755 157.045 220.495 153.723C217.672 149.544 216.222 144.179 212.113 141.314C209.111 139.217 205.228 138.94 201.595 139.248C197.961 139.557 194.382 140.483 190.741 140.53C182.632 140.633 175.147 136.573 168.004 132.616C166.515 131.825 164.823 130.646 164.792 128.92C164.789 128.446 164.901 127.978 165.12 127.559C180.697 113.798 197.601 101.665 215.575 91.3443C226.331 85.1928 237.468 79.7525 248.915 75.0571C252.003 79.5128 208.066 102.036 207.731 102.646Z" fill="url(#paint4_linear_476_455)"/>
    <path d="M340.485 60.4952C340.485 60.4952 338.559 74.3449 327.853 94.2725C324.41 93.1777 321.027 91.8992 317.717 90.4421C304.134 84.5382 298.536 65.2358 297.507 61.2313C324.617 56.8943 340.485 60.4952 340.485 60.4952Z" fill="url(#paint5_linear_476_455)"/>
    <path opacity="0.31" d="M275.877 111.462C283.026 111.462 288.821 105.58 288.821 98.3245C288.821 91.069 283.026 85.1872 275.877 85.1872C268.729 85.1872 262.934 91.069 262.934 98.3245C262.934 105.58 268.729 111.462 275.877 111.462Z" fill="#3E3E54"/>
    <path opacity="0.31" d="M241.703 131.611C248.851 131.611 254.646 125.729 254.646 118.474C254.646 111.218 248.851 105.336 241.703 105.336C234.554 105.336 228.759 111.218 228.759 118.474C228.759 125.729 234.554 131.611 241.703 131.611Z" fill="#3E3E54"/>
    <path opacity="0.31" d="M204.277 157.379C211.425 157.379 217.22 151.498 217.22 144.242C217.22 136.986 211.425 131.105 204.277 131.105C197.128 131.105 191.333 136.986 191.333 144.242C191.333 151.498 197.128 157.379 204.277 157.379Z" fill="#3E3E54"/>
    <path d="M115.444 176.698L137.143 211.931L125.424 216.339L107.631 185.949L115.444 176.698Z" fill="#3E3E54"/>
    <path d="M178.998 134.674C189.252 137.191 199.949 134.476 210.296 132.379C211.359 132.07 212.484 132.054 213.555 132.331C214.779 132.767 215.598 133.914 216.315 135.014C219.891 140.526 222.868 146.414 225.196 152.576C226.6 156.287 227.918 160.323 231.036 162.729C234.155 165.135 239.722 164.597 240.853 160.79C235.528 145.587 228.97 130.867 222.421 116.163C221.828 114.833 221.173 113.425 219.957 112.641C218.892 112.071 217.707 111.769 216.503 111.763L179.575 108.526C171.279 107.798 158.804 106.682 161.587 118.395C163.506 126.562 171.201 132.759 178.998 134.674Z" fill="#3E3E54"/>
    <path d="M178.998 134.674C189.252 137.191 199.949 134.476 210.296 132.379C211.359 132.07 212.484 132.054 213.555 132.331C214.779 132.767 215.598 133.914 216.315 135.014C219.891 140.526 222.868 146.414 225.196 152.576C226.6 156.287 227.918 160.323 231.036 162.729C234.155 165.135 239.722 164.597 240.853 160.79C235.528 145.587 228.97 130.867 222.421 116.163C221.828 114.833 221.173 113.425 219.957 112.641C218.892 112.071 217.707 111.769 216.503 111.763L179.575 108.526C171.279 107.798 158.804 106.682 161.587 118.395C163.506 126.562 171.201 132.759 178.998 134.674Z" fill="url(#paint6_linear_476_455)"/>
    <path d="M188.261 102.274C188.261 104.83 188.261 107.473 187.131 109.768C185.688 112.776 182.577 114.667 179.333 115.435C178.307 115.669 177.264 115.825 176.215 115.902C173.976 116.002 171.733 115.952 169.501 115.751C165.221 115.466 160.363 114.873 157.806 111.375C156.012 108.914 155.856 105.637 155.786 102.574C155.599 94.2013 155.56 85.8282 155.498 77.4551C155.498 72.6671 153.587 66.2092 154.258 61.627C154.484 59.7352 155.211 57.9407 156.359 56.4333C157.508 54.926 159.037 53.7618 160.784 53.0639C167.108 50.3177 176.293 52.3358 180.776 57.567C184.37 61.7457 185.758 67.4042 186.6 72.8887C188.136 82.5676 188.253 92.4444 188.261 102.274Z" fill="#7497F7"/>
    <path d="M174.195 86.3189C174.601 92.6502 174.819 98.9814 174.85 105.313C174.801 107.058 174.884 108.804 175.1 110.536C175.31 111.858 176.145 113.076 176.293 114.327C176.357 114.854 176.341 115.388 176.246 115.91C174.007 116.01 171.765 115.96 169.533 115.759C165.252 115.474 160.394 114.881 157.837 111.383C156.044 108.922 155.888 105.645 155.817 102.582C155.63 94.2092 155.591 85.8361 155.529 77.463C155.529 72.675 153.619 66.2171 154.289 61.6349C154.516 59.7431 155.242 57.9486 156.391 56.4412C157.539 54.9339 159.068 53.7697 160.815 53.0718C161.316 53.2385 161.802 53.4504 162.266 53.705C165.002 55.177 167.069 57.662 168.956 60.1629C169.94 61.4072 170.778 62.7645 171.451 64.2069C172.164 66.0981 172.606 68.0839 172.761 70.1029C173.244 74.2578 173.634 78.4286 173.954 82.6072C174.125 84.839 173.54 86.2477 175.911 86.675C177.926 87.0324 179.963 87.2518 182.008 87.3319C184.09 87.4269 186.554 87.1815 187.653 85.385C188.019 84.6912 188.181 83.9052 188.119 83.1207C188.056 82.3362 187.773 81.5865 187.302 80.9611C186.334 79.7257 185.022 78.8155 183.536 78.3494C182.086 77.8113 180.558 77.5105 179.092 77.0119C177.603 76.5501 176.228 75.7702 175.061 74.7248C173.885 73.6693 173.144 72.2026 172.987 70.6174" fill="url(#paint7_linear_476_455)"/>
    <path d="M164.854 51.7343C164.772 52.4945 164.803 53.263 164.948 54.0136C165.408 55.8734 167.155 57.0922 168.885 57.8598C169.954 58.3347 171.381 58.6512 172.152 57.7411C172.753 57.0368 172.605 55.9763 172.418 55.0583L171.388 50.0645C171.2 48.9469 170.899 47.8517 170.492 46.796C170.039 45.7276 167.053 41.3748 165.541 42.4828C164.909 42.9418 165.174 46.0758 165.135 46.8593L164.854 51.7343Z" fill="url(#paint8_linear_476_455)"/>
    <path d="M165.01 42.6253C165.436 44.6893 166.364 46.6125 167.708 48.2205C169.072 49.8328 170.996 50.8479 173.08 51.0537C173.84 51.1436 174.608 50.9915 175.279 50.6185C176.102 49.9636 176.705 49.0646 177.002 48.0464C178.772 43.6857 180.565 38.8898 179.224 34.363C178.887 32.9538 178.019 31.7348 176.807 30.9678C175.509 30.4049 174.057 30.3237 172.706 30.7383C170.367 31.2765 166.858 32.5111 165.345 34.5371C163.833 36.5631 164.495 40.4014 165.01 42.6253Z" fill="url(#paint9_linear_476_455)"/>
    <path d="M173.595 22.9746C171.881 22.1935 169.994 21.8853 168.125 22.0812C166.257 22.2772 164.472 22.9703 162.952 24.0905C160.987 25.5862 159.583 27.7389 157.579 29.1713C155.692 30.5246 153.408 31.1419 151.295 32.0916C151.038 32.2024 150.749 32.3686 150.702 32.6456C150.624 33.0729 151.116 33.3499 151.311 33.7377C151.607 34.3313 151.131 35.0119 150.687 35.5105L148.145 38.3279C147.833 38.603 147.622 38.9765 147.545 39.3884C147.459 40.4726 148.971 40.7813 150.04 40.6863L153.564 40.3697C151.492 41.7845 149.699 43.5802 148.277 45.6642C149.057 46.5031 150.5 46.1074 151.459 45.4664C152.418 44.8254 153.33 43.8836 154.468 43.9469C152.761 46.7406 158.11 46.6298 159.708 46.5902C161.066 46.5047 162.393 46.1385 163.607 45.5139C164.189 45.284 164.72 44.9367 165.166 44.493C165.39 44.2718 165.557 43.998 165.653 43.6957C165.748 43.3934 165.768 43.072 165.712 42.7598C165.623 42.4866 165.511 42.2218 165.377 41.9684C165.153 41.47 165.042 40.9276 165.05 40.3802C165.058 39.8328 165.186 39.2941 165.423 38.8027C165.501 38.6524 165.603 38.4862 165.774 38.4624C165.914 38.4576 166.05 38.5055 166.156 38.597L167.334 39.3884C167.27 37.7824 167.834 36.2159 168.903 35.0301C169.972 33.8443 171.459 33.1351 173.041 33.0571C175.474 32.9226 179.926 34.1413 179.341 30.1131C178.873 27.0899 176.254 24.2013 173.595 22.9746Z" fill="#3E3E54"/>
    <path d="M177.493 33.0176C177.954 32.8033 178.343 32.458 178.615 32.0236C178.886 31.5891 179.027 31.0842 179.021 30.5699C179.016 30.0557 178.863 29.5541 178.582 29.1261C178.301 28.6981 177.904 28.3619 177.439 28.1583C176.315 27.5493 175.045 27.275 173.774 27.3669C171.639 27.3185 169.522 27.7651 167.583 28.6727C164.932 30.0181 163.014 32.4952 160.566 34.2126C158.489 35.5384 156.21 36.5039 153.821 37.0696C152.722 37.2574 151.681 37.7017 150.78 38.3675C150.64 38.502 150.5 38.684 150.562 38.8661C150.607 38.949 150.671 39.0196 150.749 39.0718C151.049 39.2799 151.39 39.4195 151.748 39.481C152.106 39.5425 152.473 39.5244 152.823 39.428C153.229 39.3172 153.603 39.0956 153.977 38.9531C155.147 38.6604 156.37 38.6604 157.54 38.9531C159.181 39.273 160.87 39.2271 162.492 38.8186C163.853 38.2924 165.159 37.6296 166.39 36.8401C166.875 36.6003 167.411 36.4861 167.95 36.5077C167.538 37.3955 167.332 38.3676 167.349 39.3488L166.172 38.5574C166.111 38.5104 166.042 38.4764 165.969 38.4573C165.895 38.4383 165.818 38.4346 165.743 38.4466C165.579 38.4466 165.47 38.6366 165.392 38.7869C165.156 39.2789 165.03 39.8174 165.022 40.3645C165.014 40.9115 165.124 41.4536 165.345 41.9526C165.48 42.2046 165.59 42.4697 165.673 42.744C165.735 43.0548 165.72 43.3766 165.627 43.6796C165.534 43.9826 165.368 44.257 165.143 44.4771C164.69 44.9149 164.161 45.2638 163.583 45.506C162.367 46.1239 161.042 46.4872 159.685 46.5744C158.125 46.5744 152.753 46.7247 154.453 43.9311C153.314 43.9311 152.348 44.857 151.443 45.4506C150.539 46.0441 149.104 46.4794 148.262 45.6484C149.681 43.5626 151.475 41.7665 153.548 40.3539L150.024 40.6705C148.948 40.7654 147.443 40.4568 147.529 39.3726C147.606 38.9626 147.815 38.5899 148.121 38.3121L150.671 35.4947C151.116 34.9961 151.591 34.3155 151.295 33.7219C151.1 33.3341 150.609 33.0492 150.687 32.6298C150.734 32.3449 151.022 32.1866 151.279 32.0679C153.385 31.1261 155.677 30.485 157.564 29.1634C159.575 27.7309 160.979 25.5625 162.936 24.0826C164.454 22.9581 166.239 22.2617 168.108 22.0643C169.978 21.8669 171.865 22.1755 173.579 22.9588C176.23 24.2171 178.858 27.0741 179.294 30.0814C179.583 32.0362 178.733 32.7643 177.493 33.0176Z" fill="url(#paint10_linear_476_455)"/>
    <path d="M221.563 57.1238C223.769 56.6094 226.343 57.1238 227.738 58.9441C227.915 59.1475 228.024 59.4022 228.05 59.6722C228.058 59.7337 228.053 59.7962 228.036 59.8558C228.019 59.9155 227.99 59.971 227.952 60.0191C227.913 60.0671 227.865 60.1068 227.811 60.1356C227.757 60.1644 227.698 60.1817 227.637 60.1866H226.007C224.9 60.8772 223.874 61.6951 222.951 62.6241C221.607 63.7368 220.013 64.4952 218.311 64.8322C216.05 65.2833 213.243 63.7242 214.998 61.2312C216.37 59.2765 219.302 57.6541 221.563 57.1238Z" fill="url(#paint11_linear_476_455)"/>
    <path d="M217.649 77.5184C218.01 77.6951 218.327 77.9554 218.572 78.2783C218.817 78.6013 218.984 78.978 219.06 79.3782C219.072 79.5116 219.048 79.6458 218.99 79.766C218.779 80.1301 218.257 80.043 217.843 79.9718C215.153 79.4811 212.596 81.61 209.859 81.5546C208.607 81.5218 207.416 80.9969 206.538 80.0905C205.758 79.2437 204.978 77.6451 205.415 76.4579C205.875 75.0967 207.434 75.073 208.651 75.0334C211.829 74.9139 214.968 75.7808 217.649 77.5184Z" fill="url(#paint12_linear_476_455)"/>
    <path d="M235.449 47.8485L246.053 39.7049C246.053 39.7049 248.658 38.8186 249.531 39.9265C250.404 41.0345 249.422 74.796 249.422 74.796L236.291 81.0718L235.449 47.8485Z" fill="#7497F7"/>
    <path d="M235.605 47.9435L246.233 39.7999C246.233 39.7999 248.837 38.9135 249.71 40.0215C250.584 41.1295 249.445 74.8434 249.445 74.8434L236.471 81.1747L235.605 47.9435Z" fill="url(#paint13_linear_476_455)"/>
    <path d="M238.748 47.7852L249.71 40.0294C249.71 40.0294 247.753 38.597 246.233 39.8078C244.713 41.0187 235.605 47.9435 235.605 47.9435L238.748 47.7852Z" fill="url(#paint14_linear_476_455)"/>
    <path d="M235.044 167.81C235.129 168.024 235.254 168.22 235.41 168.388C235.607 168.554 235.839 168.67 236.089 168.728C236.728 168.909 237.398 168.946 238.052 168.836C238.707 168.727 239.33 168.474 239.878 168.095C240.333 167.801 240.689 167.373 240.899 166.868C241.097 166.081 241.045 165.25 240.751 164.494L240.104 162.215C240.099 162.183 240.086 162.153 240.065 162.128C240.011 162.128 239.94 162.128 239.886 162.128C238.007 163.267 235.792 162.128 233.999 162.919C232.486 163.663 234.49 166.655 235.044 167.81Z" fill="url(#paint15_linear_476_455)"/>
    <path d="M237.227 167.652C236.595 167.691 235.967 167.778 235.348 167.913C235.041 167.989 234.757 168.144 234.525 168.363C234.293 168.582 234.12 168.858 234.023 169.163C233.97 169.766 234.127 170.368 234.467 170.865C234.919 171.712 235.372 172.559 235.855 173.39C236.115 173.946 236.53 174.414 237.048 174.735C237.573 174.948 238.15 174.992 238.701 174.862C240.358 174.539 241.969 174.007 243.496 173.279C246.615 171.944 249.711 170.517 252.783 168.997C253.289 168.744 253.851 168.42 253.952 167.858C253.978 167.661 253.957 167.462 253.89 167.276C253.824 167.09 253.714 166.923 253.57 166.789C253.277 166.527 252.939 166.323 252.572 166.188C250.383 165.336 248.081 164.822 245.742 164.66C244.915 164.573 243.527 164.178 242.756 164.557C241.984 164.937 241.243 165.871 240.416 166.378C239.454 167.027 238.367 167.461 237.227 167.652Z" fill="#3E3E54"/>
    <path d="M205.656 81.0323C204.298 81.8654 202.785 82.4043 201.212 82.6151L192.752 84.3483C190.895 84.8229 188.982 85.0359 187.068 84.9814C185.33 84.7887 183.626 84.3602 182 83.7072C175.435 81.333 165.026 78.5393 159.989 73.3635C156.176 69.4065 157.112 61.5716 162.039 59.6089C162.977 59.2402 163.984 59.0888 164.987 59.1657C169.166 59.4348 172.004 63.3364 175.216 66.0826C182.109 72.0498 191.731 73.0865 200.791 73.7672H200.978H201.586C203.925 73.9413 206.81 74.5586 207.45 76.8299C207.847 78.4365 206.959 80.1063 205.656 81.0323Z" fill="#7497F7"/>
    <path d="M213.36 94.0351L236.471 81.1827L238.748 47.8169C238.748 47.8169 235.239 46.3449 234.95 49.7242C234.662 53.1035 232.206 78.4998 232.206 78.4998L212.245 89.2154C212.245 89.2154 209.274 92.2624 213.36 94.0351Z" fill="#7497F7"/>
    <path d="M124.878 214.844C118.889 224.203 109.912 231.189 99.4519 234.629L103.428 225.971C98.4382 232.239 93.4091 238.538 87.4989 243.928C81.5887 249.317 74.6882 253.789 67.0002 255.799C66.2205 254.651 67.0548 253.116 67.8813 252C73.3529 244.608 79.4274 237.695 86.0408 231.336C70.813 240.335 55.5229 249.365 39.1411 255.949C49.6736 241.116 62.2817 227.921 76.5673 216.782L66.5246 219.41C78.3362 205.481 92.5715 193.875 108.52 185.174C115.062 194.267 120.278 204.642 124.878 214.844Z" fill="#7497F7"/>
    <path d="M124.878 214.844C118.889 224.203 109.912 231.189 99.4519 234.629L103.428 225.971C98.4382 232.239 93.4091 238.538 87.4989 243.928C81.5887 249.317 74.6882 253.789 67.0002 255.799C66.2205 254.651 67.0548 253.116 67.8813 252C73.3529 244.608 79.4274 237.695 86.0408 231.336C70.813 240.335 55.5229 249.365 39.1411 255.949C49.6736 241.116 62.2817 227.921 76.5673 216.782L66.5246 219.41C78.3362 205.481 92.5715 193.875 108.52 185.174C115.062 194.267 120.278 204.642 124.878 214.844Z" fill="url(#paint16_linear_476_455)"/>
    <path d="M93.2299 206.328C92.8634 206.842 92.4969 207.531 92.8166 208.077C93.0623 208.388 93.4067 208.604 93.7913 208.686L96.7932 209.691C92.9266 213.144 89.3629 216.93 86.1423 221.009C85.6043 221.689 85.0819 222.726 85.6979 223.335C85.99 223.579 86.357 223.71 86.7349 223.707C90.9063 224.087 94.7971 221.745 98.3526 219.497C97.7066 221.881 96.5868 224.106 95.0622 226.034C99.0855 225.243 102.727 223.13 105.978 220.668C109.23 218.207 112.294 215.39 115.647 213.007L114.539 215.936C116.591 214.565 118.36 212.802 119.748 210.744C120.082 210.376 120.293 209.909 120.351 209.412C120.408 208.914 120.309 208.411 120.068 207.974C118.395 203.375 116.002 199.081 112.98 195.256C112.461 194.517 111.797 193.895 111.031 193.428C108.582 192.122 103.475 196.372 101.51 197.836C98.3285 200.208 95.5342 203.074 93.2299 206.328Z" fill="#7497F7"/>
    <path d="M93.2299 206.328C92.8634 206.842 92.4969 207.531 92.8166 208.077C93.0623 208.388 93.4067 208.604 93.7913 208.686L96.7932 209.691C92.9266 213.144 89.3629 216.93 86.1423 221.009C85.6043 221.689 85.0819 222.726 85.6979 223.335C85.99 223.579 86.357 223.71 86.7349 223.707C90.9063 224.087 94.7971 221.745 98.3526 219.497C97.7066 221.881 96.5868 224.106 95.0622 226.034C99.0855 225.243 102.727 223.13 105.978 220.668C109.23 218.207 112.294 215.39 115.647 213.007L114.539 215.936C116.591 214.565 118.36 212.802 119.748 210.744C120.082 210.376 120.293 209.909 120.351 209.412C120.408 208.914 120.309 208.411 120.068 207.974C118.395 203.375 116.002 199.081 112.98 195.256C112.461 194.517 111.797 193.895 111.031 193.428C108.582 192.122 103.475 196.372 101.51 197.836C98.3285 200.208 95.5342 203.074 93.2299 206.328Z" fill="url(#paint17_linear_476_455)"/>
    <path d="M204.261 76.7903C203.793 76.9763 203.288 77.0494 202.787 77.004C197.579 77.004 192.331 76.9249 187.193 75.9989C182.055 75.073 176.987 73.2211 172.932 69.9051C170.071 67.5309 167.809 64.5947 164.94 62.2838C164.16 61.627 162.133 60.8039 162.032 59.6089C162.969 59.2402 163.976 59.0888 164.979 59.1657C169.158 59.4348 171.996 63.3364 175.209 66.0826C182.102 72.0498 191.723 73.0865 200.783 73.7672H200.971C202.117 73.864 203.231 74.2066 204.238 74.7722C204.55 74.9262 204.792 75.195 204.916 75.5241C204.967 75.7794 204.93 76.0448 204.81 76.2755C204.691 76.5062 204.497 76.688 204.261 76.7903Z" fill="url(#paint18_linear_476_455)"/>
    <path d="M340.492 60.4873L339.533 65.8847C336.843 75.6761 333.019 85.1095 328.141 93.9876C317.28 114.192 297.405 140.641 261.359 165.214C204.744 203.883 155.061 210.325 136.73 211.306L130.492 202.513C273.866 159.548 307.736 90.7903 311.682 90.2205C315.627 89.6507 327.494 60.4319 327.494 60.4319L340.492 60.4873Z" fill="url(#paint19_linear_476_455)"/>
  </g>
  <defs>
    <linearGradient id="paint0_linear_476_455" x1="75.281" y1="166.845" x2="144.083" y2="166.845" gradientUnits="userSpaceOnUse">
      <stop stop-opacity="0"/>
      <stop offset="0.99"/>
    </linearGradient>
    <linearGradient id="paint1_linear_476_455" x1="127.514" y1="222.655" x2="176.495" y2="222.655" gradientUnits="userSpaceOnUse">
      <stop stop-opacity="0" stop-color="#000"/>
      <stop offset="0.99"/>
    </linearGradient>
    <linearGradient id="paint2_linear_476_455" x1="207.731" y1="47.2866" x2="154.56" y2="112.977" gradientUnits="userSpaceOnUse">
      <stop stop-opacity="0"/>
      <stop offset="0.99"/>
    </linearGradient>
    <linearGradient id="paint3_linear_476_455" x1="185.088" y1="94.6999" x2="199.232" y2="109.384" gradientUnits="userSpaceOnUse">
      <stop stop-opacity="0"/>
      <stop offset="0.99"/>
    </linearGradient>
    <linearGradient id="paint4_linear_476_455" x1="174.765" y1="73.229" x2="265.789" y2="153.879" gradientUnits="userSpaceOnUse">
      <stop stop-opacity="0"/>
      <stop offset="0.99"/>
    </linearGradient>
    <linearGradient id="paint5_linear_476_455" x1="316.657" y1="65.5998" x2="345.982" y2="89.6171" gradientUnits="userSpaceOnUse">
      <stop stop-opacity="0"/>
      <stop offset="0.99"/>
    </linearGradient>
    <linearGradient id="paint6_linear_476_455" x1="161.174" y1="136.146" x2="240.837" y2="136.146" gradientUnits="userSpaceOnUse">
      <stop stop-opacity="0"/>
      <stop offset="0.99"/>
    </linearGradient>
    <linearGradient id="paint7_linear_476_455" x1="220.167" y1="78.7768" x2="28.2687" y2="99.3175" gradientUnits="userSpaceOnUse">
      <stop stop-opacity="0"/>
      <stop offset="0.99"/>
    </linearGradient>
    <linearGradient id="paint8_linear_476_455" x1="164.815" y1="50.3098" x2="172.581" y2="50.3098" gradientUnits="userSpaceOnUse">
      <stop stop-color="#E5C5D5"/>
      <stop offset="0.42" stop-color="#EAD4D1"/>
      <stop offset="1" stop-color="#F0E9CB"/>
    </linearGradient>
    <linearGradient id="paint9_linear_476_455" x1="164.433" y1="40.7813" x2="179.692" y2="40.7813" gradientUnits="userSpaceOnUse">
      <stop stop-color="#E5C5D5"/>
      <stop offset="0.42" stop-color="#EAD4D1"/>
      <stop offset="1" stop-color="#F0E9CB"/>
    </linearGradient>
    <linearGradient id="paint10_linear_476_455" x1="164.706" y1="21.4472" x2="162.473" y2="45.2071" gradientUnits="userSpaceOnUse">
      <stop stop-opacity="0"/>
      <stop offset="0.99"/>
    </linearGradient>
    <linearGradient id="paint11_linear_476_455" x1="214.452" y1="60.9226" x2="228.05" y2="60.9226" gradientUnits="userSpaceOnUse">
      <stop stop-color="#E5C5D5"/>
      <stop offset="0.42" stop-color="#EAD4D1"/>
      <stop offset="1" stop-color="#F0E9CB"/>
    </linearGradient>
    <linearGradient id="paint12_linear_476_455" x1="205.889" y1="75.4945" x2="217.893" y2="81.8462" gradientUnits="userSpaceOnUse">
      <stop stop-color="#E5C5D5"/>
      <stop offset="0.42" stop-color="#EAD4D1"/>
      <stop offset="1" stop-color="#F0E9CB"/>
    </linearGradient>
    <linearGradient id="paint13_linear_476_455" x1="243.036" y1="37.6789" x2="241.871" y2="98.7908" gradientUnits="userSpaceOnUse">
      <stop stop-opacity="0"/>
      <stop offset="0.99"/>
    </linearGradient>
    <linearGradient id="paint14_linear_476_455" x1="240.9" y1="41.9288" x2="245.903" y2="47.561" gradientUnits="userSpaceOnUse">
      <stop stop-opacity="0"/>
      <stop offset="0.99"/>
    </linearGradient>
    <linearGradient id="paint15_linear_476_455" x1="233.445" y1="165.507" x2="241.032" y2="165.507" gradientUnits="userSpaceOnUse">
      <stop stop-color="#E5C5D5"/>
      <stop offset="0.42" stop-color="#EAD4D1"/>
      <stop offset="1" stop-color="#F0E9CB"/>
    </linearGradient>
    <linearGradient id="paint16_linear_476_455" x1="156.098" y1="218.088" x2="36.4235" y2="222.168" gradientUnits="userSpaceOnUse">
      <stop offset="0.02" stop-color="white" stop-opacity="0"/>
      <stop offset="0.58" stop-color="white" stop-opacity="0.39"/>
      <stop offset="0.68" stop-color="white" stop-opacity="0.68"/>
      <stop offset="1" stop-color="white"/>
    </linearGradient>
    <linearGradient id="paint17_linear_476_455" x1="171.061" y1="184.018" x2="65.3207" y2="222.339" gradientUnits="userSpaceOnUse">
      <stop offset="0.02" stop-color="white" stop-opacity="0"/>
      <stop offset="0.58" stop-color="white" stop-opacity="0.39"/>
      <stop offset="0.68" stop-color="white" stop-opacity="0.68"/>
      <stop offset="1" stop-color="white"/>
    </linearGradient>
    <linearGradient id="paint18_linear_476_455" x1="188.737" y1="55.0899" x2="165.578" y2="109.554" gradientUnits="userSpaceOnUse">
      <stop offset="0.02" stop-color="white" stop-opacity="0"/>
      <stop offset="0.58" stop-color="white" stop-opacity="0.39"/>
      <stop offset="0.68" stop-color="white" stop-opacity="0.68"/>
      <stop offset="1" stop-color="white"/>
    </linearGradient>
    <linearGradient id="paint19_linear_476_455" x1="233.453" y1="116.408" x2="249.727" y2="233.218" gradientUnits="userSpaceOnUse">
      <stop stop-opacity="0"/>
      <stop offset="0.99"/>
    </linearGradient>
    <clipPath id="clip0_476_455">
      <rect width="380" height="290.7" fill="white"/>
    </clipPath>
  </defs>
</svg>
