<svg viewBox="0 0 975 675" fill="none" xmlns="http://www.w3.org/2000/svg">
  <path
    d="M103.67 515.31C103.326 514.495 102.825 513.755 102.195 513.133C101.565 512.511 100.819 512.02 99.999 511.686C99.1791 511.353 98.3015 511.184 97.4164 511.19C96.5313 511.196 95.656 511.376 94.8405 511.72C94.0241 512.063 93.2833 512.564 92.6605 513.193C92.0377 513.823 91.545 514.569 91.2107 515.389C90.8764 516.209 90.7069 517.087 90.712 517.972C90.7171 518.858 90.8967 519.734 91.2405 520.55C95.3697 530.287 101.407 539.099 108.997 546.465C116.586 553.832 125.574 559.603 135.43 563.44C136.257 563.759 137.137 563.912 138.023 563.891C138.908 563.87 139.78 563.674 140.59 563.316C141.4 562.958 142.131 562.443 142.742 561.802C143.353 561.161 143.831 560.406 144.15 559.58C144.47 558.754 144.623 557.873 144.602 556.988C144.58 556.103 144.385 555.23 144.026 554.421C143.668 553.611 143.154 552.88 142.513 552.269C141.872 551.658 141.117 551.179 140.29 550.86C132.122 547.68 124.673 542.896 118.384 536.79C112.094 530.684 107.092 523.381 103.67 515.31Z"
    fill="white"/>
  <path
    d="M313.11 426.61C300.662 397.118 279.791 371.954 253.109 354.268C226.427 336.582 195.121 327.159 163.11 327.18C121.98 327.126 82.3629 342.691 52.2703 370.73C50.9684 371.916 50.172 373.557 50.0454 375.314C49.9189 377.071 50.4719 378.809 51.5903 380.17C52.1807 380.864 52.9056 381.43 53.7212 381.836C54.5368 382.242 55.4262 382.478 56.3356 382.53C57.245 382.583 58.1556 382.45 59.0123 382.141C59.8691 381.831 60.6542 381.351 61.3203 380.73C69.492 373.119 78.4877 366.445 88.1403 360.83C89.0325 360.298 90.0499 360.013 91.0885 360.004C92.1271 359.995 93.1494 360.262 94.0509 360.778C94.9523 361.293 95.7005 362.04 96.2187 362.94C96.737 363.84 97.0067 364.861 97.0003 365.9C97.69 367.596 97.7517 369.483 97.1742 371.221C96.5968 372.959 95.4181 374.434 93.8503 375.38C91.0036 377.113 88.2136 378.95 85.4803 380.89C63.3059 396.62 46.4591 418.742 37.1903 444.3C36.5799 445.976 36.6579 447.826 37.4075 449.445C38.157 451.064 39.5171 452.321 41.1903 452.94C42.8667 453.55 44.7166 453.472 46.3357 452.723C47.9547 451.973 49.2111 450.613 49.8303 448.94C52.5586 441.404 56.036 434.161 60.2103 427.32C61.1907 425.718 62.7429 424.548 64.5528 424.047C66.3628 423.546 68.2955 423.751 69.9603 424.62C70.8018 425.092 71.539 425.73 72.1276 426.494C72.7161 427.259 73.1438 428.135 73.3849 429.069C73.6259 430.004 73.6754 430.977 73.5302 431.931C73.3851 432.885 73.0483 433.8 72.5403 434.62C60.7503 453.923 55.4303 476.486 57.3549 499.024C59.2794 521.561 68.3481 542.895 83.2403 559.92C84.4479 561.287 85.0882 563.063 85.0306 564.886C84.973 566.71 84.2218 568.442 82.9303 569.73C82.2312 570.419 81.3983 570.958 80.4831 571.313C79.5679 571.667 78.5897 571.831 77.6088 571.794C76.6279 571.756 75.6651 571.518 74.7796 571.095C73.8941 570.671 73.1048 570.07 72.4603 569.33C57.3944 552.146 47.5484 531.018 44.0803 508.43C43.8092 506.661 42.8468 505.073 41.4048 504.013C39.9628 502.954 38.1592 502.51 36.3903 502.78C35.5148 502.914 34.6744 503.22 33.9171 503.679C33.1597 504.138 32.5003 504.742 31.9765 505.456C31.4527 506.17 31.0748 506.981 30.8644 507.841C30.654 508.701 30.6152 509.595 30.7503 510.47C32.3989 521.176 35.3508 531.641 39.5403 541.63C39.9366 542.568 40.143 543.576 40.1476 544.594C40.1522 545.613 39.955 546.622 39.5672 547.564C39.1795 548.506 38.609 549.362 37.8886 550.082C37.1682 550.802 36.3123 551.373 35.3703 551.76H35.3203C33.4468 552.528 31.3459 552.526 29.4736 551.755C27.6014 550.984 26.109 549.505 25.3203 547.64C17.6581 529.392 13.7373 509.791 13.7903 490C13.7718 463.327 20.9063 437.138 34.4503 414.16C35.3592 412.619 35.619 410.78 35.1727 409.047C34.7265 407.315 33.6106 405.83 32.0703 404.92C31.308 404.47 30.4645 404.175 29.5881 404.051C28.7117 403.927 27.8195 403.977 26.9624 404.198C26.1053 404.419 25.3001 404.807 24.5929 405.339C23.8856 405.871 23.2901 406.538 22.8403 407.3C8.0658 432.355 0.282038 460.914 0.300298 490C0.238118 515.139 6.06002 539.944 17.3003 562.43C28.1467 584.139 43.6687 603.176 62.7503 618.17C63.9359 619.103 65.4013 619.611 66.9103 619.61C68.0769 619.612 69.224 619.311 70.2391 618.736C71.2541 618.161 72.1023 617.332 72.7003 616.33C73.5362 614.888 73.8176 613.19 73.4917 611.556C73.1659 609.921 72.2552 608.461 70.9303 607.45C63.6426 601.71 56.9036 595.306 50.8003 588.32C49.4583 586.789 48.7583 584.8 48.8458 582.766C48.9334 580.732 49.8017 578.81 51.2703 577.4C52.0303 576.709 52.9206 576.178 53.8891 575.837C54.8575 575.495 55.8844 575.351 56.9093 575.413C57.9343 575.474 58.9366 575.74 59.8572 576.195C60.7779 576.649 61.5983 577.284 62.2703 578.06C74.3337 591.857 89.0843 603.048 105.62 610.95C106.525 611.385 107.516 611.611 108.52 611.61C109.948 611.609 111.338 611.155 112.492 610.314C113.645 609.474 114.503 608.289 114.94 606.93C115.43 605.349 115.328 603.644 114.655 602.132C113.982 600.62 112.783 599.404 111.28 598.71C108.047 597.163 104.907 595.497 101.86 593.71C100.941 593.218 100.141 592.531 99.5145 591.697C98.8885 590.863 98.4521 589.903 98.2359 588.883C98.0197 587.863 98.0289 586.808 98.2629 585.792C98.4968 584.775 98.9498 583.823 99.5903 583C100.657 581.617 102.194 580.674 103.909 580.348C105.625 580.022 107.4 580.335 108.9 581.23C128.917 593.08 152.265 598.043 175.37 595.36C176.293 595.317 177.198 595.085 178.027 594.678C178.856 594.271 179.593 593.698 180.192 592.994C180.791 592.29 181.238 591.471 181.507 590.587C181.775 589.703 181.859 588.773 181.754 587.855C181.648 586.938 181.355 586.051 180.892 585.252C180.429 584.452 179.807 583.756 179.064 583.207C178.321 582.658 177.473 582.267 176.572 582.06C175.672 581.852 174.739 581.832 173.83 582C170.269 582.413 166.686 582.62 163.1 582.62C139.202 582.62 116.229 573.381 98.984 556.835C81.7394 540.29 71.5586 517.718 70.5703 493.84C70.4382 490.48 70.4816 487.115 70.7003 483.76C70.7868 482.263 71.305 480.823 72.1923 479.615C73.0796 478.406 74.2981 477.481 75.7003 476.95C76.7292 476.546 77.8439 476.409 78.94 476.553C80.0361 476.697 81.0777 477.117 81.9671 477.774C82.8565 478.43 83.5647 479.302 84.0253 480.307C84.4858 481.312 84.6837 482.418 84.6003 483.52C84.427 485.607 84.3403 487.72 84.3403 489.86C84.3572 491.559 84.9914 493.194 86.1248 494.46C87.2583 495.726 88.8134 496.536 90.5003 496.74C91.435 496.823 92.3768 496.711 93.2656 496.41C94.1544 496.109 94.9707 495.626 95.6624 494.992C96.354 494.357 96.9058 493.586 97.2825 492.726C97.6593 491.867 97.8526 490.938 97.8503 490C97.8503 472.695 104.725 456.098 116.962 443.861C129.198 431.624 145.795 424.75 163.1 424.75C180.406 424.75 197.002 431.624 209.239 443.861C221.476 456.098 228.35 472.695 228.35 490C228.348 493.544 228.064 497.081 227.5 500.58C227.199 502.266 227.537 504.004 228.449 505.454C229.36 506.904 230.78 507.961 232.43 508.42C232.982 508.565 233.55 508.639 234.12 508.64C235.717 508.638 237.261 508.07 238.478 507.038C239.696 506.005 240.508 504.575 240.77 503C241.483 498.703 241.84 494.355 241.84 490C241.842 483.039 240.921 476.109 239.1 469.39C238.663 467.823 238.793 466.152 239.468 464.671C240.144 463.191 241.32 461.997 242.79 461.3L242.91 461.24C243.821 460.812 244.815 460.589 245.822 460.587C246.828 460.584 247.823 460.802 248.736 461.225C249.649 461.649 250.458 462.267 251.107 463.036C251.756 463.806 252.228 464.708 252.49 465.68C254.623 473.577 255.705 481.72 255.71 489.9C255.741 491.575 256.372 493.183 257.487 494.432C258.603 495.682 260.13 496.49 261.79 496.71C262.727 496.802 263.672 496.697 264.566 496.402C265.459 496.107 266.281 495.627 266.978 494.995C267.675 494.363 268.232 493.592 268.613 492.732C268.994 491.872 269.191 490.941 269.19 490C269.192 483.873 268.67 477.758 267.63 471.72C267.32 469.974 267.696 468.175 268.68 466.699C269.663 465.224 271.179 464.185 272.91 463.8L273.46 463.68C274.373 463.478 275.317 463.464 276.235 463.639C277.153 463.813 278.026 464.172 278.801 464.694C279.576 465.215 280.237 465.889 280.744 466.674C281.251 467.459 281.594 468.339 281.75 469.26C282.931 476.11 283.523 483.049 283.52 490C283.518 494.386 283.284 498.769 282.82 503.13C282.617 504.833 283.06 506.551 284.061 507.943C285.063 509.336 286.551 510.301 288.23 510.65C288.652 510.729 289.081 510.769 289.51 510.77C291.169 510.768 292.769 510.155 294.005 509.048C295.241 507.942 296.026 506.419 296.21 504.77C296.74 499.864 297.003 494.934 297 490C297 487.91 297 485.84 296.86 483.77C296.783 481.967 297.413 480.205 298.616 478.86C299.819 477.515 301.5 476.693 303.3 476.57L304.93 476.47C305.843 476.412 306.757 476.536 307.621 476.835C308.485 477.134 309.281 477.602 309.962 478.212C310.644 478.821 311.197 479.56 311.59 480.386C311.982 481.211 312.207 482.107 312.25 483.02C312.35 485.34 312.41 487.66 312.41 490.02C312.415 500.519 311.316 510.99 309.13 521.26C308.778 522.969 309.077 524.749 309.969 526.249C310.86 527.749 312.28 528.862 313.95 529.37C314.521 529.524 315.109 529.602 315.7 529.6C317.241 529.597 318.735 529.067 319.932 528.097C321.129 527.127 321.958 525.777 322.28 524.27C324.69 513.006 325.904 501.519 325.9 490C325.945 468.225 321.595 446.664 313.11 426.61ZM131.8 344C158.127 338.372 185.483 339.93 211 348.51C212.936 349.173 214.53 350.578 215.43 352.416C216.33 354.254 216.463 356.374 215.8 358.31C215.137 360.246 213.732 361.839 211.894 362.74C210.057 363.64 207.936 363.773 206 363.11C192.174 358.44 177.674 356.075 163.08 356.11C152.88 356.093 142.711 357.237 132.77 359.52C131.99 359.753 131.166 359.795 130.367 359.641C129.567 359.487 128.817 359.143 128.179 358.638C127.541 358.132 127.034 357.481 126.702 356.738C126.37 355.995 126.222 355.182 126.27 354.37C125.857 353.33 125.676 352.214 125.738 351.097C125.8 349.98 126.105 348.89 126.632 347.903C127.158 346.916 127.893 346.056 128.786 345.382C129.678 344.708 130.707 344.236 131.8 344ZM175.61 405.18C175.44 406.977 174.576 408.637 173.202 409.808C171.828 410.978 170.052 411.567 168.25 411.45C166.54 411.34 164.83 411.28 163.1 411.28C149.552 411.287 136.235 414.787 124.436 421.444C112.636 428.1 102.752 437.688 95.7403 449.28C94.9114 450.657 93.634 451.706 92.1226 452.253C90.6113 452.799 88.9579 452.809 87.4403 452.28C86.4731 451.927 85.5957 451.364 84.8708 450.633C84.1459 449.901 83.5913 449.019 83.2465 448.049C82.9018 447.078 82.7753 446.044 82.8762 445.019C82.9771 443.994 83.3029 443.004 83.8303 442.12C92.0922 428.486 103.725 417.208 117.608 409.372C131.492 401.537 147.158 397.407 163.1 397.38C165.1 397.38 167.1 397.447 169.1 397.58C170.028 397.642 170.933 397.888 171.765 398.303C172.596 398.719 173.336 399.296 173.942 400C174.548 400.705 175.008 401.523 175.294 402.407C175.581 403.292 175.688 404.224 175.61 405.15V405.18ZM224.86 396.56C223.769 397.774 222.295 398.579 220.684 398.841C219.073 399.103 217.42 398.806 216 398C211.576 395.447 206.97 393.221 202.22 391.34C201.344 390.994 200.545 390.479 199.868 389.824C199.192 389.169 198.65 388.387 198.276 387.523C197.901 386.659 197.7 385.73 197.685 384.788C197.669 383.846 197.839 382.911 198.185 382.035C198.531 381.159 199.046 380.36 199.701 379.683C200.356 379.006 201.138 378.465 202.002 378.09C202.866 377.716 203.796 377.515 204.737 377.499C205.679 377.484 206.614 377.654 207.49 378C212.888 380.143 218.121 382.676 223.15 385.58C224.066 386.116 224.851 386.848 225.449 387.725C226.047 388.602 226.442 389.601 226.605 390.649C226.769 391.697 226.697 392.769 226.396 393.786C226.094 394.803 225.569 395.741 224.86 396.53V396.56ZM262.51 390.18L262.33 390.33C260.932 391.525 259.147 392.172 257.308 392.15C255.468 392.128 253.7 391.438 252.33 390.21C249.57 387.74 246.72 385.38 243.79 383.16C242.946 382.561 242.231 381.798 241.688 380.917C241.144 380.036 240.784 379.054 240.628 378.031C240.473 377.007 240.525 375.963 240.781 374.96C241.038 373.957 241.494 373.016 242.122 372.193C242.75 371.37 243.537 370.682 244.437 370.17C245.337 369.658 246.33 369.333 247.359 369.213C248.387 369.093 249.429 369.182 250.422 369.473C251.415 369.765 252.34 370.253 253.14 370.91C256.38 373.37 259.527 375.967 262.58 378.7C263.392 379.419 264.04 380.303 264.482 381.294C264.923 382.284 265.148 383.357 265.142 384.441C265.135 385.525 264.897 386.595 264.443 387.58C263.989 388.564 263.33 389.441 262.51 390.15V390.18Z"
    fill="white"/>
  <path
    d="M589.44 542.9C578.941 550.414 567.513 556.535 555.44 561.11C553.965 561.67 552.733 562.73 551.958 564.105C551.182 565.48 550.914 567.083 551.198 568.635C551.482 570.187 552.301 571.591 553.513 572.602C554.724 573.614 556.252 574.168 557.83 574.17C558.644 574.171 559.451 574.021 560.21 573.73C573.375 568.739 585.836 562.06 597.28 553.86C598.003 553.344 598.616 552.692 599.086 551.939C599.556 551.187 599.873 550.349 600.02 549.474C600.166 548.598 600.138 547.703 599.939 546.838C599.739 545.974 599.371 545.157 598.855 544.435C598.34 543.713 597.687 543.099 596.935 542.629C596.182 542.159 595.344 541.842 594.469 541.695C593.594 541.549 592.698 541.577 591.834 541.777C590.969 541.976 590.153 542.344 589.43 542.86L589.44 542.9Z"
    fill="white"/>
  <path
    d="M443.16 446.75C442.464 445.102 441.142 443.797 439.484 443.124C437.826 442.451 435.969 442.464 434.32 443.16C432.672 443.856 431.368 445.179 430.695 446.837C430.021 448.494 430.034 450.352 430.73 452C434.859 461.736 440.895 470.547 448.483 477.913C456.071 485.279 465.056 491.052 474.91 494.89C476.579 495.536 478.435 495.492 480.071 494.77C481.707 494.047 482.99 492.703 483.635 491.035C484.281 489.367 484.238 487.51 483.515 485.874C482.792 484.238 481.449 482.956 479.78 482.31C471.61 479.13 464.16 474.345 457.87 468.237C451.581 462.13 446.579 454.823 443.16 446.75Z"
    fill="white"/>
  <path
    d="M511.27 486.11C508.429 486.483 505.566 486.67 502.7 486.67C501.037 486.663 499.428 487.262 498.175 488.355C496.921 489.449 496.109 490.961 495.89 492.61C495.777 493.557 495.866 494.517 496.151 495.427C496.436 496.337 496.911 497.177 497.544 497.89C498.177 498.604 498.954 499.175 499.824 499.566C500.694 499.957 501.637 500.16 502.59 500.16C506.086 500.159 509.577 499.922 513.04 499.45C514.78 499.181 516.344 498.242 517.399 496.833C518.454 495.424 518.915 493.658 518.684 491.914C518.453 490.169 517.547 488.584 516.161 487.5C514.775 486.415 513.02 485.916 511.27 486.11Z"
    fill="white"/>
  <path
    d="M549.071 539.21C548.383 537.702 547.162 536.502 545.642 535.841C544.123 535.18 542.412 535.105 540.841 535.63C521.171 542.193 500.146 543.591 479.781 539.69C478.053 539.423 476.289 539.836 474.86 540.844C473.431 541.851 472.449 543.373 472.12 545.09C471.791 546.807 472.14 548.584 473.096 550.049C474.051 551.513 475.537 552.549 477.241 552.94C499.872 557.261 523.233 555.705 545.091 548.42C545.991 548.123 546.818 547.638 547.518 546.999C548.218 546.36 548.775 545.58 549.153 544.711C549.53 543.841 549.72 542.902 549.709 541.954C549.699 541.006 549.488 540.071 549.091 539.21H549.071Z"
    fill="white"/>
  <path
    d="M652.59 358.05C642.398 333.943 626.545 312.647 606.374 295.968C586.204 279.289 562.31 267.718 536.717 262.235C511.124 256.752 484.587 257.519 459.353 264.47C434.12 271.422 410.934 284.354 391.76 302.17C390.457 303.353 389.659 304.993 389.533 306.749C389.406 308.505 389.96 310.242 391.08 311.6C391.669 312.296 392.393 312.864 393.209 313.272C394.024 313.679 394.913 313.917 395.823 313.97C396.733 314.023 397.644 313.891 398.501 313.582C399.359 313.272 400.144 312.792 400.81 312.17C408.978 304.552 417.974 297.873 427.63 292.26C428.523 291.744 429.535 291.471 430.566 291.471C431.597 291.47 432.609 291.741 433.502 292.255C434.396 292.77 435.137 293.511 435.653 294.404C436.169 295.296 436.44 296.309 436.44 297.34C437.127 299.038 437.186 300.925 436.607 302.662C436.028 304.4 434.848 305.874 433.28 306.82C430.44 308.54 427.64 310.38 424.91 312.33C402.752 328.065 385.923 350.187 376.67 375.74C376.06 377.421 376.143 379.276 376.901 380.897C377.659 382.517 379.029 383.77 380.71 384.38C382.392 384.99 384.247 384.907 385.867 384.149C387.487 383.392 388.74 382.021 389.35 380.34C392.085 372.807 395.562 365.565 399.73 358.72C400.713 357.117 402.266 355.947 404.077 355.444C405.888 354.941 407.822 355.143 409.49 356.01C410.329 356.485 411.063 357.124 411.649 357.889C412.235 358.654 412.661 359.529 412.902 360.463C413.143 361.396 413.193 362.368 413.05 363.321C412.907 364.274 412.574 365.188 412.07 366.01C400.275 385.309 394.951 407.871 396.874 430.408C398.797 452.944 407.866 474.278 422.76 491.3C423.973 492.666 424.617 494.445 424.559 496.272C424.501 498.098 423.747 499.833 422.45 501.12C421.753 501.811 420.92 502.351 420.005 502.708C419.091 503.065 418.112 503.23 417.131 503.193C416.149 503.157 415.186 502.919 414.3 502.496C413.414 502.072 412.625 501.471 411.98 500.73C396.913 483.544 387.067 462.412 383.6 439.82C383.273 438.108 382.295 436.589 380.873 435.581C379.451 434.573 377.694 434.154 375.97 434.413C374.246 434.671 372.689 435.587 371.624 436.967C370.56 438.348 370.071 440.087 370.26 441.82C371.894 452.55 374.829 463.04 379 473.06C379.398 473.998 379.607 475.006 379.613 476.025C379.619 477.045 379.423 478.055 379.036 478.998C378.649 479.941 378.079 480.798 377.359 481.519C376.639 482.24 375.783 482.812 374.84 483.2H374.79C372.916 483.968 370.814 483.964 368.941 483.191C367.069 482.418 365.577 480.937 364.79 479.07C355.846 457.634 352.015 434.41 353.599 411.237C355.184 388.065 362.141 365.579 373.92 345.56C374.766 344.022 374.981 342.216 374.517 340.523C374.054 338.831 372.95 337.385 371.438 336.493C369.927 335.601 368.128 335.332 366.422 335.744C364.716 336.156 363.238 337.216 362.3 338.7C348.551 362.059 340.84 388.476 339.866 415.563C338.892 442.651 344.685 469.554 356.72 493.84C367.576 515.557 383.108 534.6 402.2 549.6C402.954 550.191 403.824 550.615 404.754 550.843C405.684 551.072 406.652 551.099 407.594 550.924C408.535 550.749 409.428 550.376 410.214 549.828C411 549.281 411.66 548.572 412.15 547.75C412.984 546.307 413.264 544.611 412.938 542.976C412.613 541.342 411.703 539.883 410.38 538.87C403.09 533.136 396.351 526.735 390.25 519.75C388.907 518.22 388.205 516.232 388.291 514.198C388.377 512.164 389.243 510.241 390.71 508.83C391.47 508.14 392.36 507.609 393.328 507.268C394.296 506.926 395.322 506.782 396.347 506.842C397.371 506.903 398.374 507.167 399.295 507.62C400.216 508.073 401.037 508.705 401.71 509.48C413.771 523.282 428.522 534.477 445.06 542.38C445.926 542.796 446.871 543.022 447.832 543.042C448.793 543.063 449.747 542.877 450.63 542.498C451.512 542.119 452.304 541.556 452.951 540.845C453.598 540.135 454.085 539.294 454.38 538.38C454.865 536.796 454.761 535.091 454.086 533.578C453.412 532.065 452.212 530.848 450.71 530.15C447.484 528.61 444.347 526.943 441.3 525.15C440.469 524.692 439.738 524.073 439.148 523.33C438.559 522.587 438.123 521.734 437.866 520.82C437.608 519.907 437.535 518.952 437.651 518.01C437.766 517.068 438.067 516.159 438.537 515.335C439.007 514.51 439.636 513.788 440.387 513.209C441.139 512.629 441.998 512.205 442.915 511.961C443.831 511.717 444.788 511.658 445.728 511.786C446.668 511.915 447.573 512.229 448.39 512.71C468.404 524.567 491.753 529.534 514.86 526.85C515.74 526.748 516.591 526.474 517.365 526.043C518.139 525.613 518.821 525.034 519.371 524.34C519.921 523.645 520.329 522.85 520.572 521.998C520.815 521.146 520.887 520.255 520.785 519.375C520.684 518.495 520.409 517.644 519.979 516.87C519.548 516.096 518.969 515.415 518.275 514.864C517.581 514.314 516.785 513.906 515.933 513.663C515.081 513.421 514.19 513.348 513.31 513.45C500.652 514.925 487.826 513.772 475.634 510.062C463.442 506.353 452.147 500.167 442.455 491.892C432.764 483.616 424.884 473.43 419.31 461.97C413.736 450.51 410.587 438.023 410.06 425.29C409.923 421.93 409.967 418.565 410.19 415.21C410.276 413.712 410.794 412.27 411.681 411.06C412.569 409.85 413.787 408.922 415.19 408.39C416.219 407.986 417.334 407.849 418.43 407.993C419.526 408.137 420.568 408.557 421.457 409.214C422.347 409.87 423.055 410.742 423.515 411.747C423.976 412.752 424.174 413.858 424.09 414.96C423.924 417.053 423.834 419.17 423.82 421.31C423.84 423.009 424.477 424.643 425.612 425.907C426.747 427.171 428.303 427.979 429.99 428.18C430.921 428.26 431.859 428.146 432.743 427.845C433.628 427.544 434.44 427.062 435.128 426.43C435.817 425.798 436.366 425.03 436.742 424.174C437.117 423.319 437.311 422.394 437.31 421.46C437.351 412.471 439.249 403.587 442.884 395.365C446.52 387.144 451.815 379.763 458.438 373.684C465.06 367.605 472.867 362.961 481.37 360.041C489.872 357.122 498.885 355.991 507.845 356.719C516.805 357.447 525.518 360.019 533.437 364.273C541.356 368.527 548.311 374.371 553.865 381.439C559.419 388.508 563.453 396.647 565.713 405.348C567.974 414.048 568.412 423.122 567 432C566.699 433.689 567.038 435.429 567.952 436.881C568.865 438.332 570.287 439.391 571.94 439.85C572.493 439.988 573.061 440.059 573.63 440.06C575.226 440.06 576.77 439.492 577.986 438.459C579.202 437.426 580.012 435.995 580.27 434.42C580.983 430.123 581.341 425.775 581.34 421.42C581.347 414.462 580.425 407.534 578.6 400.82C578.165 399.25 578.297 397.577 578.974 396.096C579.651 394.614 580.829 393.419 582.3 392.72L582.42 392.67C583.331 392.242 584.324 392.019 585.33 392.016C586.336 392.012 587.33 392.23 588.243 392.652C589.156 393.074 589.965 393.691 590.615 394.459C591.264 395.228 591.737 396.129 592 397.1C594.13 405.001 595.209 413.147 595.21 421.33C595.241 423.005 595.872 424.613 596.987 425.862C598.103 427.112 599.63 427.92 601.29 428.14C602.228 428.232 603.175 428.127 604.069 427.831C604.964 427.535 605.787 427.055 606.485 426.422C607.183 425.789 607.741 425.017 608.122 424.156C608.504 423.294 608.701 422.362 608.7 421.42C608.703 415.293 608.178 409.177 607.13 403.14C606.825 401.393 607.205 399.596 608.19 398.121C609.175 396.646 610.69 395.607 612.42 395.22L612.97 395.1C613.882 394.9 614.825 394.887 615.742 395.062C616.659 395.237 617.531 395.596 618.305 396.118C619.079 396.639 619.739 397.313 620.245 398.097C620.751 398.881 621.093 399.76 621.25 400.68C623.184 411.868 623.544 423.272 622.32 434.56C622.119 436.262 622.564 437.977 623.565 439.367C624.567 440.757 626.053 441.722 627.73 442.07C628.156 442.149 628.588 442.189 629.02 442.19C630.678 442.188 632.277 441.574 633.511 440.468C634.745 439.361 635.528 437.838 635.71 436.19C636.251 431.285 636.521 426.354 636.52 421.42C636.52 419.34 636.47 417.26 636.37 415.2C636.296 413.397 636.926 411.635 638.128 410.289C639.331 408.943 641.01 408.118 642.81 407.99L644.45 407.89C645.363 407.832 646.278 407.956 647.142 408.256C648.006 408.556 648.802 409.025 649.482 409.636C650.163 410.246 650.715 410.987 651.106 411.813C651.497 412.64 651.72 413.536 651.76 414.45C651.87 416.76 651.92 419.09 651.92 421.45C651.923 431.952 650.827 442.426 648.65 452.7C648.412 453.693 648.401 454.727 648.619 455.724C648.837 456.722 649.279 457.657 649.91 458.459C650.541 459.262 651.346 459.911 652.264 460.358C653.182 460.805 654.189 461.038 655.21 461.04C656.754 461.037 658.25 460.506 659.449 459.534C660.648 458.563 661.478 457.209 661.8 455.7C664.206 444.442 665.416 432.962 665.41 421.45C665.447 399.669 661.086 378.105 652.59 358.05ZM471.28 275.41C497.6 269.799 524.943 271.364 550.45 279.94C552.388 280.595 553.986 281.993 554.892 283.826C555.799 285.659 555.94 287.778 555.285 289.715C554.63 291.652 553.232 293.25 551.399 294.157C549.566 295.064 547.448 295.205 545.51 294.55C521.889 286.611 496.528 285.382 472.25 291C471.47 291.229 470.646 291.266 469.848 291.11C469.05 290.954 468.301 290.609 467.664 290.104C467.027 289.598 466.521 288.947 466.188 288.205C465.855 287.463 465.705 286.652 465.75 285.84C465.327 284.797 465.137 283.674 465.194 282.55C465.251 281.426 465.554 280.329 466.081 279.334C466.608 278.34 467.347 277.473 468.245 276.795C469.143 276.117 470.18 275.644 471.28 275.41ZM515.09 336.58C514.922 338.378 514.059 340.039 512.684 341.211C511.31 342.382 509.532 342.97 507.73 342.85C506.03 342.74 504.31 342.69 502.59 342.69C489.042 342.696 475.725 346.196 463.925 352.853C452.125 359.509 442.242 369.097 435.23 380.69C434.815 381.58 434.218 382.373 433.476 383.017C432.735 383.661 431.866 384.142 430.927 384.428C429.988 384.715 428.999 384.8 428.024 384.679C427.049 384.558 426.111 384.234 425.27 383.727C424.429 383.219 423.705 382.541 423.143 381.735C422.581 380.929 422.196 380.015 422.011 379.05C421.826 378.086 421.846 377.093 422.07 376.137C422.294 375.181 422.716 374.282 423.31 373.5C431.58 359.876 443.218 348.609 457.103 340.784C470.987 332.959 486.652 328.839 502.59 328.82C504.59 328.82 506.59 328.883 508.59 329.01C509.52 329.065 510.428 329.306 511.262 329.72C512.097 330.133 512.839 330.71 513.445 331.417C514.052 332.123 514.51 332.944 514.793 333.831C515.075 334.718 515.176 335.653 515.09 336.58ZM564.34 328C563.244 329.22 561.762 330.027 560.142 330.286C558.522 330.544 556.862 330.239 555.44 329.42C551.014 326.863 546.405 324.636 541.65 322.76C540.774 322.409 539.976 321.888 539.301 321.229C538.627 320.569 538.088 319.783 537.717 318.915C537.346 318.047 537.15 317.115 537.139 316.171C537.129 315.227 537.304 314.291 537.655 313.415C538.007 312.539 538.527 311.741 539.187 311.066C539.846 310.391 540.633 309.853 541.5 309.482C542.368 309.111 543.3 308.915 544.244 308.904C545.188 308.893 546.124 309.069 547 309.42C552.393 311.559 557.62 314.093 562.64 317C563.564 317.535 564.356 318.271 564.958 319.152C565.56 320.034 565.957 321.039 566.12 322.094C566.283 323.148 566.208 324.227 565.9 325.249C565.592 326.271 565.059 327.211 564.34 328ZM602 321.58L601.83 321.73C600.433 322.927 598.649 323.575 596.81 323.555C594.97 323.535 593.201 322.847 591.83 321.62C589.07 319.14 586.22 316.79 583.28 314.57C582.436 313.971 581.721 313.208 581.178 312.327C580.634 311.446 580.274 310.464 580.118 309.441C579.963 308.417 580.015 307.373 580.271 306.37C580.528 305.367 580.984 304.426 581.612 303.603C582.24 302.78 583.027 302.092 583.927 301.58C584.827 301.068 585.82 300.743 586.849 300.623C587.877 300.503 588.919 300.592 589.912 300.883C590.905 301.175 591.83 301.663 592.63 302.32C595.884 304.78 599.034 307.377 602.08 310.11C602.896 310.829 603.547 311.715 603.991 312.707C604.435 313.7 604.661 314.776 604.653 315.863C604.646 316.95 604.405 318.023 603.947 319.01C603.49 319.996 602.826 320.872 602 321.58Z"
    fill="white"/>
  <path
    d="M371.531 285C361.036 292.523 349.606 298.647 337.531 303.22C336.703 303.534 335.944 304.008 335.3 304.615C334.655 305.221 334.136 305.949 333.772 306.757C333.409 307.564 333.208 308.435 333.181 309.32C333.154 310.205 333.302 311.087 333.616 311.915C333.929 312.743 334.403 313.501 335.01 314.146C335.617 314.791 336.345 315.31 337.152 315.673C337.96 316.037 338.831 316.238 339.716 316.265C340.601 316.292 341.483 316.144 342.311 315.83C355.477 310.843 367.938 304.163 379.381 295.96C380.103 295.444 380.716 294.791 381.186 294.037C381.656 293.284 381.973 292.446 382.119 291.57C382.264 290.694 382.236 289.799 382.036 288.934C381.835 288.069 381.467 287.252 380.951 286.53C380.434 285.808 379.781 285.194 379.028 284.724C378.275 284.255 377.436 283.938 376.561 283.792C375.685 283.646 374.789 283.674 373.924 283.875C373.06 284.075 372.243 284.444 371.521 284.96L371.531 285Z"
    fill="white"/>
  <path
    d="M225.25 188.82C224.906 188.005 224.405 187.265 223.775 186.643C223.145 186.021 222.399 185.53 221.579 185.196C220.759 184.863 219.881 184.694 218.996 184.7C218.111 184.706 217.236 184.886 216.42 185.23C215.603 185.572 214.861 186.072 214.238 186.701C213.614 187.331 213.121 188.077 212.787 188.897C212.452 189.718 212.283 190.596 212.289 191.482C212.294 192.368 212.475 193.244 212.82 194.06C216.945 203.804 222.979 212.624 230.567 219.999C238.155 227.374 247.142 233.155 257 237C257.778 237.303 258.606 237.459 259.44 237.46C260.801 237.458 262.129 237.045 263.251 236.277C264.373 235.508 265.237 234.418 265.73 233.15C266.373 231.48 266.328 229.624 265.604 227.987C264.881 226.351 263.538 225.068 261.87 224.42C253.697 221.234 246.246 216.442 239.956 210.328C233.666 204.213 228.666 196.9 225.25 188.82Z"
    fill="white"/>
  <path
    d="M284.52 312.81C263.49 312.833 242.695 308.378 223.52 299.74C222.706 299.3 221.809 299.033 220.886 298.956C219.964 298.878 219.035 298.991 218.158 299.288C217.282 299.585 216.475 300.059 215.79 300.681C215.104 301.304 214.554 302.06 214.174 302.905C213.794 303.749 213.592 304.662 213.581 305.588C213.569 306.514 213.748 307.432 214.107 308.285C214.466 309.139 214.997 309.909 215.667 310.548C216.337 311.187 217.131 311.681 218 312C238.956 321.457 261.689 326.332 284.68 326.3C285.619 326.298 286.548 326.101 287.406 325.721C288.265 325.341 289.035 324.786 289.667 324.091C290.299 323.397 290.78 322.579 291.078 321.688C291.377 320.798 291.486 319.855 291.4 318.92C291.185 317.242 290.37 315.699 289.105 314.576C287.84 313.453 286.212 312.825 284.52 312.81Z"
    fill="white"/>
  <path
    d="M313.48 323.64C317.203 323.64 320.22 320.622 320.22 316.9C320.22 313.178 317.203 310.16 313.48 310.16C309.758 310.16 306.74 313.178 306.74 316.9C306.74 320.622 309.758 323.64 313.48 323.64Z"
    fill="white"/>
  <path
    d="M293.36 228.18C290.522 228.553 287.663 228.74 284.8 228.74C283.139 228.737 281.534 229.338 280.283 230.431C279.032 231.524 278.221 233.034 278 234.68C277.887 235.627 277.976 236.587 278.261 237.497C278.546 238.407 279.021 239.247 279.654 239.96C280.287 240.674 281.064 241.245 281.934 241.636C282.804 242.027 283.746 242.23 284.7 242.23C288.198 242.227 291.693 241.994 295.16 241.53C296.044 241.408 296.894 241.111 297.662 240.657C298.43 240.202 299.1 239.6 299.632 238.884C300.165 238.168 300.549 237.353 300.763 236.487C300.978 235.621 301.017 234.721 300.88 233.84C300.62 232.099 299.686 230.529 298.279 229.47C296.872 228.412 295.106 227.948 293.36 228.18Z"
    fill="white"/>
  <path
    d="M331.17 281.28C330.481 279.774 329.259 278.575 327.741 277.915C326.222 277.254 324.512 277.178 322.94 277.7C310.605 281.82 297.685 283.92 284.68 283.92C277.026 283.92 269.389 283.196 261.87 281.76C260.158 281.524 258.419 281.954 257.014 282.961C255.609 283.969 254.644 285.477 254.319 287.175C253.993 288.873 254.331 290.631 255.264 292.087C256.196 293.543 257.652 294.586 259.33 295C267.686 296.596 276.174 297.4 284.68 297.4C299.131 297.399 313.486 295.062 327.19 290.48C328.089 290.181 328.916 289.696 329.615 289.057C330.314 288.417 330.87 287.638 331.248 286.769C331.625 285.9 331.815 284.961 331.805 284.013C331.795 283.066 331.586 282.131 331.19 281.27L331.17 281.28Z"
    fill="white"/>
  <path
    d="M434.69 100.12C426.519 80.7775 414.669 63.2057 399.8 48.38C384.971 33.5103 367.396 21.6611 348.05 13.49C328.003 5.00292 306.45 0.649322 284.68 0.689979C243.553 0.636169 203.939 16.202 173.85 44.24C172.548 45.4264 171.752 47.0674 171.625 48.8242C171.499 50.581 172.052 52.3193 173.17 53.68C173.761 54.3736 174.485 54.9404 175.301 55.3461C176.117 55.7518 177.006 55.9879 177.915 56.0402C178.825 56.0926 179.735 55.96 180.592 55.6506C181.449 55.3412 182.234 54.8613 182.9 54.24C191.068 46.6217 200.064 39.9432 209.72 34.33C210.612 33.8137 211.625 33.5414 212.656 33.5407C213.686 33.5399 214.699 33.8106 215.592 34.3255C216.485 34.8404 217.227 35.5814 217.743 36.474C218.258 37.3665 218.53 38.3792 218.53 39.41C219.216 41.1069 219.275 42.9923 218.698 44.7291C218.121 46.4659 216.945 47.9408 215.38 48.89C212.533 50.6233 209.74 52.46 207 54.4C184.847 70.1385 168.022 92.2593 158.77 117.81C158.16 119.486 158.238 121.336 158.987 122.955C159.737 124.574 161.097 125.831 162.77 126.45C164.447 127.06 166.296 126.982 167.915 126.233C169.534 125.483 170.791 124.123 171.41 122.45C174.138 114.914 177.616 107.671 181.79 100.83C182.771 99.2281 184.323 98.0584 186.133 97.5571C187.943 97.0559 189.875 97.2607 191.54 98.13C192.381 98.6032 193.117 99.2413 193.704 100.006C194.292 100.771 194.719 101.646 194.96 102.58C195.201 103.514 195.251 104.487 195.107 105.441C194.962 106.395 194.627 107.309 194.12 108.13C183.915 124.792 178.539 143.961 178.59 163.5C178.518 189.223 187.862 214.083 204.86 233.39C206.068 234.757 206.708 236.533 206.65 238.356C206.593 240.18 205.842 241.912 204.55 243.2C203.853 243.906 203.018 244.459 202.096 244.826C201.175 245.193 200.187 245.365 199.196 245.331C198.205 245.297 197.232 245.058 196.337 244.63C195.443 244.201 194.647 243.592 194 242.84C178.947 225.649 169.115 204.517 165.66 181.93C165.389 180.168 164.43 178.585 162.995 177.528C161.559 176.471 159.763 176.026 158 176.29C157.12 176.421 156.274 176.724 155.512 177.183C154.75 177.642 154.086 178.247 153.559 178.964C153.032 179.681 152.652 180.495 152.441 181.359C152.23 182.223 152.192 183.121 152.33 184C153.979 194.706 156.931 205.171 161.12 215.16C161.914 217.047 161.926 219.172 161.154 221.068C160.381 222.964 158.887 224.476 157 225.27H156.95C155.077 226.038 152.976 226.036 151.103 225.265C149.231 224.494 147.739 223.015 146.95 221.15C139.266 202.903 135.325 183.299 135.36 163.5C135.335 136.829 142.462 110.639 156 87.66C156.909 86.1189 157.169 84.28 156.723 82.5474C156.276 80.8148 155.16 79.3302 153.62 78.42C152.858 77.9702 152.014 77.675 151.138 77.5511C150.261 77.4273 149.369 77.4774 148.512 77.6984C147.655 77.9194 146.85 78.307 146.143 78.8392C145.435 79.3714 144.84 80.0377 144.39 80.8C129.625 105.857 121.851 134.416 121.88 163.5C121.806 188.636 127.614 213.44 138.84 235.93C149.687 257.639 165.209 276.676 184.29 291.67C185.044 292.27 185.918 292.702 186.852 292.936C187.787 293.17 188.761 293.201 189.709 293.027C190.657 292.852 191.556 292.477 192.346 291.925C193.137 291.374 193.799 290.659 194.29 289.83C195.107 288.387 195.372 286.697 195.038 285.073C194.703 283.45 193.791 282.002 192.47 281C185.182 275.242 178.444 268.821 172.34 261.82C170.998 260.289 170.298 258.3 170.386 256.266C170.473 254.232 171.342 252.31 172.81 250.9C173.569 250.209 174.459 249.677 175.427 249.335C176.395 248.993 177.422 248.848 178.447 248.908C179.472 248.969 180.474 249.234 181.395 249.687C182.316 250.141 183.137 250.774 183.81 251.55C195.873 265.35 210.624 276.545 227.16 284.45C228.065 284.885 229.056 285.111 230.06 285.11C231.488 285.109 232.878 284.655 234.032 283.815C235.185 282.974 236.042 281.789 236.48 280.43C236.97 278.849 236.868 277.144 236.195 275.632C235.522 274.12 234.323 272.904 232.82 272.21C229.593 270.657 226.453 268.99 223.4 267.21C222.546 266.765 221.791 266.152 221.18 265.408C220.568 264.664 220.113 263.804 219.842 262.88C219.57 261.957 219.488 260.987 219.6 260.031C219.712 259.075 220.015 258.151 220.492 257.314C220.969 256.478 221.61 255.746 222.376 255.163C223.143 254.58 224.019 254.158 224.952 253.921C225.886 253.685 226.857 253.639 227.809 253.786C228.76 253.934 229.672 254.272 230.49 254.78C246.883 264.535 265.614 269.663 284.69 269.62C288.804 269.612 292.915 269.365 297 268.88C297.88 268.778 298.731 268.504 299.505 268.073C300.279 267.643 300.961 267.064 301.511 266.37C302.061 265.675 302.469 264.88 302.712 264.028C302.954 263.176 303.027 262.285 302.925 261.405C302.823 260.525 302.549 259.674 302.119 258.9C301.688 258.126 301.109 257.445 300.415 256.894C299.721 256.344 298.925 255.936 298.073 255.693C297.221 255.451 296.33 255.378 295.45 255.48C291.892 255.893 288.312 256.1 284.73 256.1C272.599 256.14 260.58 253.78 249.365 249.157C238.149 244.533 227.959 237.737 219.38 229.16C202.845 212.708 193.121 190.625 192.15 167.32C192.018 163.96 192.061 160.595 192.28 157.24C192.367 155.743 192.885 154.303 193.772 153.095C194.659 151.886 195.878 150.961 197.28 150.43C198.311 150.019 199.429 149.877 200.529 150.018C201.629 150.159 202.676 150.578 203.569 151.235C204.463 151.893 205.174 152.767 205.636 153.776C206.098 154.784 206.296 155.894 206.21 157C206.04 159.1 205.95 161.21 205.94 163.35C205.96 165.049 206.596 166.683 207.732 167.947C208.867 169.211 210.423 170.019 212.11 170.22C213.04 170.3 213.977 170.187 214.861 169.886C215.745 169.585 216.556 169.104 217.244 168.473C217.933 167.843 218.482 167.076 218.859 166.221C219.235 165.367 219.429 164.444 219.43 163.51C219.449 146.21 226.329 129.624 238.562 117.392C250.795 105.159 267.38 98.2785 284.68 98.26C301.978 98.2785 318.562 105.158 330.795 117.388C343.027 129.619 349.909 146.202 349.93 163.5C349.928 167.04 349.644 170.575 349.08 174.07C348.778 175.756 349.114 177.494 350.024 178.945C350.933 180.397 352.351 181.457 354 181.92C354.552 182.062 355.12 182.133 355.69 182.13C357.286 182.13 358.829 181.565 360.047 180.534C361.265 179.503 362.077 178.074 362.34 176.5C363.052 172.203 363.41 167.855 363.41 163.5C363.412 156.539 362.491 149.609 360.67 142.89C360.233 141.323 360.363 139.652 361.038 138.171C361.713 136.691 362.89 135.497 364.36 134.8L364.48 134.74C365.391 134.312 366.385 134.089 367.391 134.087C368.398 134.084 369.393 134.302 370.306 134.725C371.219 135.149 372.028 135.767 372.677 136.536C373.326 137.306 373.798 138.208 374.06 139.18C376.195 147.076 377.274 155.22 377.27 163.4C377.301 165.076 377.933 166.686 379.051 167.935C380.169 169.185 381.698 169.992 383.36 170.21C384.297 170.302 385.242 170.197 386.135 169.902C387.029 169.607 387.85 169.127 388.548 168.495C389.245 167.863 389.802 167.092 390.183 166.232C390.564 165.372 390.76 164.441 390.76 163.5C390.762 157.37 390.24 151.251 389.2 145.21C388.89 143.465 389.266 141.668 390.25 140.194C391.234 138.72 392.75 137.683 394.48 137.3L395.03 137.17C395.943 136.97 396.887 136.957 397.805 137.133C398.723 137.308 399.596 137.668 400.371 138.191C401.146 138.713 401.807 139.388 402.314 140.173C402.821 140.959 403.163 141.839 403.32 142.76C404.504 149.61 405.099 156.549 405.1 163.5C405.099 167.886 404.862 172.269 404.39 176.63C404.189 178.334 404.634 180.052 405.638 181.444C406.641 182.836 408.13 183.802 409.81 184.15C410.232 184.229 410.661 184.269 411.09 184.27C412.748 184.266 414.347 183.652 415.583 182.546C416.818 181.44 417.604 179.918 417.79 178.27C418.322 173.368 418.589 168.441 418.59 163.51C418.59 161.42 418.59 159.35 418.45 157.28C418.373 155.477 419.003 153.715 420.206 152.37C421.409 151.025 423.09 150.203 424.89 150.08L426.52 149.97C427.433 149.913 428.348 150.039 429.212 150.339C430.076 150.639 430.872 151.108 431.553 151.718C432.234 152.329 432.787 153.068 433.18 153.894C433.572 154.72 433.797 155.616 433.84 156.53C433.94 158.84 434 161.17 434 163.53C434 174.029 432.901 184.5 430.72 194.77C430.368 196.479 430.667 198.259 431.559 199.759C432.45 201.259 433.87 202.372 435.54 202.88C436.111 203.03 436.699 203.107 437.29 203.11C438.831 203.107 440.324 202.577 441.522 201.607C442.719 200.637 443.548 199.287 443.87 197.78C446.275 186.522 447.485 175.042 447.48 163.53C447.527 141.748 443.177 120.181 434.69 100.12ZM253.38 17.48C263.668 15.2831 274.16 14.1769 284.68 14.18C300.958 14.1445 317.13 16.7865 332.55 22C333.52 22.3335 334.414 22.8575 335.179 23.5412C335.944 24.225 336.564 25.0547 337.004 25.9817C337.444 26.9086 337.694 27.914 337.74 28.939C337.785 29.9639 337.626 30.9876 337.27 31.95C336.58 33.8307 335.184 35.3684 333.378 36.2366C331.573 37.1048 329.5 37.2352 327.6 36.6C313.774 31.9307 299.274 29.5658 284.68 29.6C274.471 29.5786 264.292 30.7192 254.34 33C253.56 33.229 252.737 33.2672 251.939 33.1112C251.141 32.9553 250.393 32.6098 249.756 32.104C249.12 31.5981 248.615 30.9466 248.283 30.2045C247.951 29.4624 247.803 28.6515 247.85 27.84C247.437 26.8012 247.255 25.6848 247.318 24.5686C247.38 23.4525 247.685 22.3633 248.212 21.3771C248.738 20.3909 249.473 19.5313 250.366 18.8583C251.259 18.1852 252.287 17.7149 253.38 17.48ZM297.19 78.66C297.02 80.4589 296.154 82.1203 294.778 83.2912C293.402 84.4621 291.623 85.05 289.82 84.93C288.12 84.82 286.41 84.76 284.68 84.76C271.132 84.7665 257.815 88.2673 246.015 94.9239C234.216 101.58 224.332 111.168 217.32 122.76C216.491 124.137 215.214 125.187 213.702 125.733C212.191 126.279 210.538 126.289 209.02 125.76C208.053 125.407 207.176 124.844 206.451 124.113C205.726 123.381 205.171 122.499 204.826 121.529C204.482 120.558 204.355 119.524 204.456 118.499C204.557 117.474 204.883 116.484 205.41 115.6C209.284 109.201 213.914 103.292 219.2 98C227.779 89.3747 237.984 82.5366 249.224 77.8815C260.463 73.2263 272.515 70.8466 284.68 70.88C286.68 70.88 288.68 70.95 290.68 71.07C291.609 71.1317 292.517 71.3781 293.349 71.7949C294.182 72.2117 294.923 72.7905 295.53 73.4973C296.136 74.2041 296.595 75.0248 296.88 75.9113C297.165 76.7978 297.271 77.7323 297.19 78.66ZM346.44 70C345.342 71.2213 343.858 72.0286 342.236 72.2871C340.615 72.5456 338.953 72.2395 337.53 71.42C333.103 68.8646 328.494 66.6386 323.74 64.76C322.229 64.16 320.968 63.0639 320.163 61.6518C319.358 60.2397 319.057 58.5956 319.31 56.99C319.477 55.9244 319.883 54.9102 320.496 54.023C321.11 53.1359 321.916 52.3986 322.854 51.8661C323.792 51.3336 324.838 51.0197 325.914 50.9476C326.991 50.8756 328.069 51.0473 329.07 51.45C334.465 53.5934 339.699 56.1233 344.73 59.02C345.65 59.5562 346.438 60.2908 347.038 61.1701C347.638 62.0494 348.034 63.0514 348.198 64.1031C348.361 65.1549 348.289 66.2299 347.985 67.25C347.681 68.27 347.153 69.2095 346.44 70ZM384.09 63.61L383.91 63.76C382.513 64.9565 380.729 65.605 378.889 65.5848C377.05 65.5646 375.281 64.877 373.91 63.65C371.15 61.17 368.3 58.82 365.36 56.6C363.881 55.4749 362.859 53.853 362.483 52.0335C362.106 50.2141 362.4 48.3198 363.31 46.7C363.853 45.7391 364.595 44.9056 365.487 44.2555C366.379 43.6054 367.4 43.1539 368.481 42.9313C369.562 42.7086 370.678 42.7201 371.754 42.9648C372.83 43.2095 373.842 43.6818 374.72 44.35C377.96 46.81 381.107 49.4066 384.16 52.14C384.983 52.8585 385.641 53.7459 386.09 54.7418C386.539 55.7377 386.768 56.8186 386.761 57.911C386.755 59.0034 386.513 60.0815 386.052 61.0718C385.591 62.0622 384.922 62.9416 384.09 63.65V63.61Z"
    fill="white"/>
  <path
    d="M849.77 327.09C839.274 334.611 827.845 340.736 815.77 345.31C814.324 345.887 813.122 346.946 812.368 348.309C811.614 349.671 811.356 351.253 811.636 352.785C811.917 354.316 812.719 355.704 813.906 356.711C815.094 357.718 816.593 358.283 818.15 358.31C818.967 358.311 819.777 358.162 820.54 357.87C833.707 352.883 846.168 346.203 857.61 338C859.069 336.959 860.055 335.381 860.35 333.614C860.645 331.846 860.226 330.034 859.185 328.575C858.144 327.116 856.567 326.131 854.799 325.835C853.032 325.54 851.219 325.959 849.76 327L849.77 327.09Z"
    fill="white"/>
  <path
    d="M703.491 230.94C702.794 229.292 701.471 227.989 699.814 227.315C698.156 226.642 696.299 226.655 694.651 227.35C693.834 227.693 693.094 228.194 692.471 228.823C691.849 229.453 691.356 230.2 691.023 231.02C690.689 231.84 690.521 232.718 690.528 233.604C690.534 234.489 690.715 235.365 691.061 236.18C695.189 245.916 701.225 254.727 708.813 262.093C716.401 269.459 725.387 275.232 735.241 279.07C736.909 279.716 738.765 279.672 740.401 278.949C742.038 278.226 743.32 276.883 743.966 275.215C744.611 273.547 744.568 271.69 743.845 270.054C743.122 268.418 741.779 267.136 740.111 266.49C731.941 263.311 724.492 258.528 718.202 252.422C711.912 246.316 706.91 239.011 703.491 230.94Z"
    fill="white"/>
  <path
    d="M762.75 354.93C741.72 354.951 720.926 350.496 701.75 341.86C700.119 341.127 698.263 341.071 696.592 341.706C694.92 342.341 693.568 343.614 692.835 345.245C692.102 346.876 692.046 348.732 692.681 350.403C693.316 352.075 694.589 353.427 696.22 354.16C717.192 363.608 739.939 368.47 762.94 368.42C763.88 368.42 764.809 368.224 765.668 367.844C766.527 367.464 767.298 366.909 767.931 366.215C768.563 365.52 769.044 364.701 769.341 363.81C769.639 362.919 769.748 361.975 769.66 361.04C769.444 359.357 768.625 357.81 767.354 356.686C766.083 355.562 764.447 354.938 762.75 354.93Z"
    fill="white"/>
  <path
    d="M791.72 365.76C795.443 365.76 798.461 362.742 798.461 359.02C798.461 355.298 795.443 352.28 791.72 352.28C787.998 352.28 784.98 355.298 784.98 359.02C784.98 362.742 787.998 365.76 791.72 365.76Z"
    fill="white"/>
  <path
    d="M771.59 270.3C768.752 270.673 765.893 270.86 763.03 270.86C761.367 270.853 759.758 271.452 758.505 272.545C757.251 273.639 756.439 275.151 756.22 276.8C756.106 277.746 756.193 278.706 756.477 279.617C756.761 280.527 757.235 281.366 757.867 282.08C758.499 282.793 759.276 283.365 760.145 283.756C761.014 284.147 761.957 284.35 762.91 284.35C766.409 284.348 769.903 284.114 773.37 283.65C775.141 283.414 776.745 282.484 777.83 281.066C778.914 279.647 779.391 277.855 779.155 276.085C778.919 274.315 777.99 272.711 776.571 271.626C775.152 270.541 773.361 270.064 771.59 270.3Z"
    fill="white"/>
  <path
    d="M809.4 323.4C808.711 321.894 807.489 320.695 805.97 320.035C804.451 319.374 802.742 319.298 801.17 319.82C788.833 323.926 775.913 326.013 762.91 326C755.259 326 747.625 325.276 740.11 323.84C739.226 323.637 738.31 323.615 737.418 323.774C736.525 323.933 735.673 324.27 734.914 324.766C734.154 325.261 733.502 325.905 732.997 326.658C732.491 327.411 732.143 328.258 731.972 329.148C731.802 330.039 731.812 330.955 732.003 331.842C732.194 332.728 732.562 333.567 733.084 334.308C733.607 335.049 734.273 335.678 735.044 336.156C735.815 336.634 736.674 336.951 737.57 337.09C745.922 338.686 754.407 339.49 762.91 339.49C777.36 339.489 791.716 337.153 805.42 332.57C806.319 332.271 807.145 331.786 807.845 331.147C808.544 330.507 809.1 329.728 809.478 328.859C809.855 327.99 810.045 327.051 810.035 326.103C810.025 325.156 809.816 324.221 809.42 323.36L809.4 323.4Z"
    fill="white"/>
  <path
    d="M912.92 142.24C904.74 122.895 892.88 105.323 878 90.4998C863.173 75.6326 845.601 63.7837 826.26 55.6098C806.21 47.1236 784.653 42.77 762.88 42.8098C721.753 42.758 682.14 58.3236 652.05 86.3598C650.751 87.5475 649.956 89.1883 649.829 90.9443C649.703 92.7004 650.254 94.4382 651.37 95.7998C651.962 96.4938 652.687 97.0608 653.504 97.4666C654.32 97.8724 655.21 98.1085 656.121 98.1609C657.031 98.2132 657.942 98.0806 658.8 97.7711C659.657 97.4615 660.443 96.9815 661.11 96.3598C669.3 88.7373 678.32 82.0587 688 76.4498C688.893 75.9335 689.905 75.6613 690.936 75.6605C691.967 75.6597 692.979 75.9304 693.873 76.4453C694.766 76.9603 695.507 77.7013 696.023 78.5938C696.539 79.4864 696.81 80.499 696.81 81.5298C697.497 83.2276 697.556 85.1146 696.977 86.8521C696.398 88.5895 695.218 90.0636 693.65 91.0098C690.81 92.7398 688.01 94.5698 685.28 96.5198C663.107 112.249 646.264 134.371 637 159.93C636.39 161.606 636.468 163.456 637.218 165.075C637.967 166.694 639.327 167.951 641 168.57C642.677 169.18 644.527 169.102 646.146 168.353C647.765 167.603 649.021 166.243 649.64 164.57C652.377 157.038 655.854 149.796 660.02 142.95C661.001 141.348 662.553 140.178 664.363 139.677C666.173 139.176 668.106 139.381 669.77 140.25C670.612 140.722 671.349 141.36 671.938 142.124C672.526 142.888 672.954 143.764 673.196 144.698C673.438 145.632 673.489 146.605 673.345 147.559C673.202 148.513 672.867 149.428 672.36 150.25C662.128 166.914 656.734 186.095 656.78 205.65C656.706 231.376 666.05 256.24 683.05 275.55C684.258 276.917 684.898 278.693 684.841 280.516C684.783 282.339 684.032 284.072 682.74 285.36C682.045 286.052 681.216 286.595 680.303 286.954C679.39 287.313 678.413 287.481 677.432 287.447C676.452 287.413 675.489 287.179 674.602 286.758C673.716 286.337 672.926 285.739 672.28 285C657.205 267.818 647.355 246.684 643.89 224.09C643.757 223.214 643.453 222.373 642.994 221.615C642.535 220.857 641.931 220.197 641.217 219.673C640.502 219.149 639.691 218.771 638.83 218.561C637.97 218.351 637.076 218.313 636.2 218.45C634.433 218.723 632.847 219.687 631.79 221.128C630.732 222.57 630.29 224.372 630.56 226.14C632.214 236.845 635.165 247.309 639.35 257.3C639.747 258.238 639.954 259.245 639.959 260.263C639.964 261.281 639.768 262.29 639.381 263.232C638.994 264.174 638.425 265.029 637.706 265.75C636.986 266.471 636.131 267.041 635.19 267.43H635.14C633.267 268.198 631.166 268.196 629.294 267.425C627.421 266.654 625.929 265.175 625.14 263.31C617.468 245.043 613.544 225.422 613.6 205.61C613.582 178.94 620.717 152.754 634.26 129.78C635.17 128.24 635.431 126.402 634.987 124.669C634.543 122.937 633.429 121.452 631.89 120.54C630.349 119.631 628.51 119.371 626.778 119.817C625.045 120.264 623.561 121.38 622.65 122.92C607.88 147.973 600.097 176.527 600.11 205.61C600.052 230.752 605.874 255.559 617.11 278.05C627.96 299.757 643.482 318.793 662.56 333.79C663.315 334.389 664.188 334.819 665.123 335.052C666.057 335.285 667.031 335.316 667.978 335.141C668.926 334.967 669.825 334.592 670.615 334.042C671.405 333.491 672.068 332.778 672.56 331.95C673.392 330.507 673.671 328.81 673.345 327.177C673.02 325.543 672.112 324.084 670.79 323.07C663.502 317.328 656.76 310.924 650.65 303.94C649.287 302.423 648.562 300.438 648.628 298.4C648.693 296.361 649.543 294.427 651 293C651.76 292.309 652.65 291.777 653.618 291.434C654.586 291.092 655.612 290.947 656.637 291.008C657.662 291.069 658.665 291.333 659.586 291.787C660.507 292.241 661.328 292.874 662 293.65C674.065 307.448 688.815 318.642 705.35 326.55C706.217 326.966 707.163 327.192 708.124 327.213C709.085 327.233 710.04 327.048 710.924 326.669C711.807 326.29 712.6 325.726 713.248 325.016C713.896 324.305 714.384 323.465 714.68 322.55C715.166 320.966 715.061 319.26 714.384 317.749C713.707 316.237 712.505 315.022 711 314.33C707.767 312.776 704.627 311.11 701.58 309.33C699.931 308.388 698.723 306.83 698.222 304.998C697.721 303.166 697.969 301.21 698.91 299.56C699.852 297.91 701.41 296.702 703.242 296.201C705.075 295.701 707.031 295.948 708.68 296.89C725.067 306.653 743.796 311.786 762.87 311.74C766.985 311.732 771.095 311.485 775.18 311C776.06 310.899 776.911 310.625 777.686 310.195C778.46 309.765 779.142 309.187 779.692 308.493C780.243 307.799 780.652 307.004 780.895 306.152C781.138 305.301 781.211 304.41 781.11 303.53C781.009 302.65 780.736 301.799 780.306 301.024C779.875 300.25 779.297 299.568 778.603 299.018C777.91 298.467 777.114 298.058 776.263 297.815C775.411 297.572 774.52 297.499 773.64 297.6C770.079 298.013 766.496 298.22 762.91 298.22C750.789 298.252 738.782 295.888 727.577 291.265C716.372 286.642 706.192 279.85 697.62 271.28C681.081 254.83 671.357 232.746 670.39 209.44C670.253 206.08 670.297 202.715 670.52 199.36C670.606 197.863 671.123 196.422 672.011 195.214C672.898 194.005 674.117 193.08 675.52 192.55C676.548 192.146 677.662 192.009 678.757 192.153C679.853 192.297 680.893 192.716 681.783 193.371C682.672 194.027 683.38 194.897 683.841 195.9C684.303 196.904 684.502 198.008 684.42 199.11C684.24 201.21 684.15 203.32 684.15 205.46C684.17 207.157 684.805 208.79 685.938 210.053C687.071 211.317 688.625 212.126 690.31 212.33C691.242 212.412 692.181 212.299 693.066 211.998C693.952 211.698 694.766 211.216 695.455 210.584C696.144 209.952 696.695 209.183 697.071 208.327C697.447 207.47 697.641 206.545 697.64 205.61C697.661 188.314 704.542 171.732 716.772 159.502C729.002 147.271 745.584 140.391 762.88 140.37C780.178 140.388 796.763 147.267 808.995 159.498C821.228 171.729 828.109 188.312 828.13 205.61C828.134 209.154 827.85 212.692 827.28 216.19C826.991 217.875 827.338 219.608 828.254 221.051C829.171 222.495 830.592 223.546 832.24 224C832.796 224.143 833.367 224.213 833.94 224.21C835.536 224.208 837.078 223.64 838.294 222.607C839.51 221.574 840.32 220.144 840.58 218.57C841.293 214.273 841.651 209.925 841.65 205.57C841.654 198.622 840.732 191.705 838.91 185C838.474 183.432 838.605 181.759 839.283 180.279C839.96 178.799 841.138 177.605 842.61 176.91L842.73 176.85C843.641 176.422 844.634 176.199 845.64 176.197C846.645 176.194 847.639 176.412 848.552 176.836C849.464 177.259 850.273 177.877 850.92 178.647C851.568 179.416 852.039 180.319 852.3 181.29C854.438 189.186 855.521 197.33 855.52 205.51C855.551 207.185 856.182 208.793 857.297 210.042C858.413 211.292 859.94 212.1 861.6 212.32C862.536 212.41 863.481 212.304 864.374 212.008C865.267 211.713 866.088 211.233 866.784 210.602C867.481 209.97 868.038 209.199 868.42 208.34C868.801 207.48 868.999 206.55 869 205.61C869.003 199.483 868.478 193.367 867.43 187.33C867.123 185.584 867.502 183.786 868.487 182.313C869.473 180.839 870.989 179.803 872.72 179.42L873.27 179.29C874.183 179.09 875.126 179.077 876.044 179.253C876.961 179.429 877.833 179.789 878.608 180.311C879.382 180.834 880.042 181.508 880.548 182.294C881.053 183.079 881.395 183.959 881.55 184.88C882.734 191.726 883.329 198.662 883.33 205.61C883.33 209.999 883.093 214.386 882.62 218.75C882.418 220.448 882.858 222.161 883.853 223.552C884.848 224.944 886.327 225.913 888 226.27C888.422 226.349 888.851 226.389 889.28 226.39C890.939 226.388 892.539 225.775 893.775 224.668C895.011 223.562 895.796 222.039 895.98 220.39C896.513 215.484 896.78 210.554 896.78 205.62C896.78 203.54 896.78 201.47 896.64 199.4C896.566 197.598 897.197 195.837 898.399 194.493C899.602 193.148 901.281 192.326 903.08 192.2L904.72 192.09C905.633 192.033 906.547 192.159 907.411 192.459C908.274 192.759 909.069 193.228 909.749 193.839C910.43 194.449 910.982 195.189 911.373 196.015C911.765 196.841 911.988 197.737 912.03 198.65C912.14 200.96 912.19 203.29 912.19 205.65C912.218 216.136 911.149 226.596 909 236.86C908.637 238.567 908.925 240.348 909.808 241.854C910.69 243.36 912.104 244.482 913.77 245C914.342 245.149 914.93 245.227 915.52 245.23C917.062 245.226 918.556 244.695 919.754 243.726C920.953 242.756 921.784 241.407 922.11 239.9C924.511 228.638 925.721 217.155 925.72 205.64C925.763 183.861 921.409 162.297 912.92 142.24ZM731.61 59.5998C741.899 57.4029 752.39 56.2968 762.91 56.2998C779.189 56.2699 795.362 58.9187 810.78 64.1398C811.758 64.4705 812.659 64.9949 813.43 65.6817C814.2 66.3684 814.825 67.2035 815.265 68.1369C815.706 69.0704 815.954 70.083 815.994 71.1144C816.034 72.1458 815.867 73.1748 815.5 74.1398C814.812 76.0199 813.418 77.5574 811.614 78.4257C809.81 79.2941 807.739 79.4247 805.84 78.7898C792.01 74.1205 777.507 71.7557 762.91 71.7898C752.702 71.7843 742.526 72.9417 732.58 75.2398C731.8 75.4709 730.975 75.5105 730.176 75.3555C729.377 75.2005 728.627 74.8553 727.989 74.3492C727.352 73.8431 726.845 73.1909 726.513 72.4478C726.181 71.7046 726.032 70.8925 726.08 70.0798C725.646 69.0347 725.447 67.9066 725.499 66.7759C725.551 65.6452 725.852 64.5399 726.38 63.5389C726.908 62.5379 727.651 61.6658 728.555 60.9849C729.459 60.304 730.502 59.831 731.61 59.5998ZM775.42 120.78C775.252 122.578 774.389 124.239 773.014 125.41C771.64 126.581 769.862 127.17 768.06 127.05C766.36 126.94 764.64 126.88 762.91 126.88C749.364 126.887 736.048 130.388 724.25 137.045C712.452 143.702 702.571 153.289 695.56 164.88C694.731 166.257 693.454 167.306 691.943 167.853C690.431 168.399 688.778 168.409 687.26 167.88C686.292 167.528 685.414 166.966 684.688 166.235C683.962 165.504 683.406 164.622 683.06 163.651C682.715 162.681 682.587 161.646 682.688 160.621C682.788 159.595 683.113 158.605 683.64 157.72C687.52 151.337 692.149 145.442 697.43 140.16C706.006 131.527 716.21 124.682 727.449 120.02C738.689 115.358 750.742 112.972 762.91 113C764.91 113 766.91 113.07 768.91 113.19C769.839 113.252 770.747 113.498 771.58 113.915C772.412 114.332 773.154 114.91 773.76 115.617C774.366 116.324 774.825 117.145 775.11 118.031C775.395 118.918 775.501 119.852 775.42 120.78ZM824.67 112.16C823.575 113.382 822.093 114.19 820.472 114.449C818.852 114.707 817.191 114.4 815.77 113.58C811.348 111.029 806.746 108.803 802 106.92C800.487 106.323 799.222 105.228 798.414 103.815C797.607 102.403 797.306 100.757 797.56 99.1498C797.729 98.0851 798.136 97.0721 798.75 96.186C799.364 95.2999 800.17 94.5634 801.107 94.0312C802.045 93.4991 803.09 93.1848 804.166 93.1119C805.241 93.0389 806.319 93.2091 807.32 93.6098C812.723 95.7508 817.964 98.2808 823 101.18C823.917 101.72 824.702 102.457 825.297 103.338C825.893 104.219 826.286 105.221 826.445 106.273C826.605 107.324 826.529 108.398 826.222 109.417C825.915 110.435 825.385 111.372 824.67 112.16ZM862.32 105.77L862.14 105.92C860.748 107.107 858.974 107.75 857.145 107.729C855.316 107.709 853.556 107.027 852.19 105.81C849.43 103.33 846.58 100.98 843.64 98.7598C842.17 97.6277 841.158 96.0026 840.79 94.1836C840.423 92.3645 840.725 90.474 841.64 88.8598C842.181 87.898 842.922 87.0633 843.813 86.4124C844.704 85.7614 845.724 85.3093 846.805 85.0865C847.885 84.8637 849.001 84.8755 850.077 85.1211C851.153 85.3666 852.163 85.8402 853.04 86.5098C856.294 88.9698 859.444 91.5665 862.49 94.2998C863.299 95.0262 863.942 95.9173 864.378 96.9132C864.813 97.9092 865.03 98.9868 865.014 100.073C864.997 101.16 864.749 102.231 864.284 103.214C863.82 104.196 863.15 105.068 862.32 105.77Z"
    fill="white"/>
  <path
    d="M962 481.93C951.807 457.822 935.953 436.527 915.781 419.848C895.609 403.169 871.715 391.598 846.121 386.115C820.528 380.632 793.99 381.399 768.756 388.351C743.522 395.302 720.335 408.234 701.16 426.05C699.861 427.238 699.066 428.878 698.939 430.634C698.813 432.391 699.364 434.128 700.48 435.49C701.072 436.184 701.798 436.751 702.614 437.157C703.43 437.562 704.321 437.799 705.231 437.851C706.141 437.903 707.052 437.771 707.91 437.461C708.768 437.152 709.553 436.672 710.22 436.05C718.378 428.437 727.36 421.759 737 416.14C737.893 415.624 738.905 415.351 739.936 415.351C740.967 415.35 741.98 415.621 742.873 416.135C743.766 416.65 744.507 417.391 745.023 418.284C745.539 419.176 745.81 420.189 745.81 421.22C746.497 422.918 746.556 424.805 745.977 426.542C745.398 428.28 744.219 429.754 742.65 430.7C739.81 432.43 737.01 434.26 734.28 436.21C712.125 451.947 695.296 474.068 686.04 499.62C685.43 501.301 685.513 503.156 686.271 504.777C687.029 506.397 688.399 507.65 690.08 508.26C691.762 508.87 693.617 508.787 695.237 508.029C696.857 507.272 698.11 505.901 698.72 504.22C701.457 496.688 704.934 489.446 709.1 482.6C710.081 480.998 711.633 479.828 713.443 479.327C715.253 478.826 717.186 479.031 718.85 479.9C719.692 480.372 720.429 481.01 721.018 481.774C721.606 482.539 722.035 483.414 722.276 484.348C722.518 485.282 722.569 486.255 722.425 487.209C722.282 488.163 721.947 489.079 721.44 489.9C709.646 509.201 704.323 531.764 706.245 554.302C708.168 576.84 717.237 598.175 732.13 615.2C733.343 616.565 733.986 618.342 733.928 620.167C733.871 621.991 733.116 623.724 731.82 625.01C731.122 625.699 730.29 626.237 729.376 626.592C728.461 626.947 727.484 627.111 726.504 627.073C725.524 627.036 724.562 626.798 723.677 626.374C722.793 625.95 722.004 625.35 721.36 624.61C706.307 607.432 696.468 586.315 693 563.74C692.693 562.003 691.719 560.455 690.285 559.428C688.851 558.4 687.072 557.975 685.328 558.243C683.585 558.511 682.015 559.451 680.956 560.861C679.897 562.272 679.432 564.041 679.66 565.79C681.305 576.51 684.246 586.99 688.42 597C688.818 597.938 689.026 598.945 689.032 599.963C689.038 600.982 688.842 601.991 688.455 602.933C688.068 603.876 687.498 604.732 686.778 605.452C686.058 606.172 685.202 606.743 684.26 607.13C682.387 607.898 680.286 607.896 678.414 607.125C676.542 606.354 675.049 604.875 674.26 603.01C665.317 581.574 661.485 558.351 663.068 535.179C664.651 512.006 671.605 489.52 683.38 469.5C684.29 467.96 684.551 466.122 684.106 464.391C683.66 462.659 682.545 461.175 681.005 460.265C679.466 459.355 677.628 459.094 675.896 459.54C674.164 459.985 672.68 461.1 671.77 462.64C651.703 496.635 644.679 536.766 652.007 575.556C659.335 614.345 680.515 649.148 711.6 673.48C712.353 674.072 713.223 674.496 714.153 674.725C715.082 674.954 716.05 674.983 716.991 674.809C717.933 674.635 718.826 674.262 719.612 673.716C720.398 673.169 721.059 672.462 721.55 671.64C722.382 670.197 722.661 668.501 722.335 666.867C722.01 665.234 721.102 663.774 719.78 662.76C712.49 657.02 705.747 650.616 699.64 643.63C698.298 642.099 697.598 640.11 697.686 638.076C697.774 636.042 698.642 634.12 700.11 632.71C700.871 632.021 701.762 631.49 702.73 631.15C703.698 630.809 704.725 630.666 705.749 630.727C706.774 630.789 707.776 631.054 708.696 631.508C709.617 631.962 710.438 632.595 711.11 633.37C723.17 647.167 737.917 658.358 754.45 666.26C755.317 666.676 756.263 666.902 757.224 666.923C758.186 666.943 759.14 666.758 760.024 666.379C760.908 666 761.7 665.436 762.348 664.726C762.996 664.016 763.484 663.175 763.78 662.26C764.267 660.678 764.163 658.973 763.488 657.461C762.813 655.95 761.613 654.734 760.11 654.04C756.877 652.493 753.74 650.827 750.7 649.04C749.847 648.595 749.092 647.982 748.48 647.238C747.869 646.494 747.414 645.634 747.142 644.71C746.871 643.787 746.788 642.817 746.9 641.861C747.012 640.905 747.315 639.981 747.792 639.144C748.27 638.308 748.91 637.576 749.677 636.993C750.443 636.41 751.319 635.988 752.253 635.751C753.186 635.515 754.157 635.469 755.109 635.616C756.061 635.764 756.973 636.102 757.79 636.61C777.803 648.46 801.148 653.423 824.25 650.74C825.13 650.639 825.982 650.365 826.756 649.935C827.53 649.505 828.212 648.927 828.763 648.233C829.313 647.539 829.722 646.744 829.965 645.893C830.208 645.041 830.282 644.15 830.18 643.27C830.079 642.39 829.806 641.539 829.376 640.765C828.946 639.99 828.367 639.309 827.674 638.758C826.98 638.207 826.185 637.799 825.333 637.555C824.481 637.312 823.59 637.239 822.71 637.34C819.152 637.753 815.573 637.96 811.99 637.96C788.092 637.96 765.119 628.721 747.874 612.175C730.63 595.63 720.449 573.058 719.46 549.18C719.323 545.82 719.367 542.455 719.59 539.1C719.676 537.603 720.193 536.163 721.081 534.954C721.968 533.745 723.188 532.82 724.59 532.29C725.619 531.886 726.734 531.749 727.83 531.893C728.926 532.037 729.968 532.457 730.857 533.114C731.747 533.77 732.455 534.642 732.915 535.647C733.376 536.652 733.574 537.758 733.49 538.86C733.31 540.947 733.22 543.06 733.22 545.2C733.237 546.899 733.872 548.534 735.005 549.8C736.138 551.066 737.694 551.876 739.38 552.08C740.312 552.16 741.25 552.046 742.135 551.745C743.02 551.444 743.833 550.962 744.522 550.33C745.211 549.699 745.761 548.931 746.138 548.075C746.515 547.219 746.71 546.295 746.71 545.36C746.713 536.346 748.584 527.43 752.204 519.175C755.825 510.919 761.117 503.504 767.746 497.395C774.375 491.287 782.198 486.619 790.721 483.685C799.245 480.75 808.283 479.614 817.268 480.347C826.252 481.081 834.987 483.667 842.922 487.945C850.857 492.222 857.819 498.097 863.37 505.199C868.922 512.302 872.941 520.477 875.175 529.21C877.409 537.943 877.809 547.044 876.35 555.94C876.052 557.627 876.392 559.365 877.306 560.814C878.219 562.264 879.64 563.321 881.29 563.78C881.848 563.928 882.423 564.002 883 564C884.596 563.998 886.138 563.43 887.354 562.397C888.57 561.364 889.38 559.934 889.64 558.36C890.353 554.063 890.711 549.715 890.71 545.36C890.732 538.383 889.82 531.435 888 524.7C887.564 523.132 887.696 521.46 888.373 519.979C889.05 518.499 890.228 517.305 891.7 516.61L891.82 516.55C892.731 516.122 893.725 515.899 894.732 515.897C895.738 515.894 896.733 516.112 897.646 516.535C898.559 516.959 899.369 517.577 900.017 518.346C900.666 519.116 901.138 520.018 901.4 520.99C903.53 528.887 904.609 537.031 904.61 545.21C904.641 546.885 905.272 548.493 906.388 549.742C907.503 550.992 909.03 551.8 910.69 552.02C911.627 552.112 912.573 552.007 913.467 551.712C914.361 551.417 915.183 550.938 915.881 550.306C916.579 549.674 917.137 548.903 917.519 548.043C917.901 547.182 918.099 546.251 918.1 545.31C918.099 539.172 917.567 533.046 916.51 527C916.2 525.252 916.578 523.453 917.563 521.977C918.549 520.501 920.067 519.463 921.8 519.08L922.35 518.96C923.262 518.758 924.206 518.745 925.123 518.919C926.04 519.093 926.913 519.452 927.687 519.974C928.462 520.496 929.122 521.17 929.628 521.955C930.134 522.74 930.475 523.619 930.63 524.54C931.819 531.389 932.415 538.328 932.41 545.28C932.41 549.666 932.173 554.049 931.7 558.41C931.499 560.113 931.943 561.829 932.944 563.221C933.946 564.613 935.432 565.579 937.11 565.93C937.533 566.009 937.961 566.049 938.39 566.05C940.049 566.048 941.649 565.435 942.885 564.328C944.121 563.222 944.906 561.699 945.09 560.05C945.626 555.148 945.896 550.221 945.9 545.29C945.9 543.2 945.9 541.13 945.75 539.06C945.676 537.258 946.307 535.497 947.509 534.153C948.712 532.809 950.391 531.986 952.19 531.86L953.83 531.76C954.742 531.702 955.657 531.826 956.52 532.125C957.383 532.424 958.178 532.892 958.859 533.502C959.539 534.112 960.092 534.851 960.483 535.676C960.875 536.502 961.098 537.397 961.14 538.31C961.25 540.63 961.3 542.95 961.3 545.31C961.294 555.81 960.188 566.28 958 576.55C957.648 578.258 957.945 580.036 958.835 581.536C959.725 583.036 961.142 584.15 962.81 584.66C963.381 584.814 963.969 584.891 964.56 584.89C966.102 584.886 967.596 584.355 968.794 583.386C969.993 582.417 970.824 581.067 971.15 579.56C973.551 568.301 974.761 556.822 974.76 545.31C974.813 523.54 970.473 501.983 962 481.93ZM780.68 399.29C807 393.677 834.345 395.245 859.85 403.83C861.729 404.529 863.262 405.933 864.124 407.743C864.985 409.553 865.108 411.628 864.465 413.527C863.823 415.426 862.466 417 860.682 417.916C858.898 418.831 856.828 419.015 854.91 418.43C831.29 410.492 805.934 409.249 781.65 414.84C780.871 415.073 780.046 415.115 779.247 414.961C778.447 414.807 777.697 414.463 777.059 413.958C776.421 413.452 775.915 412.801 775.582 412.058C775.25 411.315 775.102 410.502 775.15 409.69C774.734 408.649 774.549 407.529 774.61 406.409C774.671 405.29 774.975 404.196 775.501 403.206C776.028 402.216 776.764 401.353 777.659 400.676C778.553 400 779.584 399.527 780.68 399.29ZM824.49 460.47C824.322 462.268 823.459 463.929 822.085 465.101C820.71 466.272 818.932 466.86 817.13 466.74C815.43 466.63 813.71 466.57 811.99 466.57C798.442 466.576 785.125 470.076 773.325 476.733C761.525 483.389 751.642 492.977 744.63 504.57C744.216 505.46 743.618 506.253 742.877 506.897C742.135 507.541 741.267 508.022 740.327 508.308C739.388 508.595 738.399 508.68 737.424 508.559C736.45 508.438 735.511 508.114 734.67 507.607C733.829 507.099 733.105 506.421 732.543 505.615C731.982 504.809 731.596 503.895 731.411 502.93C731.226 501.966 731.246 500.973 731.47 500.017C731.694 499.061 732.117 498.162 732.71 497.38C736.587 490.999 741.217 485.106 746.5 479.83C755.081 471.2 765.289 464.359 776.532 459.702C787.775 455.045 799.831 452.665 812 452.7C814 452.7 816 452.767 818 452.9C818.929 452.956 819.837 453.199 820.67 453.613C821.502 454.027 822.244 454.604 822.849 455.31C823.454 456.016 823.912 456.837 824.194 457.723C824.476 458.61 824.577 459.544 824.49 460.47ZM873.74 451.85C872.645 453.072 871.163 453.88 869.542 454.139C867.922 454.397 866.262 454.091 864.84 453.27C860.412 450.717 855.803 448.491 851.05 446.61C850.16 446.272 849.345 445.76 848.654 445.104C847.963 444.448 847.41 443.661 847.027 442.788C846.644 441.916 846.439 440.976 846.423 440.023C846.407 439.071 846.582 438.125 846.936 437.24C847.29 436.356 847.817 435.551 848.486 434.872C849.155 434.194 849.952 433.655 850.831 433.288C851.711 432.922 852.654 432.734 853.607 432.736C854.56 432.738 855.503 432.929 856.38 433.3C861.762 435.445 866.982 437.975 872 440.87C872.924 441.402 873.716 442.134 874.32 443.012C874.924 443.89 875.324 444.892 875.49 445.945C875.657 446.997 875.587 448.074 875.284 449.095C874.981 450.117 874.454 451.058 873.74 451.85ZM911.39 445.47L911.21 445.61C909.815 446.811 908.03 447.462 906.19 447.441C904.349 447.421 902.579 446.731 901.21 445.5C898.45 443.02 895.6 440.67 892.66 438.45C891.816 437.851 891.101 437.088 890.558 436.207C890.014 435.326 889.654 434.344 889.499 433.321C889.343 432.297 889.395 431.253 889.652 430.25C889.908 429.247 890.364 428.306 890.992 427.483C891.62 426.66 892.408 425.972 893.307 425.46C894.207 424.948 895.201 424.623 896.229 424.503C897.257 424.383 898.299 424.472 899.292 424.763C900.286 425.055 901.21 425.543 902.01 426.2C905.264 428.66 908.414 431.257 911.46 433.99C912.275 434.71 912.926 435.596 913.37 436.589C913.814 437.582 914.04 438.658 914.034 439.746C914.027 440.833 913.788 441.907 913.332 442.894C912.876 443.881 912.214 444.76 911.39 445.47Z"
    fill="white"/>
</svg>
