<svg viewBox="0 0 500 500" fill="none" xmlns="http://www.w3.org/2000/svg">
  <g clip-path="url(#clip0_453_267)">
    <path
      d="M383.35 436.52C367.24 448.075 349.696 457.487 331.16 464.52C329.849 464.971 328.641 465.681 327.609 466.608C326.578 467.535 325.742 468.659 325.153 469.915C324.564 471.17 324.233 472.531 324.18 473.917C324.126 475.303 324.352 476.685 324.842 477.983C325.333 479.28 326.08 480.465 327.037 481.468C327.995 482.472 329.144 483.272 330.416 483.823C331.689 484.374 333.06 484.664 334.446 484.676C335.833 484.687 337.208 484.42 338.49 483.89C358.707 476.233 377.841 465.977 395.41 453.38C396.515 452.588 397.453 451.586 398.171 450.432C398.889 449.277 399.373 447.993 399.594 446.651C399.816 445.31 399.771 443.938 399.462 442.614C399.153 441.29 398.587 440.04 397.795 438.935C397.003 437.83 396.001 436.892 394.847 436.174C393.692 435.456 392.408 434.972 391.066 434.751C389.725 434.529 388.353 434.574 387.029 434.883C385.705 435.192 384.455 435.758 383.35 436.55V436.52Z"
      fill="white"/>
    <path
      d="M158.73 288.88C158.201 287.627 157.431 286.491 156.464 285.536C155.496 284.58 154.349 283.825 153.09 283.313C151.83 282.801 150.482 282.542 149.122 282.551C147.762 282.56 146.418 282.836 145.165 283.365C143.912 283.894 142.776 284.664 141.821 285.631C140.865 286.599 140.11 287.746 139.598 289.005C139.086 290.265 138.827 291.613 138.836 292.973C138.845 294.333 139.121 295.677 139.65 296.93C145.991 311.879 155.26 325.408 166.911 336.719C178.562 348.03 192.359 356.895 207.49 362.79C208.766 363.32 210.136 363.588 211.517 363.581C212.899 363.573 214.265 363.289 215.536 362.746C216.806 362.202 217.955 361.41 218.914 360.416C219.874 359.422 220.625 358.246 221.123 356.957C221.622 355.668 221.857 354.293 221.816 352.912C221.775 351.531 221.458 350.172 220.883 348.915C220.309 347.658 219.489 346.529 218.472 345.594C217.455 344.659 216.261 343.937 214.96 343.47C202.418 338.585 190.981 331.238 181.324 321.862C171.666 312.487 163.984 301.272 158.73 288.88Z"
      fill="white"/>
    <path
      d="M249.74 479.27C217.433 479.313 185.488 472.475 156.03 459.21C153.537 458.158 150.732 458.123 148.214 459.112C145.696 460.101 143.664 462.036 142.554 464.504C141.444 466.971 141.343 469.775 142.273 472.315C143.203 474.856 145.089 476.932 147.53 478.1C179.735 492.608 214.668 500.071 249.99 499.99C251.431 499.988 252.855 499.686 254.172 499.102C255.489 498.518 256.67 497.665 257.638 496.599C258.607 495.532 259.342 494.275 259.797 492.908C260.252 491.541 260.416 490.094 260.28 488.66C259.83 483.48 254.94 479.28 249.74 479.27Z"
      fill="white"/>
    <path
      d="M294.22 495.91C299.936 495.91 304.57 491.276 304.57 485.56C304.57 479.844 299.936 475.21 294.22 475.21C288.504 475.21 283.87 479.844 283.87 485.56C283.87 491.276 288.504 495.91 294.22 495.91Z"
      fill="white"/>
    <path
      d="M263.28 349.32C258.919 349.884 254.527 350.172 250.13 350.18C247.576 350.17 245.106 351.09 243.181 352.768C241.256 354.446 240.008 356.768 239.67 359.3C239.496 360.754 239.632 362.229 240.07 363.626C240.508 365.024 241.237 366.313 242.209 367.408C243.182 368.503 244.375 369.38 245.711 369.98C247.047 370.58 248.495 370.89 249.96 370.89C255.331 370.891 260.697 370.531 266.02 369.81C268.679 369.381 271.066 367.93 272.672 365.768C274.279 363.606 274.978 360.902 274.621 358.232C274.264 355.562 272.879 353.136 270.761 351.472C268.643 349.808 265.959 349.035 263.28 349.32Z"
      fill="white"/>
    <path
      d="M321.37 430.86C320.311 428.546 318.436 426.704 316.104 425.687C313.771 424.671 311.146 424.55 308.73 425.35C278.526 435.42 246.242 437.569 214.97 431.59C212.271 431.073 209.478 431.649 207.204 433.191C204.93 434.734 203.362 437.116 202.845 439.815C202.328 442.514 202.904 445.307 204.446 447.581C205.989 449.855 208.371 451.423 211.07 451.94C245.827 458.593 281.711 456.203 315.28 445C316.657 444.538 317.922 443.791 318.992 442.808C320.062 441.824 320.913 440.627 321.489 439.293C322.065 437.959 322.354 436.519 322.337 435.066C322.32 433.613 321.997 432.18 321.39 430.86H321.37Z"
      fill="white"/>
    <path
      d="M480.33 152.68C464.678 115.661 440.334 82.9604 409.36 57.3484C378.386 31.7365 341.694 13.9679 302.395 5.54826C263.095 -2.87139 222.344 -1.69404 183.596 8.98056C144.848 19.6552 109.244 39.5125 79.7999 66.87C77.8091 68.6976 76.5955 71.2195 76.4094 73.9155C76.2234 76.6116 77.079 79.2763 78.7999 81.36C79.7072 82.4336 80.8234 83.3114 82.0806 83.9399C83.3379 84.5684 84.7099 84.9345 86.1131 85.0159C87.5164 85.0973 88.9215 84.8922 90.243 84.4133C91.5645 83.9344 92.7747 83.1916 93.7999 82.23C106.342 70.5345 120.155 60.2806 134.98 51.66C136.348 50.8653 137.902 50.4454 139.484 50.4427C141.067 50.44 142.622 50.8545 143.993 51.6445C145.364 52.4345 146.503 53.5721 147.294 54.9424C148.085 56.3128 148.501 57.8676 148.5 59.45C149.557 62.056 149.651 64.9535 148.763 67.6221C147.876 70.2907 146.067 72.5556 143.66 74.01C139.287 76.6767 135.003 79.5 130.81 82.48C96.7834 106.635 70.9417 140.602 56.7399 179.84C56.2757 181.118 56.0677 182.474 56.1278 183.833C56.1879 185.191 56.5149 186.524 57.0902 187.756C57.6654 188.987 58.4777 190.094 59.4805 191.012C60.4834 191.929 61.6572 192.641 62.9349 193.105C64.2127 193.569 65.5694 193.777 66.9275 193.717C68.2857 193.657 69.6187 193.33 70.8505 192.755C72.0822 192.18 73.1886 191.367 74.1065 190.364C75.0244 189.362 75.7357 188.188 76.1999 186.91C80.3945 175.34 85.7344 164.218 92.1399 153.71C93.6457 151.243 96.0331 149.44 98.8184 148.668C101.604 147.895 104.579 148.211 107.14 149.55C108.435 150.274 109.57 151.252 110.478 152.426C111.385 153.6 112.045 154.946 112.419 156.382C112.793 157.818 112.872 159.314 112.652 160.782C112.432 162.249 111.918 163.657 111.14 164.92C93.012 194.542 84.8153 229.178 87.7436 263.784C90.6718 298.389 104.572 331.155 127.42 357.31C129.274 359.411 130.257 362.14 130.168 364.94C130.079 367.741 128.924 370.402 126.94 372.38L126.88 372.43C125.81 373.493 124.534 374.325 123.129 374.874C121.724 375.423 120.222 375.677 118.715 375.621C117.208 375.565 115.728 375.199 114.368 374.547C113.008 373.895 111.797 372.97 110.81 371.83C87.6879 345.436 72.5856 312.986 67.2799 278.3C67.1097 276.924 66.665 275.597 65.9724 274.396C65.2797 273.195 64.3531 272.145 63.2474 271.309C62.1417 270.473 60.8794 269.867 59.5354 269.528C58.1913 269.188 56.7928 269.122 55.4227 269.333C54.0525 269.544 52.7387 270.027 51.5588 270.755C50.379 271.483 49.3573 272.44 48.5542 273.57C47.751 274.7 47.1828 275.98 46.8832 277.333C46.5836 278.687 46.5587 280.087 46.8099 281.45C49.3367 297.885 53.8601 313.951 60.2799 329.29C60.8881 330.731 61.2051 332.277 61.2128 333.841C61.2204 335.404 60.9186 336.954 60.3246 338.4C59.7306 339.847 58.8562 341.161 57.7518 342.268C56.6475 343.375 55.335 344.253 53.8899 344.85H53.8099C50.9334 346.03 47.7075 346.027 44.8332 344.842C41.9589 343.656 39.6686 341.385 38.4599 338.52C24.7268 305.607 18.8424 269.949 21.2723 234.368C23.7022 198.788 34.3797 164.261 52.4599 133.52C53.7696 131.16 54.1067 128.383 53.3995 125.778C52.6923 123.174 50.9967 120.948 48.6734 119.574C46.3502 118.201 43.5827 117.788 40.9599 118.425C38.3371 119.061 36.066 120.695 34.6299 122.98C13.5113 158.847 1.66638 199.412 0.166551 241.007C-1.33327 282.603 7.55927 323.916 26.0399 361.21C42.7016 394.547 66.5389 423.78 95.8399 446.81C96.996 447.718 98.3324 448.37 99.7601 448.722C101.188 449.073 102.674 449.117 104.12 448.849C105.565 448.581 106.937 448.008 108.144 447.169C109.352 446.329 110.366 445.242 111.12 443.98C112.402 441.764 112.833 439.157 112.332 436.647C111.832 434.137 110.434 431.894 108.4 430.34C97.2076 421.53 86.8597 411.698 77.4899 400.97C73.2699 396.15 73.4899 388.51 78.2099 384.21C79.3747 383.151 80.7396 382.335 82.2244 381.81C83.7091 381.286 85.2837 381.064 86.8555 381.157C88.4274 381.25 89.9647 381.657 91.3771 382.353C92.7895 383.049 94.0485 384.02 95.0799 385.21C113.607 406.395 136.258 423.582 161.65 435.72C163.036 436.383 164.554 436.724 166.09 436.72C168.284 436.724 170.422 436.03 172.196 434.74C173.97 433.449 175.288 431.628 175.96 429.54C176.711 427.111 176.555 424.492 175.522 422.17C174.488 419.847 172.647 417.978 170.34 416.91C165.38 414.537 160.56 411.967 155.88 409.2C149.98 405.71 148.27 398.2 152.46 392.82C154.103 390.7 156.465 389.253 159.1 388.752C161.736 388.251 164.463 388.731 166.77 390.1C191.936 405.088 220.699 412.964 249.99 412.89C256.285 412.888 262.576 412.527 268.83 411.81C270.183 411.654 271.491 411.234 272.681 410.573C273.871 409.911 274.92 409.022 275.766 407.955C276.612 406.889 277.241 405.666 277.614 404.357C277.988 403.048 278.101 401.678 277.945 400.325C277.789 398.972 277.369 397.664 276.707 396.474C276.046 395.283 275.157 394.235 274.09 393.389C273.024 392.542 271.801 391.914 270.492 391.541C269.183 391.167 267.813 391.054 266.46 391.21C260.994 391.86 255.495 392.194 249.99 392.21C213.291 392.21 178.012 378.022 151.532 352.612C125.053 327.202 109.422 292.538 107.91 255.87C107.701 250.707 107.768 245.536 108.11 240.38C108.246 238.076 109.048 235.862 110.418 234.005C111.789 232.148 113.669 230.729 115.83 229.92C117.41 229.29 119.125 229.074 120.812 229.292C122.499 229.509 124.102 230.154 125.471 231.164C126.839 232.174 127.927 233.516 128.632 235.064C129.338 236.612 129.636 238.315 129.5 240.01C129.227 243.217 129.09 246.463 129.09 249.75C129.117 252.358 130.092 254.868 131.832 256.811C133.573 258.753 135.96 259.997 138.55 260.31C139.98 260.433 141.42 260.258 142.779 259.796C144.138 259.333 145.385 258.593 146.443 257.623C147.501 256.652 148.346 255.473 148.923 254.159C149.501 252.845 149.8 251.425 149.8 249.99C149.81 236.153 152.686 222.468 158.246 209.798C163.807 197.128 171.932 185.747 182.109 176.372C192.286 166.997 204.294 159.832 217.378 155.328C230.461 150.824 244.335 149.079 258.126 150.202C271.917 151.326 285.326 155.294 297.508 161.857C309.69 168.419 320.38 177.434 328.905 188.333C337.43 199.231 343.605 211.777 347.041 225.181C350.478 238.584 351.1 252.554 348.87 266.21C348.421 268.794 348.949 271.452 350.349 273.67C351.75 275.887 353.924 277.505 356.45 278.21C357.295 278.432 358.166 278.542 359.04 278.54C361.486 278.548 363.856 277.689 365.73 276.117C367.605 274.545 368.862 272.36 369.28 269.95C370.375 263.34 370.923 256.65 370.92 249.95C370.925 239.263 369.509 228.624 366.71 218.31C366.042 215.901 366.246 213.334 367.285 211.06C368.324 208.786 370.132 206.952 372.39 205.88L372.57 205.8C373.971 205.144 375.499 204.803 377.046 204.801C378.593 204.799 380.122 205.137 381.525 205.79C382.927 206.443 384.17 207.396 385.164 208.581C386.158 209.766 386.881 211.155 387.28 212.65C390.551 224.78 392.212 237.287 392.22 249.85C392.271 252.419 393.24 254.885 394.951 256.801C396.663 258.718 399.003 259.959 401.55 260.3C402.989 260.442 404.443 260.282 405.816 259.829C407.19 259.375 408.454 258.639 409.526 257.668C410.598 256.697 411.454 255.512 412.041 254.189C412.627 252.867 412.93 251.437 412.93 249.99C412.931 240.582 412.125 231.191 410.52 221.92C410.051 219.238 410.632 216.478 412.145 214.214C413.657 211.949 415.983 210.354 418.64 209.76L419.49 209.58C420.89 209.271 422.338 209.251 423.746 209.519C425.155 209.787 426.494 210.338 427.683 211.14C428.871 211.941 429.885 212.976 430.661 214.181C431.438 215.386 431.961 216.736 432.2 218.15C434.022 228.665 434.936 239.318 434.93 249.99C434.92 256.745 434.546 263.495 433.81 270.21C433.502 272.824 434.185 275.459 435.723 277.595C437.261 279.731 439.543 281.213 442.12 281.75C443.522 282.023 444.965 282.002 446.358 281.689C447.752 281.377 449.065 280.779 450.216 279.933C451.367 279.087 452.33 278.013 453.045 276.776C453.76 275.54 454.211 274.169 454.37 272.75C455.199 265.222 455.613 257.654 455.61 250.08C455.61 246.88 455.54 243.7 455.39 240.52C455.25 237.737 456.207 235.009 458.057 232.924C459.906 230.839 462.5 229.563 465.28 229.37L467.79 229.21C469.191 229.122 470.596 229.314 471.922 229.775C473.248 230.235 474.469 230.955 475.515 231.892C476.56 232.83 477.408 233.966 478.01 235.234C478.612 236.502 478.955 237.878 479.02 239.28C479.18 242.84 479.27 246.41 479.27 249.99C479.287 266.121 477.611 282.209 474.27 297.99C473.728 300.614 474.186 303.347 475.556 305.65C476.925 307.954 479.106 309.662 481.67 310.44C483.025 310.808 484.441 310.895 485.831 310.696C487.221 310.497 488.556 310.016 489.753 309.283C490.951 308.55 491.986 307.58 492.795 306.432C493.605 305.285 494.171 303.984 494.46 302.61C498.153 285.32 500.013 267.69 500.01 250.01C500.067 216.573 493.373 183.468 480.33 152.68ZM201.92 25.78C242.338 17.1681 284.328 19.5859 323.49 32.78C326.443 33.8032 328.872 35.9525 330.247 38.7591C331.621 41.5658 331.831 44.8022 330.829 47.7626C329.827 50.7231 327.696 53.1673 324.899 54.5624C322.102 55.9575 318.868 56.1903 315.9 55.21C279.633 43.012 240.695 41.1047 203.41 49.7C197.92 50.97 193.41 47.42 193.41 41.78C192.762 40.1786 192.472 38.4545 192.562 36.7291C192.652 35.0037 193.119 33.319 193.93 31.7937C194.742 30.2683 195.877 28.9393 197.258 27.9003C198.638 26.8613 200.23 26.1376 201.92 25.78ZM269.19 119.72C268.93 122.48 267.605 125.03 265.495 126.829C263.385 128.627 260.656 129.531 257.89 129.35C255.28 129.18 252.64 129.09 249.99 129.09C229.187 129.099 208.738 134.475 190.62 144.696C172.502 154.918 157.326 169.64 146.56 187.44C145.878 188.72 144.943 189.848 143.811 190.754C142.679 191.661 141.375 192.328 139.977 192.715C138.579 193.102 137.118 193.2 135.681 193.004C134.244 192.808 132.862 192.322 131.619 191.574C130.376 190.827 129.298 189.835 128.451 188.658C127.603 187.481 127.004 186.144 126.69 184.728C126.376 183.313 126.353 181.848 126.623 180.423C126.893 178.998 127.45 177.643 128.26 176.44C134.211 166.623 141.322 157.558 149.44 149.44C162.615 136.197 178.286 125.699 195.545 118.551C212.804 111.404 231.309 107.75 249.99 107.8C253.09 107.8 256.177 107.897 259.25 108.09C260.674 108.18 262.065 108.555 263.341 109.193C264.617 109.831 265.753 110.718 266.68 111.803C267.607 112.887 268.306 114.147 268.738 115.507C269.169 116.867 269.323 118.3 269.19 119.72ZM344.82 106.49C343.135 108.366 340.857 109.607 338.366 110.004C335.876 110.401 333.325 109.93 331.14 108.67C324.342 104.749 317.266 101.33 309.97 98.44C308.628 97.9029 307.406 97.1069 306.372 96.0973C305.338 95.0877 304.514 93.8844 303.945 92.5561C303.376 91.2277 303.074 89.8004 303.057 88.3555C303.04 86.9106 303.308 85.4765 303.845 84.135C304.382 82.7936 305.178 81.5711 306.188 80.5373C307.197 79.5035 308.401 78.6786 309.729 78.1099C311.057 77.5411 312.485 77.2396 313.93 77.2224C315.374 77.2053 316.808 77.4729 318.15 78.01C326.438 81.2941 334.476 85.1777 342.2 89.63C343.611 90.4547 344.82 91.5833 345.74 92.9337C346.659 94.2842 347.267 95.8226 347.518 97.4372C347.769 99.0518 347.657 100.702 347.19 102.268C346.723 103.834 345.914 105.276 344.82 106.49ZM402.63 96.68L402.36 96.91C400.22 98.733 397.492 99.7192 394.681 99.6861C391.87 99.653 389.166 98.6029 387.07 96.73C382.83 92.9434 378.453 89.3367 373.94 85.91C372.662 84.9846 371.581 83.8127 370.763 82.4634C369.944 81.1141 369.404 79.6146 369.173 78.0533C368.943 76.492 369.028 74.9004 369.422 73.3722C369.816 71.844 370.512 70.4101 371.469 69.1551C372.426 67.9 373.624 66.849 374.993 66.0641C376.362 65.2792 377.875 64.7762 379.441 64.5847C381.008 64.3932 382.597 64.5171 384.115 64.9491C385.633 65.381 387.049 66.1124 388.28 67.1C393.273 70.88 398.11 74.88 402.79 79.1C404.033 80.2077 405.025 81.5682 405.699 83.0905C406.373 84.6127 406.714 86.2615 406.699 87.9263C406.684 89.5911 406.313 91.2334 405.611 92.7432C404.909 94.2529 403.893 95.5952 402.63 96.68Z"
      fill="white"/>
  </g>
  <defs>
    <clipPath id="clip0_453_267">
      <rect width="499.98" height="499.98" fill="white"/>
    </clipPath>
  </defs>
</svg>
