<svg width="160" height="100" viewBox="0 0 160 100" fill="none" xmlns="http://www.w3.org/2000/svg">
<circle cx="5" cy="5" r="5" fill="#A4F4E3"/>
<circle cx="35" cy="5" r="5" fill="#A4F4E3"/>
<circle cx="65" cy="5" r="5" fill="#A4F4E3"/>
<circle cx="95" cy="5" r="5" fill="#A4F4E3"/>
<circle cx="125" cy="5" r="5" fill="#A4F4E3"/>
<circle cx="155" cy="5" r="5" fill="#A4F4E3"/>
<circle cx="5" cy="35" r="5" fill="#A4F4E3"/>
<circle cx="35" cy="35" r="5" fill="#A4F4E3"/>
<circle cx="65" cy="35" r="5" fill="#A4F4E3"/>
<circle cx="95" cy="35" r="5" fill="#A4F4E3"/>
<circle cx="125" cy="35" r="5" fill="#A4F4E3"/>
<circle cx="155" cy="35" r="5" fill="#A4F4E3"/>
<circle cx="5" cy="65" r="5" fill="#A4F4E3"/>
<circle cx="35" cy="65" r="5" fill="#A4F4E3"/>
<circle cx="65" cy="65" r="5" fill="#A4F4E3"/>
<circle cx="95" cy="65" r="5" fill="#A4F4E3"/>
<circle cx="125" cy="65" r="5" fill="#A4F4E3"/>
<circle cx="155" cy="65" r="5" fill="#A4F4E3"/>
<circle cx="5" cy="95" r="5" fill="#A4F4E3"/>
<circle cx="35" cy="95" r="5" fill="#A4F4E3"/>
<circle cx="65" cy="95" r="5" fill="#A4F4E3"/>
<circle cx="95" cy="95" r="5" fill="#A4F4E3"/>
<circle cx="125" cy="95" r="5" fill="#A4F4E3"/>
<circle cx="155" cy="95" r="5" fill="#A4F4E3"/>
</svg>
